<svg xmlns="http://www.w3.org/2000/svg" viewBox="-75 -75 602.99 640.17">
  <defs>
    <style>
          .cls-1,
          .cls-2 {
            fill: none;
            stroke-linecap: round;
            stroke-miterlimit: 10;
          }
          .cls-1 {
            stroke: #fcee21;
          }
          .cls-2 {
            stroke: #f0f;
          }
          path {
            fill: none;
            stroke-linecap: round;
          }
          .spread g:nth-child(2) {
            stroke-width: 10px;
            filter: blur(10px);
          }
          .spread g:nth-child(1) {
            stroke-width: 30px;
            filter: blur(30px);
          }
          .spread g:nth-child(3) {
            stroke-width: 15px;
            filter: blur(5px);
            opacity: 0.2;
          }
          .spread g:nth-child(4) {
            stroke-width: 15px;
            filter: brightness(2);
          }
          .spread .red {
            stroke: #f33;
          }
          .spread .green {
            stroke: #3f3;
          }
          .light g * {
            opacity: 0.8;
          }
          .light g:nth-child(1) {
            stroke-width: 7px;
            filter: blur(3px);
          }
          .light g:nth-child(2) {
            stroke-width: 10px;
          }
          .light g * {
            stroke: #fff;
          }
        </style>
  </defs>
  <title></title>
  <g id="Lager_2" data-name="Lager 2">
    <g class="spread">
      <g>
        <path
              class="cls-1"
              d="M91.56,391.09A216.12,216.12,0,0,1,13.91,189.17"
            />
        <path
              class="cls-1"
              d="M429.27,149.42a215.54,215.54,0,0,1,12.47,72.47c0,92-57.54,170.48-138.58,201.53"
            />
        <path
              class="cls-1"
              d="M133.29,30.54a216.38,216.38,0,0,1,174.6-1.77"
            />
        <path
              class="cls-2"
              d="M384.16,100.92c0-5.48-.05-15.07-.07-23.57A14.21,14.21,0,0,0,370,63.18C239.84,62,148.83,69.93,82.82,58.5A14.21,14.21,0,0,0,66.18,73.44c3,45.59,3.7,60.36,3.76,111.2a14.23,14.23,0,0,0,14.25,14.22l37.5-.13a14.21,14.21,0,0,0,14-11.84l.06-.34a14.18,14.18,0,0,1,13.75-11.83c17.25-.29,49.85-.34,74.6-.37A14.22,14.22,0,0,1,234.68,198C-12.67,477.78,255.4,550.72,272.56,407.18a14.7,14.7,0,0,0,0-3.18c-21.51-209.28,76.3-175.91,111.05-299.12A14.32,14.32,0,0,0,384.16,100.92Z"
            />
      </g>
      <g>
        <path
              class="cls-1"
              d="M91.56,391.09A216.12,216.12,0,0,1,13.91,189.17"
            />
        <path
              class="cls-1"
              d="M429.27,149.42a215.54,215.54,0,0,1,12.47,72.47c0,92-57.54,170.48-138.58,201.53"
            />
        <path
              class="cls-1"
              d="M133.29,30.54a216.38,216.38,0,0,1,174.6-1.77"
            />
        <path
              class="cls-2"
              d="M384.16,100.92c0-5.48-.05-15.07-.07-23.57A14.21,14.21,0,0,0,370,63.18C239.84,62,148.83,69.93,82.82,58.5A14.21,14.21,0,0,0,66.18,73.44c3,45.59,3.7,60.36,3.76,111.2a14.23,14.23,0,0,0,14.25,14.22l37.5-.13a14.21,14.21,0,0,0,14-11.84l.06-.34a14.18,14.18,0,0,1,13.75-11.83c17.25-.29,49.85-.34,74.6-.37A14.22,14.22,0,0,1,234.68,198C-12.67,477.78,255.4,550.72,272.56,407.18a14.7,14.7,0,0,0,0-3.18c-21.51-209.28,76.3-175.91,111.05-299.12A14.32,14.32,0,0,0,384.16,100.92Z"
            />
      </g>
      <g>
        <path
              class="cls-1"
              d="M91.56,391.09A216.12,216.12,0,0,1,13.91,189.17"
            />
        <path
              class="cls-1"
              d="M429.27,149.42a215.54,215.54,0,0,1,12.47,72.47c0,92-57.54,170.48-138.58,201.53"
            />
        <path
              class="cls-1"
              d="M133.29,30.54a216.38,216.38,0,0,1,174.6-1.77"
            />
        <path
              class="cls-2"
              d="M384.16,100.92c0-5.48-.05-15.07-.07-23.57A14.21,14.21,0,0,0,370,63.18C239.84,62,148.83,69.93,82.82,58.5A14.21,14.21,0,0,0,66.18,73.44c3,45.59,3.7,60.36,3.76,111.2a14.23,14.23,0,0,0,14.25,14.22l37.5-.13a14.21,14.21,0,0,0,14-11.84l.06-.34a14.18,14.18,0,0,1,13.75-11.83c17.25-.29,49.85-.34,74.6-.37A14.22,14.22,0,0,1,234.68,198C-12.67,477.78,255.4,550.72,272.56,407.18a14.7,14.7,0,0,0,0-3.18c-21.51-209.28,76.3-175.91,111.05-299.12A14.32,14.32,0,0,0,384.16,100.92Z"
            />
      </g>
      <g>
        <path
              class="cls-1"
              d="M91.56,391.09A216.12,216.12,0,0,1,13.91,189.17"
            />
        <path
              class="cls-1"
              d="M429.27,149.42a215.54,215.54,0,0,1,12.47,72.47c0,92-57.54,170.48-138.58,201.53"
            />
        <path
              class="cls-1"
              d="M133.29,30.54a216.38,216.38,0,0,1,174.6-1.77"
            />
        <path
              class="cls-2"
              d="M384.16,100.92c0-5.48-.05-15.07-.07-23.57A14.21,14.21,0,0,0,370,63.18C239.84,62,148.83,69.93,82.82,58.5A14.21,14.21,0,0,0,66.18,73.44c3,45.59,3.7,60.36,3.76,111.2a14.23,14.23,0,0,0,14.25,14.22l37.5-.13a14.21,14.21,0,0,0,14-11.84l.06-.34a14.18,14.18,0,0,1,13.75-11.83c17.25-.29,49.85-.34,74.6-.37A14.22,14.22,0,0,1,234.68,198C-12.67,477.78,255.4,550.72,272.56,407.18a14.7,14.7,0,0,0,0-3.18c-21.51-209.28,76.3-175.91,111.05-299.12A14.32,14.32,0,0,0,384.16,100.92Z"
            />
      </g>
    </g>
    <g class="light">
      <g>
        <path
              class="cls-1"
              d="M91.56,391.09A216.12,216.12,0,0,1,13.91,189.17"
            />
        <path
              class="cls-1"
              d="M429.27,149.42a215.54,215.54,0,0,1,12.47,72.47c0,92-57.54,170.48-138.58,201.53"
            />
        <path
              class="cls-1"
              d="M133.29,30.54a216.38,216.38,0,0,1,174.6-1.77"
            />
        <path
              class="cls-2"
              d="M384.16,100.92c0-5.48-.05-15.07-.07-23.57A14.21,14.21,0,0,0,370,63.18C239.84,62,148.83,69.93,82.82,58.5A14.21,14.21,0,0,0,66.18,73.44c3,45.59,3.7,60.36,3.76,111.2a14.23,14.23,0,0,0,14.25,14.22l37.5-.13a14.21,14.21,0,0,0,14-11.84l.06-.34a14.18,14.18,0,0,1,13.75-11.83c17.25-.29,49.85-.34,74.6-.37A14.22,14.22,0,0,1,234.68,198C-12.67,477.78,255.4,550.72,272.56,407.18a14.7,14.7,0,0,0,0-3.18c-21.51-209.28,76.3-175.91,111.05-299.12A14.32,14.32,0,0,0,384.16,100.92Z"
            />
      </g>
      <g>
        <path
              class="cls-1"
              d="M91.56,391.09A216.12,216.12,0,0,1,13.91,189.17"
            />
        <path
              class="cls-1"
              d="M429.27,149.42a215.54,215.54,0,0,1,12.47,72.47c0,92-57.54,170.48-138.58,201.53"
            />
        <path
              class="cls-1"
              d="M133.29,30.54a216.38,216.38,0,0,1,174.6-1.77"
            />
        <path
              class="cls-2"
              d="M384.16,100.92c0-5.48-.05-15.07-.07-23.57A14.21,14.21,0,0,0,370,63.18C239.84,62,148.83,69.93,82.82,58.5A14.21,14.21,0,0,0,66.18,73.44c3,45.59,3.7,60.36,3.76,111.2a14.23,14.23,0,0,0,14.25,14.22l37.5-.13a14.21,14.21,0,0,0,14-11.84l.06-.34a14.18,14.18,0,0,1,13.75-11.83c17.25-.29,49.85-.34,74.6-.37A14.22,14.22,0,0,1,234.68,198C-12.67,477.78,255.4,550.72,272.56,407.18a14.7,14.7,0,0,0,0-3.18c-21.51-209.28,76.3-175.91,111.05-299.12A14.32,14.32,0,0,0,384.16,100.92Z"
            />
      </g>
      <g>
        <path
              class="cls-1"
              d="M91.56,391.09A216.12,216.12,0,0,1,13.91,189.17"
            />
        <path
              class="cls-1"
              d="M429.27,149.42a215.54,215.54,0,0,1,12.47,72.47c0,92-57.54,170.48-138.58,201.53"
            />
        <path
              class="cls-1"
              d="M133.29,30.54a216.38,216.38,0,0,1,174.6-1.77"
            />
        <path
              class="cls-2"
              d="M384.16,100.92c0-5.48-.05-15.07-.07-23.57A14.21,14.21,0,0,0,370,63.18C239.84,62,148.83,69.93,82.82,58.5A14.21,14.21,0,0,0,66.18,73.44c3,45.59,3.7,60.36,3.76,111.2a14.23,14.23,0,0,0,14.25,14.22l37.5-.13a14.21,14.21,0,0,0,14-11.84l.06-.34a14.18,14.18,0,0,1,13.75-11.83c17.25-.29,49.85-.34,74.6-.37A14.22,14.22,0,0,1,234.68,198C-12.67,477.78,255.4,550.72,272.56,407.18a14.7,14.7,0,0,0,0-3.18c-21.51-209.28,76.3-175.91,111.05-299.12A14.32,14.32,0,0,0,384.16,100.92Z"
            />
      </g>
      <g>
        <path
              class="cls-1"
              d="M91.56,391.09A216.12,216.12,0,0,1,13.91,189.17"
            />
        <path
              class="cls-1"
              d="M429.27,149.42a215.54,215.54,0,0,1,12.47,72.47c0,92-57.54,170.48-138.58,201.53"
            />
        <path
              class="cls-1"
              d="M133.29,30.54a216.38,216.38,0,0,1,174.6-1.77"
            />
        <path
              class="cls-2"
              d="M384.16,100.92c0-5.48-.05-15.07-.07-23.57A14.21,14.21,0,0,0,370,63.18C239.84,62,148.83,69.93,82.82,58.5A14.21,14.21,0,0,0,66.18,73.44c3,45.59,3.7,60.36,3.76,111.2a14.23,14.23,0,0,0,14.25,14.22l37.5-.13a14.21,14.21,0,0,0,14-11.84l.06-.34a14.18,14.18,0,0,1,13.75-11.83c17.25-.29,49.85-.34,74.6-.37A14.22,14.22,0,0,1,234.68,198C-12.67,477.78,255.4,550.72,272.56,407.18a14.7,14.7,0,0,0,0-3.18c-21.51-209.28,76.3-175.91,111.05-299.12A14.32,14.32,0,0,0,384.16,100.92Z"
            />
      </g>
    </g>
  </g>
</svg>
