<svg xmlns="http://www.w3.org/2000/svg" viewBox="-75 -75 729.8 731.13">
    <defs>
        <style>
          .cls-1,
          .cls-2 {
            fill: none;
            stroke-linecap: round;
            stroke-linejoin: round;
          }
          .cls-1 {
            stroke: #f7931e;
          }
          .cls-2 {
            stroke: #f1e178;
          }
          path {
            fill: none;
            stroke-linecap: round;
          }
          .spread g:nth-child(2) {
            stroke-width: 10px;
            filter: blur(10px);
          }
          .spread g:nth-child(1) {
            stroke-width: 30px;
            filter: blur(30px);
          }
          .spread g:nth-child(3) {
            stroke-width: 15px;
            filter: blur(5px);
            opacity: 0.2;
          }
          .spread g:nth-child(4) {
            stroke-width: 15px;
            filter: brightness(2);
          }
          .spread .red {
            stroke: #f33;
          }
          .spread .green {
            stroke: #3f3;
          }
          .light g * {
            opacity: 0.8;
          }
          .light g:nth-child(1) {
            stroke-width: 7px;
            filter: blur(3px);
          }
          .light g:nth-child(2) {
            stroke-width: 10px;
          }
          .light g * {
            stroke: #fff;
          }
        </style>
    </defs>
    <title>Resurs 54DD</title>
    <g class="spread">
        <g>
            <line class="cls-1" x1="482.53" y1="351.86" x2="568.55" y2="379.81" />
            <line class="cls-1" x1="482.53" y1="351.86" x2="568.55" y2="379.81" />
            <line class="cls-1" x1="482.53" y1="351.86" x2="568.55" y2="379.81" />
            <line class="cls-1" x1="482.53" y1="351.86" x2="568.55" y2="379.81" />
            <polygon
            class="cls-2"
            points="112.18 513.86 277.44 397.11 438.8 513.86 388.08 323.92 539.73 203.23 349.78 190.3 275.49 11.25 206.8 196.26 11.25 203.23 167.65 325.62 112.18 513.86"
          />
            <line class="cls-1" x1="439.47" y1="63.38" x2="386.09" y2="136.86" />
            <line class="cls-1" x1="115" y1="66.87" x2="166.05" y2="137.13" />
            <line class="cls-1" x1="277.44" y1="477.11" x2="277.44" y2="569.88" />
            <line class="cls-1" x1="96.5" y1="349.17" x2="11.25" y2="376.87" />
            <polygon
            class="cls-2"
            points="112.18 513.86 277.44 397.11 438.8 513.86 388.08 323.92 539.73 203.23 349.78 190.3 275.49 11.25 206.8 196.26 11.25 203.23 167.65 325.62 112.18 513.86"
          />
            <line class="cls-1" x1="439.47" y1="63.38" x2="386.09" y2="136.86" />
            <line class="cls-1" x1="115" y1="66.87" x2="166.05" y2="137.13" />
            <line class="cls-1" x1="277.44" y1="477.11" x2="277.44" y2="569.88" />
            <line class="cls-1" x1="96.5" y1="349.17" x2="11.25" y2="376.87" />
            <polygon
            class="cls-2"
            points="112.18 513.86 277.44 397.11 438.8 513.86 388.08 323.92 539.73 203.23 349.78 190.3 275.49 11.25 206.8 196.26 11.25 203.23 167.65 325.62 112.18 513.86"
          />
            <line class="cls-1" x1="439.47" y1="63.38" x2="386.09" y2="136.86" />
            <line class="cls-1" x1="115" y1="66.87" x2="166.05" y2="137.13" />
            <line class="cls-1" x1="277.44" y1="477.11" x2="277.44" y2="569.88" />
            <line class="cls-1" x1="96.5" y1="349.17" x2="11.25" y2="376.87" />
            <polygon
            class="cls-2"
            points="112.18 513.86 277.44 397.11 438.8 513.86 388.08 323.92 539.73 203.23 349.78 190.3 275.49 11.25 206.8 196.26 11.25 203.23 167.65 325.62 112.18 513.86"
          />
            <line class="cls-1" x1="439.47" y1="63.38" x2="386.09" y2="136.86" />
            <line class="cls-1" x1="115" y1="66.87" x2="166.05" y2="137.13" />
            <line class="cls-1" x1="277.44" y1="477.11" x2="277.44" y2="569.88" />
            <line class="cls-1" x1="96.5" y1="349.17" x2="11.25" y2="376.87" />
        </g>
        <g>
            <line class="cls-1" x1="482.53" y1="351.86" x2="568.55" y2="379.81" />
            <line class="cls-1" x1="482.53" y1="351.86" x2="568.55" y2="379.81" />
            <line class="cls-1" x1="482.53" y1="351.86" x2="568.55" y2="379.81" />
            <line class="cls-1" x1="482.53" y1="351.86" x2="568.55" y2="379.81" />
            <polygon
            class="cls-2"
            points="112.18 513.86 277.44 397.11 438.8 513.86 388.08 323.92 539.73 203.23 349.78 190.3 275.49 11.25 206.8 196.26 11.25 203.23 167.65 325.62 112.18 513.86"
          />
            <line class="cls-1" x1="439.47" y1="63.38" x2="386.09" y2="136.86" />
            <line class="cls-1" x1="115" y1="66.87" x2="166.05" y2="137.13" />
            <line class="cls-1" x1="277.44" y1="477.11" x2="277.44" y2="569.88" />
            <line class="cls-1" x1="96.5" y1="349.17" x2="11.25" y2="376.87" />
            <polygon
            class="cls-2"
            points="112.18 513.86 277.44 397.11 438.8 513.86 388.08 323.92 539.73 203.23 349.78 190.3 275.49 11.25 206.8 196.26 11.25 203.23 167.65 325.62 112.18 513.86"
          />
            <line class="cls-1" x1="439.47" y1="63.38" x2="386.09" y2="136.86" />
            <line class="cls-1" x1="115" y1="66.87" x2="166.05" y2="137.13" />
            <line class="cls-1" x1="277.44" y1="477.11" x2="277.44" y2="569.88" />
            <line class="cls-1" x1="96.5" y1="349.17" x2="11.25" y2="376.87" />
            <polygon
            class="cls-2"
            points="112.18 513.86 277.44 397.11 438.8 513.86 388.08 323.92 539.73 203.23 349.78 190.3 275.49 11.25 206.8 196.26 11.25 203.23 167.65 325.62 112.18 513.86"
          />
            <line class="cls-1" x1="439.47" y1="63.38" x2="386.09" y2="136.86" />
            <line class="cls-1" x1="115" y1="66.87" x2="166.05" y2="137.13" />
            <line class="cls-1" x1="277.44" y1="477.11" x2="277.44" y2="569.88" />
            <line class="cls-1" x1="96.5" y1="349.17" x2="11.25" y2="376.87" />
            <polygon
            class="cls-2"
            points="112.18 513.86 277.44 397.11 438.8 513.86 388.08 323.92 539.73 203.23 349.78 190.3 275.49 11.25 206.8 196.26 11.25 203.23 167.65 325.62 112.18 513.86"
          />
            <line class="cls-1" x1="439.47" y1="63.38" x2="386.09" y2="136.86" />
            <line class="cls-1" x1="115" y1="66.87" x2="166.05" y2="137.13" />
            <line class="cls-1" x1="277.44" y1="477.11" x2="277.44" y2="569.88" />
            <line class="cls-1" x1="96.5" y1="349.17" x2="11.25" y2="376.87" />
        </g>
        <g>
            <line class="cls-1" x1="482.53" y1="351.86" x2="568.55" y2="379.81" />
            <line class="cls-1" x1="482.53" y1="351.86" x2="568.55" y2="379.81" />
            <line class="cls-1" x1="482.53" y1="351.86" x2="568.55" y2="379.81" />
            <line class="cls-1" x1="482.53" y1="351.86" x2="568.55" y2="379.81" />
            <polygon
            class="cls-2"
            points="112.18 513.86 277.44 397.11 438.8 513.86 388.08 323.92 539.73 203.23 349.78 190.3 275.49 11.25 206.8 196.26 11.25 203.23 167.65 325.62 112.18 513.86"
          />
            <line class="cls-1" x1="439.47" y1="63.38" x2="386.09" y2="136.86" />
            <line class="cls-1" x1="115" y1="66.87" x2="166.05" y2="137.13" />
            <line class="cls-1" x1="277.44" y1="477.11" x2="277.44" y2="569.88" />
            <line class="cls-1" x1="96.5" y1="349.17" x2="11.25" y2="376.87" />
            <polygon
            class="cls-2"
            points="112.18 513.86 277.44 397.11 438.8 513.86 388.08 323.92 539.73 203.23 349.78 190.3 275.49 11.25 206.8 196.26 11.25 203.23 167.65 325.62 112.18 513.86"
          />
            <line class="cls-1" x1="439.47" y1="63.38" x2="386.09" y2="136.86" />
            <line class="cls-1" x1="115" y1="66.87" x2="166.05" y2="137.13" />
            <line class="cls-1" x1="277.44" y1="477.11" x2="277.44" y2="569.88" />
            <line class="cls-1" x1="96.5" y1="349.17" x2="11.25" y2="376.87" />
            <polygon
            class="cls-2"
            points="112.18 513.86 277.44 397.11 438.8 513.86 388.08 323.92 539.73 203.23 349.78 190.3 275.49 11.25 206.8 196.26 11.25 203.23 167.65 325.62 112.18 513.86"
          />
            <line class="cls-1" x1="439.47" y1="63.38" x2="386.09" y2="136.86" />
            <line class="cls-1" x1="115" y1="66.87" x2="166.05" y2="137.13" />
            <line class="cls-1" x1="277.44" y1="477.11" x2="277.44" y2="569.88" />
            <line class="cls-1" x1="96.5" y1="349.17" x2="11.25" y2="376.87" />
            <polygon
            class="cls-2"
            points="112.18 513.86 277.44 397.11 438.8 513.86 388.08 323.92 539.73 203.23 349.78 190.3 275.49 11.25 206.8 196.26 11.25 203.23 167.65 325.62 112.18 513.86"
          />
            <line class="cls-1" x1="439.47" y1="63.38" x2="386.09" y2="136.86" />
            <line class="cls-1" x1="115" y1="66.87" x2="166.05" y2="137.13" />
            <line class="cls-1" x1="277.44" y1="477.11" x2="277.44" y2="569.88" />
            <line class="cls-1" x1="96.5" y1="349.17" x2="11.25" y2="376.87" />
        </g>
        <g>
            <line class="cls-1" x1="482.53" y1="351.86" x2="568.55" y2="379.81" />
            <line class="cls-1" x1="482.53" y1="351.86" x2="568.55" y2="379.81" />
            <line class="cls-1" x1="482.53" y1="351.86" x2="568.55" y2="379.81" />
            <line class="cls-1" x1="482.53" y1="351.86" x2="568.55" y2="379.81" />
            <polygon
            class="cls-2"
            points="112.18 513.86 277.44 397.11 438.8 513.86 388.08 323.92 539.73 203.23 349.78 190.3 275.49 11.25 206.8 196.26 11.25 203.23 167.65 325.62 112.18 513.86"
          />
            <line class="cls-1" x1="439.47" y1="63.38" x2="386.09" y2="136.86" />
            <line class="cls-1" x1="115" y1="66.87" x2="166.05" y2="137.13" />
            <line class="cls-1" x1="277.44" y1="477.11" x2="277.44" y2="569.88" />
            <line class="cls-1" x1="96.5" y1="349.17" x2="11.25" y2="376.87" />
            <polygon
            class="cls-2"
            points="112.18 513.86 277.44 397.11 438.8 513.86 388.08 323.92 539.73 203.23 349.78 190.3 275.49 11.25 206.8 196.26 11.25 203.23 167.65 325.62 112.18 513.86"
          />
            <line class="cls-1" x1="439.47" y1="63.38" x2="386.09" y2="136.86" />
            <line class="cls-1" x1="115" y1="66.87" x2="166.05" y2="137.13" />
            <line class="cls-1" x1="277.44" y1="477.11" x2="277.44" y2="569.88" />
            <line class="cls-1" x1="96.5" y1="349.17" x2="11.25" y2="376.87" />
            <polygon
            class="cls-2"
            points="112.18 513.86 277.44 397.11 438.8 513.86 388.08 323.92 539.73 203.23 349.78 190.3 275.49 11.25 206.8 196.26 11.25 203.23 167.65 325.62 112.18 513.86"
          />
            <line class="cls-1" x1="439.47" y1="63.38" x2="386.09" y2="136.86" />
            <line class="cls-1" x1="115" y1="66.87" x2="166.05" y2="137.13" />
            <line class="cls-1" x1="277.44" y1="477.11" x2="277.44" y2="569.88" />
            <line class="cls-1" x1="96.5" y1="349.17" x2="11.25" y2="376.87" />
            <polygon
            class="cls-2"
            points="112.18 513.86 277.44 397.11 438.8 513.86 388.08 323.92 539.73 203.23 349.78 190.3 275.49 11.25 206.8 196.26 11.25 203.23 167.65 325.62 112.18 513.86"
          />
            <line class="cls-1" x1="439.47" y1="63.38" x2="386.09" y2="136.86" />
            <line class="cls-1" x1="115" y1="66.87" x2="166.05" y2="137.13" />
            <line class="cls-1" x1="277.44" y1="477.11" x2="277.44" y2="569.88" />
            <line class="cls-1" x1="96.5" y1="349.17" x2="11.25" y2="376.87" />
        </g>
    </g>
    <g class="light">
        <g>
            <line class="cls-1" x1="482.53" y1="351.86" x2="568.55" y2="379.81" />
            <line class="cls-1" x1="482.53" y1="351.86" x2="568.55" y2="379.81" />
            <line class="cls-1" x1="482.53" y1="351.86" x2="568.55" y2="379.81" />
            <line class="cls-1" x1="482.53" y1="351.86" x2="568.55" y2="379.81" />
            <polygon
            class="cls-2"
            points="112.18 513.86 277.44 397.11 438.8 513.86 388.08 323.92 539.73 203.23 349.78 190.3 275.49 11.25 206.8 196.26 11.25 203.23 167.65 325.62 112.18 513.86"
          />
            <line class="cls-1" x1="439.47" y1="63.38" x2="386.09" y2="136.86" />
            <line class="cls-1" x1="115" y1="66.87" x2="166.05" y2="137.13" />
            <line class="cls-1" x1="277.44" y1="477.11" x2="277.44" y2="569.88" />
            <line class="cls-1" x1="96.5" y1="349.17" x2="11.25" y2="376.87" />
            <polygon
            class="cls-2"
            points="112.18 513.86 277.44 397.11 438.8 513.86 388.08 323.92 539.73 203.23 349.78 190.3 275.49 11.25 206.8 196.26 11.25 203.23 167.65 325.62 112.18 513.86"
          />
            <line class="cls-1" x1="439.47" y1="63.38" x2="386.09" y2="136.86" />
            <line class="cls-1" x1="115" y1="66.87" x2="166.05" y2="137.13" />
            <line class="cls-1" x1="277.44" y1="477.11" x2="277.44" y2="569.88" />
            <line class="cls-1" x1="96.5" y1="349.17" x2="11.25" y2="376.87" />
            <polygon
            class="cls-2"
            points="112.18 513.86 277.44 397.11 438.8 513.86 388.08 323.92 539.73 203.23 349.78 190.3 275.49 11.25 206.8 196.26 11.25 203.23 167.65 325.62 112.18 513.86"
          />
            <line class="cls-1" x1="439.47" y1="63.38" x2="386.09" y2="136.86" />
            <line class="cls-1" x1="115" y1="66.87" x2="166.05" y2="137.13" />
            <line class="cls-1" x1="277.44" y1="477.11" x2="277.44" y2="569.88" />
            <line class="cls-1" x1="96.5" y1="349.17" x2="11.25" y2="376.87" />
            <polygon
            class="cls-2"
            points="112.18 513.86 277.44 397.11 438.8 513.86 388.08 323.92 539.73 203.23 349.78 190.3 275.49 11.25 206.8 196.26 11.25 203.23 167.65 325.62 112.18 513.86"
          />
            <line class="cls-1" x1="439.47" y1="63.38" x2="386.09" y2="136.86" />
            <line class="cls-1" x1="115" y1="66.87" x2="166.05" y2="137.13" />
            <line class="cls-1" x1="277.44" y1="477.11" x2="277.44" y2="569.88" />
            <line class="cls-1" x1="96.5" y1="349.17" x2="11.25" y2="376.87" />
        </g>
        <g>
            <line class="cls-1" x1="482.53" y1="351.86" x2="568.55" y2="379.81" />
            <line class="cls-1" x1="482.53" y1="351.86" x2="568.55" y2="379.81" />
            <line class="cls-1" x1="482.53" y1="351.86" x2="568.55" y2="379.81" />
            <line class="cls-1" x1="482.53" y1="351.86" x2="568.55" y2="379.81" />
            <polygon
            class="cls-2"
            points="112.18 513.86 277.44 397.11 438.8 513.86 388.08 323.92 539.73 203.23 349.78 190.3 275.49 11.25 206.8 196.26 11.25 203.23 167.65 325.62 112.18 513.86"
          />
            <line class="cls-1" x1="439.47" y1="63.38" x2="386.09" y2="136.86" />
            <line class="cls-1" x1="115" y1="66.87" x2="166.05" y2="137.13" />
            <line class="cls-1" x1="277.44" y1="477.11" x2="277.44" y2="569.88" />
            <line class="cls-1" x1="96.5" y1="349.17" x2="11.25" y2="376.87" />
            <polygon
            class="cls-2"
            points="112.18 513.86 277.44 397.11 438.8 513.86 388.08 323.92 539.73 203.23 349.78 190.3 275.49 11.25 206.8 196.26 11.25 203.23 167.65 325.62 112.18 513.86"
          />
            <line class="cls-1" x1="439.47" y1="63.38" x2="386.09" y2="136.86" />
            <line class="cls-1" x1="115" y1="66.87" x2="166.05" y2="137.13" />
            <line class="cls-1" x1="277.44" y1="477.11" x2="277.44" y2="569.88" />
            <line class="cls-1" x1="96.5" y1="349.17" x2="11.25" y2="376.87" />
            <polygon
            class="cls-2"
            points="112.18 513.86 277.44 397.11 438.8 513.86 388.08 323.92 539.73 203.23 349.78 190.3 275.49 11.25 206.8 196.26 11.25 203.23 167.65 325.62 112.18 513.86"
          />
            <line class="cls-1" x1="439.47" y1="63.38" x2="386.09" y2="136.86" />
            <line class="cls-1" x1="115" y1="66.87" x2="166.05" y2="137.13" />
            <line class="cls-1" x1="277.44" y1="477.11" x2="277.44" y2="569.88" />
            <line class="cls-1" x1="96.5" y1="349.17" x2="11.25" y2="376.87" />
            <polygon
            class="cls-2"
            points="112.18 513.86 277.44 397.11 438.8 513.86 388.08 323.92 539.73 203.23 349.78 190.3 275.49 11.25 206.8 196.26 11.25 203.23 167.65 325.62 112.18 513.86"
          />
            <line class="cls-1" x1="439.47" y1="63.38" x2="386.09" y2="136.86" />
            <line class="cls-1" x1="115" y1="66.87" x2="166.05" y2="137.13" />
            <line class="cls-1" x1="277.44" y1="477.11" x2="277.44" y2="569.88" />
            <line class="cls-1" x1="96.5" y1="349.17" x2="11.25" y2="376.87" />
        </g>
        <g>
            <line class="cls-1" x1="482.53" y1="351.86" x2="568.55" y2="379.81" />
            <line class="cls-1" x1="482.53" y1="351.86" x2="568.55" y2="379.81" />
            <line class="cls-1" x1="482.53" y1="351.86" x2="568.55" y2="379.81" />
            <line class="cls-1" x1="482.53" y1="351.86" x2="568.55" y2="379.81" />
            <polygon
            class="cls-2"
            points="112.18 513.86 277.44 397.11 438.8 513.86 388.08 323.92 539.73 203.23 349.78 190.3 275.49 11.25 206.8 196.26 11.25 203.23 167.65 325.62 112.18 513.86"
          />
            <line class="cls-1" x1="439.47" y1="63.38" x2="386.09" y2="136.86" />
            <line class="cls-1" x1="115" y1="66.87" x2="166.05" y2="137.13" />
            <line class="cls-1" x1="277.44" y1="477.11" x2="277.44" y2="569.88" />
            <line class="cls-1" x1="96.5" y1="349.17" x2="11.25" y2="376.87" />
            <polygon
            class="cls-2"
            points="112.18 513.86 277.44 397.11 438.8 513.86 388.08 323.92 539.73 203.23 349.78 190.3 275.49 11.25 206.8 196.26 11.25 203.23 167.65 325.62 112.18 513.86"
          />
            <line class="cls-1" x1="439.47" y1="63.38" x2="386.09" y2="136.86" />
            <line class="cls-1" x1="115" y1="66.87" x2="166.05" y2="137.13" />
            <line class="cls-1" x1="277.44" y1="477.11" x2="277.44" y2="569.88" />
            <line class="cls-1" x1="96.5" y1="349.17" x2="11.25" y2="376.87" />
            <polygon
            class="cls-2"
            points="112.18 513.86 277.44 397.11 438.8 513.86 388.08 323.92 539.73 203.23 349.78 190.3 275.49 11.25 206.8 196.26 11.25 203.23 167.65 325.62 112.18 513.86"
          />
            <line class="cls-1" x1="439.47" y1="63.38" x2="386.09" y2="136.86" />
            <line class="cls-1" x1="115" y1="66.87" x2="166.05" y2="137.13" />
            <line class="cls-1" x1="277.44" y1="477.11" x2="277.44" y2="569.88" />
            <line class="cls-1" x1="96.5" y1="349.17" x2="11.25" y2="376.87" />
            <polygon
            class="cls-2"
            points="112.18 513.86 277.44 397.11 438.8 513.86 388.08 323.92 539.73 203.23 349.78 190.3 275.49 11.25 206.8 196.26 11.25 203.23 167.65 325.62 112.18 513.86"
          />
            <line class="cls-1" x1="439.47" y1="63.38" x2="386.09" y2="136.86" />
            <line class="cls-1" x1="115" y1="66.87" x2="166.05" y2="137.13" />
            <line class="cls-1" x1="277.44" y1="477.11" x2="277.44" y2="569.88" />
            <line class="cls-1" x1="96.5" y1="349.17" x2="11.25" y2="376.87" />
        </g>
        <g>
            <line class="cls-1" x1="482.53" y1="351.86" x2="568.55" y2="379.81" />
            <line class="cls-1" x1="482.53" y1="351.86" x2="568.55" y2="379.81" />
            <line class="cls-1" x1="482.53" y1="351.86" x2="568.55" y2="379.81" />
            <line class="cls-1" x1="482.53" y1="351.86" x2="568.55" y2="379.81" />
            <polygon
            class="cls-2"
            points="112.18 513.86 277.44 397.11 438.8 513.86 388.08 323.92 539.73 203.23 349.78 190.3 275.49 11.25 206.8 196.26 11.25 203.23 167.65 325.62 112.18 513.86"
          />
            <line class="cls-1" x1="439.47" y1="63.38" x2="386.09" y2="136.86" />
            <line class="cls-1" x1="115" y1="66.87" x2="166.05" y2="137.13" />
            <line class="cls-1" x1="277.44" y1="477.11" x2="277.44" y2="569.88" />
            <line class="cls-1" x1="96.5" y1="349.17" x2="11.25" y2="376.87" />
            <polygon
            class="cls-2"
            points="112.18 513.86 277.44 397.11 438.8 513.86 388.08 323.92 539.73 203.23 349.78 190.3 275.49 11.25 206.8 196.26 11.25 203.23 167.65 325.62 112.18 513.86"
          />
            <line class="cls-1" x1="439.47" y1="63.38" x2="386.09" y2="136.86" />
            <line class="cls-1" x1="115" y1="66.87" x2="166.05" y2="137.13" />
            <line class="cls-1" x1="277.44" y1="477.11" x2="277.44" y2="569.88" />
            <line class="cls-1" x1="96.5" y1="349.17" x2="11.25" y2="376.87" />
            <polygon
            class="cls-2"
            points="112.18 513.86 277.44 397.11 438.8 513.86 388.08 323.92 539.73 203.23 349.78 190.3 275.49 11.25 206.8 196.26 11.25 203.23 167.65 325.62 112.18 513.86"
          />
            <line class="cls-1" x1="439.47" y1="63.38" x2="386.09" y2="136.86" />
            <line class="cls-1" x1="115" y1="66.87" x2="166.05" y2="137.13" />
            <line class="cls-1" x1="277.44" y1="477.11" x2="277.44" y2="569.88" />
            <line class="cls-1" x1="96.5" y1="349.17" x2="11.25" y2="376.87" />
            <polygon
            class="cls-2"
            points="112.18 513.86 277.44 397.11 438.8 513.86 388.08 323.92 539.73 203.23 349.78 190.3 275.49 11.25 206.8 196.26 11.25 203.23 167.65 325.62 112.18 513.86"
          />
            <line class="cls-1" x1="439.47" y1="63.38" x2="386.09" y2="136.86" />
            <line class="cls-1" x1="115" y1="66.87" x2="166.05" y2="137.13" />
            <line class="cls-1" x1="277.44" y1="477.11" x2="277.44" y2="569.88" />
            <line class="cls-1" x1="96.5" y1="349.17" x2="11.25" y2="376.87" />
        </g>
    </g>
</svg>
