<svg xmlns="http://www.w3.org/2000/svg" viewBox="0 0 279.48 263.35"><defs><style>.cls-1{fill:#1d1d1b;}.cls-2{fill:#0e7cae;}.cls-3{fill:#377b32;}.cls-4{fill:#971356;}.cls-5{fill:#47b5e8;}.cls-6{fill:#6ab42d;}.cls-7{fill:#e6007e;}</style></defs><title>Resurs 2DD</title><g id="Lager_2" data-name="Lager 2"><g id="Lager_1-2" data-name="Lager 1"><path class="cls-1" d="M263.82,194.65a2.28,2.28,0,0,1,2.28,2.28v8a5.6,5.6,0,0,1-1.33,3.85,4.57,4.57,0,0,1-1.62,1.19,2.27,2.27,0,0,1-3.12-2.12v-.43a2.21,2.21,0,0,1,1-1.8,1.37,1.37,0,0,0,.47-1.28v-7.45a2.28,2.28,0,0,1,2.28-2.28Z"/><path class="cls-1" d="M273.7,198.54a5.54,5.54,0,0,1,4.08,1.71,5.84,5.84,0,0,1-4.18,9.94,5.7,5.7,0,0,1-4.16-1.71,5.61,5.61,0,0,1-1.73-4.13,5.55,5.55,0,0,1,1.73-4.13A5.87,5.87,0,0,1,273.7,198.54Zm-.11,4.14a1.53,1.53,0,0,0-1.14.49,1.74,1.74,0,0,0,0,2.38,1.56,1.56,0,0,0,2.29,0,1.61,1.61,0,0,0,.48-1.18,1.68,1.68,0,0,0-.47-1.2A1.58,1.58,0,0,0,273.59,202.68Z"/><path class="cls-2" d="M60.87,6.49V92.56c0,15.88-11.48,16.93-22.95,16.93V95c9.28,0,7.1-1.61,7.1-8.15V6.49Z"/><path class="cls-2" d="M98.32,55.3a26.3,26.3,0,0,1,19.43,8.24,27.16,27.16,0,0,1,8.1,19.72,27.86,27.86,0,0,1-28,28,28,28,0,0,1-28-28,26.72,26.72,0,0,1,8.26-19.83A27.69,27.69,0,0,1,98.32,55.3ZM97.85,71a11.09,11.09,0,0,0-8.31,3.59,12.62,12.62,0,0,0,0,17.34,11.45,11.45,0,0,0,16.63,0,12.75,12.75,0,0,0,0-17.38A11.08,11.08,0,0,0,97.85,71Z"/><path class="cls-2" d="M134.84,112.32V77.72q0-9.1,5.45-14.56t14.5-5.47q9,0,13.81,5.31t4.78,15.27v43H157.53v-43q0-4.89-3.48-4.89t-3.36,4.89v34.05Z"/><path class="cls-3" d="M26.47,109.49v62.14h-15V109.49H0V95H37.92v14.47Z"/><path class="cls-3" d="M61.73,146.34v13.29H57.41v12h-15v-32q0-9.3,5.08-14.45T61.77,120c5.91,0,10.27,1.55,13.11,4.67s4.24,7.92,4.24,14.41v32.57h-15V140.06a8.46,8.46,0,0,0-.7-4.1,2.7,2.7,0,0,0-2.51-1.14q-3.51,0-3.51,5.24v6.28Z"/><path class="cls-3" d="M111.87,121v14.36a8.4,8.4,0,0,0-2.51-.55,3.92,3.92,0,0,0-2.92,1.26,4.17,4.17,0,0,0-1.21,3,8.32,8.32,0,0,0,1.32,3.84l1.15,2a20.93,20.93,0,0,1,3.1,10.41,16.72,16.72,0,0,1-5.22,12.44,17.59,17.59,0,0,1-12.76,5.1,16.69,16.69,0,0,1-7.16-1.67V156.64a7.27,7.27,0,0,0,3.8,1.36,4.86,4.86,0,0,0,3.27-1.12A3.58,3.58,0,0,0,94,154.05q0-1.1-2.11-4.83a23.73,23.73,0,0,1-3.36-11.82,16.86,16.86,0,0,1,5.08-12.27A16.45,16.45,0,0,1,105.78,120,18.46,18.46,0,0,1,111.87,121Z"/><path class="cls-3" d="M141.41,135.71v35.92h-15V135.71H114.94V121.23h37.91v14.48Z"/><path class="cls-3" d="M173.38,121.23v50.4h-15v-50.4Z"/><path class="cls-3" d="M217.54,147l15.69.41q-1.54,12.18-8.44,18.83t-18,6.65A25.66,25.66,0,0,1,188,165.33a25.36,25.36,0,0,1-7.58-18.73,25.66,25.66,0,0,1,7.73-18.94A26,26,0,0,1,207.2,120a25.13,25.13,0,0,1,18.61,7.53q5.17,5.2,7.31,14.51l-16.06,1.07q-2.7-8.26-10.23-8.27a10.41,10.41,0,0,0-7.92,3.32,11.88,11.88,0,0,0-3.12,8.46,11.35,11.35,0,0,0,3.07,8.17,11.22,11.22,0,0,0,15.34.39Q217,152.33,217.54,147Z"/><path class="cls-4" d="M119.74,171.4V186a8.87,8.87,0,0,0-2.56-.56,4,4,0,0,0-3,1.28,4.27,4.27,0,0,0-1.24,3.08,8.48,8.48,0,0,0,1.36,3.9l1.16,2a21.25,21.25,0,0,1,3.16,10.59A17,17,0,0,1,113.33,219a17.85,17.85,0,0,1-13,5.19,17.13,17.13,0,0,1-7.29-1.69V207.64A7.4,7.4,0,0,0,96.94,209a4.9,4.9,0,0,0,3.32-1.14A3.66,3.66,0,0,0,101.6,205c0-.75-.72-2.39-2.14-4.92a24.08,24.08,0,0,1-3.42-12,17.18,17.18,0,0,1,5.16-12.49,16.75,16.75,0,0,1,12.34-5.24A18.91,18.91,0,0,1,119.74,171.4Z"/><path class="cls-4" d="M126.42,171.63h15.24v30.45c0,2.38.39,4,1.15,4.75s2.27,1.19,4.53,1.19h.78v14.87h-4.05q-8.34,0-13-4.87t-4.66-13.49Z"/><path class="cls-4" d="M177.56,170.35a25.31,25.31,0,0,1,18.69,7.93,26.93,26.93,0,0,1-38.18,38,26.92,26.92,0,0,1,.06-38.12A26.69,26.69,0,0,1,177.56,170.35Zm-.45,15.1a10.64,10.64,0,0,0-8,3.45,12.15,12.15,0,0,0,0,16.68,11,11,0,0,0,16,0,12.25,12.25,0,0,0,0-16.71A10.7,10.7,0,0,0,177.11,185.45Z"/><path class="cls-4" d="M233.52,186.35v77H218.27v-77H206.59V171.63h38.57v14.72Z"/><path class="cls-4" d="M274.86,171.4V186a8.75,8.75,0,0,0-2.55-.56,4,4,0,0,0-3,1.28,4.27,4.27,0,0,0-1.24,3.08,8.45,8.45,0,0,0,1.35,3.9l1.17,2a21.23,21.23,0,0,1,3.15,10.59A17,17,0,0,1,268.46,219a17.87,17.87,0,0,1-13,5.19,17.09,17.09,0,0,1-7.28-1.69V207.64a7.4,7.4,0,0,0,3.87,1.39,4.94,4.94,0,0,0,3.32-1.14,3.65,3.65,0,0,0,1.33-2.88q0-1.12-2.14-4.92a24.07,24.07,0,0,1-3.41-12,17.18,17.18,0,0,1,5.16-12.49,16.72,16.72,0,0,1,12.34-5.24A18.85,18.85,0,0,1,274.86,171.4Z"/><path class="cls-5" d="M65.49,0V86.06C65.49,102,54,103,42.54,103V88.52c9.28,0,7.1-1.6,7.1-8.15V0Z"/><path class="cls-5" d="M102.94,48.81a26.3,26.3,0,0,1,19.43,8.24,27.15,27.15,0,0,1,8.11,19.72,27.88,27.88,0,0,1-28,28,28,28,0,0,1-28-28,26.76,26.76,0,0,1,8.26-19.84A27.72,27.72,0,0,1,102.94,48.81Zm-.46,15.7a11.1,11.1,0,0,0-8.32,3.59,12.62,12.62,0,0,0,0,17.34,11.45,11.45,0,0,0,16.63,0,12.75,12.75,0,0,0,0-17.38A11.07,11.07,0,0,0,102.48,64.51Z"/><path class="cls-5" d="M139.46,105.82V71.22q0-9.09,5.45-14.56t14.51-5.47q9,0,13.8,5.31T178,71.77v43H162.15v-43q0-4.87-3.48-4.88c-2.24,0-3.35,1.63-3.35,4.88v34.05Z"/><path class="cls-6" d="M31.09,103v62.13h-15V103H4.62V88.52H42.54V103Z"/><path class="cls-6" d="M66.35,139.84v13.3H62v12H47v-32q0-9.32,5.08-14.46t14.27-5.15q8.86,0,13.11,4.67t4.24,14.42v32.56h-15V133.57a8.43,8.43,0,0,0-.7-4.1,2.71,2.71,0,0,0-2.51-1.15q-3.51,0-3.51,5.25v6.27Z"/><path class="cls-6" d="M116.49,114.52v14.36a8.49,8.49,0,0,0-2.51-.56,3.9,3.9,0,0,0-2.91,1.26,4.17,4.17,0,0,0-1.22,3,8.24,8.24,0,0,0,1.33,3.84l1.14,2a20.88,20.88,0,0,1,3.1,10.41,16.7,16.7,0,0,1-5.22,12.44,17.59,17.59,0,0,1-12.76,5.1,16.68,16.68,0,0,1-7.16-1.66V150.14a7.21,7.21,0,0,0,3.8,1.37,4.86,4.86,0,0,0,3.27-1.12,3.61,3.61,0,0,0,1.31-2.83q0-1.11-2.11-4.84a23.65,23.65,0,0,1-3.35-11.81,16.91,16.91,0,0,1,5.07-12.28,16.45,16.45,0,0,1,12.13-5.15A18.47,18.47,0,0,1,116.49,114.52Z"/><path class="cls-6" d="M146,129.21v35.92H131V129.21H119.56V114.74h37.91v14.47Z"/><path class="cls-6" d="M178,114.74v50.39H163V114.74Z"/><path class="cls-6" d="M222.16,140.51l15.69.4q-1.54,12.19-8.43,18.83t-18,6.65a25.69,25.69,0,0,1-18.85-7.55A25.4,25.4,0,0,1,185,140.1a25.67,25.67,0,0,1,7.73-18.94,26,26,0,0,1,19.07-7.68A25.12,25.12,0,0,1,230.43,121q5.17,5.22,7.31,14.51l-16.06,1.07q-2.7-8.26-10.23-8.27a10.38,10.38,0,0,0-7.92,3.33,11.84,11.84,0,0,0-3.12,8.45,11.38,11.38,0,0,0,3.07,8.18,11.22,11.22,0,0,0,15.34.39Q221.64,145.82,222.16,140.51Z"/><path class="cls-7" d="M124.36,164.91v14.61a8.62,8.62,0,0,0-2.56-.57,4,4,0,0,0-3,1.28,4.28,4.28,0,0,0-1.23,3.08,8.38,8.38,0,0,0,1.35,3.9l1.16,2a21.2,21.2,0,0,1,3.16,10.59A17,17,0,0,1,118,212.49a17.88,17.88,0,0,1-13,5.18A17,17,0,0,1,97.69,216V201.15a7.52,7.52,0,0,0,3.87,1.39,4.91,4.91,0,0,0,3.33-1.15,3.65,3.65,0,0,0,1.33-2.87c0-.75-.72-2.39-2.14-4.92a24.12,24.12,0,0,1-3.42-12,17.16,17.16,0,0,1,5.16-12.48,16.75,16.75,0,0,1,12.34-5.24A18.91,18.91,0,0,1,124.36,164.91Z"/><path class="cls-7" d="M131,165.13h15.24v30.46c0,2.38.39,4,1.15,4.75s2.27,1.18,4.53,1.18h.78v14.87h-4.05q-8.34,0-13-4.86T131,198Z"/><path class="cls-7" d="M182.19,163.86a25.28,25.28,0,0,1,18.68,7.92,26.93,26.93,0,0,1-38.17,38,26.89,26.89,0,0,1,.05-38.11A26.67,26.67,0,0,1,182.19,163.86ZM181.73,179a10.67,10.67,0,0,0-8,3.46,12.14,12.14,0,0,0,0,16.67,11,11,0,0,0,16,0,12.25,12.25,0,0,0,0-16.71A10.67,10.67,0,0,0,181.73,179Z"/><path class="cls-7" d="M238.14,179.86v77H222.89v-77H211.21V165.13h38.57v14.73Z"/><path class="cls-7" d="M279.48,164.91v14.61a8.51,8.51,0,0,0-2.55-.57,4,4,0,0,0-3,1.28,4.29,4.29,0,0,0-1.24,3.08,8.38,8.38,0,0,0,1.35,3.9l1.17,2a21.28,21.28,0,0,1,3.15,10.59,17,17,0,0,1-5.31,12.66,17.9,17.9,0,0,1-13,5.18,17,17,0,0,1-7.29-1.69V201.15a7.49,7.49,0,0,0,3.87,1.39,4.9,4.9,0,0,0,3.32-1.15,3.62,3.62,0,0,0,1.33-2.87q0-1.12-2.14-4.92a24.21,24.21,0,0,1-3.41-12A17.16,17.16,0,0,1,261,169.1a16.72,16.72,0,0,1,12.34-5.24A18.85,18.85,0,0,1,279.48,164.91Z"/></g></g></svg>