<?xml version="1.0" encoding="iso-8859-1"?>
<!-- Generator: Adobe Illustrator 16.0.0, SVG Export Plug-In . SVG Version: 6.00 Build 0)  -->
<!DOCTYPE svg PUBLIC "-//W3C//DTD SVG 1.1//EN" "http://www.w3.org/Graphics/SVG/1.1/DTD/svg11.dtd">
<svg version="1.1" xmlns="http://www.w3.org/2000/svg" xmlns:xlink="http://www.w3.org/1999/xlink" x="0px" y="0px" width="512px"
	 height="512px" viewBox="0 0 512 512" style="enable-background:new 0 0 512 512;" xml:space="preserve">
<g id="_x33_46_x2C__hill_x2C__landscape_x2C__nature_x2C__mountain_x2C__sun">
	<g>
		<path style="fill:#D8F2F1;" d="M458,286c0-117-95-212-211-212C130,74,35,169,35,286c0,27.03,4.8,52.99,14.81,77.88
			c1.696,4.247,3.555,8.46,5.562,12.643c3.39,8.396,7.368,16.668,11.944,24.812c1.376-4.22,2.586-7.5,3.824-10.2
			c0.009-0.01,0.009-0.01,0.009-0.02c1.923-5.261,3.757-7.82,11.776-13.99c2.126-1.64,4.692-3.53,7.805-5.79
			c2.048-1.4,3.873-2.77,5.502-4.1c-3.394-1.042-6.861-1.575-10.38-1.673v-3.745C86.234,361.544,86.6,361.283,87,361
			c2.1-1.4,3.97-2.77,5.64-4.1c-2.232-0.669-4.499-1.106-6.788-1.376v-12.856H82v-7h16.278l4.147,9.963
			c-0.321-0.181-0.643-0.297-0.964-0.297l4.576,11.27c7.335-11.069,6.029-20.67,19.813-31.27c17.56-13,24.389-9,40.974-30
			c3.902,4,7.804,7,11.707,11c6.721,5.91,11.131,11.17,14.507,16.17c6.917,10.24,9.482,19.41,18.663,30.83l0.976,1
			c10.761-12.87,23.17-29.12,34.955-40.98c-4.226,0.557-8.445,1.715-12.514,3.283c4.25-4.85,8.52-9.5,12.712-13.617
			c-6.056,0.778-12.108,2.707-17.724,5.338l1.106-3.023c-0.976,1-2.926,2-3.902,2l5.853-14c-0.975,0-1.951,1-2.927,1l3.902-11
			c0.488-2,1.219-4,2.068-6c0.858-2,1.834-4,2.81-6c9.756-4,7.805-8,12.683-19c3.902,10,1.951,15,11.707,19
			c1.951,4,2.927,8,4.877,12l0.023,0.07c-1.23,1.809-2.489,3.384-3.906,4.905c1.438-1.462,2.726-2.959,3.98-4.676l1.854,5.7
			c-2.117,3.91-4.05,6.68-6.438,9.31c4.077-4.25,6.926-8.75,11.316-18.31c12.682-30,18.535-25,38.047-44c2.927,2,5.854,5,7.805,7
			l3.902-9c-1.951,1-2.927,2-4.878,3l1.966-5.373c0.369,0.364,0.724,0.718,1.045,1.039l4-9c-1.105,0.553-1.907,1.105-2.739,1.658
			l1.582-4.324c0.975-2.5,1.95-5.25,3.044-8c1.103-2.75,2.321-5.5,3.785-8c13.658-7,10.73-11,16.585-27c5.854,14,3.901,21,17.56,27
			c1.951,5,3.902,11,5.854,16l5.854,16c-1.951-1-2.927-2-4.878-3l7.805,20c-0.976-1-2.927-2-4.878-3l2.65,6.641
			c-10.438-4.486-20.743-6.099-31.072-5.274c0.319,0.77,1.08,1.53,1.85,2.3c0.66,0.73,1.32,1.46,2,2.19
			c1.87,2.018,3.808,4.04,5.77,6.072c-4.093-0.495-8.179-0.563-12.269-0.229c0.312,0.77,1.054,1.53,1.805,2.3
			c0.644,0.73,1.287,1.46,1.951,2.19c8.38,9.27,18.126,18.609,25.364,28.81c7.805,10,9.756,14,12.683,26
			c4.878,18,9.756,26,23.413,39c0.4,0.38,0.79,0.74,1.171,1.11c5.239,4.93,9.063,8.64,12.244,12.14c0.214,0.23,0.429,0.47,0.635,0.7
			c2.984,3.229,5.735,6.51,8.682,10.39c1.599-3.557,3.099-7.146,4.507-10.768c0.115,0.148,0.229,0.284,0.345,0.434
			C451.11,347.53,458,317.75,458,286z M99.646,335.668l0.045,0.111c-0.046-0.037-0.092-0.076-0.138-0.111H99.646z M102.904,345.944
			c0.193-0.29,0.383-0.581,0.565-0.869l0.918,2.259C103.893,346.827,103.398,346.321,102.904,345.944z"/>
		<g>
			<path style="fill:#5B6072;" d="M315,226c3,2,6,5,8,7l-4,11c2-1,3-2,5-2l-9,21c11.19-5.82,22.18-9.43,33.15-10.3
				c0.319,0.77,1.08,1.53,1.85,2.3c0.66,0.73,1.32,1.46,2,2.19c8.59,9.27,18.58,18.609,26,28.81c8,10,10,14,13,26c5,18,10,26,24,39
				c0.41,0.38,0.81,0.74,1.2,1.11c5,4.63,8.96,8.38,12.55,12.14c0.22,0.23,0.44,0.47,0.65,0.7c3.189,3.49,5.79,6.83,8.6,11.05
				c0.1-0.22,0.2-0.44,0.3-0.66c1.8,2.3,3.67,4.811,5.7,7.66c15,22,29,34,46,54c-18,0-34-1-52-2c-25.16-0.72-44.12,6.83-65.8,9.64
				c-5.931,0.78-12.061,1.19-18.58,0.99c-4.14-0.49-10.28-1.41-16.24-2.51c-0.02,0-0.05-0.01-0.07-0.01
				c-5.96-1.551-11.779-3.181-17.68-4.58c-0.3-0.181-0.52-0.36-0.63-0.53c-3-4-5-12-7-18c-12-36-13-12-29-29
				c-14.49-16.19-46.41-24.4-63.57-38.24c-2.319-2.56-4.75-5.41-7.43-8.76c11.03-12.87,23.75-29.12,35.83-40.98
				c0.06-0.01,0.11-0.01,0.17-0.02c1-1,2-2,3-3c6.19-5.06,10.16-8.23,13.34-11.63c0.021-0.021,0.04-0.04,0.061-0.061
				c4.18-4.25,7.1-8.75,11.6-18.31C289,240,295,245,315,226z"/>
		</g>
		<g>
			<path style="fill:#707487;" d="M319,438c0.11,0.17,0.33,0.35,0.63,0.53c-4.149-0.99-8.34-1.87-12.63-2.53
				c-15.35-2.92-15.74,1.63-20.7-3.13c-10.51-13.2-12.74-16.71-21.3-32.87c-8.45-13.65-18.58-22.23-29.04-31.23
				c-6.08-5.47-10.97-9.88-16.53-16.01C236.59,366.6,268.51,374.81,283,391c16,17,17-7,29,29C314,426,316,434,319,438z"/>
		</g>
		<g>
			<path style="fill:#80AF52;" d="M269,273l2,6c-2.17,3.91-4.15,6.68-6.6,9.31c-0.021,0.021-0.04,0.04-0.061,0.061
				c-3.24,3.27-7.25,6.41-13.34,11.63c-1.05,0.97-2.11,1.98-3.17,3.02c-7.94,1.021-15.88,4.011-22.83,7.98l6-16c-1,1-3,2-4,2l6-14
				c-1,0-2,1-3,1l4-11c0.5-2,1.25-4,2.12-6c0.88-2,1.88-4,2.88-6c10-4,8-8,13-19c4,10,2,15,12,19C266,265,267,269,269,273z"/>
		</g>
		<g>
			<path style="fill:#80AF52;" d="M334,197c14-7,11-11,17-27c6,14,4,21,18,27c2,5,4,11,6,16l6,16c-2-1-3-2-5-3l8,20c-1-1-3-2-5-3
				l9,22c-14-9-28-12-41-11c-11,1-22,5-33,11l9-21c-2,0-3,1-5,2l8-20c-2,1-3,2-5,3l6-16c1-2.5,2-5.25,3.12-8
				C331.25,202.25,332.5,199.5,334,197z"/>
		</g>
		<g>
			<g>
				<path style="fill:#A28671;" d="M351,280c-1.657,0-3-1.343-3-3v-22c0-1.657,1.343-3,3-3s3,1.343,3,3v22
					C354,278.657,352.657,280,351,280z"/>
			</g>
		</g>
		<g>
			<g>
				<path style="fill:#A28671;" d="M82,371.334c-1.657,0-3-1.343-3-3v-12c0-1.657,1.343-3,3-3s3,1.343,3,3v12
					C85,369.991,83.657,371.334,82,371.334z"/>
			</g>
		</g>
		<g>
			<path style="fill:#5B6072;" d="M282.998,212.001c-0.451,0-0.909-0.103-1.34-0.317c-1.481-0.741-2.082-2.543-1.342-4.025
				c0.951-1.901,2.534-3.245,4.577-3.886c5.424-1.703,12.729,2.148,13.543,2.594c1.454,0.794,1.99,2.616,1.197,4.07
				s-2.615,1.992-4.07,1.197c-2.39-1.294-6.73-2.811-8.878-2.136c-0.489,0.155-0.78,0.399-1.002,0.844
				C285.157,211.393,284.098,212.001,282.998,212.001z"/>
		</g>
		<g>
			<path style="fill:#5B6072;" d="M283.002,212.001c-1.101,0-2.159-0.608-2.686-1.659c-0.718-1.44-3.623-1.033-5.291-0.663
				c-2.932,0.651-5.657,1.991-5.684,2.005c-1.481,0.739-3.283,0.14-4.025-1.342c-0.74-1.482-0.14-3.284,1.342-4.025
				c0.136-0.067,3.373-1.674,7.066-2.495c7.86-1.746,10.866,1.653,11.959,3.837c0.74,1.482,0.14,3.284-1.342,4.025
				C283.911,211.898,283.453,212.001,283.002,212.001z"/>
		</g>
		<g>
			<path style="fill:#5B6072;" d="M305.998,183.001c-0.451,0-0.909-0.103-1.34-0.317c-1.481-0.741-2.082-2.543-1.342-4.025
				c4.134-8.265,17.345-3.049,18.838-2.428c1.529,0.638,2.252,2.394,1.615,3.924c-0.638,1.528-2.392,2.252-3.924,1.615
				c-3.284-1.359-9.936-2.88-11.162-0.428C308.157,182.393,307.098,183.001,305.998,183.001z"/>
		</g>
		<g>
			<path style="fill:#5B6072;" d="M306.002,183.001c-1.101,0-2.159-0.608-2.686-1.659c-1.266-2.534-7.453-0.793-10.079,0.392
				c-1.508,0.677-3.286,0.011-3.968-1.498c-0.683-1.507-0.018-3.281,1.489-3.967c5.063-2.3,14.535-4.386,17.925,2.39
				c0.74,1.482,0.14,3.284-1.342,4.025C306.911,182.898,306.453,183.001,306.002,183.001z"/>
		</g>
		<g>
			<path style="fill:#5B6072;" d="M241.998,191.001c-0.451,0-0.909-0.103-1.34-0.317c-1.481-0.741-2.082-2.543-1.342-4.025
				c0.951-1.901,2.534-3.245,4.577-3.886c5.425-1.702,12.729,2.149,13.543,2.594c1.454,0.794,1.99,2.616,1.197,4.07
				c-0.794,1.454-2.616,1.991-4.07,1.197c-2.39-1.294-6.731-2.811-8.878-2.136c-0.489,0.155-0.78,0.399-1.002,0.844
				C244.157,190.393,243.098,191.001,241.998,191.001z"/>
		</g>
		<g>
			<path style="fill:#5B6072;" d="M242.002,191.001c-1.101,0-2.159-0.608-2.686-1.659c-0.718-1.44-3.622-1.034-5.291-0.663
				c-2.932,0.651-5.657,1.991-5.684,2.005c-1.481,0.738-3.283,0.14-4.025-1.342c-0.74-1.482-0.14-3.284,1.342-4.025
				c0.136-0.067,3.373-1.674,7.066-2.495c7.859-1.746,10.866,1.653,11.959,3.837c0.74,1.482,0.14,3.284-1.342,4.025
				C242.911,190.898,242.453,191.001,242.002,191.001z"/>
		</g>
		<g>
			<path style="fill:#5B6072;" d="M77.998,273.001c-0.451,0-0.909-0.103-1.34-0.317c-1.481-0.741-2.082-2.543-1.342-4.025
				c3.388-6.777,12.86-4.69,17.925-2.39c1.509,0.686,2.176,2.465,1.49,3.973s-2.464,2.176-3.973,1.49
				c-2.624-1.182-8.809-2.924-10.075-0.39C80.157,272.393,79.098,273.001,77.998,273.001z"/>
		</g>
		<g>
			<path style="fill:#5B6072;" d="M78.002,273.001c-1.101,0-2.159-0.608-2.686-1.659c-1.266-2.534-7.452-0.792-10.079,0.392
				c-1.509,0.676-3.285,0.011-3.968-1.498c-0.683-1.507-0.018-3.281,1.489-3.967c5.063-2.3,14.535-4.386,17.925,2.39
				c0.74,1.482,0.14,3.284-1.342,4.025C78.911,272.898,78.453,273.001,78.002,273.001z"/>
		</g>
		<g>
			<path style="fill:#5B6072;" d="M116.998,247.001c-0.451,0-0.909-0.103-1.34-0.317c-1.481-0.741-2.082-2.543-1.342-4.025
				c3.389-6.777,12.861-4.69,17.925-2.39c1.509,0.686,2.176,2.465,1.49,3.973s-2.464,2.177-3.973,1.49
				c-2.623-1.183-8.81-2.924-10.075-0.39C119.157,246.393,118.098,247.001,116.998,247.001z"/>
		</g>
		<g>
			<path style="fill:#5B6072;" d="M117.002,247.001c-1.101,0-2.159-0.608-2.686-1.659c-1.267-2.534-7.452-0.793-10.079,0.392
				c-1.509,0.677-3.286,0.011-3.968-1.498c-0.683-1.507-0.018-3.281,1.489-3.967c5.063-2.3,14.535-4.386,17.925,2.39
				c0.74,1.482,0.14,3.284-1.342,4.025C117.911,246.898,117.453,247.001,117.002,247.001z"/>
		</g>
		<g>
			<path style="fill:#80AF52;" d="M172,279.26c-11.75,0.24-23.5,3.74-35,9.74l8-20c-1,1-3,2-4,3l7-19c-1,1-3,1-4,2l6-15h-1
				c2-5,4-10,7-15c13-6,10-11,16-25c5,13,4,20,16,25c3,5,5,10,7,15h-1l6,15c-1-1-3-2-4-3l7,20c-1-1-3-2-4-3l8,20
				C195.5,282,183.75,279,172,279.26z"/>
		</g>
		<g>
			<g>
				<path style="fill:#A28671;" d="M172,304c-1.657,0-3-1.343-3-3v-22c0-1.657,1.343-3,3-3s3,1.343,3,3v22
					C175,302.657,173.657,304,172,304z"/>
			</g>
		</g>
		<g>
			<path style="fill:#5B6072;" d="M193.87,312.17c7.09,10.24,9.72,19.41,19.13,30.83c1.79,2.68,3.57,4.56,5.35,7.07l0.011,0.01
				c0.22,0.29,0.43,0.6,0.64,0.92l2,2c5.6,5.95,11.33,10.92,16.96,15.77c2.72,2.45,5.68,5.11,9.04,8.23c20,17,19,28,33,46
				c4.04,5.11,6.48,8.13,8.3,9.87c0.54,0.68,1.11,1.39,1.7,2.13c-30,2-46,12-77,0c-32-12-38-11-71-3c-16,3-28,4-44,3
				c-15.89,0-29.87-0.48-44.91-0.11c2.97-3.949,5.94-6.92,8.91-9.89c11-13,43-9,47-22c6-17,6-16,21-26c21-15,12-26,29-37
				C172.95,329.04,180.95,329,193.87,312.17z"/>
		</g>
		<g>
			<path style="fill:#707487;" d="M81,366.86c2.23-1.681,4.85-3.551,8-5.86c2.1-1.4,3.97-2.77,5.64-4.1
				c0.12,0.029,0.24,0.06,0.36,0.1c3-3,6-5,8-8l-0.13-0.25c0.22-0.28,0.43-0.55,0.63-0.82c0.16,0.04,0.33,0.07,0.5,0.07c0,0,0-1,1-1
				l-0.31-0.73C112.21,335.2,110.87,325.6,125,315c18-13,25-9,42-30c4,4,8,7,12,11c6.89,5.91,11.41,11.17,14.87,16.17
				C180.95,329,172.95,329.04,159,340c-17,11-8,22-29,37c-15,10-15,9-21,26c-4,13-36,9-47,22c-2.97,2.97-5.94,5.94-8.91,9.89
				C46.36,435.05,39.42,435.38,32,436c8-10,25-28,30-37c4.01-9.11,5.49-14.37,6.92-18.2c0.01-0.01,0.01-0.01,0.01-0.02
				C71.93,374.39,75.1,371.29,81,366.86z"/>
		</g>
		<g>
			<path style="fill:#80AF52;" d="M82,356.574c-8.82,0.359-17.91,3.21-27,7.76l7-16c-2,1-3,2-4,2l6-14c-1,0-2,1-4,2l5-12
				c0.5-2,1.25-4,2.12-6c0.88-2,1.88-4,2.88-6c10-4,8-8,12-19c4,10,3,15,13,19c2,4,3,8,5,12h-1l5,12c-1-1-2-2-3-2l4.69,11.27
				c-0.37,0.551-0.761,1.101-1.19,1.66c-0.75-0.22-1.4-0.83-1.49-0.92l0.86,1.74c-2.07,2.61-4.71,5.32-8.23,8.15
				C91.2,356.904,86.64,356.394,82,356.574z"/>
		</g>
	</g>
</g>
<g id="Layer_1">
</g>
</svg>
