<?xml version="1.0" encoding="UTF-8" standalone="no"?> <svg width="512" height="512" viewBox="0 0 512 512" fill="none" xmlns="http://www.w3.org/2000/svg">
<path d="M80 248H112L118.815 316.146C119.45 322.493 114.466 328 108.088 328H83.913C77.535 328 72.551 322.493 73.186 316.146L80 248Z" fill="#99744A"/>
<path d="M168 256C168 282.17 144.92 269.78 113.73 265.35C108.06 264.54 102.12 264 96 264C89.88 264 83.94 264.54 78.27 265.35C47.08 269.78 24 282.17 24 256C24 249.47 25.44 243.21 28.08 237.38C29.29 234.71 30.75 232.14 32.45 229.67C34.7 226.37 37.38 223.27 40.41 220.4C46.78 214.39 54.73 209.44 63.77 205.92C69.66 203.62 76.01 201.93 82.69 200.96C84.14 200.75 85.61 200.57 87.1 200.43C90.01 200.15 92.98 200 96 200C109.87 200 122.83 203.05 133.82 208.35C149.91 216.08 161.78 228.61 166.16 243.37C167.36 247.43 168 251.66 168 256Z" fill="#F4B876"/>
<path d="M432 248H400L393.185 316.146C392.55 322.493 397.534 328 403.912 328H428.087C434.465 328 439.449 322.493 438.814 316.146L432 248Z" fill="#99744A"/>
<path d="M488 256C488 282.17 464.92 269.78 433.73 265.35C428.06 264.54 422.12 264 416 264C409.88 264 403.94 264.54 398.27 265.35C367.08 269.78 344 282.17 344 256C344 251.66 344.64 247.43 345.84 243.37C350.22 228.61 362.09 216.08 378.18 208.35C389.17 203.05 402.13 200 416 200C420.55 200 425 200.33 429.31 200.96C435.99 201.93 442.34 203.62 448.23 205.92C457.27 209.44 465.22 214.39 471.59 220.4C476.89 225.41 481.09 231.14 483.92 237.38C486.56 243.21 488 249.47 488 256Z" fill="#F4B876"/>
<path d="M296 224H216L201.888 407.455C200.87 420.695 211.338 432 224.618 432H287.382C300.661 432 311.13 420.695 310.112 407.455L296 224Z" fill="#99744A"/>
<path d="M408 198.67C408 243.69 371.97 253.54 319.99 255.57C300.54 256.34 278.86 256 256 256C203.38 256 157 257.78 129.72 243.86C113.48 235.59 104 221.75 104 198.67C104 188.25 105.93 177.97 109.55 168.08C127.39 119.28 186.2 80 256 80C261.41 80 266.75 80.24 272.01 80.69C298.9 83.03 323.7 91.16 344.55 103.24C382.97 125.5 408 161.16 408 198.67Z" fill="#E05E83"/>
<path d="M216 192C238.091 192 256 177.673 256 160C256 142.327 238.091 128 216 128C193.909 128 176 142.327 176 160C176 177.673 193.909 192 216 192Z" fill="#C2F3F4"/>
<path d="M336 208C349.255 208 360 193.673 360 176C360 158.327 349.255 144 336 144C322.745 144 312 158.327 312 176C312 193.673 322.745 208 336 208Z" fill="#C2F3F4"/>
<path d="M344.55 103.24C337.3 113.39 325.42 120 312 120C290.14 120 272.38 102.46 272.01 80.69C298.9 83.03 323.7 91.16 344.55 103.24Z" fill="#C2F3F4"/>
<path d="M152 208C152 223.73 142.92 237.33 129.72 243.86C113.48 235.59 104 221.75 104 198.67C104 188.25 105.93 177.97 109.55 168.08C110.36 168.02 111.18 168 112 168C134.09 168 152 185.91 152 208Z" fill="#C2F3F4"/>
<path d="M319.99 255.57C300.54 256.34 278.86 256 256 256C256 238.33 270.33 224 288 224C305.53 224 319.77 238.1 319.99 255.57Z" fill="#C2F3F4"/>
<path d="M96 352H128L134.815 420.146C135.45 426.493 130.466 432 124.088 432H99.913C93.535 432 88.551 426.493 89.186 420.146L96 352Z" fill="#99744A"/>
<path d="M184 360C184 360.78 183.98 361.52 183.94 362.24C183.94 362.24 183.94 362.25 183.94 362.26C183 378.6 171.47 377.56 154.15 374.01C142.3 371.59 127.74 368 112 368C72.24 368 40 390.93 40 360C40 356.06 40.52 352.21 41.52 348.5C44.38 337.85 51.12 328.32 60.55 320.83C68.29 314.68 77.83 309.91 88.52 307.05C95.88 305.07 103.78 304 112 304C120.22 304 128.12 305.07 135.48 307.05C163.72 314.62 184 335.47 184 360Z" fill="#E05E83"/>
<path d="M416 352H384L377.185 420.146C376.55 426.493 381.534 432 387.912 432H412.087C418.465 432 423.449 426.493 422.814 420.146L416 352Z" fill="#99744A"/>
<path d="M472 360C472 390.93 439.76 368 400 368C360.24 368 328 390.93 328 360C328 355.66 328.64 351.43 329.84 347.37C334.22 332.61 346.09 320.08 362.18 312.35C373.17 307.05 386.13 304 400 304C404.55 304 409 304.33 413.31 304.96C430.23 307.42 445.07 314.48 455.59 324.4C465.84 334.09 472 346.49 472 360Z" fill="#E05E83"/>
<path d="M455.59 324.4C453.53 335.55 443.74 344 432 344C418.75 344 408 333.25 408 320C408 314.31 409.99 309.08 413.31 304.96C430.23 307.42 445.07 314.48 455.59 324.4Z" fill="#C2F3F4"/>
<path d="M368 328C368 341.25 357.25 352 344 352C338.71 352 333.81 350.28 329.84 347.37C334.22 332.61 346.09 320.08 362.18 312.35C365.81 316.55 368 322.02 368 328Z" fill="#C2F3F4"/>
<path d="M136 312C136 325.25 125.25 336 112 336C98.75 336 88 325.25 88 312C88 310.3 88.18 308.65 88.52 307.05C95.88 305.07 103.78 304 112 304C120.22 304 128.12 305.07 135.48 307.05C135.82 308.65 136 310.3 136 312Z" fill="#C2F3F4"/>
<path d="M72 340C72 351.05 64.84 360 56 360C49.59 360 44.07 355.3 41.52 348.5C44.38 337.85 51.12 328.32 60.55 320.83C67.17 323.27 72 330.93 72 340Z" fill="#C2F3F4"/>
<path d="M183.94 362.24C183.94 362.24 183.94 362.25 183.94 362.26C183 378.6 171.47 377.56 154.15 374.01C152.78 371.07 152 367.65 152 364C152 352.95 159.16 344 168 344C176.36 344 183.22 352.01 183.94 362.24Z" fill="#C2F3F4"/>
<path d="M483.92 237.38C479.61 243.79 472.29 248 464 248C450.75 248 440 237.25 440 224C440 216.79 443.19 210.31 448.23 205.92C457.27 209.44 465.22 214.39 471.59 220.4C476.89 225.41 481.09 231.14 483.92 237.38Z" fill="#E05E83"/>
<path d="M88 208C88 225.67 73.67 240 56 240C46.69 240 38.3 236.02 32.45 229.67C34.7 226.37 37.38 223.27 40.41 220.4C46.78 214.39 54.73 209.44 63.77 205.92C69.66 203.62 76.01 201.93 82.69 200.96C84.14 200.75 85.61 200.57 87.1 200.43C87.69 202.86 88 205.39 88 208Z" fill="#E05E83"/>
</svg>
