<?xml version="1.0" encoding="UTF-8" standalone="no"?> <svg width="64" height="64" viewBox="0 0 64 64" fill="none" xmlns="http://www.w3.org/2000/svg">
<path d="M51.47 15.0001H51.52H51.47ZM50 13.7001L51.47 15.0001L50 13.7001ZM46.72 10.8301L50 13.7001L46.72 10.8301ZM57.12 12.7001C57.0502 11.7 56.7826 10.7236 56.3329 9.82762C55.8832 8.9316 55.2602 8.13369 54.5 7.4801L54.37 7.3701C52.8488 6.04044 50.8618 5.36934 48.8459 5.50435C46.83 5.63937 44.9502 6.56946 43.62 8.0901V8.0901L42.97 8.8301C42.882 8.92916 42.8146 9.0447 42.7717 9.17002C42.7288 9.29533 42.7112 9.42793 42.72 9.5601C42.7394 9.82269 42.8615 10.067 43.06 10.2401L48.66 15.1401L50.17 16.4501L50.84 17.0401L52.34 18.3501L53.16 19.0601C53.3359 19.2013 53.5544 19.2788 53.78 19.2801H53.85C53.9817 19.2718 54.1105 19.2375 54.229 19.1791C54.3474 19.1207 54.4531 19.0395 54.54 18.9401L55.18 18.2001C56.5205 16.6924 57.2075 14.7141 57.09 12.7001H57.12ZM53.67 16.9001L52.17 15.5801L51.59 15.0801L51.47 15.0001L50 13.7001L46.72 10.8401L45.1 9.4401C46.0842 8.32296 47.4702 7.6403 48.9557 7.54102C50.4413 7.44173 51.9058 7.93387 53.03 8.9101L53.15 9.0201C53.7077 9.50525 54.1638 10.0962 54.4916 10.7588C54.8195 11.4214 55.0126 12.1424 55.06 12.8801C55.06 13.0101 55.06 13.1401 55.06 13.2701C55.0624 14.6237 54.5718 15.9319 53.68 16.9501V16.9501L53.67 16.9001ZM46.67 10.8301L50 13.7001L46.67 10.8301ZM50 13.7001L51.47 15.0001L50 13.7001ZM51.47 15.0001H51.52H51.47Z" fill="url(#paint0_linear)"/>
<path d="M36.2401 9.32012L35.0001 8.20012C34.375 7.65623 33.5598 7.38238 32.7331 7.43862C31.9064 7.49486 31.1358 7.87659 30.5901 8.50013L27.7101 11.7901C27.4395 12.0991 27.2326 12.4584 27.1013 12.8474C26.9699 13.2365 26.9166 13.6477 26.9445 14.0574C26.9723 14.4671 27.0808 14.8673 27.2637 15.235C27.4465 15.6027 27.7002 15.9307 28.0101 16.2001L29.2901 17.3201C29.4724 17.4809 29.707 17.5698 29.9501 17.5701H30.0001C30.1319 17.5618 30.2607 17.5275 30.3791 17.4691C30.4975 17.4108 30.6032 17.3295 30.6901 17.2301L36.3601 10.7401C36.4464 10.6394 36.5119 10.5226 36.5526 10.3964C36.5933 10.2702 36.6086 10.1371 36.5974 10.005C36.5862 9.87285 36.5489 9.74425 36.4875 9.62667C36.4262 9.50909 36.3421 9.40489 36.2401 9.32012V9.32012Z" fill="url(#paint1_linear)"/>
<path d="M40.0001 30.46L39.0901 29.67L37.0001 27.79L34.1301 27.94L20.9101 28.64C20.7783 28.6484 20.6495 28.6827 20.5311 28.741C20.4127 28.7994 20.307 28.8806 20.2201 28.98C20.0504 29.1807 19.9613 29.4373 19.9701 29.7L20.1701 32.58C20.1878 32.8329 20.301 33.0697 20.4866 33.2423C20.6723 33.415 20.9166 33.5107 21.1701 33.51H21.2301L39.3501 32.51L42.2101 32.35L40.0001 30.46Z" fill="url(#paint2_linear)"/>
<path d="M56.9999 22.2102C56.9034 20.7144 56.2506 19.3088 55.1699 18.2702C55.0948 18.1885 55.0147 18.1117 54.9299 18.0402L53.7299 17.0402L52.2299 15.7202L51.6499 15.2202H51.5999L49.9999 13.7002L46.7199 10.8302L45.0999 9.44017L43.8499 8.34017C43.7677 8.26477 43.6809 8.19463 43.5899 8.13017C42.3642 7.17042 40.8171 6.71736 39.2674 6.86433C37.7176 7.01131 36.2833 7.74713 35.2599 8.92017L29.3499 15.6802C28.326 16.8402 27.7838 18.3474 27.834 19.8937C27.8842 21.4401 28.523 22.909 29.6199 24.0002C29.7122 24.1075 29.8125 24.2078 29.9199 24.3002L31.0999 25.3002L31.7599 25.8802L33.2699 27.2002L34.1199 27.9402L36.2699 29.8202L37.1899 30.6202L39.3399 32.5002L40.9999 34.0002C41.6013 34.5256 42.3003 34.9273 43.057 35.1825C43.8137 35.4377 44.6133 35.5414 45.41 35.4875C46.2068 35.4336 46.9851 35.2233 47.7006 34.8686C48.4161 34.5139 49.0546 34.0217 49.5799 33.4202L55.4999 26.6502C56.035 26.0486 56.4436 25.3455 56.7013 24.5827C56.959 23.8199 57.0605 23.013 56.9999 22.2102V22.2102Z" fill="url(#paint3_linear)"/>
<path d="M51.6101 52.1802C51.3449 52.1802 51.0905 52.2855 50.903 52.4731C50.7155 52.6606 50.6101 52.915 50.6101 53.1802V57.5102C50.6101 57.7754 50.7155 58.0297 50.903 58.2173C51.0905 58.4048 51.3449 58.5102 51.6101 58.5102C51.8753 58.5102 52.1297 58.4048 52.3172 58.2173C52.5048 58.0297 52.6101 57.7754 52.6101 57.5102V53.1802C52.6101 52.915 52.5048 52.6606 52.3172 52.4731C52.1297 52.2855 51.8753 52.1802 51.6101 52.1802Z" fill="url(#paint4_linear)"/>
<path d="M23.6101 52.1802C23.3449 52.1802 23.0905 52.2855 22.903 52.4731C22.7155 52.6606 22.6101 52.915 22.6101 53.1802V57.5102C22.6101 57.7754 22.7155 58.0297 22.903 58.2173C23.0905 58.4048 23.3449 58.5102 23.6101 58.5102C23.8753 58.5102 24.1297 58.4048 24.3172 58.2173C24.5047 58.0297 24.6101 57.7754 24.6101 57.5102V53.1802C24.6101 52.915 24.5047 52.6606 24.3172 52.4731C24.1297 52.2855 23.8753 52.1802 23.6101 52.1802Z" fill="url(#paint5_linear)"/>
<path d="M41.27 52.1802C41.0048 52.1802 40.7504 52.2855 40.5629 52.4731C40.3754 52.6606 40.27 52.915 40.27 53.1802V57.5102C40.27 57.7754 40.3754 58.0297 40.5629 58.2173C40.7504 58.4048 41.0048 58.5102 41.27 58.5102C41.5352 58.5102 41.7896 58.4048 41.9771 58.2173C42.1647 58.0297 42.27 57.7754 42.27 57.5102V53.1802C42.27 52.915 42.1647 52.6606 41.9771 52.4731C41.7896 52.2855 41.5352 52.1802 41.27 52.1802Z" fill="url(#paint6_linear)"/>
<path d="M12.27 52.1802C12.0048 52.1802 11.7504 52.2855 11.5629 52.4731C11.3754 52.6606 11.27 52.915 11.27 53.1802V57.5102C11.27 57.7754 11.3754 58.0297 11.5629 58.2173C11.7504 58.4048 12.0048 58.5102 12.27 58.5102C12.5352 58.5102 12.7896 58.4048 12.9771 58.2173C13.1647 58.0297 13.27 57.7754 13.27 57.5102V53.1802C13.27 52.915 13.1647 52.6606 12.9771 52.4731C12.7896 52.2855 12.5352 52.1802 12.27 52.1802Z" fill="url(#paint7_linear)"/>
<path d="M21.8601 28.1202C21.8373 27.8008 21.7516 27.489 21.6079 27.2028C21.4642 26.9166 21.2654 26.6616 21.0229 26.4525C20.7803 26.2434 20.4988 26.0843 20.1946 25.9844C19.8903 25.8845 19.5693 25.8456 19.2501 25.8702C18.9329 25.8918 18.6231 25.9756 18.3383 26.117C18.0536 26.2583 17.7995 26.4544 17.5905 26.694C17.3816 26.9336 17.2219 27.212 17.1206 27.5134C17.0193 27.8147 16.9783 28.133 17.0001 28.4502L17.3901 34.2202C17.4306 34.8322 17.702 35.4059 18.1494 35.8254C18.5968 36.245 19.1867 36.479 19.8001 36.4802H20.0001C20.3172 36.4586 20.627 36.3747 20.9118 36.2334C21.1965 36.092 21.4506 35.8959 21.6596 35.6563C21.8685 35.4167 22.0282 35.1383 22.1295 34.837C22.2309 34.5357 22.2718 34.2173 22.2501 33.9002L21.8601 28.1202Z" fill="url(#paint8_linear)"/>
<path d="M35.6199 20.2802L32.4399 23.8102L31.0999 25.3002L29.9199 24.3002C29.8125 24.2078 29.7122 24.1076 29.6199 24.0002L30.9999 22.4802L34.1099 19.0002C34.2861 18.8092 34.5298 18.6944 34.7893 18.68C35.0488 18.6656 35.3037 18.7528 35.5 18.9231C35.6963 19.0934 35.8186 19.3334 35.841 19.5924C35.8633 19.8513 35.784 20.1087 35.6199 20.3102V20.2802Z" fill="url(#paint9_linear)"/>
<path d="M40.3 19.2902L34.6 25.7002L33.27 27.2002L31.76 25.8801L33.09 24.3801L38.8 18.0001C38.9785 17.8143 39.2218 17.7046 39.4793 17.6938C39.7367 17.6829 39.9884 17.7719 40.1818 17.9422C40.3753 18.1124 40.4955 18.3507 40.5176 18.6074C40.5396 18.8642 40.4616 19.1195 40.3 19.3201V19.2902Z" fill="url(#paint10_linear)"/>
<path d="M51.4699 15.0002L50.1399 16.4802L46.9999 20.0002C46.9062 20.1069 46.7909 20.1924 46.6616 20.251C46.5322 20.3096 46.3919 20.34 46.2499 20.3402C46.0069 20.3398 45.7722 20.251 45.5899 20.0902C45.3898 19.9164 45.2669 19.6703 45.2481 19.4059C45.2294 19.1415 45.3163 18.8805 45.4899 18.6802L48.6099 15.2102L49.9999 13.7002L51.4699 15.0002Z" fill="url(#paint11_linear)"/>
<path d="M53.64 16.9001L52.31 18.3901L46.66 24.7301C46.5673 24.8386 46.4523 24.9259 46.3229 24.9863C46.1936 25.0467 46.0528 25.0786 45.91 25.0801C45.667 25.0797 45.4323 24.9908 45.25 24.8301C45.0513 24.6549 44.9303 24.408 44.9134 24.1437C44.8965 23.8793 44.9852 23.6191 45.16 23.4201L50.81 17.0701L52.14 15.5701L53.64 16.9001Z" fill="url(#paint12_linear)"/>
<path d="M51.4999 49.13C50.9798 48.6879 50.3767 48.354 49.7259 48.148C49.0751 47.9419 48.3897 47.8678 47.7099 47.93C47.4754 47.9503 47.2555 48.0527 47.0891 48.2192C46.9226 48.3857 46.8202 48.6055 46.7999 48.84C46.7377 49.5198 46.8118 50.2052 47.0179 50.856C47.2239 51.5068 47.5578 52.1099 47.9999 52.63C48.9335 53.4533 50.1458 53.8896 51.3899 53.85H51.7799C52.0144 53.8297 52.2343 53.7273 52.4007 53.5609C52.5672 53.3944 52.6696 53.1746 52.6899 52.94C52.7556 52.2577 52.6842 51.5691 52.4798 50.9148C52.2755 50.2605 51.9423 49.6537 51.4999 49.13V49.13Z" fill="url(#paint13_linear)"/>
<path d="M59.0801 46.45C59.0598 46.2155 58.9574 45.9956 58.7909 45.8291C58.6245 45.6627 58.4046 45.5603 58.1701 45.54C58.0301 45.54 54.5901 45.25 52.5401 47.3C50.4901 49.35 50.7701 52.78 50.7801 52.93C50.8004 53.1645 50.9028 53.3844 51.0693 53.5508C51.2357 53.7173 51.4556 53.8197 51.6901 53.84C51.6901 53.84 51.9201 53.84 52.2301 53.84C54.087 53.9064 55.9008 53.2709 57.3101 52.06C59.3601 50 59.0901 46.59 59.0801 46.45Z" fill="url(#paint14_linear)"/>
<path d="M23.4999 49.13C22.9798 48.6879 22.3767 48.354 21.7259 48.148C21.0751 47.9419 20.3897 47.8678 19.7099 47.93C19.4754 47.9503 19.2555 48.0527 19.0891 48.2192C18.9226 48.3857 18.8202 48.6055 18.7999 48.84C18.7377 49.5198 18.8118 50.2052 19.0179 50.856C19.2239 51.5068 19.5578 52.1099 19.9999 52.63C20.9335 53.4533 22.1458 53.8896 23.3899 53.85H23.7799C24.0144 53.8297 24.2343 53.7273 24.4007 53.5609C24.5672 53.3944 24.6696 53.1746 24.6899 52.94C24.7556 52.2577 24.6842 51.5691 24.4798 50.9148C24.2755 50.2605 23.9423 49.6537 23.4999 49.13Z" fill="url(#paint15_linear)"/>
<path d="M31.0801 46.45C31.0598 46.2155 30.9574 45.9956 30.7909 45.8291C30.6245 45.6627 30.4046 45.5603 30.1701 45.54C30.0301 45.54 26.5901 45.25 24.5401 47.3C22.4901 49.35 22.7701 52.78 22.7801 52.93C22.8004 53.1645 22.9028 53.3844 23.0693 53.5508C23.2357 53.7173 23.4556 53.8197 23.6901 53.84C23.6901 53.84 23.9201 53.84 24.2301 53.84C26.087 53.9064 27.9008 53.2709 29.3101 52.06C31.3601 50 31.0901 46.59 31.0801 46.45Z" fill="url(#paint16_linear)"/>
<path d="M46.08 48.84C46.0597 48.6055 45.9573 48.3857 45.7909 48.2192C45.6244 48.0527 45.4046 47.9503 45.17 47.93C44.4902 47.8678 43.8049 47.9419 43.1541 48.148C42.5033 48.354 41.9002 48.6879 41.38 49.13C40.9379 49.6502 40.604 50.2533 40.398 50.9041C40.1919 51.5549 40.1178 52.2402 40.18 52.92C40.2003 53.1546 40.3027 53.3744 40.4692 53.5409C40.6357 53.7073 40.8555 53.8097 41.09 53.83H41.48C42.7241 53.8696 43.9365 53.4333 44.87 52.61C45.3114 52.0931 45.6457 51.4937 45.8534 50.8465C46.0611 50.1993 46.1382 49.5173 46.08 48.84V48.84Z" fill="url(#paint17_linear)"/>
<path d="M40.34 47.3001C38.34 45.3001 34.86 45.5301 34.71 45.5401C34.4755 45.5605 34.2556 45.6629 34.0892 45.8293C33.9227 45.9958 33.8203 46.2156 33.8 46.4501C33.8 46.6001 33.51 50.0301 35.56 52.0801C36.9693 53.291 38.7831 53.9265 40.64 53.8601C40.95 53.8601 41.15 53.8601 41.18 53.8601C41.4145 53.8398 41.6344 53.7374 41.8008 53.571C41.9673 53.4045 42.0697 53.1847 42.09 52.9501C42.11 52.7801 42.39 49.3401 40.34 47.3001Z" fill="url(#paint18_linear)"/>
<path d="M17.08 48.84C17.0597 48.6055 16.9573 48.3857 16.7909 48.2192C16.6244 48.0527 16.4046 47.9503 16.17 47.93C15.4902 47.8678 14.8049 47.9419 14.1541 48.148C13.5033 48.354 12.9001 48.6879 12.38 49.13C11.9379 49.6502 11.604 50.2533 11.398 50.9041C11.1919 51.5549 11.1178 52.2402 11.18 52.92C11.2003 53.1546 11.3027 53.3744 11.4692 53.5409C11.6357 53.7073 11.8555 53.8097 12.09 53.83H12.48C13.7241 53.8696 14.9365 53.4333 15.87 52.61C16.3114 52.0931 16.6457 51.4937 16.8534 50.8465C17.0611 50.1993 17.1382 49.5173 17.08 48.84V48.84Z" fill="url(#paint19_linear)"/>
<path d="M11.34 47.3001C9.33999 45.3001 5.85999 45.5301 5.70999 45.5401C5.47546 45.5605 5.25562 45.6629 5.08916 45.8293C4.9227 45.9958 4.8203 46.2156 4.79999 46.4501C4.79999 46.6001 4.50999 50.0301 6.55999 52.0801C7.96934 53.291 9.7831 53.9265 11.64 53.8601C11.95 53.8601 12.15 53.8601 12.18 53.8601C12.4145 53.8398 12.6344 53.7374 12.8008 53.571C12.9673 53.4045 13.0697 53.1847 13.09 52.9501C13.11 52.7801 13.39 49.3401 11.34 47.3001Z" fill="url(#paint20_linear)"/>
<path d="M58.21 58.52H8.20996C7.94474 58.52 7.69039 58.4147 7.50285 58.2271C7.31532 58.0396 7.20996 57.7852 7.20996 57.52C7.20996 57.2548 7.31532 57.0004 7.50285 56.8129C7.69039 56.6254 7.94474 56.52 8.20996 56.52H58.21C58.4752 56.52 58.7295 56.6254 58.9171 56.8129C59.1046 57.0004 59.21 57.2548 59.21 57.52C59.21 57.7852 59.1046 58.0396 58.9171 58.2271C58.7295 58.4147 58.4752 58.52 58.21 58.52Z" fill="url(#paint21_linear)"/>
<path d="M15.7401 32.6901C15.9828 32.5814 16.1723 32.3807 16.267 32.1322C16.3617 31.8837 16.3538 31.6078 16.2451 31.3651C16.1364 31.1224 15.9357 30.9329 15.6872 30.8382C15.4387 30.7435 15.1628 30.7514 14.9201 30.8601C9.8601 33.1301 7.2801 38.4201 9.1801 42.6501C9.22506 42.7814 9.29687 42.902 9.39095 43.004C9.48503 43.1061 9.59933 43.1874 9.72657 43.2429C9.85381 43.2983 9.9912 43.3267 10.13 43.3262C10.2688 43.3257 10.406 43.2962 10.5328 43.2398C10.6596 43.1834 10.7733 43.1011 10.8666 42.9984C10.9599 42.8956 11.0308 42.7745 11.0747 42.6429C11.1187 42.5112 11.1347 42.3719 11.1219 42.2336C11.109 42.0954 11.0676 41.9614 11.0001 41.8401C9.5601 38.6201 11.6901 34.5101 15.7401 32.6901Z" fill="url(#paint22_linear)"/>
<path d="M17.25 35.3702C17.1408 35.1292 16.9406 34.9413 16.6932 34.8476C16.4458 34.7538 16.1714 34.762 15.93 34.8702C14.437 35.5168 13.2118 36.6573 12.46 38.1002C12.1012 38.7711 11.8987 39.5144 11.8675 40.2746C11.8364 41.0348 11.9773 41.7922 12.28 42.4902C12.3283 42.6179 12.4022 42.7343 12.4972 42.8324C12.5922 42.9304 12.7063 43.0079 12.8324 43.0602C12.9585 43.1125 13.094 43.1384 13.2305 43.1363C13.367 43.1342 13.5016 43.1042 13.6261 43.0481C13.7505 42.9921 13.8622 42.9111 13.9542 42.8102C14.0462 42.7094 14.1165 42.5907 14.1609 42.4616C14.2053 42.3325 14.2228 42.1957 14.2123 42.0596C14.2019 41.9235 14.1636 41.791 14.1 41.6702C13.9219 41.2431 13.842 40.7814 13.8662 40.3193C13.8905 39.8571 14.0182 39.4064 14.24 39.0002C14.7847 37.9694 15.6674 37.1573 16.74 36.7002C16.8614 36.6471 16.9711 36.5704 17.0627 36.4746C17.1542 36.3788 17.2258 36.2657 17.2733 36.1419C17.3207 36.0182 17.3431 35.8862 17.3391 35.7537C17.3351 35.6212 17.3048 35.4909 17.25 35.3702Z" fill="url(#paint23_linear)"/>
<path d="M15.32 29.5102C15.5852 29.481 15.828 29.3477 15.9949 29.1395C16.1618 28.9313 16.2392 28.6654 16.21 28.4002C16.1808 28.135 16.0475 27.8922 15.8393 27.7253C15.6312 27.5584 15.3652 27.481 15.1 27.5102C8.99999 28.1902 4.61999 33.1802 5.21999 38.6302C5.24718 38.8759 5.36443 39.1028 5.5491 39.2672C5.73377 39.4316 5.97278 39.5217 6.21999 39.5202H6.32999C6.59213 39.49 6.83172 39.3575 6.99655 39.1514C7.16139 38.9454 7.23811 38.6825 7.20999 38.4202C6.71999 34.0502 10.37 30.0602 15.32 29.5102Z" fill="url(#paint24_linear)"/>
<defs>
<linearGradient id="paint0_linear" x1="42.69" y1="12.4201" x2="57.11" y2="12.4201" gradientUnits="userSpaceOnUse">
<stop stop-color="#F6921E"/>
<stop offset="0.49" stop-color="#B26827"/>
<stop offset="1" stop-color="#7E3A1C"/>
</linearGradient>
<linearGradient id="paint1_linear" x1="286.89" y1="134.165" x2="380.435" y2="134.165" gradientUnits="userSpaceOnUse">
<stop stop-color="#F6921E"/>
<stop offset="0.49" stop-color="#B26827"/>
<stop offset="1" stop-color="#7E3A1C"/>
</linearGradient>
<linearGradient id="paint2_linear" x1="19.9601" y1="30.65" x2="42.2001" y2="30.65" gradientUnits="userSpaceOnUse">
<stop stop-color="#B5B5B5"/>
<stop offset="0.49" stop-color="#9D9D9D"/>
<stop offset="1" stop-color="#808080"/>
</linearGradient>
<linearGradient id="paint3_linear" x1="840.664" y1="613.084" x2="1692.02" y2="613.084" gradientUnits="userSpaceOnUse">
<stop stop-color="#B5B5B5"/>
<stop offset="0.49" stop-color="#9D9D9D"/>
<stop offset="1" stop-color="#808080"/>
</linearGradient>
<linearGradient id="paint4_linear" x1="50.6101" y1="55.3502" x2="52.6101" y2="55.3502" gradientUnits="userSpaceOnUse">
<stop stop-color="#278000"/>
<stop offset="0.57" stop-color="#116A25"/>
<stop offset="1" stop-color="#025B3D"/>
</linearGradient>
<linearGradient id="paint5_linear" x1="67.8301" y1="402.546" x2="71.8301" y2="402.546" gradientUnits="userSpaceOnUse">
<stop stop-color="#278000"/>
<stop offset="0.57" stop-color="#116A25"/>
<stop offset="1" stop-color="#025B3D"/>
</linearGradient>
<linearGradient id="paint6_linear" x1="120.81" y1="402.546" x2="124.81" y2="402.546" gradientUnits="userSpaceOnUse">
<stop stop-color="#278000"/>
<stop offset="0.57" stop-color="#116A25"/>
<stop offset="1" stop-color="#025B3D"/>
</linearGradient>
<linearGradient id="paint7_linear" x1="33.81" y1="402.546" x2="37.81" y2="402.546" gradientUnits="userSpaceOnUse">
<stop stop-color="#278000"/>
<stop offset="0.57" stop-color="#116A25"/>
<stop offset="1" stop-color="#025B3D"/>
</linearGradient>
<linearGradient id="paint8_linear" x1="106.437" y1="356.799" x2="134.112" y2="356.799" gradientUnits="userSpaceOnUse">
<stop stop-color="#F6921E"/>
<stop offset="0.49" stop-color="#B26827"/>
<stop offset="1" stop-color="#7E3A1C"/>
</linearGradient>
<linearGradient id="paint9_linear" x1="29.6199" y1="21.9602" x2="35.8599" y2="21.9602" gradientUnits="userSpaceOnUse">
<stop stop-color="#FE7A18"/>
<stop offset="0.33" stop-color="#FE9215"/>
<stop offset="1" stop-color="#FFCC0F"/>
</linearGradient>
<linearGradient id="paint10_linear" x1="310.016" y1="230.846" x2="387.027" y2="230.846" gradientUnits="userSpaceOnUse">
<stop stop-color="#FE7A18"/>
<stop offset="0.33" stop-color="#FE9215"/>
<stop offset="1" stop-color="#FFCC0F"/>
</linearGradient>
<linearGradient id="paint11_linear" x1="327.021" y1="126.647" x2="365.612" y2="126.647" gradientUnits="userSpaceOnUse">
<stop stop-color="#FE7A18"/>
<stop offset="0.33" stop-color="#FE9215"/>
<stop offset="1" stop-color="#FFCC0F"/>
</linearGradient>
<linearGradient id="paint12_linear" x1="436.915" y1="209.003" x2="513.117" y2="209.003" gradientUnits="userSpaceOnUse">
<stop stop-color="#FE7A18"/>
<stop offset="0.33" stop-color="#FE9215"/>
<stop offset="1" stop-color="#FFCC0F"/>
</linearGradient>
<linearGradient id="paint13_linear" x1="324.419" y1="350.33" x2="359.614" y2="350.33" gradientUnits="userSpaceOnUse">
<stop stop-color="#278000"/>
<stop offset="0.57" stop-color="#116A25"/>
<stop offset="1" stop-color="#025B3D"/>
</linearGradient>
<linearGradient id="paint14_linear" x1="473.848" y1="458.805" x2="543.362" y2="458.805" gradientUnits="userSpaceOnUse">
<stop stop-color="#278000"/>
<stop offset="0.57" stop-color="#116A25"/>
<stop offset="1" stop-color="#025B3D"/>
</linearGradient>
<linearGradient id="paint15_linear" x1="130.238" y1="350.33" x2="165.433" y2="350.33" gradientUnits="userSpaceOnUse">
<stop stop-color="#278000"/>
<stop offset="0.57" stop-color="#116A25"/>
<stop offset="1" stop-color="#025B3D"/>
</linearGradient>
<linearGradient id="paint16_linear" x1="212.467" y1="458.805" x2="281.981" y2="458.805" gradientUnits="userSpaceOnUse">
<stop stop-color="#278000"/>
<stop offset="0.57" stop-color="#116A25"/>
<stop offset="1" stop-color="#025B3D"/>
</linearGradient>
<linearGradient id="paint17_linear" x1="278.774" y1="349.313" x2="313.999" y2="349.313" gradientUnits="userSpaceOnUse">
<stop stop-color="#278000"/>
<stop offset="0.57" stop-color="#116A25"/>
<stop offset="1" stop-color="#025B3D"/>
</linearGradient>
<linearGradient id="paint18_linear" x1="315.178" y1="459.736" x2="384.547" y2="459.736" gradientUnits="userSpaceOnUse">
<stop stop-color="#278000"/>
<stop offset="0.57" stop-color="#116A25"/>
<stop offset="1" stop-color="#025B3D"/>
</linearGradient>
<linearGradient id="paint19_linear" x1="77.51" y1="349.313" x2="112.735" y2="349.313" gradientUnits="userSpaceOnUse">
<stop stop-color="#278000"/>
<stop offset="0.57" stop-color="#116A25"/>
<stop offset="1" stop-color="#025B3D"/>
</linearGradient>
<linearGradient id="paint20_linear" x1="44.6754" y1="459.736" x2="114.045" y2="459.736" gradientUnits="userSpaceOnUse">
<stop stop-color="#278000"/>
<stop offset="0.57" stop-color="#116A25"/>
<stop offset="1" stop-color="#025B3D"/>
</linearGradient>
<linearGradient id="paint21_linear" x1="382.13" y1="171.56" x2="3086.13" y2="171.56" gradientUnits="userSpaceOnUse">
<stop stop-color="#F6921E"/>
<stop offset="0.49" stop-color="#B26827"/>
<stop offset="1" stop-color="#7E3A1C"/>
</linearGradient>
<linearGradient id="paint22_linear" x1="75.1313" y1="495.512" x2="135.563" y2="495.512" gradientUnits="userSpaceOnUse">
<stop stop-color="#278000"/>
<stop offset="0.57" stop-color="#116A25"/>
<stop offset="1" stop-color="#025B3D"/>
</linearGradient>
<linearGradient id="paint23_linear" x1="76.757" y1="359.992" x2="106.767" y2="359.992" gradientUnits="userSpaceOnUse">
<stop stop-color="#278000"/>
<stop offset="0.57" stop-color="#116A25"/>
<stop offset="1" stop-color="#025B3D"/>
</linearGradient>
<linearGradient id="paint24_linear" x1="62.1881" y1="430.282" x2="184.302" y2="430.282" gradientUnits="userSpaceOnUse">
<stop stop-color="#278000"/>
<stop offset="0.57" stop-color="#116A25"/>
<stop offset="1" stop-color="#025B3D"/>
</linearGradient>
</defs>
</svg>
