<svg xmlns="http://www.w3.org/2000/svg" viewBox="-75 -75 697 691">
  <defs>
    <style>
          path {
            fill: none;
            stroke-linecap: round;
          }
          .spread g:nth-child(2) {
            stroke-width: 10px;
            filter: blur(10px);
          }
          .spread g:nth-child(1) {
            stroke-width: 30px;
            filter: blur(30px);
          }
          .spread g:nth-child(3) {
            stroke-width: 15px;
            filter: blur(5px);
            opacity: 0.2;
          }
          .spread g:nth-child(4) {
            stroke-width: 15px;
            filter: brightness(2);
          }
          .spread .red {
            stroke: #f33;
          }
          .spread .green {
            stroke: #3f3;
          }
          .light g * {
            opacity: 0.8;
          }
          .light g:nth-child(1) {
            stroke-width: 10px;
            filter: blur(2px);
          }
          .light g:nth-child(2) {
            stroke-width: 8px;
          }
          .light g * {
            stroke: #fff;
          }
        </style>
  </defs>
  <title>Resurs 51</title>
  <g class="spread" data-name="Lager 2">
    <g class="l">
      <path
            class="path cls-7 red"
            d="M376.24,275.17c16.17,0,28.93-11.92,45.1-11.07s77.45,18.73,77.45,103.83S427.3,493,370.28,493,247.73,443.68,247.73,370.49,283,264.1,323,264.1,354.11,275.17,376.24,275.17Z"
          />
      <path
            class="path cls-7 red"
            d="M241.34,266c-26.17-8.94-38.93,7.66-61.91,7-26.16-.73-28.76-12.44-61.28-10.85-38.3,1.87-70.21,48.51-70.21,104,0,81.7,74,126.81,116.81,126.81s73.93-16.38,85.16-24"
          />
      <path
            class="path green"
            d="M188.15,237.72c22.13-29.79,70.64-103,70.64-162.55,0,61.27,61.28,120,98.72,157.44"
          />
      <path
            class="path green"
            d="M266.45,95.59c23.83-22.13,75.74-47.66,125.1-47.66,36.6,0,84.26,32.34,107.24,87.66-28.94,26.38-59.58,34.9-101.28,34.9s-66.38-21.28-89.36-53.62c25.53-24.68,40-28.09,68.94-26.38s63,24.68,68.08,31.48"
          />
    </g>
    <g class="m">
      <path
            class="path cls-7 red"
            d="M376.24,275.17c16.17,0,28.93-11.92,45.1-11.07s77.45,18.73,77.45,103.83S427.3,493,370.28,493,247.73,443.68,247.73,370.49,283,264.1,323,264.1,354.11,275.17,376.24,275.17Z"
          />
      <path
            class="path cls-7 red"
            d="M241.34,266c-26.17-8.94-38.93,7.66-61.91,7-26.16-.73-28.76-12.44-61.28-10.85-38.3,1.87-70.21,48.51-70.21,104,0,81.7,74,126.81,116.81,126.81s73.93-16.38,85.16-24"
          />
      <path
            class="path green"
            d="M188.15,237.72c22.13-29.79,70.64-103,70.64-162.55,0,61.27,61.28,120,98.72,157.44"
          />
      <path
            class="path green"
            d="M266.45,95.59c23.83-22.13,75.74-47.66,125.1-47.66,36.6,0,84.26,32.34,107.24,87.66-28.94,26.38-59.58,34.9-101.28,34.9s-66.38-21.28-89.36-53.62c25.53-24.68,40-28.09,68.94-26.38s63,24.68,68.08,31.48"
          />
    </g>
    <g class="s">
      <path
            class="path cls-7 red"
            d="M376.24,275.17c16.17,0,28.93-11.92,45.1-11.07s77.45,18.73,77.45,103.83S427.3,493,370.28,493,247.73,443.68,247.73,370.49,283,264.1,323,264.1,354.11,275.17,376.24,275.17Z"
          />
      <path
            class="path cls-7 red"
            d="M241.34,266c-26.17-8.94-38.93,7.66-61.91,7-26.16-.73-28.76-12.44-61.28-10.85-38.3,1.87-70.21,48.51-70.21,104,0,81.7,74,126.81,116.81,126.81s73.93-16.38,85.16-24"
          />
      <path
            class="path green"
            d="M188.15,237.72c22.13-29.79,70.64-103,70.64-162.55,0,61.27,61.28,120,98.72,157.44"
          />
      <path
            class="path green"
            d="M266.45,95.59c23.83-22.13,75.74-47.66,125.1-47.66,36.6,0,84.26,32.34,107.24,87.66-28.94,26.38-59.58,34.9-101.28,34.9s-66.38-21.28-89.36-53.62c25.53-24.68,40-28.09,68.94-26.38s63,24.68,68.08,31.48"
          />
    </g>
    <g class="n">
      <path
            class="path cls-7 red"
            d="M376.24,275.17c16.17,0,28.93-11.92,45.1-11.07s77.45,18.73,77.45,103.83S427.3,493,370.28,493,247.73,443.68,247.73,370.49,283,264.1,323,264.1,354.11,275.17,376.24,275.17Z"
          />
      <path
            class="path cls-7 red"
            d="M241.34,266c-26.17-8.94-38.93,7.66-61.91,7-26.16-.73-28.76-12.44-61.28-10.85-38.3,1.87-70.21,48.51-70.21,104,0,81.7,74,126.81,116.81,126.81s73.93-16.38,85.16-24"
          />
      <path
            class="path green"
            d="M188.15,237.72c22.13-29.79,70.64-103,70.64-162.55,0,61.27,61.28,120,98.72,157.44"
          />
      <path
            class="path green"
            d="M266.45,95.59c23.83-22.13,75.74-47.66,125.1-47.66,36.6,0,84.26,32.34,107.24,87.66-28.94,26.38-59.58,34.9-101.28,34.9s-66.38-21.28-89.36-53.62c25.53-24.68,40-28.09,68.94-26.38s63,24.68,68.08,31.48"
          />
    </g>
  </g>
  <g class="light" data-name="Lager 5">
    <g class="s">
      <path
            class="path cls-7 red"
            d="M376.24,275.17c16.17,0,28.93-11.92,45.1-11.07s77.45,18.73,77.45,103.83S427.3,493,370.28,493,247.73,443.68,247.73,370.49,283,264.1,323,264.1,354.11,275.17,376.24,275.17Z"
          />
      <path
            class="path cls-7 red"
            d="M241.34,266c-26.17-8.94-38.93,7.66-61.91,7-26.16-.73-28.76-12.44-61.28-10.85-38.3,1.87-70.21,48.51-70.21,104,0,81.7,74,126.81,116.81,126.81s73.93-16.38,85.16-24"
          />
      <path
            class="path green"
            d="M188.15,237.72c22.13-29.79,70.64-103,70.64-162.55,0,61.27,61.28,120,98.72,157.44"
          />
      <path
            class="path green"
            d="M266.45,95.59c23.83-22.13,75.74-47.66,125.1-47.66,36.6,0,84.26,32.34,107.24,87.66-28.94,26.38-59.58,34.9-101.28,34.9s-66.38-21.28-89.36-53.62c25.53-24.68,40-28.09,68.94-26.38s63,24.68,68.08,31.48"
          />
    </g>
    <g class="m">
      <path
            class="path cls-7 red"
            d="M376.24,275.17c16.17,0,28.93-11.92,45.1-11.07s77.45,18.73,77.45,103.83S427.3,493,370.28,493,247.73,443.68,247.73,370.49,283,264.1,323,264.1,354.11,275.17,376.24,275.17Z"
          />
      <path
            class="path cls-7 red"
            d="M241.34,266c-26.17-8.94-38.93,7.66-61.91,7-26.16-.73-28.76-12.44-61.28-10.85-38.3,1.87-70.21,48.51-70.21,104,0,81.7,74,126.81,116.81,126.81s73.93-16.38,85.16-24"
          />
      <path
            class="path green"
            d="M188.15,237.72c22.13-29.79,70.64-103,70.64-162.55,0,61.27,61.28,120,98.72,157.44"
          />
      <path
            class="path green"
            d="M266.45,95.59c23.83-22.13,75.74-47.66,125.1-47.66,36.6,0,84.26,32.34,107.24,87.66-28.94,26.38-59.58,34.9-101.28,34.9s-66.38-21.28-89.36-53.62c25.53-24.68,40-28.09,68.94-26.38s63,24.68,68.08,31.48"
          />
    </g>
  </g>
</svg>
