<svg xmlns="http://www.w3.org/2000/svg" viewBox="-75 -75 596.02 596.02">
  <defs>
    <style>
          .cls-1 {
            fill: none;
            stroke: #39b54a;
            stroke-linecap: round;
            stroke-miterlimit: 10;
          }
          path {
            fill: none;
            stroke-linecap: round;
          }
          .spread g:nth-child(2) {
            stroke-width: 10px;
            filter: blur(10px);
          }
          .spread g:nth-child(1) {
            stroke-width: 30px;
            filter: blur(30px);
          }
          .spread g:nth-child(3) {
            stroke-width: 15px;
            filter: blur(5px);
            opacity: 0.2;
          }
          .spread g:nth-child(4) {
            stroke-width: 15px;
            filter: brightness(2);
          }
          .spread .red {
            stroke: #f33;
          }
          .spread .green {
            stroke: #3f3;
          }
          .light g * {
            opacity: 0.8;
          }
          .light g:nth-child(1) {
            stroke-width: 7px;
            filter: blur(3px);
          }
          .light g:nth-child(2) {
            stroke-width: 10px;
          }
          .light g * {
            stroke: #fff;
          }
        </style>
  </defs>
  <title>Resurs 52DD</title>
  <g class="spread">
    <g>
      <path
            class="cls-1"
            d="M360.29,360.47c21.79,6.59,44.26,2.88,59.16-12C443,325,438.73,282.57,410,253.75c-18.51-18.53-61.45-21.32-101.31-24-8.17-.54-8.06-12.6.13-13,38.9-1.8,80.38-3.47,101.22-24.28,28.81-28.77,33.12-71.17,9.62-94.7-14.88-14.9-37.35-18.64-59.15-12.08,6.59-21.79,2.88-44.26-12-59.16C325,3,282.57,7.29,253.75,36.06c-19.59,19.58-24.68,58.77-26.7,94.66-.3,5.45-8.36,5.44-8.65,0-1.94-36.08-6.19-75-25.89-94.69C163.74,7.21,121.34,2.9,97.81,26.4,82.91,41.28,79.74,64.9,86.3,86.7c-21.78-6.59-44.83-4-59.73,10.85C3,121.05,7.29,163.45,36.06,192.27c21.81,21.83,62,23,100.09,24.59,7.71.33,7.71,11.75,0,12.08-38.06,1.6-78.32,2.79-100.13,24.57C7.21,282.28,2.9,324.68,26.4,348.21c14.88,14.9,37.35,18.64,59.15,12.08-6.59,21.79-2.88,44.26,12,59.16,23.5,23.53,65.9,19.28,94.72-9.49,20.26-20.25,22.28-59.54,24.24-97,.43-8.2,12.52-8.26,13-.06,2.35,37.94,4.89,78,24,97.1,28.77,28.81,71.17,33.12,94.7,9.62C363.11,404.74,366.85,382.27,360.29,360.47Z"
          />
    </g>
    <g>
      <path
            class="cls-1"
            d="M360.29,360.47c21.79,6.59,44.26,2.88,59.16-12C443,325,438.73,282.57,410,253.75c-18.51-18.53-61.45-21.32-101.31-24-8.17-.54-8.06-12.6.13-13,38.9-1.8,80.38-3.47,101.22-24.28,28.81-28.77,33.12-71.17,9.62-94.7-14.88-14.9-37.35-18.64-59.15-12.08,6.59-21.79,2.88-44.26-12-59.16C325,3,282.57,7.29,253.75,36.06c-19.59,19.58-24.68,58.77-26.7,94.66-.3,5.45-8.36,5.44-8.65,0-1.94-36.08-6.19-75-25.89-94.69C163.74,7.21,121.34,2.9,97.81,26.4,82.91,41.28,79.74,64.9,86.3,86.7c-21.78-6.59-44.83-4-59.73,10.85C3,121.05,7.29,163.45,36.06,192.27c21.81,21.83,62,23,100.09,24.59,7.71.33,7.71,11.75,0,12.08-38.06,1.6-78.32,2.79-100.13,24.57C7.21,282.28,2.9,324.68,26.4,348.21c14.88,14.9,37.35,18.64,59.15,12.08-6.59,21.79-2.88,44.26,12,59.16,23.5,23.53,65.9,19.28,94.72-9.49,20.26-20.25,22.28-59.54,24.24-97,.43-8.2,12.52-8.26,13-.06,2.35,37.94,4.89,78,24,97.1,28.77,28.81,71.17,33.12,94.7,9.62C363.11,404.74,366.85,382.27,360.29,360.47Z"
          />
    </g>
    <g>
      <path
            class="cls-1"
            d="M360.29,360.47c21.79,6.59,44.26,2.88,59.16-12C443,325,438.73,282.57,410,253.75c-18.51-18.53-61.45-21.32-101.31-24-8.17-.54-8.06-12.6.13-13,38.9-1.8,80.38-3.47,101.22-24.28,28.81-28.77,33.12-71.17,9.62-94.7-14.88-14.9-37.35-18.64-59.15-12.08,6.59-21.79,2.88-44.26-12-59.16C325,3,282.57,7.29,253.75,36.06c-19.59,19.58-24.68,58.77-26.7,94.66-.3,5.45-8.36,5.44-8.65,0-1.94-36.08-6.19-75-25.89-94.69C163.74,7.21,121.34,2.9,97.81,26.4,82.91,41.28,79.74,64.9,86.3,86.7c-21.78-6.59-44.83-4-59.73,10.85C3,121.05,7.29,163.45,36.06,192.27c21.81,21.83,62,23,100.09,24.59,7.71.33,7.71,11.75,0,12.08-38.06,1.6-78.32,2.79-100.13,24.57C7.21,282.28,2.9,324.68,26.4,348.21c14.88,14.9,37.35,18.64,59.15,12.08-6.59,21.79-2.88,44.26,12,59.16,23.5,23.53,65.9,19.28,94.72-9.49,20.26-20.25,22.28-59.54,24.24-97,.43-8.2,12.52-8.26,13-.06,2.35,37.94,4.89,78,24,97.1,28.77,28.81,71.17,33.12,94.7,9.62C363.11,404.74,366.85,382.27,360.29,360.47Z"
          />
    </g>
    <g>
      <path
            class="cls-1"
            d="M360.29,360.47c21.79,6.59,44.26,2.88,59.16-12C443,325,438.73,282.57,410,253.75c-18.51-18.53-61.45-21.32-101.31-24-8.17-.54-8.06-12.6.13-13,38.9-1.8,80.38-3.47,101.22-24.28,28.81-28.77,33.12-71.17,9.62-94.7-14.88-14.9-37.35-18.64-59.15-12.08,6.59-21.79,2.88-44.26-12-59.16C325,3,282.57,7.29,253.75,36.06c-19.59,19.58-24.68,58.77-26.7,94.66-.3,5.45-8.36,5.44-8.65,0-1.94-36.08-6.19-75-25.89-94.69C163.74,7.21,121.34,2.9,97.81,26.4,82.91,41.28,79.74,64.9,86.3,86.7c-21.78-6.59-44.83-4-59.73,10.85C3,121.05,7.29,163.45,36.06,192.27c21.81,21.83,62,23,100.09,24.59,7.71.33,7.71,11.75,0,12.08-38.06,1.6-78.32,2.79-100.13,24.57C7.21,282.28,2.9,324.68,26.4,348.21c14.88,14.9,37.35,18.64,59.15,12.08-6.59,21.79-2.88,44.26,12,59.16,23.5,23.53,65.9,19.28,94.72-9.49,20.26-20.25,22.28-59.54,24.24-97,.43-8.2,12.52-8.26,13-.06,2.35,37.94,4.89,78,24,97.1,28.77,28.81,71.17,33.12,94.7,9.62C363.11,404.74,366.85,382.27,360.29,360.47Z"
          />
    </g>
  </g>
  <g class="light">
    <g>
      <path
            class="cls-1"
            d="M360.29,360.47c21.79,6.59,44.26,2.88,59.16-12C443,325,438.73,282.57,410,253.75c-18.51-18.53-61.45-21.32-101.31-24-8.17-.54-8.06-12.6.13-13,38.9-1.8,80.38-3.47,101.22-24.28,28.81-28.77,33.12-71.17,9.62-94.7-14.88-14.9-37.35-18.64-59.15-12.08,6.59-21.79,2.88-44.26-12-59.16C325,3,282.57,7.29,253.75,36.06c-19.59,19.58-24.68,58.77-26.7,94.66-.3,5.45-8.36,5.44-8.65,0-1.94-36.08-6.19-75-25.89-94.69C163.74,7.21,121.34,2.9,97.81,26.4,82.91,41.28,79.74,64.9,86.3,86.7c-21.78-6.59-44.83-4-59.73,10.85C3,121.05,7.29,163.45,36.06,192.27c21.81,21.83,62,23,100.09,24.59,7.71.33,7.71,11.75,0,12.08-38.06,1.6-78.32,2.79-100.13,24.57C7.21,282.28,2.9,324.68,26.4,348.21c14.88,14.9,37.35,18.64,59.15,12.08-6.59,21.79-2.88,44.26,12,59.16,23.5,23.53,65.9,19.28,94.72-9.49,20.26-20.25,22.28-59.54,24.24-97,.43-8.2,12.52-8.26,13-.06,2.35,37.94,4.89,78,24,97.1,28.77,28.81,71.17,33.12,94.7,9.62C363.11,404.74,366.85,382.27,360.29,360.47Z"
          />
    </g>
    <g>
      <path
            class="cls-1"
            d="M360.29,360.47c21.79,6.59,44.26,2.88,59.16-12C443,325,438.73,282.57,410,253.75c-18.51-18.53-61.45-21.32-101.31-24-8.17-.54-8.06-12.6.13-13,38.9-1.8,80.38-3.47,101.22-24.28,28.81-28.77,33.12-71.17,9.62-94.7-14.88-14.9-37.35-18.64-59.15-12.08,6.59-21.79,2.88-44.26-12-59.16C325,3,282.57,7.29,253.75,36.06c-19.59,19.58-24.68,58.77-26.7,94.66-.3,5.45-8.36,5.44-8.65,0-1.94-36.08-6.19-75-25.89-94.69C163.74,7.21,121.34,2.9,97.81,26.4,82.91,41.28,79.74,64.9,86.3,86.7c-21.78-6.59-44.83-4-59.73,10.85C3,121.05,7.29,163.45,36.06,192.27c21.81,21.83,62,23,100.09,24.59,7.71.33,7.71,11.75,0,12.08-38.06,1.6-78.32,2.79-100.13,24.57C7.21,282.28,2.9,324.68,26.4,348.21c14.88,14.9,37.35,18.64,59.15,12.08-6.59,21.79-2.88,44.26,12,59.16,23.5,23.53,65.9,19.28,94.72-9.49,20.26-20.25,22.28-59.54,24.24-97,.43-8.2,12.52-8.26,13-.06,2.35,37.94,4.89,78,24,97.1,28.77,28.81,71.17,33.12,94.7,9.62C363.11,404.74,366.85,382.27,360.29,360.47Z"
          />
    </g>
    <g>
      <path
            class="cls-1"
            d="M360.29,360.47c21.79,6.59,44.26,2.88,59.16-12C443,325,438.73,282.57,410,253.75c-18.51-18.53-61.45-21.32-101.31-24-8.17-.54-8.06-12.6.13-13,38.9-1.8,80.38-3.47,101.22-24.28,28.81-28.77,33.12-71.17,9.62-94.7-14.88-14.9-37.35-18.64-59.15-12.08,6.59-21.79,2.88-44.26-12-59.16C325,3,282.57,7.29,253.75,36.06c-19.59,19.58-24.68,58.77-26.7,94.66-.3,5.45-8.36,5.44-8.65,0-1.94-36.08-6.19-75-25.89-94.69C163.74,7.21,121.34,2.9,97.81,26.4,82.91,41.28,79.74,64.9,86.3,86.7c-21.78-6.59-44.83-4-59.73,10.85C3,121.05,7.29,163.45,36.06,192.27c21.81,21.83,62,23,100.09,24.59,7.71.33,7.71,11.75,0,12.08-38.06,1.6-78.32,2.79-100.13,24.57C7.21,282.28,2.9,324.68,26.4,348.21c14.88,14.9,37.35,18.64,59.15,12.08-6.59,21.79-2.88,44.26,12,59.16,23.5,23.53,65.9,19.28,94.72-9.49,20.26-20.25,22.28-59.54,24.24-97,.43-8.2,12.52-8.26,13-.06,2.35,37.94,4.89,78,24,97.1,28.77,28.81,71.17,33.12,94.7,9.62C363.11,404.74,366.85,382.27,360.29,360.47Z"
          />
    </g>
    <g>
      <path
            class="cls-1"
            d="M360.29,360.47c21.79,6.59,44.26,2.88,59.16-12C443,325,438.73,282.57,410,253.75c-18.51-18.53-61.45-21.32-101.31-24-8.17-.54-8.06-12.6.13-13,38.9-1.8,80.38-3.47,101.22-24.28,28.81-28.77,33.12-71.17,9.62-94.7-14.88-14.9-37.35-18.64-59.15-12.08,6.59-21.79,2.88-44.26-12-59.16C325,3,282.57,7.29,253.75,36.06c-19.59,19.58-24.68,58.77-26.7,94.66-.3,5.45-8.36,5.44-8.65,0-1.94-36.08-6.19-75-25.89-94.69C163.74,7.21,121.34,2.9,97.81,26.4,82.91,41.28,79.74,64.9,86.3,86.7c-21.78-6.59-44.83-4-59.73,10.85C3,121.05,7.29,163.45,36.06,192.27c21.81,21.83,62,23,100.09,24.59,7.71.33,7.71,11.75,0,12.08-38.06,1.6-78.32,2.79-100.13,24.57C7.21,282.28,2.9,324.68,26.4,348.21c14.88,14.9,37.35,18.64,59.15,12.08-6.59,21.79-2.88,44.26,12,59.16,23.5,23.53,65.9,19.28,94.72-9.49,20.26-20.25,22.28-59.54,24.24-97,.43-8.2,12.52-8.26,13-.06,2.35,37.94,4.89,78,24,97.1,28.77,28.81,71.17,33.12,94.7,9.62C363.11,404.74,366.85,382.27,360.29,360.47Z"
          />
    </g>
  </g>
</svg>
