<svg xmlns="http://www.w3.org/2000/svg" viewBox="-75 -75 661.83 636.89">
  <defs>
    <style>
          .cls-1 {
            fill: none;
            stroke: #4a8bf1;
            stroke-linecap: round;
            stroke-linejoin: round;
          }
          path {
            fill: none;
            stroke-linecap: round;
          }
          .spread g:nth-child(2) {
            stroke-width: 10px;
            filter: blur(10px);
          }
          .spread g:nth-child(1) {
            stroke-width: 30px;
            filter: blur(30px);
          }
          .spread g:nth-child(3) {
            stroke-width: 15px;
            filter: blur(5px);
            opacity: 0.2;
          }
          .spread g:nth-child(4) {
            stroke-width: 15px;
            filter: brightness(2);
          }
          .spread .red {
            stroke: #f33;
          }
          .spread .green {
            stroke: #3f3;
          }
          .light g * {
            opacity: 0.8;
          }
          .light g:nth-child(1) {
            stroke-width: 7px;
            filter: blur(3px);
          }
          .light g:nth-child(2) {
            stroke-width: 10px;
          }
          .light g * {
            stroke: #fff;
          }
        </style>
  </defs>
  <title>Resurs 55DD</title>
  <g class="spread">
    <g>
      <path
            class="cls-1"
            d="M19.45,170.24,233.67,463.41a29.81,29.81,0,0,0,48.29-.19l210.62-293.1a42.57,42.57,0,0,0-3.19-53.62L405.53,25.05a42.59,42.59,0,0,0-31.38-13.8H137.81A42.57,42.57,0,0,0,106.48,25l-84,91.29A42.59,42.59,0,0,0,19.45,170.24Z"
          />
      <path
            class="cls-1"
            d="M321.94,11.25l46.58,105.63a114.88,114.88,0,0,1,2.07,87.66L274.1,454.74c-5.71,14.82-26.67,14.84-32.42,0L144.34,204.21A114.81,114.81,0,0,1,146,117L191.75,11.25"
          />
      <polyline
            class="cls-1"
            points="11.76 142.02 133.73 160.28 381.02 160.28 499.85 142.02"
          />
      <path
            class="cls-1"
            d="M19.45,170.24,233.67,463.41a29.81,29.81,0,0,0,48.29-.19l210.62-293.1a42.57,42.57,0,0,0-3.19-53.62L405.53,25.05a42.59,42.59,0,0,0-31.38-13.8H137.81A42.57,42.57,0,0,0,106.48,25l-84,91.29A42.59,42.59,0,0,0,19.45,170.24Z"
          />
      <path
            class="cls-1"
            d="M321.94,11.25l46.58,105.63a114.88,114.88,0,0,1,2.07,87.66L274.1,454.74c-5.71,14.82-26.67,14.84-32.42,0L144.34,204.21A114.81,114.81,0,0,1,146,117L191.75,11.25"
          />
      <polyline
            class="cls-1"
            points="11.76 142.02 133.73 160.28 381.02 160.28 499.85 142.02"
          />
    </g>
    <g>
      <path
            class="cls-1"
            d="M19.45,170.24,233.67,463.41a29.81,29.81,0,0,0,48.29-.19l210.62-293.1a42.57,42.57,0,0,0-3.19-53.62L405.53,25.05a42.59,42.59,0,0,0-31.38-13.8H137.81A42.57,42.57,0,0,0,106.48,25l-84,91.29A42.59,42.59,0,0,0,19.45,170.24Z"
          />
      <path
            class="cls-1"
            d="M321.94,11.25l46.58,105.63a114.88,114.88,0,0,1,2.07,87.66L274.1,454.74c-5.71,14.82-26.67,14.84-32.42,0L144.34,204.21A114.81,114.81,0,0,1,146,117L191.75,11.25"
          />
      <polyline
            class="cls-1"
            points="11.76 142.02 133.73 160.28 381.02 160.28 499.85 142.02"
          />
      <path
            class="cls-1"
            d="M19.45,170.24,233.67,463.41a29.81,29.81,0,0,0,48.29-.19l210.62-293.1a42.57,42.57,0,0,0-3.19-53.62L405.53,25.05a42.59,42.59,0,0,0-31.38-13.8H137.81A42.57,42.57,0,0,0,106.48,25l-84,91.29A42.59,42.59,0,0,0,19.45,170.24Z"
          />
      <path
            class="cls-1"
            d="M321.94,11.25l46.58,105.63a114.88,114.88,0,0,1,2.07,87.66L274.1,454.74c-5.71,14.82-26.67,14.84-32.42,0L144.34,204.21A114.81,114.81,0,0,1,146,117L191.75,11.25"
          />
      <polyline
            class="cls-1"
            points="11.76 142.02 133.73 160.28 381.02 160.28 499.85 142.02"
          />
    </g>
    <g>
      <path
            class="cls-1"
            d="M19.45,170.24,233.67,463.41a29.81,29.81,0,0,0,48.29-.19l210.62-293.1a42.57,42.57,0,0,0-3.19-53.62L405.53,25.05a42.59,42.59,0,0,0-31.38-13.8H137.81A42.57,42.57,0,0,0,106.48,25l-84,91.29A42.59,42.59,0,0,0,19.45,170.24Z"
          />
      <path
            class="cls-1"
            d="M321.94,11.25l46.58,105.63a114.88,114.88,0,0,1,2.07,87.66L274.1,454.74c-5.71,14.82-26.67,14.84-32.42,0L144.34,204.21A114.81,114.81,0,0,1,146,117L191.75,11.25"
          />
      <polyline
            class="cls-1"
            points="11.76 142.02 133.73 160.28 381.02 160.28 499.85 142.02"
          />
      <path
            class="cls-1"
            d="M19.45,170.24,233.67,463.41a29.81,29.81,0,0,0,48.29-.19l210.62-293.1a42.57,42.57,0,0,0-3.19-53.62L405.53,25.05a42.59,42.59,0,0,0-31.38-13.8H137.81A42.57,42.57,0,0,0,106.48,25l-84,91.29A42.59,42.59,0,0,0,19.45,170.24Z"
          />
      <path
            class="cls-1"
            d="M321.94,11.25l46.58,105.63a114.88,114.88,0,0,1,2.07,87.66L274.1,454.74c-5.71,14.82-26.67,14.84-32.42,0L144.34,204.21A114.81,114.81,0,0,1,146,117L191.75,11.25"
          />
      <polyline
            class="cls-1"
            points="11.76 142.02 133.73 160.28 381.02 160.28 499.85 142.02"
          />
    </g>
    <g>
      <path
            class="cls-1"
            d="M19.45,170.24,233.67,463.41a29.81,29.81,0,0,0,48.29-.19l210.62-293.1a42.57,42.57,0,0,0-3.19-53.62L405.53,25.05a42.59,42.59,0,0,0-31.38-13.8H137.81A42.57,42.57,0,0,0,106.48,25l-84,91.29A42.59,42.59,0,0,0,19.45,170.24Z"
          />
      <path
            class="cls-1"
            d="M321.94,11.25l46.58,105.63a114.88,114.88,0,0,1,2.07,87.66L274.1,454.74c-5.71,14.82-26.67,14.84-32.42,0L144.34,204.21A114.81,114.81,0,0,1,146,117L191.75,11.25"
          />
      <polyline
            class="cls-1"
            points="11.76 142.02 133.73 160.28 381.02 160.28 499.85 142.02"
          />
      <path
            class="cls-1"
            d="M19.45,170.24,233.67,463.41a29.81,29.81,0,0,0,48.29-.19l210.62-293.1a42.57,42.57,0,0,0-3.19-53.62L405.53,25.05a42.59,42.59,0,0,0-31.38-13.8H137.81A42.57,42.57,0,0,0,106.48,25l-84,91.29A42.59,42.59,0,0,0,19.45,170.24Z"
          />
      <path
            class="cls-1"
            d="M321.94,11.25l46.58,105.63a114.88,114.88,0,0,1,2.07,87.66L274.1,454.74c-5.71,14.82-26.67,14.84-32.42,0L144.34,204.21A114.81,114.81,0,0,1,146,117L191.75,11.25"
          />
      <polyline
            class="cls-1"
            points="11.76 142.02 133.73 160.28 381.02 160.28 499.85 142.02"
          />
    </g>
  </g>
  <g class="light">
    <g>
      <path
            class="cls-1"
            d="M19.45,170.24,233.67,463.41a29.81,29.81,0,0,0,48.29-.19l210.62-293.1a42.57,42.57,0,0,0-3.19-53.62L405.53,25.05a42.59,42.59,0,0,0-31.38-13.8H137.81A42.57,42.57,0,0,0,106.48,25l-84,91.29A42.59,42.59,0,0,0,19.45,170.24Z"
          />
      <path
            class="cls-1"
            d="M321.94,11.25l46.58,105.63a114.88,114.88,0,0,1,2.07,87.66L274.1,454.74c-5.71,14.82-26.67,14.84-32.42,0L144.34,204.21A114.81,114.81,0,0,1,146,117L191.75,11.25"
          />
      <polyline
            class="cls-1"
            points="11.76 142.02 133.73 160.28 381.02 160.28 499.85 142.02"
          />
      <path
            class="cls-1"
            d="M19.45,170.24,233.67,463.41a29.81,29.81,0,0,0,48.29-.19l210.62-293.1a42.57,42.57,0,0,0-3.19-53.62L405.53,25.05a42.59,42.59,0,0,0-31.38-13.8H137.81A42.57,42.57,0,0,0,106.48,25l-84,91.29A42.59,42.59,0,0,0,19.45,170.24Z"
          />
      <path
            class="cls-1"
            d="M321.94,11.25l46.58,105.63a114.88,114.88,0,0,1,2.07,87.66L274.1,454.74c-5.71,14.82-26.67,14.84-32.42,0L144.34,204.21A114.81,114.81,0,0,1,146,117L191.75,11.25"
          />
      <polyline
            class="cls-1"
            points="11.76 142.02 133.73 160.28 381.02 160.28 499.85 142.02"
          />
    </g>
    <g>
      <path
            class="cls-1"
            d="M19.45,170.24,233.67,463.41a29.81,29.81,0,0,0,48.29-.19l210.62-293.1a42.57,42.57,0,0,0-3.19-53.62L405.53,25.05a42.59,42.59,0,0,0-31.38-13.8H137.81A42.57,42.57,0,0,0,106.48,25l-84,91.29A42.59,42.59,0,0,0,19.45,170.24Z"
          />
      <path
            class="cls-1"
            d="M321.94,11.25l46.58,105.63a114.88,114.88,0,0,1,2.07,87.66L274.1,454.74c-5.71,14.82-26.67,14.84-32.42,0L144.34,204.21A114.81,114.81,0,0,1,146,117L191.75,11.25"
          />
      <polyline
            class="cls-1"
            points="11.76 142.02 133.73 160.28 381.02 160.28 499.85 142.02"
          />
      <path
            class="cls-1"
            d="M19.45,170.24,233.67,463.41a29.81,29.81,0,0,0,48.29-.19l210.62-293.1a42.57,42.57,0,0,0-3.19-53.62L405.53,25.05a42.59,42.59,0,0,0-31.38-13.8H137.81A42.57,42.57,0,0,0,106.48,25l-84,91.29A42.59,42.59,0,0,0,19.45,170.24Z"
          />
      <path
            class="cls-1"
            d="M321.94,11.25l46.58,105.63a114.88,114.88,0,0,1,2.07,87.66L274.1,454.74c-5.71,14.82-26.67,14.84-32.42,0L144.34,204.21A114.81,114.81,0,0,1,146,117L191.75,11.25"
          />
      <polyline
            class="cls-1"
            points="11.76 142.02 133.73 160.28 381.02 160.28 499.85 142.02"
          />
    </g>
    <g>
      <path
            class="cls-1"
            d="M19.45,170.24,233.67,463.41a29.81,29.81,0,0,0,48.29-.19l210.62-293.1a42.57,42.57,0,0,0-3.19-53.62L405.53,25.05a42.59,42.59,0,0,0-31.38-13.8H137.81A42.57,42.57,0,0,0,106.48,25l-84,91.29A42.59,42.59,0,0,0,19.45,170.24Z"
          />
      <path
            class="cls-1"
            d="M321.94,11.25l46.58,105.63a114.88,114.88,0,0,1,2.07,87.66L274.1,454.74c-5.71,14.82-26.67,14.84-32.42,0L144.34,204.21A114.81,114.81,0,0,1,146,117L191.75,11.25"
          />
      <polyline
            class="cls-1"
            points="11.76 142.02 133.73 160.28 381.02 160.28 499.85 142.02"
          />
      <path
            class="cls-1"
            d="M19.45,170.24,233.67,463.41a29.81,29.81,0,0,0,48.29-.19l210.62-293.1a42.57,42.57,0,0,0-3.19-53.62L405.53,25.05a42.59,42.59,0,0,0-31.38-13.8H137.81A42.57,42.57,0,0,0,106.48,25l-84,91.29A42.59,42.59,0,0,0,19.45,170.24Z"
          />
      <path
            class="cls-1"
            d="M321.94,11.25l46.58,105.63a114.88,114.88,0,0,1,2.07,87.66L274.1,454.74c-5.71,14.82-26.67,14.84-32.42,0L144.34,204.21A114.81,114.81,0,0,1,146,117L191.75,11.25"
          />
      <polyline
            class="cls-1"
            points="11.76 142.02 133.73 160.28 381.02 160.28 499.85 142.02"
          />
    </g>
    <g>
      <path
            class="cls-1"
            d="M19.45,170.24,233.67,463.41a29.81,29.81,0,0,0,48.29-.19l210.62-293.1a42.57,42.57,0,0,0-3.19-53.62L405.53,25.05a42.59,42.59,0,0,0-31.38-13.8H137.81A42.57,42.57,0,0,0,106.48,25l-84,91.29A42.59,42.59,0,0,0,19.45,170.24Z"
          />
      <path
            class="cls-1"
            d="M321.94,11.25l46.58,105.63a114.88,114.88,0,0,1,2.07,87.66L274.1,454.74c-5.71,14.82-26.67,14.84-32.42,0L144.34,204.21A114.81,114.81,0,0,1,146,117L191.75,11.25"
          />
      <polyline
            class="cls-1"
            points="11.76 142.02 133.73 160.28 381.02 160.28 499.85 142.02"
          />
      <path
            class="cls-1"
            d="M19.45,170.24,233.67,463.41a29.81,29.81,0,0,0,48.29-.19l210.62-293.1a42.57,42.57,0,0,0-3.19-53.62L405.53,25.05a42.59,42.59,0,0,0-31.38-13.8H137.81A42.57,42.57,0,0,0,106.48,25l-84,91.29A42.59,42.59,0,0,0,19.45,170.24Z"
          />
      <path
            class="cls-1"
            d="M321.94,11.25l46.58,105.63a114.88,114.88,0,0,1,2.07,87.66L274.1,454.74c-5.71,14.82-26.67,14.84-32.42,0L144.34,204.21A114.81,114.81,0,0,1,146,117L191.75,11.25"
          />
      <polyline
            class="cls-1"
            points="11.76 142.02 133.73 160.28 381.02 160.28 499.85 142.02"
          />
    </g>
  </g>
</svg>
