<svg xmlns="http://www.w3.org/2000/svg" viewBox="-125 -125 728.24 829.29">
    <defs>
        <style>
          .cls-1 {
            fill: none;
            stroke: #f0f;
            stroke-linecap: round;
            stroke-miterlimit: 10;
          }
          path {
            fill: none;
            stroke-linecap: round;
          }
          .spread g:nth-child(2) {
            stroke-width: 10px;
            filter: blur(10px);
          }
          .spread g:nth-child(1) {
            stroke-width: 30px;
            filter: blur(30px);
          }
          .spread g:nth-child(3) {
            stroke-width: 15px;
            filter: blur(5px);
            opacity: 0.2;
          }
          .spread g:nth-child(4) {
            stroke-width: 15px;
            filter: brightness(2);
          }
          .spread .red {
            stroke: #f33;
          }
          .spread .green {
            stroke: #3f3;
          }
          .light g * {
            opacity: 0.8;
          }
          .light g:nth-child(1) {
            stroke-width: 7px;
            filter: blur(3px);
          }
          .light g:nth-child(2) {
            stroke-width: 10px;
          }
          .light g * {
            stroke: #fff;
          }
        </style>
    </defs>
    <title>Resurs 53DD</title>
    <g class="spread" >
        <g>
            <path
            class="cls-1"
            d="M461,361c-58.17-39.19,3.1-91,3.1-174.89,0-115.07-55.2-174.89-224-174.89-170,0-228.81,58.1-228.81,167.06,0,84.45,65,137.17,6.41,176.64"
          />
            <path
            class="cls-1"
            d="M419.83,210.69c-17.36,12.92-17.05,41.63-4.79,63.6,23.58,42.26-32.66,42.79,21.26,96,16.14,15.93,27.18,5.2,30.65,27.76.37,2.45-1.58,7.42-4.86,13.67-13.91,26.48-44.79,38-73.36,29.13-10.05-3.11-21.18.32-31.51,18.49-16.56,29.15,8.47,30.3,12.72,57.82C371.93,530.06,338,568,240.06,568s-131.88-38-129.89-50.89c4.25-27.52,29.29-28.67,12.72-57.82-10.84-19.08-22.57-21.9-33-18-27.36,10.31-58.27-1.9-72.75-27.3-3.88-6.79-6.25-12.23-5.85-14.87,3.47-22.55,30.4-30.23,49-43.21,33.54-23.44-18.79-39.43,4.79-81.69,12.26-22,12.57-50.68-4.79-63.6"
          />
            <path
            class="cls-1"
            d="M93.71,305.88c-4.76-7.61,7.84-31.75,16.74-32.8,40.61-4.77,86.56,5.5,91.85,41.87,2,13.87-3.15,67.78-35.78,78-25.27,7.95-42.74-12.27-62.86-16.48-8.63-1.81-22-4.75-16.6-11.74L104,337.06a12,12,0,0,0,.67-13.64Z"
          />
            <path
            class="cls-1"
            d="M394.61,302c4.75-7.61-7.85-31.75-16.75-32.8C337.25,264.4,291.3,274.67,286,311c-2,13.87,3.15,67.78,35.77,78,25.27,7.95,42.74-12.27,62.86-16.48,8.63-1.81,22-4.75,16.6-11.73l-16.94-27.72a12,12,0,0,1-.67-13.63Z"
          />
            <path
            class="cls-1"
            d="M282.45,399,250,334.78a7.92,7.92,0,0,0-14.37.52l-27.71,66.36a40.58,40.58,0,0,0-.19,31.17c5.86,14.41,26.8,12.94,30.9-2.06l.19-.68a6.9,6.9,0,0,1,13.35.17l.27,1.11c3.69,15,24.35,17.1,30.76,3A40.56,40.56,0,0,0,282.45,399Z"
          />
            <path class="cls-1" d="M357.08,537.67s-36.14-18.2-26.51-65.81" />
            <path class="cls-1" d="M300.23,554.53s-17.77-19.93-14-67.29" />
            <path class="cls-1" d="M240.06,568s.6-21.67-1.41-68.78" />
            <path class="cls-1" d="M186.11,556.59s19-23.41,11.14-70.27" />
            <path class="cls-1" d="M129,542.15S166.3,517,152.65,470.4" />
            <path
            class="cls-1"
            d="M111.87,137.51c45.7,46.44,203,36.17,260.82-2"
          />
        </g>
        <g>
            <path
            class="cls-1"
            d="M461,361c-58.17-39.19,3.1-91,3.1-174.89,0-115.07-55.2-174.89-224-174.89-170,0-228.81,58.1-228.81,167.06,0,84.45,65,137.17,6.41,176.64"
          />
            <path
            class="cls-1"
            d="M419.83,210.69c-17.36,12.92-17.05,41.63-4.79,63.6,23.58,42.26-32.66,42.79,21.26,96,16.14,15.93,27.18,5.2,30.65,27.76.37,2.45-1.58,7.42-4.86,13.67-13.91,26.48-44.79,38-73.36,29.13-10.05-3.11-21.18.32-31.51,18.49-16.56,29.15,8.47,30.3,12.72,57.82C371.93,530.06,338,568,240.06,568s-131.88-38-129.89-50.89c4.25-27.52,29.29-28.67,12.72-57.82-10.84-19.08-22.57-21.9-33-18-27.36,10.31-58.27-1.9-72.75-27.3-3.88-6.79-6.25-12.23-5.85-14.87,3.47-22.55,30.4-30.23,49-43.21,33.54-23.44-18.79-39.43,4.79-81.69,12.26-22,12.57-50.68-4.79-63.6"
          />
            <path
            class="cls-1"
            d="M93.71,305.88c-4.76-7.61,7.84-31.75,16.74-32.8,40.61-4.77,86.56,5.5,91.85,41.87,2,13.87-3.15,67.78-35.78,78-25.27,7.95-42.74-12.27-62.86-16.48-8.63-1.81-22-4.75-16.6-11.74L104,337.06a12,12,0,0,0,.67-13.64Z"
          />
            <path
            class="cls-1"
            d="M394.61,302c4.75-7.61-7.85-31.75-16.75-32.8C337.25,264.4,291.3,274.67,286,311c-2,13.87,3.15,67.78,35.77,78,25.27,7.95,42.74-12.27,62.86-16.48,8.63-1.81,22-4.75,16.6-11.73l-16.94-27.72a12,12,0,0,1-.67-13.63Z"
          />
            <path
            class="cls-1"
            d="M282.45,399,250,334.78a7.92,7.92,0,0,0-14.37.52l-27.71,66.36a40.58,40.58,0,0,0-.19,31.17c5.86,14.41,26.8,12.94,30.9-2.06l.19-.68a6.9,6.9,0,0,1,13.35.17l.27,1.11c3.69,15,24.35,17.1,30.76,3A40.56,40.56,0,0,0,282.45,399Z"
          />
            <path class="cls-1" d="M357.08,537.67s-36.14-18.2-26.51-65.81" />
            <path class="cls-1" d="M300.23,554.53s-17.77-19.93-14-67.29" />
            <path class="cls-1" d="M240.06,568s.6-21.67-1.41-68.78" />
            <path class="cls-1" d="M186.11,556.59s19-23.41,11.14-70.27" />
            <path class="cls-1" d="M129,542.15S166.3,517,152.65,470.4" />
            <path
            class="cls-1"
            d="M111.87,137.51c45.7,46.44,203,36.17,260.82-2"
          />
        </g>
        <g>
            <path
            class="cls-1"
            d="M461,361c-58.17-39.19,3.1-91,3.1-174.89,0-115.07-55.2-174.89-224-174.89-170,0-228.81,58.1-228.81,167.06,0,84.45,65,137.17,6.41,176.64"
          />
            <path
            class="cls-1"
            d="M419.83,210.69c-17.36,12.92-17.05,41.63-4.79,63.6,23.58,42.26-32.66,42.79,21.26,96,16.14,15.93,27.18,5.2,30.65,27.76.37,2.45-1.58,7.42-4.86,13.67-13.91,26.48-44.79,38-73.36,29.13-10.05-3.11-21.18.32-31.51,18.49-16.56,29.15,8.47,30.3,12.72,57.82C371.93,530.06,338,568,240.06,568s-131.88-38-129.89-50.89c4.25-27.52,29.29-28.67,12.72-57.82-10.84-19.08-22.57-21.9-33-18-27.36,10.31-58.27-1.9-72.75-27.3-3.88-6.79-6.25-12.23-5.85-14.87,3.47-22.55,30.4-30.23,49-43.21,33.54-23.44-18.79-39.43,4.79-81.69,12.26-22,12.57-50.68-4.79-63.6"
          />
            <path
            class="cls-1"
            d="M93.71,305.88c-4.76-7.61,7.84-31.75,16.74-32.8,40.61-4.77,86.56,5.5,91.85,41.87,2,13.87-3.15,67.78-35.78,78-25.27,7.95-42.74-12.27-62.86-16.48-8.63-1.81-22-4.75-16.6-11.74L104,337.06a12,12,0,0,0,.67-13.64Z"
          />
            <path
            class="cls-1"
            d="M394.61,302c4.75-7.61-7.85-31.75-16.75-32.8C337.25,264.4,291.3,274.67,286,311c-2,13.87,3.15,67.78,35.77,78,25.27,7.95,42.74-12.27,62.86-16.48,8.63-1.81,22-4.75,16.6-11.73l-16.94-27.72a12,12,0,0,1-.67-13.63Z"
          />
            <path
            class="cls-1"
            d="M282.45,399,250,334.78a7.92,7.92,0,0,0-14.37.52l-27.71,66.36a40.58,40.58,0,0,0-.19,31.17c5.86,14.41,26.8,12.94,30.9-2.06l.19-.68a6.9,6.9,0,0,1,13.35.17l.27,1.11c3.69,15,24.35,17.1,30.76,3A40.56,40.56,0,0,0,282.45,399Z"
          />
            <path class="cls-1" d="M357.08,537.67s-36.14-18.2-26.51-65.81" />
            <path class="cls-1" d="M300.23,554.53s-17.77-19.93-14-67.29" />
            <path class="cls-1" d="M240.06,568s.6-21.67-1.41-68.78" />
            <path class="cls-1" d="M186.11,556.59s19-23.41,11.14-70.27" />
            <path class="cls-1" d="M129,542.15S166.3,517,152.65,470.4" />
            <path
            class="cls-1"
            d="M111.87,137.51c45.7,46.44,203,36.17,260.82-2"
          />
        </g>
        <g>
            <path
            class="cls-1"
            d="M461,361c-58.17-39.19,3.1-91,3.1-174.89,0-115.07-55.2-174.89-224-174.89-170,0-228.81,58.1-228.81,167.06,0,84.45,65,137.17,6.41,176.64"
          />
            <path
            class="cls-1"
            d="M419.83,210.69c-17.36,12.92-17.05,41.63-4.79,63.6,23.58,42.26-32.66,42.79,21.26,96,16.14,15.93,27.18,5.2,30.65,27.76.37,2.45-1.58,7.42-4.86,13.67-13.91,26.48-44.79,38-73.36,29.13-10.05-3.11-21.18.32-31.51,18.49-16.56,29.15,8.47,30.3,12.72,57.82C371.93,530.06,338,568,240.06,568s-131.88-38-129.89-50.89c4.25-27.52,29.29-28.67,12.72-57.82-10.84-19.08-22.57-21.9-33-18-27.36,10.31-58.27-1.9-72.75-27.3-3.88-6.79-6.25-12.23-5.85-14.87,3.47-22.55,30.4-30.23,49-43.21,33.54-23.44-18.79-39.43,4.79-81.69,12.26-22,12.57-50.68-4.79-63.6"
          />
            <path
            class="cls-1"
            d="M93.71,305.88c-4.76-7.61,7.84-31.75,16.74-32.8,40.61-4.77,86.56,5.5,91.85,41.87,2,13.87-3.15,67.78-35.78,78-25.27,7.95-42.74-12.27-62.86-16.48-8.63-1.81-22-4.75-16.6-11.74L104,337.06a12,12,0,0,0,.67-13.64Z"
          />
            <path
            class="cls-1"
            d="M394.61,302c4.75-7.61-7.85-31.75-16.75-32.8C337.25,264.4,291.3,274.67,286,311c-2,13.87,3.15,67.78,35.77,78,25.27,7.95,42.74-12.27,62.86-16.48,8.63-1.81,22-4.75,16.6-11.73l-16.94-27.72a12,12,0,0,1-.67-13.63Z"
          />
            <path
            class="cls-1"
            d="M282.45,399,250,334.78a7.92,7.92,0,0,0-14.37.52l-27.71,66.36a40.58,40.58,0,0,0-.19,31.17c5.86,14.41,26.8,12.94,30.9-2.06l.19-.68a6.9,6.9,0,0,1,13.35.17l.27,1.11c3.69,15,24.35,17.1,30.76,3A40.56,40.56,0,0,0,282.45,399Z"
          />
            <path class="cls-1" d="M357.08,537.67s-36.14-18.2-26.51-65.81" />
            <path class="cls-1" d="M300.23,554.53s-17.77-19.93-14-67.29" />
            <path class="cls-1" d="M240.06,568s.6-21.67-1.41-68.78" />
            <path class="cls-1" d="M186.11,556.59s19-23.41,11.14-70.27" />
            <path class="cls-1" d="M129,542.15S166.3,517,152.65,470.4" />
            <path
            class="cls-1"
            d="M111.87,137.51c45.7,46.44,203,36.17,260.82-2"
          />
        </g>
    </g>
    <g class="light">
        <g>
            <path
            class="cls-1"
            d="M461,361c-58.17-39.19,3.1-91,3.1-174.89,0-115.07-55.2-174.89-224-174.89-170,0-228.81,58.1-228.81,167.06,0,84.45,65,137.17,6.41,176.64"
          />
            <path
            class="cls-1"
            d="M419.83,210.69c-17.36,12.92-17.05,41.63-4.79,63.6,23.58,42.26-32.66,42.79,21.26,96,16.14,15.93,27.18,5.2,30.65,27.76.37,2.45-1.58,7.42-4.86,13.67-13.91,26.48-44.79,38-73.36,29.13-10.05-3.11-21.18.32-31.51,18.49-16.56,29.15,8.47,30.3,12.72,57.82C371.93,530.06,338,568,240.06,568s-131.88-38-129.89-50.89c4.25-27.52,29.29-28.67,12.72-57.82-10.84-19.08-22.57-21.9-33-18-27.36,10.31-58.27-1.9-72.75-27.3-3.88-6.79-6.25-12.23-5.85-14.87,3.47-22.55,30.4-30.23,49-43.21,33.54-23.44-18.79-39.43,4.79-81.69,12.26-22,12.57-50.68-4.79-63.6"
          />
            <path
            class="cls-1"
            d="M93.71,305.88c-4.76-7.61,7.84-31.75,16.74-32.8,40.61-4.77,86.56,5.5,91.85,41.87,2,13.87-3.15,67.78-35.78,78-25.27,7.95-42.74-12.27-62.86-16.48-8.63-1.81-22-4.75-16.6-11.74L104,337.06a12,12,0,0,0,.67-13.64Z"
          />
            <path
            class="cls-1"
            d="M394.61,302c4.75-7.61-7.85-31.75-16.75-32.8C337.25,264.4,291.3,274.67,286,311c-2,13.87,3.15,67.78,35.77,78,25.27,7.95,42.74-12.27,62.86-16.48,8.63-1.81,22-4.75,16.6-11.73l-16.94-27.72a12,12,0,0,1-.67-13.63Z"
          />
            <path
            class="cls-1"
            d="M282.45,399,250,334.78a7.92,7.92,0,0,0-14.37.52l-27.71,66.36a40.58,40.58,0,0,0-.19,31.17c5.86,14.41,26.8,12.94,30.9-2.06l.19-.68a6.9,6.9,0,0,1,13.35.17l.27,1.11c3.69,15,24.35,17.1,30.76,3A40.56,40.56,0,0,0,282.45,399Z"
          />
            <path class="cls-1" d="M357.08,537.67s-36.14-18.2-26.51-65.81" />
            <path class="cls-1" d="M300.23,554.53s-17.77-19.93-14-67.29" />
            <path class="cls-1" d="M240.06,568s.6-21.67-1.41-68.78" />
            <path class="cls-1" d="M186.11,556.59s19-23.41,11.14-70.27" />
            <path class="cls-1" d="M129,542.15S166.3,517,152.65,470.4" />
            <path
            class="cls-1"
            d="M111.87,137.51c45.7,46.44,203,36.17,260.82-2"
          />
        </g>
        <g>
            <path
            class="cls-1"
            d="M461,361c-58.17-39.19,3.1-91,3.1-174.89,0-115.07-55.2-174.89-224-174.89-170,0-228.81,58.1-228.81,167.06,0,84.45,65,137.17,6.41,176.64"
          />
            <path
            class="cls-1"
            d="M419.83,210.69c-17.36,12.92-17.05,41.63-4.79,63.6,23.58,42.26-32.66,42.79,21.26,96,16.14,15.93,27.18,5.2,30.65,27.76.37,2.45-1.58,7.42-4.86,13.67-13.91,26.48-44.79,38-73.36,29.13-10.05-3.11-21.18.32-31.51,18.49-16.56,29.15,8.47,30.3,12.72,57.82C371.93,530.06,338,568,240.06,568s-131.88-38-129.89-50.89c4.25-27.52,29.29-28.67,12.72-57.82-10.84-19.08-22.57-21.9-33-18-27.36,10.31-58.27-1.9-72.75-27.3-3.88-6.79-6.25-12.23-5.85-14.87,3.47-22.55,30.4-30.23,49-43.21,33.54-23.44-18.79-39.43,4.79-81.69,12.26-22,12.57-50.68-4.79-63.6"
          />
            <path
            class="cls-1"
            d="M93.71,305.88c-4.76-7.61,7.84-31.75,16.74-32.8,40.61-4.77,86.56,5.5,91.85,41.87,2,13.87-3.15,67.78-35.78,78-25.27,7.95-42.74-12.27-62.86-16.48-8.63-1.81-22-4.75-16.6-11.74L104,337.06a12,12,0,0,0,.67-13.64Z"
          />
            <path
            class="cls-1"
            d="M394.61,302c4.75-7.61-7.85-31.75-16.75-32.8C337.25,264.4,291.3,274.67,286,311c-2,13.87,3.15,67.78,35.77,78,25.27,7.95,42.74-12.27,62.86-16.48,8.63-1.81,22-4.75,16.6-11.73l-16.94-27.72a12,12,0,0,1-.67-13.63Z"
          />
            <path
            class="cls-1"
            d="M282.45,399,250,334.78a7.92,7.92,0,0,0-14.37.52l-27.71,66.36a40.58,40.58,0,0,0-.19,31.17c5.86,14.41,26.8,12.94,30.9-2.06l.19-.68a6.9,6.9,0,0,1,13.35.17l.27,1.11c3.69,15,24.35,17.1,30.76,3A40.56,40.56,0,0,0,282.45,399Z"
          />
            <path class="cls-1" d="M357.08,537.67s-36.14-18.2-26.51-65.81" />
            <path class="cls-1" d="M300.23,554.53s-17.77-19.93-14-67.29" />
            <path class="cls-1" d="M240.06,568s.6-21.67-1.41-68.78" />
            <path class="cls-1" d="M186.11,556.59s19-23.41,11.14-70.27" />
            <path class="cls-1" d="M129,542.15S166.3,517,152.65,470.4" />
            <path
            class="cls-1"
            d="M111.87,137.51c45.7,46.44,203,36.17,260.82-2"
          />
        </g>
        <g>
            <path
            class="cls-1"
            d="M461,361c-58.17-39.19,3.1-91,3.1-174.89,0-115.07-55.2-174.89-224-174.89-170,0-228.81,58.1-228.81,167.06,0,84.45,65,137.17,6.41,176.64"
          />
            <path
            class="cls-1"
            d="M419.83,210.69c-17.36,12.92-17.05,41.63-4.79,63.6,23.58,42.26-32.66,42.79,21.26,96,16.14,15.93,27.18,5.2,30.65,27.76.37,2.45-1.58,7.42-4.86,13.67-13.91,26.48-44.79,38-73.36,29.13-10.05-3.11-21.18.32-31.51,18.49-16.56,29.15,8.47,30.3,12.72,57.82C371.93,530.06,338,568,240.06,568s-131.88-38-129.89-50.89c4.25-27.52,29.29-28.67,12.72-57.82-10.84-19.08-22.57-21.9-33-18-27.36,10.31-58.27-1.9-72.75-27.3-3.88-6.79-6.25-12.23-5.85-14.87,3.47-22.55,30.4-30.23,49-43.21,33.54-23.44-18.79-39.43,4.79-81.69,12.26-22,12.57-50.68-4.79-63.6"
          />
            <path
            class="cls-1"
            d="M93.71,305.88c-4.76-7.61,7.84-31.75,16.74-32.8,40.61-4.77,86.56,5.5,91.85,41.87,2,13.87-3.15,67.78-35.78,78-25.27,7.95-42.74-12.27-62.86-16.48-8.63-1.81-22-4.75-16.6-11.74L104,337.06a12,12,0,0,0,.67-13.64Z"
          />
            <path
            class="cls-1"
            d="M394.61,302c4.75-7.61-7.85-31.75-16.75-32.8C337.25,264.4,291.3,274.67,286,311c-2,13.87,3.15,67.78,35.77,78,25.27,7.95,42.74-12.27,62.86-16.48,8.63-1.81,22-4.75,16.6-11.73l-16.94-27.72a12,12,0,0,1-.67-13.63Z"
          />
            <path
            class="cls-1"
            d="M282.45,399,250,334.78a7.92,7.92,0,0,0-14.37.52l-27.71,66.36a40.58,40.58,0,0,0-.19,31.17c5.86,14.41,26.8,12.94,30.9-2.06l.19-.68a6.9,6.9,0,0,1,13.35.17l.27,1.11c3.69,15,24.35,17.1,30.76,3A40.56,40.56,0,0,0,282.45,399Z"
          />
            <path class="cls-1" d="M357.08,537.67s-36.14-18.2-26.51-65.81" />
            <path class="cls-1" d="M300.23,554.53s-17.77-19.93-14-67.29" />
            <path class="cls-1" d="M240.06,568s.6-21.67-1.41-68.78" />
            <path class="cls-1" d="M186.11,556.59s19-23.41,11.14-70.27" />
            <path class="cls-1" d="M129,542.15S166.3,517,152.65,470.4" />
            <path
            class="cls-1"
            d="M111.87,137.51c45.7,46.44,203,36.17,260.82-2"
          />
        </g>
        <g>
            <path
            class="cls-1"
            d="M461,361c-58.17-39.19,3.1-91,3.1-174.89,0-115.07-55.2-174.89-224-174.89-170,0-228.81,58.1-228.81,167.06,0,84.45,65,137.17,6.41,176.64"
          />
            <path
            class="cls-1"
            d="M419.83,210.69c-17.36,12.92-17.05,41.63-4.79,63.6,23.58,42.26-32.66,42.79,21.26,96,16.14,15.93,27.18,5.2,30.65,27.76.37,2.45-1.58,7.42-4.86,13.67-13.91,26.48-44.79,38-73.36,29.13-10.05-3.11-21.18.32-31.51,18.49-16.56,29.15,8.47,30.3,12.72,57.82C371.93,530.06,338,568,240.06,568s-131.88-38-129.89-50.89c4.25-27.52,29.29-28.67,12.72-57.82-10.84-19.08-22.57-21.9-33-18-27.36,10.31-58.27-1.9-72.75-27.3-3.88-6.79-6.25-12.23-5.85-14.87,3.47-22.55,30.4-30.23,49-43.21,33.54-23.44-18.79-39.43,4.79-81.69,12.26-22,12.57-50.68-4.79-63.6"
          />
            <path
            class="cls-1"
            d="M93.71,305.88c-4.76-7.61,7.84-31.75,16.74-32.8,40.61-4.77,86.56,5.5,91.85,41.87,2,13.87-3.15,67.78-35.78,78-25.27,7.95-42.74-12.27-62.86-16.48-8.63-1.81-22-4.75-16.6-11.74L104,337.06a12,12,0,0,0,.67-13.64Z"
          />
            <path
            class="cls-1"
            d="M394.61,302c4.75-7.61-7.85-31.75-16.75-32.8C337.25,264.4,291.3,274.67,286,311c-2,13.87,3.15,67.78,35.77,78,25.27,7.95,42.74-12.27,62.86-16.48,8.63-1.81,22-4.75,16.6-11.73l-16.94-27.72a12,12,0,0,1-.67-13.63Z"
          />
            <path
            class="cls-1"
            d="M282.45,399,250,334.78a7.92,7.92,0,0,0-14.37.52l-27.71,66.36a40.58,40.58,0,0,0-.19,31.17c5.86,14.41,26.8,12.94,30.9-2.06l.19-.68a6.9,6.9,0,0,1,13.35.17l.27,1.11c3.69,15,24.35,17.1,30.76,3A40.56,40.56,0,0,0,282.45,399Z"
          />
            <path class="cls-1" d="M357.08,537.67s-36.14-18.2-26.51-65.81" />
            <path class="cls-1" d="M300.23,554.53s-17.77-19.93-14-67.29" />
            <path class="cls-1" d="M240.06,568s.6-21.67-1.41-68.78" />
            <path class="cls-1" d="M186.11,556.59s19-23.41,11.14-70.27" />
            <path class="cls-1" d="M129,542.15S166.3,517,152.65,470.4" />
            <path
            class="cls-1"
            d="M111.87,137.51c45.7,46.44,203,36.17,260.82-2"
          />
        </g>
    </g>
</svg>
