<svg width="50" height="50" viewBox="0 0 50 50" fill="none" xmlns="http://www.w3.org/2000/svg">
<path d="M28.1247 16.6666C18.7497 16.6666 11.458 23.9583 11.458 23.9583L8.33301 26.0448L11.458 28.2822C15.6518 31.2718 20.8518 35.4166 28.1247 35.4166C35.4163 35.4166 45.833 28.125 45.833 25C45.833 21.875 35.4163 16.6666 28.1247 16.6666Z" fill="#00BCD4"/>
<path d="M32.8875 17.2625C31.8365 19.6041 31.25 22.2656 31.25 25C31.25 28.351 32.2104 31.5843 33.75 34.3072C39.1115 32.4541 45.8333 27.951 45.8333 25C45.8333 22.0489 38.5417 18.4729 32.8875 17.2625Z" fill="#4DD0E1"/>
<path d="M28.125 16.6667C29.6208 16.6667 31.2469 16.8886 32.8875 17.2625C32.7917 16.7511 32.0885 13.299 30.2083 11.4584C27.6687 11.5886 18.2802 15.0521 15.625 17.7084C16.2333 18.6209 16.649 19.3375 16.9542 19.9209C19.8865 18.2375 23.775 16.6667 28.125 16.6667Z" fill="#006064"/>
<path d="M4.16699 17.7084C5.20866 18.75 6.25033 23.6188 6.25033 26.0417C6.25033 28.4511 5.20866 33.3334 4.16699 34.375C7.29199 33.3334 10.6253 29.9292 11.4264 28.2594C11.4368 28.2677 11.4482 28.2761 11.4587 28.2823L9.37533 26.0448L11.4587 23.9584C11.4587 23.9584 9.37533 19.7917 4.16699 17.7084Z" fill="#006064"/>
<path d="M30.4261 38.5021C26.1334 38.6657 25.3636 38.324 23.7959 38.0188C24.7792 36.1219 30.5178 30.7917 31.5667 31.3334L31.474 31.824C32.5219 32.3667 31.4084 36.6042 30.4261 38.5021Z" fill="#006064"/>
<path d="M31.2503 25C31.2503 22.2656 31.8368 19.6042 32.8878 17.2625C32.1253 17.0656 30.841 16.8906 30.841 16.8906C29.742 19.4792 29.167 22.201 29.167 25C29.167 28.4437 30.0149 31.8854 31.6566 34.9198C32.3295 34.7333 33.0941 34.574 33.7514 34.3062C32.2107 31.5844 31.2503 28.351 31.2503 25Z" fill="#0097A7"/>
<path d="M39 22L35.5 25M39 25L35.5 22" stroke="black"/>
</svg>
