<?xml version="1.0" encoding="UTF-8" standalone="no"?> <svg id="Capa_1" enable-background="new 0 0 502 502" height="512" viewBox="0 0 502 502" width="512" xmlns="http://www.w3.org/2000/svg" xmlns:xlink="http://www.w3.org/1999/xlink"><linearGradient id="lg1"><stop offset="0" stop-color="#f7496e"/><stop offset="1" stop-color="#fd869c"/></linearGradient><linearGradient id="SVGID_1_" gradientUnits="userSpaceOnUse" x1="316.135" x2="502" xlink:href="#lg1" y1="192.075" y2="192.075"/><linearGradient id="SVGID_2_" gradientUnits="userSpaceOnUse" x1="4.232" x2="388.119" xlink:href="#lg1" y1="242.051" y2="242.051"/><linearGradient id="lg2"><stop offset="0" stop-color="#fd869c"/><stop offset="1" stop-color="#fdb0bf"/></linearGradient><linearGradient id="SVGID_3_" gradientUnits="userSpaceOnUse" x1="124.679" x2="377.614" xlink:href="#lg2" y1="124.696" y2="124.696"/><linearGradient id="SVGID_4_" gradientUnits="userSpaceOnUse" x1="141.25" x2="141.25" xlink:href="#lg1" y1="445.089" y2="301.303"/><linearGradient id="SVGID_5_" gradientUnits="userSpaceOnUse" x1="191.959" x2="191.959" xlink:href="#lg1" y1="370.738" y2="145.474"/><linearGradient id="SVGID_6_" gradientUnits="userSpaceOnUse" x1="31.18" x2="388.179" xlink:href="#lg2" y1="205.291" y2="205.291"/><linearGradient id="SVGID_7_" gradientUnits="userSpaceOnUse" x1="230.556" x2="230.556" xlink:href="#lg1" y1="251.808" y2="69.696"/><linearGradient id="SVGID_8_" gradientUnits="userSpaceOnUse" x1="267.098" x2="267.098" xlink:href="#lg1" y1="132.877" y2="56.911"/><linearGradient id="SVGID_9_" gradientUnits="userSpaceOnUse" x1="0" x2="347.088" xlink:href="#lg2" y1="318.79" y2="318.79"/><g><g><path d="m335.941 287.816c-9.141 0-17.36-6.36-19.359-15.659-2.302-10.703 4.509-21.244 15.212-23.545 27.291-5.868 45.675-14.218 56.203-25.526 8.965-9.63 12.511-21.294 16.998-36.06 8.224-27.059 18.458-60.735 67.503-88.168 9.558-5.344 21.633-1.93 26.976 7.623 5.344 9.554 1.931 21.632-7.623 26.976-35.111 19.639-41.513 40.705-48.926 65.097-10.168 33.456-21.694 71.377-102.798 88.815-1.403.302-2.805.447-4.186.447z" fill="url(#SVGID_1_)"/></g><path d="m186.701 57.049-62.022 12.647-51.686 29.613-41.813 46.165-26.948 65.055 2.349 90.774 97.918 105.064 171.419 20.685 42.202-26.781 28.968-29.84 32.597-62.478 8.434-61.676-10.505-58.593-30.119-55.59z" fill="url(#SVGID_2_)"/><path d="m377.614 187.684c-15.094 3.053-30.714 4.658-46.71 4.658-89.029 0-166.473-49.584-206.225-122.647 19.376-7.423 40.238-11.834 62.022-12.646 31.635 45.778 84.47 75.828 144.203 75.828 5.6 0 11.13-.268 16.591-.783 12.884 16.591 23.131 35.333 30.119 55.59z" fill="url(#SVGID_3_)"/><path d="m275.918 427.052c-24.866 11.576-52.597 18.038-81.834 18.038-89.792 0-165.343-60.982-187.504-143.787 74.649 70.565 168.396 114.133 269.338 125.749z" fill="url(#SVGID_4_)"/><path d="m379.685 307.953c-7.027 22.924-18.177 44.034-32.597 62.478-5.382.208-10.773.307-16.184.307-110.318 0-214.035-42.964-292.043-120.972-12.448-12.448-24.004-25.55-34.629-39.237 4.995-23.548 14.252-45.511 26.948-65.055 14.024 22.29 30.654 43.172 49.733 62.25 66.769 66.769 155.561 103.549 249.992 103.549 16.461 0 32.754-1.12 48.78-3.32z" fill="url(#SVGID_5_)"/><path d="m388.179 251.005c0 19.822-2.973 38.94-8.494 56.948-16.026 2.2-32.319 3.32-48.781 3.32-94.431 0-183.222-36.779-249.992-103.549-19.078-19.078-35.709-39.961-49.733-62.25 11.378-17.552 25.52-33.142 41.814-46.165 13.251 24.064 30 46.403 49.961 66.363 55.55 55.55 129.396 86.135 207.95 86.135 19.425 0 38.573-1.873 57.215-5.53.04 1.566.06 3.142.06 4.728z" fill="url(#SVGID_6_)"/><path d="m388.119 246.277c-18.642 3.657-37.79 5.53-57.215 5.53-78.553 0-152.399-30.585-207.95-86.135-19.96-19.96-36.71-42.3-49.961-66.363 15.471-12.359 32.874-22.408 51.685-29.614 39.752 73.063 117.196 122.647 206.225 122.647 15.996 0 31.616-1.606 46.71-4.658 6.363 18.425 10.021 38.118 10.506 58.593z" fill="url(#SVGID_7_)"/><path d="m347.495 132.094c-5.461.515-10.991.783-16.591.783-59.733 0-112.568-30.05-144.203-75.828 2.448-.089 4.916-.139 7.384-.139 62.388.001 117.909 29.436 153.41 75.184z" fill="url(#SVGID_8_)"/><path d="m113.243 155.497c-15.735-17.279-29.207-36.135-40.249-56.188-7.979 6.377-15.438 13.374-22.313 20.911 11.499 19.763 25.114 38.315 40.639 55.36 5.635 6.186 15.284 6.442 21.201.525l.327-.327c5.557-5.557 5.686-14.47.395-20.281z" fill="#f7496e"/><path d="m347.088 370.431c-18.811 24.073-43.182 43.578-71.17 56.621-100.942-11.616-194.689-55.184-269.337-125.749-4.292-16.036-6.581-32.905-6.581-50.298 0-13.885 1.457-27.423 4.232-40.476 10.624 13.687 22.181 26.789 34.629 39.237 78.008 78.008 181.726 120.972 292.043 120.972 5.411 0 10.803-.099 16.184-.307z" fill="url(#SVGID_9_)"/><path d="m330.904 370.738c-36.743 0-72.751-4.772-107.323-14.012-6.516-1.742-13.384 1.145-16.726 7.004-4.822 8.455-.369 19.222 9.035 21.733 33.031 8.82 67.287 13.823 102.229 14.808 10.682-8.886 20.407-18.883 28.968-29.84-5.38.208-10.772.307-16.183.307z" fill="#fd748d"/></g></svg>
