<svg xmlns="http://www.w3.org/2000/svg" viewBox="0 0 179.48 259.37"><defs><style>.cls-1{fill:#e53657;}.cls-2{fill:#9c233a;}.cls-3{fill:#ff6381;}.cls-4,.cls-6,.cls-7{fill:none;stroke-miterlimit:10;}.cls-4,.cls-7{stroke:#77e07d;stroke-linecap:round;}.cls-4{stroke-width:18px;}.cls-5{fill:#008f3b;}.cls-6{stroke:#008f3b;stroke-width:8px;}.cls-7{stroke-width:16px;}.cls-8{fill:#77e07d;}.cls-9{fill:#34914d;}.cls-10{fill:#48b565;}</style></defs><title>Resurs 1</title><g id="Lager_2" data-name="Lager 2"><g id="Lager_1-2" data-name="Lager 1"><path class="cls-1" d="M113.06,193.56C106.79,231.25,93.4,240.49,80.39,242c-8.1,1-16-1.06-22-1.06-6.66,0-16.83,3.8-26.78,2.9-13.44-1.21-26.46-11-29.79-50.32C-1.74,152.09,26.68,135,57.42,135S119.48,155,113.06,193.56Z"/><path class="cls-2" d="M31.56,243.88a26.44,26.44,0,0,1-8.16-1.59l-1.95-.82-1.84-1a14.58,14.58,0,0,1-1.75-1.19,15.38,15.38,0,0,1-1.67-1.32,38,38,0,0,1-9.37-14c-.61-1.27-1-2.62-1.48-3.94-.24-.66-.48-1.32-.68-2l-.56-2c-.8-2.69-1.33-5.43-1.91-8.16a146.21,146.21,0,0,1-2-16.59l-.1-2.11,0-1L0,187l.1-4.22.41-4.22a16.44,16.44,0,0,1,.3-2.09l.38-2.09a48.9,48.9,0,0,1,6.05-15.77,43.21,43.21,0,0,1,11.34-12.4,48.55,48.55,0,0,1,14.91-7.34,55.23,55.23,0,0,0-14,8.5A44.37,44.37,0,0,0,9.28,159.81,49.24,49.24,0,0,0,4,175l-.33,2a16.58,16.58,0,0,0-.27,2l-.35,4L3,187l0,1,.06,1,.11,2c.06,2.7.46,5.43.7,8.15.1,1.37.35,2.71.53,4.06s.36,2.71.6,4.05A92.08,92.08,0,0,0,9,223.1a38.51,38.51,0,0,0,8.2,13.75,23.41,23.41,0,0,0,6.54,4.68A28.37,28.37,0,0,0,31.56,243.88Z"/><path class="cls-2" d="M84.71,152c-17.31-6-14.74,7-28.84,7s-9.07-15-31.32-6c-3.13,1.27,9-6.83,12.36-8,5.77-2,10-2,19-2,10.94,0,14.83,0,21.42,2C80.68,146,89.46,153.63,84.71,152Z"/><path class="cls-3" d="M22.49,154.48a23.57,23.57,0,0,1,4.36-3.58,19,19,0,0,1,5.41-2.43,13.68,13.68,0,0,1,6.66-.14,15.21,15.21,0,0,1,6.1,3.18,52.66,52.66,0,0,1,4.08,4,7.41,7.41,0,0,0,2.5,1.93,1.59,1.59,0,0,0,.35.08,4.73,4.73,0,0,0,.65,0c.77,0,1.53,0,2.28-.1a28.19,28.19,0,0,0,4.47-.75,32.81,32.81,0,0,0,4.35-1.48c1.44-.62,2.87-1.35,4.33-2.16l4.52-2.65A28.15,28.15,0,0,1,78,147.73a11,11,0,0,1,3.62-.54c.35,0,.59,0,.85.06l.77.11c.52.09,1,.19,1.54.33a13.63,13.63,0,0,1,5.59,2.84,10.61,10.61,0,0,1,3.28,5.13,11.65,11.65,0,0,1,.1,5.62,13.17,13.17,0,0,0-2-4.77,8.5,8.5,0,0,0-3.49-2.93,11.52,11.52,0,0,0-5.41-.9l-.55,0a2.37,2.37,0,0,0-.49.08,6.13,6.13,0,0,0-1.55.66,30,30,0,0,0-3.74,2.73c-1.34,1.09-2.74,2.27-4.29,3.37a37.54,37.54,0,0,1-4.93,3.12A30.7,30.7,0,0,1,61.76,165a30,30,0,0,1-6,1.24c-1,.1-2,.18-3,.19a10.31,10.31,0,0,1-4.24-.67,11.67,11.67,0,0,1-3.55-2.16,20.72,20.72,0,0,1-2.28-2.39c-1.25-1.53-2.19-2.85-3.11-3.94a10.62,10.62,0,0,0-2.84-2.47,7.33,7.33,0,0,0-1.76-.74,10.63,10.63,0,0,0-2.12-.4C29.74,153.37,26.19,154,22.49,154.48Z"/><path class="cls-2" d="M35.68,241.48c8.24,0,14-4,22.25-4s10.71,4,23.07,2"/><path class="cls-3" d="M20.93,191.5c1.41,11.05,7.29,13.42-1.82,15.13s-12.65-19.85-10.52-31C10.84,163.8,19,154.12,27.82,157.2,44.33,163,19.53,180.45,20.93,191.5Z"/><path class="cls-2" d="M31.56,243.88c10,.9,20.12-2.9,26.78-2.9,6,0,14,2,22,1.06,12.2-1.45,24.73-9.67,31.42-41.77l-1.53-1.15c-1.7-1.29-3.87.32-3.72,2.74.66,10.54-5.78,31.28-21,32.12-7.69.43-12.36-7-27.19-7-11.54,0-42,12.54-49.86-3l-.11.75C14.2,238.65,22.79,243.09,31.56,243.88Z"/><path class="cls-4" d="M57.48,146c0-70,62-136,62-136"/><path class="cls-1" d="M169.63,208.91C163.36,246.6,150,255.84,137,257.39c-8.09,1-16-1.06-22-1.06-6.65,0-16.82,3.8-26.76,2.91-13.43-1.21-26.44-11-29.77-50.33-3.51-41.47,24.9-58.58,55.61-58.58S176.05,170.33,169.63,208.91Z"/><path class="cls-2" d="M88.18,259.24a25.55,25.55,0,0,1-8.34-1.38,23.61,23.61,0,0,1-7.47-4.35,38.18,38.18,0,0,1-9.76-14.22,84.46,84.46,0,0,1-4.82-16.41,137.27,137.27,0,0,1-2-16.87c-.07-1.44-.16-2.87-.09-4.31s0-2.88.14-4.32l.47-4.31c.2-1.43.51-2.85.78-4.27a47.94,47.94,0,0,1,6.65-16A42.45,42.45,0,0,1,69.16,166a45,45,0,0,1,6.64-5.48,47.1,47.1,0,0,1,15.5-6.68,58.27,58.27,0,0,0-14,8.64A45,45,0,0,0,67,174.8c-5.21,9.32-6.91,20.22-6.29,31,.06,2.68.4,5.42.66,8.15.11,1.37.29,2.73.49,4.08l.55,4.07a103.71,103.71,0,0,0,3.78,15.81,38.87,38.87,0,0,0,7.82,13.86,22.9,22.9,0,0,0,6.34,4.85A29.37,29.37,0,0,0,88.18,259.24Z"/><path class="cls-2" d="M141.3,167.33c-17.3-6-14.73,7-28.83,7s-9.06-15-31.3-6c-3.12,1.27,9-6.83,12.36-8,5.76-2,9.94-2,18.94-2,10.94,0,14.83,0,21.42,2C137.28,161.36,146.05,169,141.3,167.33Z"/><path class="cls-3" d="M75.82,165.83a6.48,6.48,0,0,1,2.66-1.53,16.73,16.73,0,0,1,3-.64c1-.15,2-.2,2.9-.29a6.77,6.77,0,0,0,1.19-.17l.11,0,.2,0,.41,0a7.89,7.89,0,0,1,.84-.05,12.88,12.88,0,0,1,3.51.35A14.93,14.93,0,0,1,94,164.68a43.12,43.12,0,0,1,5,3.43,20.23,20.23,0,0,0,3.95,2.32,16.6,16.6,0,0,0,4.18,1.12,29.13,29.13,0,0,0,4.73.28,27.81,27.81,0,0,0,4.75-.47,31.12,31.12,0,0,0,9.14-3.31c1.52-.79,3-1.72,4.65-2.67a42,42,0,0,1,5.39-2.84,12.67,12.67,0,0,1,3.53-.94,8.14,8.14,0,0,1,1-.06c.33,0,.71,0,.95,0a14.91,14.91,0,0,1,1.63.25,14.36,14.36,0,0,1,6,2.65,10.73,10.73,0,0,1,3.69,5.25,11.74,11.74,0,0,1,.18,5.9,13.19,13.19,0,0,0-2.11-5,8.52,8.52,0,0,0-3.76-2.91,11,11,0,0,0-4.55-.74c-.39,0-.78,0-1.17.08a4.13,4.13,0,0,0-.44.09,3.56,3.56,0,0,0-.39.13,9.54,9.54,0,0,0-1.73.92c-2.52,1.72-5.39,4.44-8.73,6.68a38,38,0,0,1-5.42,3.07,32.57,32.57,0,0,1-6.07,2,32,32,0,0,1-6.37.78,30.72,30.72,0,0,1-6.43-.47,22.31,22.31,0,0,1-6.45-2.24,23.3,23.3,0,0,1-5.27-4c-1.45-1.41-2.56-2.72-3.65-3.62a8.67,8.67,0,0,0-3.63-1.94c-.17-.06-.36-.08-.55-.13l-.29-.06-.15,0-.24,0a13,13,0,0,1-1.59-.41c-.94-.32-1.8-.63-2.67-1s-1.71-.59-2.59-.81A8.06,8.06,0,0,0,75.82,165.83Z"/><path class="cls-2" d="M92.29,256.83c8.24,0,14-4,22.24-4s10.71,4,23.06,2"/><path class="cls-3" d="M77.56,206.85C79,217.9,84.84,220.28,75.74,222S63.1,202.13,65.23,191c2.24-11.81,10.41-21.49,19.21-18.41C100.94,178.33,76.15,195.8,77.56,206.85Z"/><path class="cls-2" d="M88.18,259.24c9.94.89,20.11-2.91,26.76-2.91,6,0,13.95,2,22,1.06,12.2-1.45,24.72-9.67,31.4-41.77l-1.52-1.15c-1.7-1.29-3.87.32-3.72,2.75.66,10.53-5.78,31.27-21,32.11-7.69.43-22.59-9.44-34.26,1.65-11.21,10.65-34.93,3.89-42.75-11.65l-.11.75C70.83,254,79.42,258.45,88.18,259.24Z"/><path class="cls-5" d="M123.06,30.12a232,232,0,0,0-21.73,24.31A179.31,179.31,0,0,0,83.81,82a158.76,158.76,0,0,0-11.87,30.52A165.58,165.58,0,0,0,66.48,145,167.41,167.41,0,0,1,70,112,161.83,161.83,0,0,1,80.2,80.23,184.47,184.47,0,0,1,96.47,50.92,237.31,237.31,0,0,1,117.3,24.57Z"/><path class="cls-6" d="M119.48,4c4.39.41,5.35,46.17,4.94,50.57,4.06-43.16-5.94-5.54-5.94,107.43"/><path class="cls-7" d="M110.48,162c0-114.15,1.13-68.13,9-152"/><path class="cls-8" d="M116,2.48a10.8,10.8,0,0,1,2.72.71,14.79,14.79,0,0,1,2.5,1.37,22.92,22.92,0,0,1,4.22,3.83,52.72,52.72,0,0,1,6.39,9.39A101.83,101.83,0,0,1,136.71,28q2.19,5.22,4,10.56a306.54,306.54,0,0,1,11.13,43.7c1.32,7.4,2.49,14.83,3.3,22.33s1.43,14.86,2.28,22.23c.47,3.66,1,7.32,1.7,10.87a39.41,39.41,0,0,0,1.39,5.18,19.24,19.24,0,0,0,2.23,4.63,18.28,18.28,0,0,0,3.61,3.76c1.39,1.17,2.91,2.28,4.38,3.46a62.86,62.86,0,0,1,8.21,7.76,91.73,91.73,0,0,0-9.21-6.33c-1.58-1-3.2-1.89-4.82-2.94a20.17,20.17,0,0,1-4.52-3.89c-2.67-3.18-4-7-5-10.7A97.84,97.84,0,0,1,153,127.45c-1.27-7.43-2-14.94-2.81-22.32s-1.85-14.72-3.11-22a392.54,392.54,0,0,0-9.68-43.47A154.64,154.64,0,0,0,130,18.72a57,57,0,0,0-5.44-9.6,24.2,24.2,0,0,0-3.69-4.07,14.77,14.77,0,0,0-2.26-1.58A10.67,10.67,0,0,0,116,2.48Z"/><path class="cls-9" d="M153,107.48c5,50.53,7.94,38.24,25.5,54.54-18.49-36.91-4-33.74-4-74,0-53.82-15.34-66.19-46.32-81.42a31.75,31.75,0,0,0-9.1-3C136.54,12.75,149.75,74.56,153,107.48Z"/><path class="cls-10" d="M178.48,162c-17.56-16.3-20.55-4-25.5-54.54-3.23-32.92-16.44-94.73-33.92-103.93C95.26-.08,88.32,36.61,102.48,78c13,38,46,70.77,77,86C179.13,163.32,178.81,162.67,178.48,162Z"/><path class="cls-8" d="M116,2.48a10.8,10.8,0,0,1,2.72.71,14.79,14.79,0,0,1,2.5,1.37,22.92,22.92,0,0,1,4.22,3.83,52.72,52.72,0,0,1,6.39,9.39A101.83,101.83,0,0,1,136.71,28q2.19,5.22,4,10.56a306.54,306.54,0,0,1,11.13,43.7c1.32,7.4,2.49,14.83,3.3,22.33s1.43,14.86,2.28,22.23c.47,3.66,1,7.32,1.7,10.87a39.41,39.41,0,0,0,1.39,5.18,19.24,19.24,0,0,0,2.23,4.63,18.28,18.28,0,0,0,3.61,3.76c1.39,1.17,2.91,2.28,4.38,3.46a62.86,62.86,0,0,1,8.21,7.76,91.73,91.73,0,0,0-9.21-6.33c-1.58-1-3.2-1.89-4.82-2.94a20.17,20.17,0,0,1-4.52-3.89c-2.67-3.18-4-7-5-10.7A97.84,97.84,0,0,1,153,127.45c-1.27-7.43-2-14.94-2.81-22.32s-1.85-14.72-3.11-22a392.54,392.54,0,0,0-9.68-43.47A154.64,154.64,0,0,0,130,18.72a57,57,0,0,0-5.44-9.6,24.2,24.2,0,0,0-3.69-4.07,14.77,14.77,0,0,0-2.26-1.58A10.67,10.67,0,0,0,116,2.48Z"/></g></g></svg>
