<svg xmlns="http://www.w3.org/2000/svg" viewBox="0 0 191.08 187.99"><defs><style>.cls-1{fill:#48b565;}.cls-2{fill:#56c473;}.cls-3{fill:#86d69b;}</style></defs><title>Resurs 3</title><g id="Lager_2" data-name="Lager 2"><g id="Lager_1-2" data-name="Lager 1"><path class="cls-1" d="M125.4,5.38c-8.62-3.18-19-1.7-27.47,7.2-10.53,23.29-5,77,0,89.42,2.2-10.56,7.86-24.94,22.87-44.82C129.48,45.68,136,38.34,138.14,28,140.12,18.4,136.16,9.34,125.4,5.38Z"/><path class="cls-2" d="M97.93,12.58A24.4,24.4,0,0,0,52.19,24.39C52.19,61,97.93,102,97.93,102,92.94,84.82,87.4,35.87,97.93,12.58Z"/><path class="cls-1" d="M185.7,121.14c3.18-8.62,1.7-19-7.2-27.47-23.28-10.53-77-5-89.42,0,10.57,2.21,24.94,7.87,44.82,22.87,11.5,8.68,18.85,15.22,29.16,17.34C172.68,135.86,181.74,131.9,185.7,121.14Z"/><path class="cls-2" d="M178.5,93.67a24.39,24.39,0,0,0-11.81-45.73c-36.59,0-77.61,45.73-77.61,45.73C106.26,88.68,155.22,83.14,178.5,93.67Z"/><path class="cls-1" d="M5.38,63.05c-3.18,8.62-1.7,19,7.2,27.48,23.29,10.53,77,5,89.42,0-10.56-2.21-24.94-7.87-44.82-22.87C45.68,59,38.34,52.44,28,50.32,18.4,48.33,9.34,52.3,5.38,63.05Z"/><path class="cls-2" d="M12.58,90.53a24.39,24.39,0,0,0,11.81,45.73C61,136.26,102,90.53,102,90.53,84.82,95.51,35.87,101.06,12.58,90.53Z"/><path class="cls-1" d="M62,178.69c8.34,3.85,18.77,3.19,27.95-5C102.25,151.3,101,97.33,97,84.54c-3,10.36-9.81,24.24-26.33,42.87C61.07,138.19,54,145,51.05,155.11,48.31,164.55,51.55,173.89,62,178.69Z"/><path class="cls-2" d="M89.91,173.68a24.4,24.4,0,0,0,46.53-8.16C139.33,129,97,84.54,97,84.54,100.59,102.06,102.25,151.3,89.91,173.68Z"/><path class="cls-1" d="M121.38,87.87c-10.66,3.8-23.25,4.41-22.65,21.45C93,96.62,86.94,95.26,68.72,96c17.46-6.57,26.47-10.51,23.59-27.72C100.57,88.44,106.73,91,121.38,87.87Z"/><path class="cls-2" d="M106.21,9.16c-2,2.67-2.88,5.74-3.7,8.85s-1.32,6.32-1.83,9.53-1,6.45-1.54,9.69-1,6.52-1.38,9.81-.6,6.6-.81,9.91-.39,6.63-.5,10c-.26,6.64-.28,13.31,0,20l-.5.06a188.89,188.89,0,0,1-2-20c-.16-3.35-.28-6.71-.32-10.07s0-6.72.13-10.09c.25-6.72.33-13.56,2-20.22a49.35,49.35,0,0,1,3.43-9.77,26.65,26.65,0,0,1,2.74-4.5,13,13,0,0,1,4-3.51Z"/><path class="cls-2" d="M101.62,93.06a89.46,89.46,0,0,1,9.28-1.82c3.12-.47,6.24-.88,9.38-1.23s6.27-.62,9.42-.85,6.31-.35,9.47-.44,6.33-.19,9.52-.19a57.67,57.67,0,0,1,9.54.8,50.78,50.78,0,0,1,9.38,2.44A22,22,0,0,1,176,96.85l-.29.41a41.54,41.54,0,0,0-8.94-2.08c-3-.41-6.07-.66-9.12-.89s-6.12-.49-9.2-.82-6.17-.59-9.28-.75-6.22-.22-9.34-.23-6.24,0-9.37,0a174.53,174.53,0,0,0-18.71,1Z"/><path class="cls-3" d="M101.34,84.82c4.33-4.26,8.7-8.59,13.42-12.53a119.58,119.58,0,0,1,15-10.72c5.31-3.15,10.82-6.23,16.89-7.88A54.64,54.64,0,0,1,155.93,52a42.7,42.7,0,0,1,9.32.09v.4c-3,.88-5.95,1.34-8.82,2.28-1.44.43-2.9.72-4.3,1.28s-2.83.91-4.23,1.42-2.77,1.07-4.18,1.56c-.7.23-1.39.52-2.08.81l-2.08.82c-.69.27-1.4.51-2.09.8l-2,.92c-1.36.63-2.74,1.22-4.06,2A117.63,117.63,0,0,0,116,73.87l-3.67,2.69c-1.2.93-2.42,1.85-3.6,2.8-2.39,1.89-4.68,3.88-7.12,5.77Z"/><path class="cls-3" d="M106.28,100.34a237.69,237.69,0,0,1,13.8,20.12,123.39,123.39,0,0,1,10.71,22.12c.66,2,1.32,3.94,1.81,6a49,49,0,0,1,1.24,6.18,32.58,32.58,0,0,1,.26,6.41c0,.54-.07,1.08-.14,1.61l-.24,1.57a30.34,30.34,0,0,1-.61,3.13c-.31,1-.52,2.07-.91,3.07l-.57,1.51a9.69,9.69,0,0,1-.64,1.49,24.64,24.64,0,0,1-1.59,2.83l-.91,1.35-1.07,1.24a17,17,0,0,1-5.14,3.94,12.87,12.87,0,0,1-6.18,1.35v-.4a15.59,15.59,0,0,0,9.12-6.64,27.37,27.37,0,0,0,4-10.59,24.81,24.81,0,0,0,.43-2.87l.21-1.43c0-.48.07-1,.1-1.42a38,38,0,0,0,0-5.74,54.17,54.17,0,0,0-2.16-11.58,121.37,121.37,0,0,0-9.4-22.11c-3.73-7.16-8-14-12.39-20.88Z"/><path class="cls-2" d="M96.2,101.64c.13,7.5.36,15,.33,22.56,0,3.76-.13,7.54-.29,11.32s-.47,7.55-.94,11.34a91.8,91.8,0,0,1-1.88,11.42c-.27.95-.49,1.91-.81,2.86s-.74,1.9-1.13,2.84-.88,1.76-1.34,2.62-1,1.69-1.54,2.54c-2.23,3.25-4.9,6.45-8.6,8.49a13.45,13.45,0,0,1-6,1.75,11.76,11.76,0,0,1-5.81-1.33l.15-.48a13.55,13.55,0,0,0,5.32-.45,12.66,12.66,0,0,0,4.37-2.42A20,20,0,0,0,81.51,171c.53-.67,1-1.42,1.49-2.14s.89-1.52,1.34-2.28.85-1.56,1.25-2.36l1.18-2.41c.32-.8.67-1.58,1-2.37s.59-1.67.89-2.5.56-1.71.81-2.58.53-1.73.72-2.63c.4-1.79.83-3.58,1.14-5.41.68-3.63,1.14-7.33,1.58-11s.81-7.42,1.11-11.16.6-7.47.86-11.21.46-7.5.81-11.25Z"/></g></g></svg>