<svg xmlns="http://www.w3.org/2000/svg" viewBox="0 0 163.18 265.68"><defs><style>.cls-1{fill:#39b54a;}.cls-2{fill:#006837;}.cls-3{fill:#009245;}</style></defs><title>Resurs 6</title><g id="Lager_2" data-name="Lager 2"><g id="Lager_1-2" data-name="Lager 1"><path class="cls-1" d="M82.83,0h0a7.53,7.53,0,0,1,7.53,7.53V209.42A7.53,7.53,0,0,1,82.83,217h0a0,0,0,0,1,0,0V0A0,0,0,0,1,82.83,0Z"/><path class="cls-2" d="M75.3,0h0a0,0,0,0,1,0,0V169a0,0,0,0,1,0,0h0a7.53,7.53,0,0,1-7.53-7.53V7.53A7.53,7.53,0,0,1,75.3,0Z"/><rect class="cls-3" x="71.53" width="15.06" height="179.29" rx="7.53"/><path class="cls-3" d="M57.24,64.8c0-31.28,36.46-35.1,63-26.12a29.1,29.1,0,1,0,34.58,28.57c0-.64,0-1.28-.07-1.91h.07c0-19.31-17.13-37.8-67.16-37.8S7.48,50.94,7.48,92.27c0,77.23,108.77,49.76,108.77,106.6,0,29.15-53.39,29.86-81.75,17.46A29.1,29.1,0,1,0,.91,181c-.78.85-1.12,2.9-.78,6.68a29,29,0,0,0,7.2,19.15c9.93,13.24,31.54,23.54,74.38,23.54,52.76,0,80.5-34.26,80.5-66.89C162.21,95.8,57.24,107.5,57.24,64.8Z"/><path class="cls-1" d="M81.71,229.85l2.73-.45c.9-.15,1.81-.24,2.71-.43l2.68-.51,1.34-.26,1.32-.31,2.65-.59c.88-.19,1.74-.45,2.61-.67s1.74-.43,2.6-.71l2.55-.8c.85-.25,1.69-.57,2.52-.87s1.67-.59,2.5-.9l2.45-1,1.22-.5,1.19-.55a79.45,79.45,0,0,0,9.2-4.82,75,75,0,0,0,8.33-5.87,69.54,69.54,0,0,0,7.26-6.87,61.42,61.42,0,0,0,10.68-16.25,55.87,55.87,0,0,0,3.12-9c.17-.77.4-1.53.55-2.3l.45-2.31.33-2.33c.09-.77.14-1.55.22-2.33,0-.38.06-.77.07-1.16l0-1.16c.05-.78,0-1.55,0-2.32l0-1.16-.07-1.17c0-.78-.07-1.57-.17-2.33a43.25,43.25,0,0,0-1.78-8.85,38.91,38.91,0,0,0-3.51-8,39.71,39.71,0,0,0-5.26-7,63.07,63.07,0,0,0-14.87-11.62,157,157,0,0,0-18.44-9.23c-3.24-1.44-6.55-2.85-9.91-4.26s-6.78-2.81-10.2-4.35-6.91-3.11-10.39-4.87a92.42,92.42,0,0,1-10.44-6,53.7,53.7,0,0,1-10-8.46,39.4,39.4,0,0,1-4.23-5.78,33.16,33.16,0,0,1-3-6.85,30.8,30.8,0,0,1-1.18-7.3c0-1.19,0-2.45.09-3.51l.14-1.64c0-.28,0-.55.07-.82L50,60.5l.27-1.66c.05-.27.09-.54.15-.82l.2-.83a30.38,30.38,0,0,1,.91-3.29l.56-1.62c.2-.54.46-1.07.69-1.6s.47-1,.74-1.57l.86-1.52.43-.75c.15-.25.33-.49.49-.73l1-1.43c.32-.48.73-.9,1.09-1.35s.73-.89,1.13-1.31A31.2,31.2,0,0,1,63.7,37.6a37.45,37.45,0,0,1,11.66-5.3A52.7,52.7,0,0,1,87.3,30.62a63.89,63.89,0,0,1,11.62.76A80.73,80.73,0,0,1,110,33.94c.9.29,1.79.61,2.68.91s1.76.67,2.63,1,1.73.72,2.59,1.09l2.53,1.21-.36,1.06a80.79,80.79,0,0,0-21.38-4A57.08,57.08,0,0,0,77.35,38,32.29,32.29,0,0,0,68,43a26.6,26.6,0,0,0-3.83,3.67c-.29.34-.54.7-.81,1s-.55.69-.77,1.08L61.84,50c-.11.19-.24.38-.34.57l-.29.6a27.83,27.83,0,0,0-2.88,10.18l-.07.66c0,.22,0,.45,0,.67l0,1.34c-.06.9,0,1.77,0,2.66a21.44,21.44,0,0,0,3.3,9.89,29.77,29.77,0,0,0,3.29,4.16,44.34,44.34,0,0,0,8.43,6.63,90.7,90.7,0,0,0,9.58,5.14c3.29,1.55,6.64,3,10,4.38,6.76,2.77,13.61,5.39,20.38,8.25a165.84,165.84,0,0,1,19.85,9.75,73.24,73.24,0,0,1,17.36,13.88,50.58,50.58,0,0,1,6.51,9.12,47.45,47.45,0,0,1,4.25,10.36,53.77,53.77,0,0,1,1.85,11,61.11,61.11,0,0,1-.28,11.15,62.51,62.51,0,0,1-6.54,21.22,63.54,63.54,0,0,1-5.94,9.42,66.28,66.28,0,0,1-7.41,8.3,73.21,73.21,0,0,1-8.62,7c-.76.54-1.55,1-2.33,1.53l-1.17.75-1.2.7c-.81.45-1.59.94-2.41,1.37l-2.48,1.26a81.48,81.48,0,0,1-10.27,4.17l-1.32.44c-.44.14-.88.26-1.33.39l-2.66.76c-.9.23-1.8.43-2.69.65s-1.8.43-2.71.59a111.16,111.16,0,0,1-22,2Z"/><path class="cls-1" d="M119.78,43.59c1.9,2.72-5.19,5.55-7.61,7.8-5.08,4.71-7.35,14.13-9.25,11.42s.55-11.78,5.81-16.88C111.11,43.63,117.88,40.88,119.78,43.59Z"/><path class="cls-1" d="M32.49,164c2.8,3.72-5.82,3.64-13,9S9.31,187.3,6.5,183.58s.75-11.12,7.92-16.52S29.69,160.28,32.49,164Z"/><path class="cls-2" d="M107.45,89.1l-.3.51a29.09,29.09,0,0,0,47.71-22.36c0-.64,0-1.28-.07-1.91h.07a29.6,29.6,0,0,0-3.14-13.45c0,.47.08,1,.15,1.48C155.5,80.39,134.1,96.35,107.45,89.1Z"/><path class="cls-2" d="M65.11,225.24a11.52,11.52,0,0,0,1.57-1.55c-11.57-.79-23.14-3.41-32.18-7.36A29.08,29.08,0,0,0,46,164l-1.67.35c5.62,9.25,7.25,37-13.42,49.49S62.81,226.75,65.11,225.24Z"/><path class="cls-1" d="M82.83,171.95h0a7.53,7.53,0,0,1,7.53,7.53v77.86a7.53,7.53,0,0,1-7.53,7.53h0a0,0,0,0,1,0,0V171.95A0,0,0,0,1,82.83,171.95Z"/><path class="cls-2" d="M75.3,151.82h0a0,0,0,0,1,0,0v113a0,0,0,0,1,0,0h0a7.53,7.53,0,0,1-7.53-7.53v-98A7.53,7.53,0,0,1,75.3,151.82Z"/><rect class="cls-3" x="71.53" y="144.21" width="15.06" height="121.47" rx="7.53"/><path class="cls-2" d="M8,92.27c.61,1.71,1,3.39,1.63,5s1.14,3.24,1.7,4.81c.33.78.66,1.55,1,2.31s.68,1.5,1,2.24.7,1.46,1.06,2.17l.54,1.07.6,1A49.34,49.34,0,0,0,27,124.71c9,7.54,20.53,12.27,32.9,17,3.08,1.23,6.25,2.38,9.44,3.6l4.82,1.9c1.61.64,3.24,1.27,4.86,2,3.24,1.4,6.53,2.82,9.78,4.5.81.41,1.63.84,2.44,1.27s1.64.87,2.44,1.35,1.61,1,2.41,1.45,1.6,1,2.39,1.53c1.6,1,3.14,2.21,4.66,3.41.76.62,1.51,1.26,2.25,1.89l1.08,1c.36.34.72.67,1.06,1,.7.73,1.39,1.43,2,2.2l1,1.14c.31.4.61.81.91,1.22a37.93,37.93,0,0,1,3.23,5.14A31.45,31.45,0,0,1,118,187.78a13.9,13.9,0,0,1,.08,1.44c0,.48,0,.95,0,1.43,0,.95-.1,1.89-.16,2.81s-.29,1.85-.43,2.75l-.31,1.34-.35,1.32h-1.12a35.51,35.51,0,0,0-1.48-10,30.67,30.67,0,0,0-4.46-9,37.06,37.06,0,0,0-7-7.17,56.43,56.43,0,0,0-8.55-5.47,153.94,153.94,0,0,0-18.84-8.05c-6.45-2.35-13-4.56-19.44-7A144.44,144.44,0,0,1,37,143.56a66.21,66.21,0,0,1-16.58-12.7,48.89,48.89,0,0,1-10.58-18,57.83,57.83,0,0,1-2.29-10.2,78.49,78.49,0,0,1-.58-10.39Z"/><path class="cls-1" d="M82.83,0h0a7.53,7.53,0,0,1,7.53,7.53v67.7a7.53,7.53,0,0,1-7.53,7.53h0a0,0,0,0,1,0,0V0A0,0,0,0,1,82.83,0Z"/><path class="cls-2" d="M75.3,0h0a0,0,0,0,1,0,0V64.44a0,0,0,0,1,0,0h0a7.53,7.53,0,0,1-7.53-7.53V7.53A7.53,7.53,0,0,1,75.3,0Z"/><rect class="cls-3" x="71.53" width="15.06" height="86.29" rx="7.53"/></g></g></svg>