<svg xmlns="http://www.w3.org/2000/svg" viewBox="0 0 329.2 407.53"><defs><style>.cls-1{fill:#ffce9c;}.cls-2{fill:#fff;}.cls-3{fill:#cc8a46;}.cls-4{fill:#31f000;}</style></defs><title>Resurs 7</title><g id="Lager_2" data-name="Lager 2"><g id="Lager_2-2" data-name="Lager 2"><path class="cls-1" d="M160.31,387.41c-45.92,0-84.88-11.73-112.69-33.92C18.1,329.94,2.5,295.12,2.5,252.81c0-89.39,72.72-162.1,162.1-162.1s162.1,72.71,162.1,162.1c0,41.86-17.06,76.66-49.35,100.63C247.85,375.34,206.28,387.41,160.31,387.41Z"/><path d="M164.6,93.21a159.6,159.6,0,0,1,159.6,159.6c0,41-16.71,75.14-48.34,98.62-29.07,21.59-70.11,33.48-115.55,33.48S76.54,373.37,49.18,351.54A113,113,0,0,1,16.8,310.48C9,293.57,5,274.17,5,252.81A159.6,159.6,0,0,1,164.6,93.21m0-5A164.59,164.59,0,0,0,0,252.81c0,90.9,69.4,137.1,160.31,137.1s168.89-46.2,168.89-137.1A164.59,164.59,0,0,0,164.6,88.21Z"/><path class="cls-2" d="M136.25,285.93A181,181,0,0,1,117,284.51a156.25,156.25,0,0,0-16-1.22c-30.28,0-56.11-42.89-60.7-51,4.87-7,30.56-41.87,60.7-41.87,31.32,0,57.72,28.76,61.3,32.83,1,5.21,7.11,40.73-2.11,53.88C156,283.14,148.37,285.93,136.25,285.93Z"/><path d="M101,193c29.21,0,54.22,26.19,59,31.48,2.2,11.85,5.6,40.69-1.83,51.3-3.69,5.25-10.64,7.7-21.87,7.7a179.56,179.56,0,0,1-19-1.4A157.62,157.62,0,0,0,101,280.79c-27.51,0-51.64-37.94-57.74-48.34,6.41-9,30.26-39.5,57.74-39.5m0-5c-35.15,0-63.64,44.24-63.64,44.24s28.49,53.6,63.64,53.6c9.74,0,23.12,2.64,35.28,2.64,10.74,0,20.51-2.06,26-9.84,10.64-15.18,2.39-56.44,2.39-56.44S136.11,188,101,188Z"/><path class="cls-2" d="M209.07,288.55c-15.16,0-31.68-1.68-39.36-14.08-8-12.85-3.58-45.58-2.76-51.12,4.1-4,30.26-28,61.28-28,30.18,0,55.9,36.51,60.71,43.76-4.65,7.86-30.47,49.08-60.71,49.08-2.8,0-5.76.07-8.89.16C216,288.46,212.55,288.55,209.07,288.55Z"/><path d="M228.23,197.87c27.45,0,51.4,32.08,57.74,41.34-6.15,10.1-30.24,46.5-57.74,46.5-2.84,0-5.81.08-9,.16-3.32.09-6.75.18-10.2.18-14.47,0-30.2-1.53-37.24-12.9-6.44-10.41-4.2-37.17-2.54-48.58,5.43-5.1,30.1-26.7,58.94-26.7m0-5c-35.14,0-63.63,29.28-63.63,29.28s-6.27,38.68,3,53.63c8.24,13.31,25.28,15.27,41.49,15.27,6.76,0,13.39-.34,19.16-.34,35.15,0,63.64-51.65,63.64-51.65s-28.49-46.19-63.64-46.19Z"/><circle cx="104.86" cy="232.19" r="36.85"/><path class="cls-2" d="M88.26,228.84a12.66,12.66,0,1,1,12.66-12.65A12.66,12.66,0,0,1,88.26,228.84Z"/><path d="M88.26,204a12.16,12.16,0,1,1-12.15,12.16A12.17,12.17,0,0,1,88.26,204m0-1a13.16,13.16,0,1,0,13.16,13.16A13.16,13.16,0,0,0,88.26,203Z"/><path class="cls-2" d="M121.93,260.19a6.08,6.08,0,1,1,6.08-6.08A6.09,6.09,0,0,1,121.93,260.19Z"/><path d="M121.93,248.53a5.58,5.58,0,1,1-5.58,5.58,5.58,5.58,0,0,1,5.58-5.58m0-1a6.58,6.58,0,1,0,6.58,6.58,6.59,6.59,0,0,0-6.58-6.58Z"/><circle cx="219.16" cy="236.78" r="37.22"/><path class="cls-2" d="M206.29,233.4a12.79,12.79,0,1,1,12.79-12.78A12.79,12.79,0,0,1,206.29,233.4Z"/><path d="M206.29,208.33A12.29,12.29,0,1,1,194,220.62a12.3,12.3,0,0,1,12.28-12.29m0-1a13.29,13.29,0,1,0,13.29,13.29,13.28,13.28,0,0,0-13.29-13.29Z"/><path class="cls-2" d="M238.85,265.06a5.92,5.92,0,1,1,5.92-5.92A5.92,5.92,0,0,1,238.85,265.06Z"/><path d="M238.85,253.72a5.42,5.42,0,1,1-5.42,5.42,5.42,5.42,0,0,1,5.42-5.42m0-1a6.42,6.42,0,1,0,6.42,6.42,6.42,6.42,0,0,0-6.42-6.42Z"/><path class="cls-3" d="M214.67,405c-16,0-33.82-5.81-53.09-17.27l-1.33-.8-1.31.85c-15.2,9.88-30.63,14.89-45.86,14.89A64.45,64.45,0,0,1,67.2,383.77C55.67,372.25,49.06,357,49.06,342c0-15.83,9-33.73,24-47.88,15.72-14.78,35.52-23.25,54.33-23.25a61.43,61.43,0,0,1,33.45,9.86l1.12.72,1.22-.53c12.5-5.46,24.88-8.23,36.8-8.23,42.79,0,71.54,35.84,71.54,69.31,0,15.9-5.27,31.6-14.46,43.08-7.29,9.12-20.56,20-42.41,20Z"/><path d="M127.42,273.34a58.91,58.91,0,0,1,32.1,9.47l2.25,1.43,2.44-1.06c12.18-5.32,24.23-8,35.81-8,41.29,0,69,34.55,69,66.81,0,15.34-5.07,30.48-13.91,41.52-6.95,8.69-19.61,19-40.46,19-15.51,0-32.94-5.69-51.82-16.92L160.19,384l-2.61,1.7c-14.79,9.61-29.76,14.48-44.5,14.48A61.94,61.94,0,0,1,69,382C57.91,371,51.56,356.36,51.56,342c0-15.16,8.69-32.37,23.25-46.06,15.26-14.34,34.43-22.57,52.61-22.57m0-5c-41.62,0-80.86,39.27-80.86,73.63,0,31.87,28.15,63.23,66.52,63.23,14.59,0,30.66-4.53,47.23-15.29,20.95,12.47,39.1,17.62,54.37,17.62,39.15,0,59.37-33.92,59.37-65.56,0-34.82-29.73-71.81-74-71.81-11.68,0-24.37,2.57-37.8,8.43a64,64,0,0,0-34.79-10.25Z"/><path class="cls-3" d="M290.47,160.57c-4.29,0-9.89-4-16.37-8.6a144.27,144.27,0,0,0-15.72-10.14l-3-1.57c-16-8.5-34.09-18.13-35.08-28.61-.45-4.78,2.75-10,9.52-15.4,33.05-26.55,64.36-28,79.4-28.69,3.17-.15,5.61-.26,7.48-.55-.23,15.18-2.39,74.42-21.7,91.67a6.62,6.62,0,0,1-4.57,1.89Z"/><path d="M314.22,69.79c-.5,24.12-4.78,72.68-20.85,87a4.07,4.07,0,0,1-2.9,1.25c-3.49,0-9-3.95-14.92-8.13a146.14,146.14,0,0,0-16-10.32l-3-1.57c-15.42-8.2-32.9-17.5-33.76-26.64-.37-3.88,2.52-8.33,8.6-13.21,32.41-26,62-27.41,77.95-28.14,1.82-.09,3.42-.16,4.84-.27m5-6.35C315.65,68,274,57.58,228.3,94.3c-26.75,21.5,3,35.92,28.9,49.74,14.56,7.77,24.84,19,33.27,19a9.05,9.05,0,0,0,6.23-2.52c23.22-20.73,22.57-97.11,22.57-97.11Z"/><path class="cls-3" d="M27.43,160.93a5.17,5.17,0,0,1-4.16-2.22C6.64,138.86,13.05,79.92,15,64.87c1.81.56,4.21,1,7.33,1.62,14.79,2.86,45.56,8.8,74.43,39.84,5,5.36,7.16,9.59,6.42,12.55-1.2,4.84-10.56,8.11-20.47,11.57a179.8,179.8,0,0,0-17.3,6.73C57.25,141,50.19,146.48,44,151.31,37.29,156.47,31.54,160.93,27.43,160.93Z"/><path d="M17.1,68c1.39.3,3,.61,4.76,1C37.5,72,66.61,77.59,94.93,108c6,6.41,6.06,9.3,5.82,10.25-.87,3.53-10.43,6.86-18.86,9.81a183,183,0,0,0-17.54,6.82c-8.42,4-15.59,9.52-21.92,14.42-5.78,4.48-11.75,9.1-15,9.1-.39,0-1.13,0-2.24-1.32C11.35,140.59,14.12,91.93,17.1,68M13,61s-11.65,75.49,8.34,99.35a7.66,7.66,0,0,0,6.07,3.11c9.22,0,21.89-15.93,39.05-24,23.81-11.18,53.19-12.16,32.11-34.82C58.66,61.7,16,66,13,61Z"/><path d="M154.23,323.82c-12-9.26-21.47-20.1-27.51-31.71-2.71-5.21,2.15-10.79,10.31-11.82a223.84,223.84,0,0,1,55.11,0c8.29,1,13.18,6.76,10.23,12-6.4,11.37-15.76,22-27.43,31.41C169.6,328,159.71,328,154.23,323.82Z"/><path d="M145.23,372.48c-9,0-19.33-5.28-29.32-15.27l3.54-3.54c11.61,11.62,23.25,16.22,31.93,12.62,7.74-3.2,12.17-12.74,12.17-26.17h5c0,15.55-5.56,26.77-15.25,30.79A21,21,0,0,1,145.23,372.48Z"/><path d="M186.62,372.69a20.51,20.51,0,0,1-8-1.54c-9.61-4-15.12-15.29-15.12-31h5c0,13.62,4.39,23.25,12,26.41,8.64,3.58,20.32-1.11,32.08-12.86l3.53,3.54C206.06,367.34,195.68,372.69,186.62,372.69Z"/><path d="M123.29,308.84a174.42,174.42,0,0,0-21.92-4.91A129.17,129.17,0,0,0,79,302.34a89,89,0,0,0-22.25,3.11,58.06,58.06,0,0,0-10.53,4,39.61,39.61,0,0,0-4.84,2.92,14.36,14.36,0,0,0-4,4,14.41,14.41,0,0,1,3.79-4.22,38,38,0,0,1,4.73-3.23,59.3,59.3,0,0,1,10.45-4.67,91.18,91.18,0,0,1,22.5-4.42,132.87,132.87,0,0,1,23,.37A179.92,179.92,0,0,1,124.55,304a2.5,2.5,0,1,1-1.12,4.87Z"/><path d="M118.7,323.87a128.35,128.35,0,0,0-13-2.95c-2.19-.43-4.4-.66-6.61-1l-3.33-.33c-1.11-.12-2.22-.2-3.34-.25a123.68,123.68,0,0,0-52.78,8.35,99.59,99.59,0,0,0-12.23,5.78,62,62,0,0,0-5.74,3.6c-.92.65-1.82,1.34-2.68,2.07a11,11,0,0,0-2.28,2.49,10.85,10.85,0,0,1,2.18-2.6,34,34,0,0,1,2.59-2.21A62.92,62.92,0,0,1,27.07,333a99.43,99.43,0,0,1,12.07-6.4,123.18,123.18,0,0,1,26-8.38,125,125,0,0,1,27.38-2.57c1.15,0,2.3,0,3.45.11s2.3.1,3.45.18c2.29.21,4.59.35,6.88.69A135.14,135.14,0,0,1,120,319a2.5,2.5,0,0,1-1.08,4.89l-.1,0Z"/><path d="M123.29,341a112.09,112.09,0,0,0-13.23-2.87l-1.67-.27-1.69-.19-3.37-.38c-2.26-.14-4.52-.36-6.79-.36a101.34,101.34,0,0,0-13.6.52c-2.27.2-4.52.55-6.77.88s-4.49.8-6.71,1.33a117.49,117.49,0,0,0-25.83,9.14,106.41,106.41,0,0,0-12,6.86,69,69,0,0,0-5.57,4.07c-.89.72-1.76,1.48-2.59,2.27a13.28,13.28,0,0,0-2.23,2.62,13,13,0,0,1,2.12-2.73c.8-.83,1.64-1.63,2.5-2.4,1.72-1.54,3.55-3,5.41-4.35a109.1,109.1,0,0,1,11.73-7.45,119.61,119.61,0,0,1,25.8-10.46c2.24-.64,4.52-1.14,6.8-1.67s4.58-.9,6.9-1.21a104.08,104.08,0,0,1,14-1.17c2.35-.1,4.69,0,7,.06l3.52.23,1.76.12,1.76.2a117.64,117.64,0,0,1,13.92,2.37,2.5,2.5,0,1,1-1.06,4.89l-.1,0Z"/><path d="M200.17,304a180.08,180.08,0,0,1,22.72-3.79,132.73,132.73,0,0,1,23-.37,91.17,91.17,0,0,1,22.51,4.42,59.3,59.3,0,0,1,10.45,4.67,37.86,37.86,0,0,1,4.72,3.23,14.31,14.31,0,0,1,3.8,4.22,14.4,14.4,0,0,0-4-4,39.49,39.49,0,0,0-4.83-2.92,58.63,58.63,0,0,0-10.53-4,89,89,0,0,0-22.25-3.11,129.36,129.36,0,0,0-22.41,1.59,175.21,175.21,0,0,0-21.92,4.91A2.5,2.5,0,0,1,200,304Z"/><path d="M204.77,319a134.15,134.15,0,0,1,13.63-2.44c2.28-.34,4.59-.48,6.88-.69,1.15-.08,2.3-.12,3.45-.18s2.3-.11,3.45-.11a124.86,124.86,0,0,1,27.37,2.57,123.08,123.08,0,0,1,26,8.38,98.57,98.57,0,0,1,12.06,6.4,60.15,60.15,0,0,1,5.61,3.88,34.1,34.1,0,0,1,2.6,2.21,10.85,10.85,0,0,1,2.18,2.6,11,11,0,0,0-2.28-2.49c-.86-.73-1.76-1.42-2.68-2.07a62.16,62.16,0,0,0-5.75-3.6,98.23,98.23,0,0,0-12.23-5.78,120.67,120.67,0,0,0-26-7.07,122,122,0,0,0-26.78-1.28c-1.12.05-2.23.13-3.34.25l-3.33.33c-2.21.32-4.43.55-6.62,1a128.16,128.16,0,0,0-13,2.95l-.08,0a2.5,2.5,0,0,1-1.29-4.83Z"/><path d="M200.17,336.17a117.8,117.8,0,0,1,13.93-2.37l1.75-.2,1.76-.12,3.52-.23c2.35,0,4.7-.16,7.05-.06a104.08,104.08,0,0,1,14,1.17c2.32.31,4.61.78,6.9,1.21s4.56,1,6.8,1.67a119.61,119.61,0,0,1,25.8,10.46,109.1,109.1,0,0,1,11.73,7.45c1.86,1.38,3.68,2.81,5.41,4.35.86.77,1.7,1.57,2.5,2.4a13,13,0,0,1,2.12,2.73,13.28,13.28,0,0,0-2.23-2.62c-.83-.79-1.7-1.55-2.6-2.27a68.82,68.82,0,0,0-5.56-4.07,106.41,106.41,0,0,0-11.95-6.86,117.49,117.49,0,0,0-25.83-9.14c-2.22-.53-4.47-.92-6.71-1.33s-4.5-.68-6.77-.88a101.49,101.49,0,0,0-13.61-.52c-2.26,0-4.52.22-6.78.36l-3.38.38-1.68.19-1.67.27A112.25,112.25,0,0,0,201.43,341l-.09,0a2.5,2.5,0,0,1-1.27-4.83Z"/><path d="M254.84,133.47a13,13,0,0,1-1.05-21.72c12.64-9.18,29.89-20.84,39.18-23.34,15.79-4.27,0,61.46-9.82,59.32C277.87,146.59,265.32,139.65,254.84,133.47Z"/><path d="M34,150.1c6.74-6.32,24-18.11,30.33-18.53a12.85,12.85,0,0,0,11.8-13.18c0-7.47-34.46-29-46.76-31.9s-8.43-3.37-9.27,5.9-.84,40.44,2.11,48S34,150.1,34,150.1Z"/><path class="cls-2" d="M148.57,294.52c-7,0-12.9-2.62-12.9-5.72s5.91-5.72,12.9-5.72,12.9,2.62,12.9,5.72S155.56,294.52,148.57,294.52Z"/><path d="M148.57,283.58c7.3,0,12.4,2.75,12.4,5.22s-5.1,5.22-12.4,5.22-12.4-2.75-12.4-5.22,5.09-5.22,12.4-5.22m0-1c-7.4,0-13.4,2.78-13.4,6.22s6,6.22,13.4,6.22,13.4-2.79,13.4-6.22-6-6.22-13.4-6.22Z"/><path class="cls-4" d="M95.24,189.87a2.47,2.47,0,0,1-1.73-.7,2.5,2.5,0,0,1-.77-1.8v-7.22a2.49,2.49,0,0,1,2.5-2.5c8.82,0,15.67-1.75,20.37-5.2,4.46-3.27,6.72-10.17,6.72-20.52V67.28c0-10.69-.82-18.65-2.45-23.66-1.49-4.54-4-7.41-7.61-8.75-4.07-1.49-9.8-2.25-17-2.25a2.5,2.5,0,0,1-2.5-2.5V22.55a2.5,2.5,0,0,1,2.45-2.5c21.57-.45,39.62-1.95,53.64-4.44,13.86-2.45,26.21-6.75,36.7-12.78a2.48,2.48,0,0,1,1.24-.33,2.42,2.42,0,0,1,1.25.34A2.47,2.47,0,0,1,189.27,5V155.37c0,11.2,2,16,3.72,18,2.36,2.83,6.75,4.27,13,4.27a2.49,2.49,0,0,1,2.5,2.5v7.22a2.51,2.51,0,0,1-2.5,2.5h-.12c-4.91-.24-11.86-.54-20.11-.86-8.76-.34-17.93-.51-27.25-.51-12.54,0-24.73.17-36.23.51-10.62.31-20,.61-27,.86Z"/><path d="M186.77,5V155.37q0,14.44,4.3,19.61t15,5.17v7.22c-4.59-.22-11.3-.52-20.13-.86S168,186,158.56,186q-18.93,0-36.31.51t-27,.86v-7.22q14.12,0,21.85-5.68t7.74-22.54V67.28q0-16.51-2.58-24.43t-9.12-10.32q-6.54-2.4-17.89-2.41V22.55q32.69-.69,54-4.47T186.77,5m0-5a5,5,0,0,0-2.49.66C174,6.54,162,10.75,148.39,13.15c-13.89,2.47-31.81,4-53.25,4.4a5,5,0,0,0-4.9,5v7.57a5,5,0,0,0,5,5c6.93,0,12.37.71,16.17,2.1,1.83.67,4.45,2.15,6.09,7.18,1.55,4.75,2.33,12.45,2.33,22.88v84.65c0,6.54-1,15-5.7,18.51-4.26,3.12-10.61,4.71-18.89,4.71a5,5,0,0,0-5,5v7.22a5,5,0,0,0,5,5h.18c7-.25,16.37-.55,27-.86,11.48-.34,23.64-.51,36.16-.51,9.29,0,18.43.17,27.16.51,8.23.32,15.18.61,20.08.86H206a5,5,0,0,0,5-5v-7.22a5,5,0,0,0-5-5c-3.8,0-8.81-.59-11.12-3.37-1.18-1.41-3.15-5.41-3.15-16.41V5a5,5,0,0,0-5-5Z"/></g></g></svg>