<svg xmlns="http://www.w3.org/2000/svg" viewBox="0 0 329.2 391.39"><defs><style>.cls-1{fill:#ffce9c;}.cls-2{fill:#fff;}.cls-3{fill:#cc8a46;}.cls-4{fill:#f08800;}</style></defs><title>Resurs 8</title><g id="Lager_2" data-name="Lager 2"><g id="Lager_2-2" data-name="Lager 2"><path class="cls-1" d="M160.31,371.27c-45.92,0-84.88-11.73-112.69-33.92C18.1,313.8,2.5,279,2.5,236.67c0-89.39,72.72-162.1,162.1-162.1s162.1,72.71,162.1,162.1c0,41.86-17.06,76.66-49.35,100.63C247.85,359.21,206.28,371.27,160.31,371.27Z"/><path d="M164.6,77.07a159.6,159.6,0,0,1,159.6,159.6c0,41-16.71,75.15-48.34,98.62-29.07,21.59-70.11,33.48-115.55,33.48S76.54,357.23,49.18,335.4A112.88,112.88,0,0,1,16.8,294.34C9,277.43,5,258,5,236.67A159.6,159.6,0,0,1,164.6,77.07m0-5A164.59,164.59,0,0,0,0,236.67c0,90.9,69.4,137.1,160.31,137.1s168.89-46.2,168.89-137.1A164.59,164.59,0,0,0,164.6,72.07Z"/><path class="cls-2" d="M136.25,269.79A183.66,183.66,0,0,1,117,268.38a156.46,156.46,0,0,0-16-1.23c-30.28,0-56.11-42.88-60.7-51,4.87-7,30.56-41.87,60.7-41.87,31.32,0,57.72,28.76,61.3,32.83,1,5.21,7.11,40.73-2.11,53.88C156,267,148.37,269.79,136.25,269.79Z"/><path d="M101,176.81c29.21,0,54.22,26.19,59,31.48,2.2,11.85,5.6,40.69-1.83,51.3-3.69,5.25-10.64,7.7-21.87,7.7a179.56,179.56,0,0,1-19-1.4A157.62,157.62,0,0,0,101,264.65c-27.51,0-51.64-37.94-57.74-48.34,6.41-9,30.26-39.5,57.74-39.5m0-5c-35.15,0-63.64,44.24-63.64,44.24s28.49,53.6,63.64,53.6c9.74,0,23.12,2.64,35.28,2.64,10.74,0,20.51-2.06,26-9.83C172.85,247.27,164.6,206,164.6,206S136.11,171.81,101,171.81Z"/><path class="cls-2" d="M209.07,272.41c-15.16,0-31.68-1.67-39.36-14.08-8-12.85-3.58-45.58-2.76-51.12,4.1-4,30.26-28,61.28-28,30.18,0,55.9,36.51,60.71,43.76-4.65,7.86-30.47,49.08-60.71,49.08-2.8,0-5.76.08-8.89.16C216,272.32,212.55,272.41,209.07,272.41Z"/><path d="M228.23,181.73c27.45,0,51.4,32.08,57.74,41.34-6.15,10.1-30.24,46.5-57.74,46.5-2.84,0-5.81.08-9,.16-3.32.09-6.75.18-10.2.18-14.47,0-30.2-1.53-37.24-12.9-6.44-10.41-4.2-37.17-2.54-48.57,5.43-5.11,30.1-26.71,58.94-26.71m0-5c-35.14,0-63.63,29.29-63.63,29.29s-6.27,38.67,3,53.62c8.24,13.31,25.28,15.27,41.49,15.27,6.76,0,13.39-.34,19.16-.34,35.15,0,63.64-51.65,63.64-51.65s-28.49-46.19-63.64-46.19Z"/><circle cx="104.86" cy="216.05" r="36.85"/><path class="cls-2" d="M88.26,212.7a12.66,12.66,0,1,1,12.66-12.65A12.66,12.66,0,0,1,88.26,212.7Z"/><path d="M88.26,187.89a12.16,12.16,0,1,1-12.15,12.16,12.17,12.17,0,0,1,12.15-12.16m0-1a13.16,13.16,0,1,0,13.16,13.16,13.16,13.16,0,0,0-13.16-13.16Z"/><path class="cls-2" d="M121.93,244.05A6.08,6.08,0,1,1,128,238,6.09,6.09,0,0,1,121.93,244.05Z"/><path d="M121.93,232.39a5.58,5.58,0,1,1-5.58,5.58,5.59,5.59,0,0,1,5.58-5.58m0-1a6.58,6.58,0,1,0,6.58,6.58,6.59,6.59,0,0,0-6.58-6.58Z"/><circle cx="219.16" cy="220.64" r="37.22"/><path class="cls-2" d="M206.29,217.26a12.79,12.79,0,1,1,12.79-12.78A12.79,12.79,0,0,1,206.29,217.26Z"/><path d="M206.29,192.19A12.29,12.29,0,1,1,194,204.48a12.3,12.3,0,0,1,12.28-12.29m0-1a13.29,13.29,0,1,0,13.29,13.29,13.28,13.28,0,0,0-13.29-13.29Z"/><path class="cls-2" d="M238.85,248.92a5.92,5.92,0,1,1,5.92-5.92A5.92,5.92,0,0,1,238.85,248.92Z"/><path d="M238.85,237.59a5.42,5.42,0,1,1-5.42,5.41,5.42,5.42,0,0,1,5.42-5.41m0-1a6.42,6.42,0,1,0,6.42,6.41,6.41,6.41,0,0,0-6.42-6.41Z"/><path class="cls-3" d="M214.67,388.89c-16,0-33.82-5.81-53.09-17.27l-1.33-.79-1.31.84c-15.2,9.88-30.63,14.89-45.86,14.89A64.45,64.45,0,0,1,67.2,367.63c-11.53-11.52-18.14-26.75-18.14-41.8,0-15.83,9-33.73,24-47.88,15.72-14.77,35.52-23.25,54.33-23.25a61.43,61.43,0,0,1,33.45,9.86l1.12.72,1.22-.53c12.5-5.46,24.88-8.23,36.8-8.23,42.79,0,71.54,35.84,71.54,69.31,0,15.9-5.27,31.6-14.46,43.09-7.29,9.11-20.56,20-42.41,20Z"/><path d="M127.42,257.2a58.91,58.91,0,0,1,32.1,9.47l2.25,1.43,2.44-1.06c12.18-5.32,24.23-8,35.81-8,41.29,0,69,34.55,69,66.81,0,15.34-5.07,30.48-13.91,41.53-6.95,8.68-19.61,19-40.46,19-15.51,0-32.94-5.69-51.82-16.92l-2.67-1.59-2.61,1.7c-14.79,9.61-29.76,14.48-44.5,14.48A61.94,61.94,0,0,1,69,365.86c-11.06-11.05-17.41-25.64-17.41-40,0-15.15,8.69-32.37,23.25-46.06,15.26-14.34,34.43-22.57,52.61-22.57m0-5c-41.62,0-80.86,39.28-80.86,73.63,0,31.87,28.15,63.23,66.52,63.23,14.59,0,30.66-4.53,47.23-15.29,20.95,12.47,39.1,17.62,54.37,17.62,39.15,0,59.37-33.91,59.37-65.56,0-34.82-29.73-71.81-74-71.81-11.68,0-24.37,2.58-37.8,8.44a63.88,63.88,0,0,0-34.79-10.26Z"/><path class="cls-3" d="M290.47,144.43c-4.29,0-9.89-4-16.37-8.6a144.27,144.27,0,0,0-15.72-10.14l-3-1.57c-16-8.5-34.09-18.13-35.08-28.61-.45-4.77,2.75-10,9.52-15.4,33.05-26.55,64.36-28,79.4-28.69,3.17-.15,5.61-.26,7.48-.54-.23,15.17-2.39,74.42-21.7,91.66a6.62,6.62,0,0,1-4.57,1.89Z"/><path d="M314.22,53.65c-.5,24.12-4.78,72.68-20.85,87a4.07,4.07,0,0,1-2.9,1.25c-3.49,0-9-4-14.92-8.13a144.68,144.68,0,0,0-16-10.31l-3-1.58c-15.42-8.2-32.9-17.49-33.76-26.63-.37-3.89,2.52-8.34,8.6-13.22,32.41-26,62-27.41,77.95-28.14,1.82-.09,3.42-.16,4.84-.27m5-6.35c-3.62,4.57-45.27-5.85-91,30.86-26.75,21.5,3,35.92,28.9,49.74,14.56,7.77,24.84,19,33.27,19a9.05,9.05,0,0,0,6.23-2.52c23.22-20.73,22.57-97.11,22.57-97.11Z"/><path class="cls-3" d="M27.43,144.8a5.16,5.16,0,0,1-4.16-2.23C6.64,122.72,13.05,63.79,15,48.74c1.81.55,4.21,1,7.33,1.61,14.79,2.86,45.56,8.8,74.43,39.84,5,5.37,7.16,9.59,6.42,12.55-1.2,4.84-10.56,8.11-20.47,11.57A179.8,179.8,0,0,0,65.41,121c-8.16,3.83-15.22,9.3-21.45,14.13C37.29,140.34,31.54,144.8,27.43,144.8Z"/><path d="M17.1,51.85c1.39.31,3,.61,4.76,1,15.64,3,44.75,8.64,73.07,39.08,6,6.41,6.06,9.3,5.82,10.25-.87,3.53-10.43,6.86-18.86,9.81a183.13,183.13,0,0,0-17.54,6.83c-8.42,4-15.59,9.51-21.92,14.42-5.78,4.47-11.75,9.1-15,9.1-.39,0-1.13,0-2.24-1.33C11.35,124.45,14.12,75.79,17.1,51.85m-4.08-7s-11.65,75.49,8.34,99.35a7.67,7.67,0,0,0,6.07,3.12c9.22,0,21.89-15.94,39.05-24,23.81-11.18,53.19-12.16,32.11-34.81C58.66,45.56,16,49.88,13,44.83Z"/><path d="M154.23,307.68c-12-9.26-21.47-20.1-27.51-31.71-2.71-5.21,2.15-10.79,10.31-11.82a223.84,223.84,0,0,1,55.11,0c8.29,1,13.18,6.76,10.23,12-6.4,11.37-15.76,22-27.43,31.41C169.6,311.85,159.71,311.9,154.23,307.68Z"/><path d="M145.23,356.34c-9,0-19.33-5.28-29.32-15.27l3.54-3.54c11.61,11.62,23.25,16.22,31.93,12.62,7.74-3.2,12.17-12.74,12.17-26.17h5c0,15.55-5.56,26.78-15.25,30.79A21,21,0,0,1,145.23,356.34Z"/><path d="M186.62,356.56a20.52,20.52,0,0,1-8-1.55c-9.61-4-15.12-15.29-15.12-31h5c0,13.62,4.39,23.25,12,26.41,8.64,3.58,20.32-1.11,32.08-12.86l3.53,3.54C206.06,351.2,195.68,356.55,186.62,356.56Z"/><path d="M123.29,292.7a176.19,176.19,0,0,0-21.92-4.91A129.17,129.17,0,0,0,79,286.2a89.47,89.47,0,0,0-22.25,3.11,58.06,58.06,0,0,0-10.53,4,38.46,38.46,0,0,0-4.84,2.93,14.33,14.33,0,0,0-4,4A14.41,14.41,0,0,1,41.16,296a39.08,39.08,0,0,1,4.73-3.23,59.3,59.3,0,0,1,10.45-4.67,91.18,91.18,0,0,1,22.5-4.42,132.87,132.87,0,0,1,23,.37,179.92,179.92,0,0,1,22.71,3.79,2.5,2.5,0,1,1-1.12,4.87Z"/><path d="M118.7,307.73a128.35,128.35,0,0,0-13-3c-2.19-.43-4.4-.66-6.61-1l-3.33-.33c-1.11-.11-2.22-.2-3.34-.25a123.68,123.68,0,0,0-52.78,8.35,99.59,99.59,0,0,0-12.23,5.78,64.2,64.2,0,0,0-5.74,3.6c-.92.65-1.82,1.34-2.68,2.08a10.76,10.76,0,0,0-2.28,2.48,10.85,10.85,0,0,1,2.18-2.6c.82-.78,1.7-1.51,2.59-2.21a65.09,65.09,0,0,1,5.61-3.88,99.43,99.43,0,0,1,12.07-6.4,123.18,123.18,0,0,1,26-8.38,125.57,125.57,0,0,1,27.38-2.57c1.15,0,2.3,0,3.45.11s2.3.1,3.45.18c2.29.22,4.59.35,6.88.69A135.14,135.14,0,0,1,120,302.89a2.5,2.5,0,0,1-1.08,4.89l-.1,0Z"/><path d="M123.29,324.87A112.09,112.09,0,0,0,110.06,322l-1.67-.27-1.69-.19-3.37-.38c-2.26-.13-4.52-.36-6.79-.36a101.34,101.34,0,0,0-13.6.52c-2.27.2-4.52.56-6.77.88s-4.49.8-6.71,1.33a117.49,117.49,0,0,0-25.83,9.14,106.41,106.41,0,0,0-12,6.86,69,69,0,0,0-5.57,4.07c-.89.73-1.76,1.48-2.59,2.27a13.28,13.28,0,0,0-2.23,2.62,13,13,0,0,1,2.12-2.73c.8-.83,1.64-1.63,2.5-2.4,1.72-1.54,3.55-3,5.41-4.34a106.08,106.08,0,0,1,11.73-7.45,118.6,118.6,0,0,1,25.8-10.46c2.24-.65,4.52-1.15,6.8-1.67s4.58-.91,6.9-1.22a104.08,104.08,0,0,1,14-1.17c2.35-.1,4.69,0,7,.06l3.52.23,1.76.12,1.76.2A117.64,117.64,0,0,1,124.55,320a2.5,2.5,0,1,1-1.06,4.89l-.1,0Z"/><path d="M200.17,287.86a180.08,180.08,0,0,1,22.72-3.79,132.73,132.73,0,0,1,23-.37,91.17,91.17,0,0,1,22.51,4.42,59.3,59.3,0,0,1,10.45,4.67,39,39,0,0,1,4.72,3.23,14.31,14.31,0,0,1,3.8,4.22,14.36,14.36,0,0,0-4-4,38.34,38.34,0,0,0-4.83-2.93,58.63,58.63,0,0,0-10.53-4,89.47,89.47,0,0,0-22.25-3.11,129.36,129.36,0,0,0-22.41,1.59,177,177,0,0,0-21.92,4.91,2.5,2.5,0,1,1-1.39-4.8Z"/><path d="M204.77,302.89a134.15,134.15,0,0,1,13.63-2.44c2.28-.34,4.59-.47,6.88-.69,1.15-.08,2.3-.12,3.45-.18s2.3-.11,3.45-.11A125.48,125.48,0,0,1,259.55,302a123.08,123.08,0,0,1,26,8.38,98.57,98.57,0,0,1,12.06,6.4,62.13,62.13,0,0,1,5.61,3.88c.9.7,1.77,1.43,2.6,2.21a10.85,10.85,0,0,1,2.18,2.6,10.76,10.76,0,0,0-2.28-2.48c-.86-.74-1.76-1.43-2.68-2.08a64.37,64.37,0,0,0-5.75-3.6,98.23,98.23,0,0,0-12.23-5.78,120.67,120.67,0,0,0-26-7.07,122,122,0,0,0-26.78-1.28c-1.12,0-2.23.14-3.34.25l-3.33.33c-2.21.32-4.43.55-6.62,1a128.16,128.16,0,0,0-13,3l-.08,0a2.5,2.5,0,0,1-1.29-4.83Z"/><path d="M200.17,320a117.8,117.8,0,0,1,13.93-2.37l1.75-.2,1.76-.12,3.52-.23c2.35,0,4.7-.16,7.05-.06a104.08,104.08,0,0,1,14,1.17c2.32.31,4.61.78,6.9,1.22s4.56,1,6.8,1.67a118.6,118.6,0,0,1,25.8,10.46A106.08,106.08,0,0,1,293.41,339c1.86,1.37,3.68,2.8,5.41,4.34.86.77,1.7,1.57,2.5,2.4a13,13,0,0,1,2.12,2.73,13.28,13.28,0,0,0-2.23-2.62c-.83-.79-1.7-1.54-2.6-2.27a68.82,68.82,0,0,0-5.56-4.07,106.41,106.41,0,0,0-11.95-6.86,117.49,117.49,0,0,0-25.83-9.14c-2.22-.53-4.47-.92-6.71-1.33s-4.5-.68-6.77-.88a101.49,101.49,0,0,0-13.61-.52c-2.26,0-4.52.23-6.78.36l-3.38.38-1.68.19-1.67.27a112.25,112.25,0,0,0-13.24,2.87l-.09,0a2.5,2.5,0,0,1-1.27-4.83Z"/><path d="M254.84,117.33a13,13,0,0,1-1.05-21.72c12.64-9.18,29.89-20.83,39.18-23.34,15.79-4.27,0,61.46-9.82,59.33C277.87,130.45,265.32,123.51,254.84,117.33Z"/><path d="M34,134c6.74-6.32,24-18.11,30.33-18.53a12.84,12.84,0,0,0,11.8-13.18c0-7.46-34.46-29-46.76-31.9s-8.43-3.37-9.27,5.9-.84,40.44,2.11,48S34,134,34,134Z"/><path class="cls-2" d="M148.57,278.38c-7,0-12.9-2.62-12.9-5.72s5.91-5.72,12.9-5.72,12.9,2.62,12.9,5.72S155.56,278.38,148.57,278.38Z"/><path d="M148.57,267.44c7.3,0,12.4,2.75,12.4,5.22s-5.1,5.22-12.4,5.22-12.4-2.75-12.4-5.22,5.09-5.22,12.4-5.22m0-1c-7.4,0-13.4,2.78-13.4,6.22s6,6.22,13.4,6.22,13.4-2.79,13.4-6.22-6-6.22-13.4-6.22Z"/><path class="cls-4" d="M240.25,192.62a2.51,2.51,0,0,1-.55-.06,75.46,75.46,0,0,0-10.91-1c-5.45-.23-11.79-.4-18.87-.52-6.85-.11-13.9-.17-20.95-.17H75.77a2.5,2.5,0,0,1-2.5-2.5v-7.22a2.49,2.49,0,0,1,.73-1.77C80.18,173.23,88,166,97.36,158a317.14,317.14,0,0,0,27.31-26.8,156.61,156.61,0,0,0,22.52-32,76.75,76.75,0,0,0,9-36.33c0-11-2.32-19-6.89-23.93s-11.68-7.29-21.23-7.29-18,1.92-24.95,5.71A65.37,65.37,0,0,0,83.9,53.72a2.5,2.5,0,0,1-3.38.46l-5.85-4.13a2.49,2.49,0,0,1-.62-3.45A113.84,113.84,0,0,1,94.28,24.26c7.89-6.72,17.71-12.08,29.21-15.95s25.37-5.81,41.4-5.81c19.47,0,35.12,4,46.51,12C223.07,22.63,229,34.26,229,49a43.13,43.13,0,0,1-7.49,24.81,87.8,87.8,0,0,1-18.94,19.67,224.66,224.66,0,0,1-24.71,16.53c-8.8,5.09-17.3,10.07-25.27,14.78a147.46,147.46,0,0,0-15.51,10.49H207.9c11.5,0,15.15-1.59,16.31-2.53,2-1.66,3.47-4.86,4.28-9.51a2.51,2.51,0,0,1,2.47-2.07h7.91a2.5,2.5,0,0,1,2.5,2.5c0,17.43.11,31.13.34,40.72s.57,18.25,1,25.54a2.48,2.48,0,0,1-2.49,2.65Z"/><path d="M164.89,5Q193.45,5,210,16.53T226.48,49a40.49,40.49,0,0,1-7,23.4A85,85,0,0,1,201,91.54a220.5,220.5,0,0,1-24.43,16.34q-13.08,7.58-25.29,14.8a138.22,138.22,0,0,0-21.17,15.14H207.9q14.1,0,17.89-3.1t5.17-11h7.91q0,26.16.34,40.78t1,25.63a76.45,76.45,0,0,0-11.36-1q-8.26-.34-18.93-.51t-21-.18H75.77v-7.22q9.28-9.3,23.22-21.34a317.91,317.91,0,0,0,27.53-27,158.55,158.55,0,0,0,22.88-32.52,78.85,78.85,0,0,0,9.29-37.5q0-17.55-7.57-25.64t-23.05-8.08q-15.15,0-26.15,6a67.37,67.37,0,0,0-20,17L76.11,48A111.22,111.22,0,0,1,95.9,26.16q11.52-9.81,28.39-15.48T164.89,5m0-5c-16.3,0-30.5,2-42.2,5.94s-21.9,9.49-30,16.41A117,117,0,0,0,72,45.18a5,5,0,0,0,1.24,6.92l5.85,4.13a5,5,0,0,0,2.88.91,5,5,0,0,0,3.88-1.85A62.88,62.88,0,0,1,104.32,39.5c6.56-3.59,14.56-5.41,23.75-5.41,8.83,0,15.36,2.19,19.41,6.5s6.21,11.89,6.21,22.22A74.51,74.51,0,0,1,145,98a154.65,154.65,0,0,1-22.17,31.49,316.52,316.52,0,0,1-27.09,26.59c-9.37,8.1-17.28,15.36-23.5,21.58a5,5,0,0,0-1.46,3.54v7.22a5,5,0,0,0,5,5H189c7,0,14.07.06,20.91.17,7.05.12,13.38.29,18.8.52a68.33,68.33,0,0,1,10.47.91,5.08,5.08,0,0,0,1.1.12,5,5,0,0,0,5-5.31c-.46-7.26-.81-15.81-1-25.44s-.34-23.25-.34-40.66a5,5,0,0,0-5-5H231a5,5,0,0,0-4.93,4.15c-.88,5-2.33,7.12-3.4,8-.25.19-2.76,2-14.73,2H144.7c2.87-2,5.93-3.93,9.14-5.84,8-4.71,16.46-9.68,25.25-14.77a225.92,225.92,0,0,0,25-16.71,90.45,90.45,0,0,0,19.48-20.24A45.59,45.59,0,0,0,231.48,49c0-15.65-6.27-28-18.65-36.61C201,4.18,184.88,0,164.89,0Z"/></g></g></svg>