<svg width="50" height="50" viewBox="0 0 50 50" fill="none" xmlns="http://www.w3.org/2000/svg">
<path d="M43.805 8.39068C38.8363 3.20321 29.8441 3.3204 25.0003 8.59381C23.772 7.30659 22.2937 6.28369 20.6561 5.58782C19.0185 4.89196 17.2561 4.53777 15.4769 4.54696C3.90655 4.45321 -2.03876 18.836 6.19561 26.9688L24.4535 45.2266C24.526 45.2999 24.6124 45.358 24.7077 45.3976C24.8028 45.4373 24.9049 45.4577 25.0081 45.4577C25.1113 45.4577 25.2134 45.4373 25.3085 45.3976C25.4038 45.358 25.4902 45.2999 25.5628 45.2266L43.805 26.9688C46.2562 24.4987 47.6317 21.1597 47.6317 17.6797C47.6317 14.1998 46.2562 10.8608 43.805 8.39068Z" fill="#ED1C24"/>
<path d="M28.7421 23.8203C27.7282 22.869 26.3902 22.3395 24.9999 22.3395C23.6096 22.3395 22.2715 22.869 21.2577 23.8203L17.0389 27.8125C14.4218 30.1563 16.2577 34.7578 19.7655 34.6563C21.5936 34.6563 23.0702 33.7031 24.9999 33.7344C26.9296 33.7656 28.4686 34.5157 30.2343 34.6563C33.7421 34.7578 35.578 30.1406 32.9608 27.8125L28.7421 23.8203Z" fill="white"/>
<path d="M37.6253 19.625C37.528 19.1909 37.3093 18.7934 36.9944 18.479C36.6796 18.1647 36.2818 17.9465 35.8476 17.8497C35.4134 17.753 34.9606 17.7819 34.5421 17.9331C34.1237 18.0842 33.7569 18.3513 33.4847 18.7031C32.8442 19.4183 32.3985 20.2862 32.1904 21.2235C31.9825 22.1608 32.0192 23.1358 32.2972 24.0547C33.555 27.3281 37.1566 25.7265 37.766 22.4531C37.9814 21.5155 37.9328 20.5366 37.6253 19.625Z" fill="white"/>
<path d="M28.7734 21.1954C33.1641 21.0861 33.1641 12.297 28.7734 12.1876C24.3828 12.297 24.3828 21.0939 28.7734 21.1954Z" fill="white"/>
<path d="M17.7033 24.0547C17.9813 23.1358 18.018 22.1608 17.8101 21.2235C17.6021 20.2862 17.1564 19.4183 16.5158 18.7031C16.2436 18.3513 15.8768 18.0842 15.4583 17.9331C15.0399 17.7819 14.5872 17.753 14.1529 17.8497C13.7186 17.9465 13.3209 18.1647 13.0061 18.479C12.6913 18.7934 12.4725 19.1909 12.3752 19.625C11.4299 21.8828 13.1018 25.9609 15.4611 25.875C15.9804 25.8514 16.4785 25.6618 16.882 25.3341C17.2856 25.0065 17.5735 24.558 17.7033 24.0547Z" fill="white"/>
<path d="M21.2266 21.1954C25.6172 21.0861 25.6172 12.297 21.2266 12.1876C16.8359 12.297 16.8359 21.0939 21.2266 21.1954Z" fill="white"/>
</svg>
