<svg xmlns="http://www.w3.org/2000/svg" viewBox="0 0 329.2 459.81"><defs><style>.cls-1{fill:#ffce9c;}.cls-2{fill:#fff;}.cls-3{fill:#cc8a46;}.cls-4{fill:#0014f0;}</style></defs><title>Resurs 9</title><g id="Lager_2" data-name="Lager 2"><g id="Lager_2-2" data-name="Lager 2"><path class="cls-1" d="M160.31,439.68c-45.92,0-84.88-11.73-112.69-33.91C18.1,382.21,2.5,347.39,2.5,305.08,2.5,215.7,75.22,143,164.6,143s162.1,72.72,162.1,162.1c0,41.87-17.06,76.66-49.35,100.63C247.85,427.62,206.28,439.68,160.31,439.68Z"/><path d="M164.6,145.48a159.6,159.6,0,0,1,159.6,159.6c0,41-16.71,75.15-48.34,98.63-29.07,21.58-70.11,33.47-115.55,33.47S76.54,425.64,49.18,403.81A112.88,112.88,0,0,1,16.8,362.75C9,345.84,5,326.44,5,305.08a159.6,159.6,0,0,1,159.6-159.6m0-5A164.59,164.59,0,0,0,0,305.08c0,90.9,69.4,137.1,160.31,137.1S329.2,396,329.2,305.08a164.59,164.59,0,0,0-164.6-164.6Z"/><path class="cls-2" d="M136.25,338.2A183.66,183.66,0,0,1,117,336.79a156.46,156.46,0,0,0-16-1.23c-30.28,0-56.11-42.88-60.7-51,4.87-7,30.56-41.87,60.7-41.87,31.32,0,57.72,28.76,61.3,32.83,1,5.21,7.11,40.73-2.11,53.88C156,335.42,148.37,338.2,136.25,338.2Z"/><path d="M101,245.22c29.21,0,54.22,26.19,59,31.48,2.2,11.85,5.6,40.69-1.83,51.3-3.69,5.26-10.64,7.7-21.87,7.7a179.56,179.56,0,0,1-19-1.4A157.62,157.62,0,0,0,101,333.06c-27.51,0-51.64-37.94-57.74-48.34,6.41-9,30.26-39.5,57.74-39.5m0-5c-35.15,0-63.64,44.24-63.64,44.24s28.49,53.6,63.64,53.6c9.74,0,23.12,2.64,35.28,2.64,10.74,0,20.51-2.06,26-9.83,10.64-15.19,2.39-56.44,2.39-56.44S136.11,240.22,101,240.22Z"/><path class="cls-2" d="M209.07,340.82c-15.16,0-31.68-1.67-39.36-14.08-8-12.85-3.58-45.58-2.76-51.12,4.1-4,30.26-28,61.28-28,30.18,0,55.9,36.52,60.71,43.76-4.65,7.86-30.47,49.08-60.71,49.08-2.8,0-5.76.08-8.89.16C216,340.73,212.55,340.82,209.07,340.82Z"/><path d="M228.23,250.14c27.45,0,51.4,32.08,57.74,41.34-6.15,10.1-30.24,46.5-57.74,46.5-2.84,0-5.81.08-9,.16-3.32.09-6.75.18-10.2.18-14.47,0-30.2-1.53-37.24-12.9-6.44-10.41-4.2-37.17-2.54-48.57,5.43-5.11,30.1-26.71,58.94-26.71m0-5c-35.14,0-63.63,29.29-63.63,29.29s-6.27,38.67,3,53.62c8.24,13.31,25.28,15.27,41.49,15.27,6.76,0,13.39-.34,19.16-.34,35.15,0,63.64-51.65,63.64-51.65s-28.49-46.19-63.64-46.19Z"/><circle cx="104.86" cy="284.46" r="36.85"/><path class="cls-2" d="M88.26,281.12a12.66,12.66,0,1,1,12.66-12.66A12.67,12.67,0,0,1,88.26,281.12Z"/><path d="M88.26,256.3a12.16,12.16,0,1,1-12.15,12.16A12.17,12.17,0,0,1,88.26,256.3m0-1a13.16,13.16,0,1,0,13.16,13.16A13.16,13.16,0,0,0,88.26,255.3Z"/><path class="cls-2" d="M121.93,312.46a6.08,6.08,0,1,1,6.08-6.08A6.09,6.09,0,0,1,121.93,312.46Z"/><path d="M121.93,300.81a5.58,5.58,0,1,1-5.58,5.57,5.58,5.58,0,0,1,5.58-5.57m0-1a6.58,6.58,0,1,0,6.58,6.57,6.58,6.58,0,0,0-6.58-6.57Z"/><circle cx="219.16" cy="289.05" r="37.22"/><path class="cls-2" d="M206.29,285.68a12.79,12.79,0,1,1,12.79-12.79A12.8,12.8,0,0,1,206.29,285.68Z"/><path d="M206.29,260.6A12.29,12.29,0,1,1,194,272.89a12.3,12.3,0,0,1,12.28-12.29m0-1a13.29,13.29,0,1,0,13.29,13.29,13.28,13.28,0,0,0-13.29-13.29Z"/><path class="cls-2" d="M238.85,317.33a5.92,5.92,0,1,1,5.92-5.91A5.92,5.92,0,0,1,238.85,317.33Z"/><path d="M238.85,306a5.42,5.42,0,1,1-5.42,5.42,5.42,5.42,0,0,1,5.42-5.42m0-1a6.42,6.42,0,1,0,6.42,6.42,6.41,6.41,0,0,0-6.42-6.42Z"/><path class="cls-3" d="M214.67,457.31c-16,0-33.82-5.82-53.09-17.28l-1.33-.79-1.31.84C143.74,450,128.31,455,113.08,455A64.45,64.45,0,0,1,67.2,436c-11.53-11.51-18.14-26.75-18.14-41.8,0-15.83,9-33.73,24-47.87,15.72-14.78,35.52-23.26,54.33-23.26A61.36,61.36,0,0,1,160.87,333l1.12.71,1.22-.53c12.5-5.46,24.88-8.23,36.8-8.23,42.79,0,71.54,35.84,71.54,69.31,0,15.9-5.27,31.6-14.46,43.09-7.29,9.11-20.56,20-42.41,20Z"/><path d="M127.42,325.61a58.91,58.91,0,0,1,32.1,9.47l2.25,1.44,2.44-1.07c12.18-5.32,24.23-8,35.81-8,41.29,0,69,34.55,69,66.81,0,15.34-5.07,30.48-13.91,41.53-6.95,8.68-19.61,19-40.46,19-15.51,0-32.94-5.7-51.82-16.93l-2.67-1.59-2.61,1.7c-14.79,9.61-29.76,14.48-44.5,14.48A61.94,61.94,0,0,1,69,434.27c-11.06-11-17.41-25.64-17.41-40,0-15.15,8.69-32.37,23.25-46.05,15.26-14.35,34.43-22.58,52.61-22.58m0-5c-41.62,0-80.86,39.28-80.86,73.63,0,31.88,28.15,63.23,66.52,63.23,14.59,0,30.66-4.53,47.23-15.29,20.95,12.47,39.1,17.63,54.37,17.63,39.15,0,59.37-33.92,59.37-65.57,0-34.82-29.73-71.81-74-71.81-11.68,0-24.37,2.58-37.8,8.44a63.88,63.88,0,0,0-34.79-10.26Z"/><path class="cls-3" d="M290.47,212.84c-4.29,0-9.89-4-16.37-8.6a144.27,144.27,0,0,0-15.72-10.14l-3-1.57c-16-8.5-34.09-18.13-35.08-28.61-.45-4.77,2.75-9.95,9.52-15.39,33.05-26.56,64.36-28,79.4-28.7,3.17-.15,5.61-.26,7.48-.54-.23,15.17-2.39,74.42-21.7,91.66a6.62,6.62,0,0,1-4.57,1.89Z"/><path d="M314.22,122.07c-.5,24.11-4.78,72.67-20.85,87a4,4,0,0,1-2.9,1.25c-3.49,0-9-4-14.92-8.13a144.68,144.68,0,0,0-16-10.31l-3-1.58c-15.42-8.2-32.9-17.49-33.76-26.63-.37-3.89,2.52-8.33,8.6-13.22,32.41-26,62-27.41,77.95-28.14,1.82-.09,3.42-.16,4.84-.26m5-6.36c-3.62,4.57-45.27-5.85-91,30.87-26.75,21.49,3,35.91,28.9,49.73,14.56,7.77,24.84,19,33.27,19a9.05,9.05,0,0,0,6.23-2.52c23.22-20.73,22.57-97.11,22.57-97.11Z"/><path class="cls-3" d="M27.43,213.21A5.17,5.17,0,0,1,23.27,211C6.64,191.13,13.05,132.2,15,117.15c1.81.55,4.21,1,7.33,1.61,14.79,2.86,45.56,8.8,74.43,39.84,5,5.37,7.16,9.59,6.42,12.55-1.2,4.84-10.56,8.11-20.47,11.57a182.46,182.46,0,0,0-17.3,6.73c-8.16,3.83-15.22,9.31-21.45,14.13C37.29,208.75,31.54,213.21,27.43,213.21Z"/><path d="M17.1,120.26c1.39.31,3,.61,4.76,1,15.64,3,44.75,8.64,73.07,39.08,6,6.41,6.06,9.3,5.82,10.25-.87,3.53-10.43,6.87-18.86,9.81a183.13,183.13,0,0,0-17.54,6.83c-8.42,3.95-15.59,9.51-21.92,14.42-5.78,4.47-11.75,9.1-15,9.1-.39,0-1.13,0-2.24-1.33-13.84-16.52-11.07-65.18-8.09-89.12m-4.08-7s-11.65,75.49,8.34,99.35a7.67,7.67,0,0,0,6.07,3.12c9.22,0,21.89-15.94,39.05-24,23.81-11.18,53.19-12.16,32.11-34.81C58.66,114,16,118.29,13,113.24Z"/><path d="M154.23,376.09c-12-9.26-21.47-20.1-27.51-31.71-2.71-5.21,2.15-10.79,10.31-11.82a224.33,224.33,0,0,1,55.11,0c8.29,1,13.18,6.76,10.23,12-6.4,11.37-15.76,22-27.43,31.41C169.6,380.26,159.71,380.31,154.23,376.09Z"/><path d="M145.23,424.75c-9,0-19.33-5.28-29.32-15.27l3.54-3.53c11.61,11.61,23.25,16.21,31.93,12.61,7.74-3.2,12.17-12.74,12.17-26.17h5c0,15.56-5.56,26.78-15.25,30.79A21,21,0,0,1,145.23,424.75Z"/><path d="M186.62,425a20.7,20.7,0,0,1-8-1.54c-9.61-4-15.12-15.3-15.12-31h5c0,13.62,4.39,23.25,12,26.42,8.64,3.57,20.32-1.12,32.08-12.86l3.53,3.53C206.06,419.61,195.68,425,186.62,425Z"/><path d="M123.29,361.11a174.38,174.38,0,0,0-21.92-4.9,128.2,128.2,0,0,0-22.4-1.6,89.94,89.94,0,0,0-22.25,3.11,57.37,57.37,0,0,0-10.53,4,37.24,37.24,0,0,0-4.84,2.92,14.33,14.33,0,0,0-4,4,14.41,14.41,0,0,1,3.79-4.22,37.89,37.89,0,0,1,4.73-3.22,58.62,58.62,0,0,1,10.45-4.68,91.17,91.17,0,0,1,22.5-4.41,130.91,130.91,0,0,1,23,.37,178.11,178.11,0,0,1,22.71,3.78,2.5,2.5,0,1,1-1.12,4.88Z"/><path d="M118.7,376.14a131.1,131.1,0,0,0-13-2.95c-2.19-.43-4.4-.66-6.61-1l-3.33-.32c-1.11-.12-2.22-.21-3.34-.26A123.68,123.68,0,0,0,39.62,380a99.66,99.66,0,0,0-12.23,5.79,64.11,64.11,0,0,0-5.74,3.59c-.92.65-1.82,1.34-2.68,2.08a10.6,10.6,0,0,0-2.28,2.49,10.71,10.71,0,0,1,2.18-2.61c.82-.78,1.7-1.51,2.59-2.21a65.09,65.09,0,0,1,5.61-3.88,99.43,99.43,0,0,1,12.07-6.4,123.18,123.18,0,0,1,26-8.38,124.94,124.94,0,0,1,27.38-2.56c1.15,0,2.3,0,3.45.1s2.3.1,3.45.18c2.29.22,4.59.36,6.88.69A138,138,0,0,1,120,371.3a2.5,2.5,0,0,1-1.08,4.89l-.1,0Z"/><path d="M123.29,393.28a112.09,112.09,0,0,0-13.23-2.87l-1.67-.27L106.7,390l-3.37-.38c-2.26-.13-4.52-.35-6.79-.36a103,103,0,0,0-13.6.52c-2.27.2-4.52.56-6.77.88s-4.49.8-6.71,1.33a117.52,117.52,0,0,0-25.83,9.15,104.81,104.81,0,0,0-12,6.85c-1.91,1.28-3.79,2.61-5.57,4.07-.89.73-1.76,1.48-2.59,2.28a13,13,0,0,0-2.23,2.61,12.94,12.94,0,0,1,2.12-2.72c.8-.84,1.64-1.64,2.5-2.41,1.72-1.54,3.55-3,5.41-4.34A106.08,106.08,0,0,1,43.05,400a118.6,118.6,0,0,1,25.8-10.46c2.24-.64,4.52-1.15,6.8-1.67s4.58-.91,6.9-1.22a105.74,105.74,0,0,1,14-1.17c2.35-.1,4.69,0,7,.06l3.52.23,1.76.12,1.76.2a117.64,117.64,0,0,1,13.92,2.37,2.5,2.5,0,1,1-1.06,4.89l-.1,0Z"/><path d="M200.17,356.27a178.27,178.27,0,0,1,22.72-3.78,130.78,130.78,0,0,1,23-.37,91.16,91.16,0,0,1,22.51,4.41,58.62,58.62,0,0,1,10.45,4.68,37.78,37.78,0,0,1,4.72,3.22,14.31,14.31,0,0,1,3.8,4.22,14.36,14.36,0,0,0-4-4,37.13,37.13,0,0,0-4.83-2.92,57.92,57.92,0,0,0-10.53-4,89.94,89.94,0,0,0-22.25-3.11,128.38,128.38,0,0,0-22.41,1.6,175.17,175.17,0,0,0-21.92,4.9,2.5,2.5,0,1,1-1.39-4.8Z"/><path d="M204.77,371.3a137,137,0,0,1,13.63-2.44c2.28-.33,4.59-.47,6.88-.69,1.15-.08,2.3-.12,3.45-.18s2.3-.11,3.45-.1a124.85,124.85,0,0,1,27.37,2.56,123.08,123.08,0,0,1,26,8.38,98.57,98.57,0,0,1,12.06,6.4,62.13,62.13,0,0,1,5.61,3.88c.9.7,1.77,1.43,2.6,2.21a10.71,10.71,0,0,1,2.18,2.61,10.6,10.6,0,0,0-2.28-2.49c-.86-.74-1.76-1.43-2.68-2.08a64.27,64.27,0,0,0-5.75-3.59A98.29,98.29,0,0,0,285.1,380a123.6,123.6,0,0,0-52.77-8.35c-1.12.05-2.23.14-3.34.26l-3.33.32c-2.21.32-4.43.55-6.62,1a130.91,130.91,0,0,0-13,2.95l-.08,0a2.5,2.5,0,1,1-1.29-4.83Z"/><path d="M200.17,388.44a117.8,117.8,0,0,1,13.93-2.37l1.75-.2,1.76-.12,3.52-.23c2.35,0,4.7-.16,7.05-.06a105.74,105.74,0,0,1,14,1.17c2.32.31,4.61.78,6.9,1.22s4.56,1,6.8,1.67A118.6,118.6,0,0,1,281.68,400a106.08,106.08,0,0,1,11.73,7.45c1.86,1.37,3.68,2.8,5.41,4.34.86.77,1.7,1.57,2.5,2.41a12.94,12.94,0,0,1,2.12,2.72,13,13,0,0,0-2.23-2.61c-.83-.8-1.7-1.55-2.6-2.28-1.78-1.46-3.65-2.79-5.56-4.07a104.81,104.81,0,0,0-11.95-6.85,117.52,117.52,0,0,0-25.83-9.15c-2.22-.53-4.47-.92-6.71-1.33s-4.5-.68-6.77-.88a103.18,103.18,0,0,0-13.61-.52c-2.26,0-4.52.23-6.78.36L218,390l-1.68.19-1.67.27a112.25,112.25,0,0,0-13.24,2.87l-.09,0a2.5,2.5,0,0,1-1.27-4.84Z"/><path d="M254.84,185.74A13,13,0,0,1,253.79,164c12.64-9.18,29.89-20.83,39.18-23.34,15.79-4.27,0,61.46-9.82,59.33C277.87,198.86,265.32,191.92,254.84,185.74Z"/><path d="M34,202.37c6.74-6.32,24-18.11,30.33-18.53a12.84,12.84,0,0,0,11.8-13.18c0-7.46-34.46-29-46.76-31.9s-8.43-3.37-9.27,5.9-.84,40.44,2.11,48S34,202.37,34,202.37Z"/><path class="cls-2" d="M148.57,346.79c-7,0-12.9-2.62-12.9-5.72s5.91-5.72,12.9-5.72,12.9,2.62,12.9,5.72S155.56,346.79,148.57,346.79Z"/><path d="M148.57,335.85c7.3,0,12.4,2.75,12.4,5.22s-5.1,5.22-12.4,5.22-12.4-2.75-12.4-5.22,5.09-5.22,12.4-5.22m0-1c-7.4,0-13.4,2.78-13.4,6.22s6,6.22,13.4,6.22,13.4-2.78,13.4-6.22-6-6.22-13.4-6.22Z"/><path class="cls-4" d="M85.46,244.36a3,3,0,0,1-3-3v-7.22a3,3,0,0,1,2.86-3,122.84,122.84,0,0,0,30.9-5.72,112,112,0,0,0,30-14.57,78.34,78.34,0,0,0,22.38-23.37c5.63-9.11,8.49-19.81,8.49-31.8,0-12.82-3-23.39-8.88-31.43-5.68-7.74-13.33-12-23.37-13-3.2,1.48-6.26,2.78-9.09,3.87a28.77,28.77,0,0,1-10.37,1.92,13.36,13.36,0,0,1-6.43-1.4c-1.57-.86-3.45-2.79-3.45-7.11A9.25,9.25,0,0,1,121,99.62a23.68,23.68,0,0,1,9.85-2,52.86,52.86,0,0,1,6,.36c1.63.19,3.38.39,5.25.58,9.13-6.16,15.5-12.69,18.91-19.43A46.49,46.49,0,0,0,166.42,58c0-9.16-2.45-16-7.26-20.31S147.27,31,138.45,31a49.41,49.41,0,0,0-23.37,5.85A50.41,50.41,0,0,0,96.57,54.1a3,3,0,0,1-2.51,1.35,3,3,0,0,1-1.46-.37l-6.19-3.45a3,3,0,0,1-1.11-4.17,115.41,115.41,0,0,1,17.13-21.73A76.52,76.52,0,0,1,128.21,9.24C138.51,5.1,151.33,3,166.32,3a111.16,111.16,0,0,1,34.3,5c10.3,3.36,18.53,8.19,24.47,14.37a32.9,32.9,0,0,1,9.26,23.59c0,9.15-3.35,17.94-9.95,26.14-6.45,8-16.07,15.06-28.58,21A126.57,126.57,0,0,1,177,100a129.12,129.12,0,0,1,22.45,4c14.69,4,26.32,10.44,34.58,19,8.43,8.8,12.7,19.68,12.7,32.36a53.47,53.47,0,0,1-9.82,30.95c-6.38,9.21-15.1,17.52-25.93,24.71a173.68,173.68,0,0,1-36.94,18.21,251.45,251.45,0,0,1-43.36,11.33A273.16,273.16,0,0,1,85.46,244.36Z"/><path d="M166.32,6a107.64,107.64,0,0,1,33.38,4.82q14.79,4.81,23.22,13.59a29.87,29.87,0,0,1,8.43,21.51q0,12.72-9.29,24.25T194.54,90.3q-18.25,8.61-45.42,12.39,6.4-.39,12.45-.39a140.51,140.51,0,0,1,37.09,4.52q21.35,5.85,33.21,18.24t11.87,30.28a50.37,50.37,0,0,1-9.29,29.25Q225.17,198,209.33,208.5A169.57,169.57,0,0,1,173,226.39a248,248,0,0,1-42.84,11.19,268,268,0,0,1-44.73,3.78v-7.22a125.79,125.79,0,0,0,31.65-5.85,114.3,114.3,0,0,0,30.8-15,80.87,80.87,0,0,0,23.23-24.26q8.94-14.46,8.94-33.38,0-20.3-9.46-33.2T144.3,108.2q-5.16,2.4-9.64,4.13a25.59,25.59,0,0,1-9.29,1.72,10.39,10.39,0,0,1-5-1q-1.89-1-1.89-4.47a6.22,6.22,0,0,1,3.79-6.19,20.48,20.48,0,0,1,8.6-1.72,48.68,48.68,0,0,1,5.68.34c1.94.23,4.07.46,6.36.69q15.14-10,20.82-21.16A49.44,49.44,0,0,0,169.42,58q0-15.14-8.26-22.54T138.45,28a52.21,52.21,0,0,0-24.78,6.2A53.1,53.1,0,0,0,94.06,52.45L87.87,49a112,112,0,0,1,16.68-21.16A73.13,73.13,0,0,1,129.33,12q15-6,37-6m0-6C151,0,137.75,2.17,127.09,6.45a79.49,79.49,0,0,0-26.78,17.16A118.81,118.81,0,0,0,82.73,45.9,6,6,0,0,0,85,54.26l6.2,3.44a6,6,0,0,0,7.92-2,47.39,47.39,0,0,1,17.41-16.23,46.48,46.48,0,0,1,22-5.5c8.18,0,14.3,1.92,18.71,5.87,4.21,3.78,6.26,9.69,6.26,18.07a43.59,43.59,0,0,1-5,19.82c-3.08,6.06-8.8,12-17,17.69-1.41-.15-2.78-.3-4.11-.46a57.16,57.16,0,0,0-6.38-.38,26.77,26.77,0,0,0-11.09,2.25,12.29,12.29,0,0,0-7.3,11.66c0,6.1,3.15,8.72,5,9.74a16.27,16.27,0,0,0,7.86,1.77,31.64,31.64,0,0,0,11.45-2.13c2.67-1,5.52-2.23,8.51-3.59,8.76,1,15.46,4.89,20.45,11.7,5.51,7.51,8.3,17.49,8.3,29.65,0,11.42-2.7,21.59-8,30.22a75.07,75.07,0,0,1-21.53,22.47,108.9,108.9,0,0,1-29.19,14.19,119.49,119.49,0,0,1-30.14,5.58,6,6,0,0,0-5.72,6v7.22a6,6,0,0,0,6,6,274.9,274.9,0,0,0,45.73-3.87A254.48,254.48,0,0,0,175.07,232a177.35,177.35,0,0,0,37.58-18.54c11.15-7.4,20.14-16,26.73-25.5a56.41,56.41,0,0,0,10.36-32.66c0-13.48-4.55-25.06-13.54-34.43-8.63-9-20.73-15.7-35.95-19.88-3.25-.89-6.64-1.66-10.14-2.3q3.64-1.42,7-3C210,89.63,220,82.3,226.74,73.94c7-8.74,10.61-18.17,10.61-28a35.8,35.8,0,0,0-10.1-25.67C221,13.72,212.32,8.62,201.56,5.11A114.22,114.22,0,0,0,166.32,0Z"/></g></g></svg>