<svg xmlns="http://www.w3.org/2000/svg" viewBox="0 0 329.2 430.3"><defs><style>.cls-1{fill:#ffce9c;}.cls-2{fill:#fff;}.cls-3{fill:#cc8a46;}.cls-4{fill:#187500;}</style></defs><title>Resurs 10</title><g id="Lager_2" data-name="Lager 2"><g id="Lager_2-2" data-name="Lager 2"><path class="cls-1" d="M160.31,410.17c-45.92,0-84.88-11.73-112.69-33.91C18.1,352.7,2.5,317.88,2.5,275.57c0-89.38,72.72-162.1,162.1-162.1s162.1,72.72,162.1,162.1c0,41.87-17.06,76.66-49.35,100.63C247.85,398.11,206.28,410.17,160.31,410.17Z"/><path d="M164.6,116a159.6,159.6,0,0,1,159.6,159.6c0,41-16.71,75.15-48.34,98.63-29.07,21.58-70.11,33.47-115.55,33.47S76.54,396.13,49.18,374.3A112.88,112.88,0,0,1,16.8,333.24C9,316.33,5,296.93,5,275.57A159.6,159.6,0,0,1,164.6,116m0-5A164.59,164.59,0,0,0,0,275.57c0,90.91,69.4,137.1,160.31,137.1S329.2,366.48,329.2,275.57A164.59,164.59,0,0,0,164.6,111Z"/><path class="cls-2" d="M136.25,308.7A181,181,0,0,1,117,307.28a156.46,156.46,0,0,0-16-1.23c-30.28,0-56.11-42.88-60.7-51,4.87-7,30.56-41.87,60.7-41.87,31.32,0,57.72,28.76,61.3,32.83,1,5.21,7.11,40.73-2.11,53.88C156,305.91,148.37,308.7,136.25,308.7Z"/><path d="M101,215.71c29.21,0,54.22,26.19,59,31.48,2.2,11.86,5.6,40.69-1.83,51.3-3.69,5.26-10.64,7.71-21.87,7.71a179.61,179.61,0,0,1-19-1.41A157.62,157.62,0,0,0,101,303.55c-27.51,0-51.64-37.94-57.74-48.34,6.41-9,30.26-39.5,57.74-39.5m0-5C65.82,210.71,37.33,255,37.33,255s28.49,53.6,63.64,53.6c9.74,0,23.12,2.65,35.28,2.65,10.74,0,20.51-2.07,26-9.84,10.64-15.18,2.39-56.44,2.39-56.44S136.11,210.71,101,210.71Z"/><path class="cls-2" d="M209.07,311.31c-15.16,0-31.68-1.67-39.36-14.08-8-12.85-3.58-45.58-2.76-51.12,4.1-4,30.26-28,61.28-28,30.18,0,55.9,36.52,60.71,43.76-4.65,7.86-30.47,49.08-60.71,49.08-2.8,0-5.76.08-8.89.16C216,311.22,212.55,311.31,209.07,311.31Z"/><path d="M228.23,220.63c27.45,0,51.4,32.08,57.74,41.34-6.15,10.1-30.24,46.5-57.74,46.5-2.84,0-5.81.08-9,.16-3.32.09-6.75.18-10.2.18-14.47,0-30.2-1.53-37.24-12.9-6.44-10.41-4.2-37.17-2.54-48.57,5.43-5.11,30.1-26.71,58.94-26.71m0-5c-35.14,0-63.63,29.29-63.63,29.29s-6.27,38.67,3,53.62c8.24,13.31,25.28,15.27,41.49,15.27,6.76,0,13.39-.34,19.16-.34,35.15,0,63.64-51.65,63.64-51.65s-28.49-46.19-63.64-46.19Z"/><circle cx="104.86" cy="254.95" r="36.85"/><path class="cls-2" d="M88.26,251.61A12.66,12.66,0,1,1,100.92,239,12.67,12.67,0,0,1,88.26,251.61Z"/><path d="M88.26,226.79A12.16,12.16,0,1,1,76.11,239a12.17,12.17,0,0,1,12.15-12.16m0-1A13.16,13.16,0,1,0,101.42,239a13.16,13.16,0,0,0-13.16-13.16Z"/><path class="cls-2" d="M121.93,283a6.08,6.08,0,1,1,6.08-6.08A6.08,6.08,0,0,1,121.93,283Z"/><path d="M121.93,271.3a5.58,5.58,0,1,1-5.58,5.57,5.58,5.58,0,0,1,5.58-5.57m0-1a6.58,6.58,0,1,0,6.58,6.57,6.58,6.58,0,0,0-6.58-6.57Z"/><circle cx="219.16" cy="259.54" r="37.22"/><path class="cls-2" d="M206.29,256.17a12.79,12.79,0,1,1,12.79-12.79A12.8,12.8,0,0,1,206.29,256.17Z"/><path d="M206.29,231.09A12.29,12.29,0,1,1,194,243.38a12.3,12.3,0,0,1,12.28-12.29m0-1a13.29,13.29,0,1,0,13.29,13.29,13.28,13.28,0,0,0-13.29-13.29Z"/><path class="cls-2" d="M238.85,287.82a5.92,5.92,0,1,1,5.92-5.91A5.92,5.92,0,0,1,238.85,287.82Z"/><path d="M238.85,276.49a5.42,5.42,0,1,1-5.42,5.42,5.42,5.42,0,0,1,5.42-5.42m0-1a6.42,6.42,0,1,0,6.42,6.42,6.41,6.41,0,0,0-6.42-6.42Z"/><path class="cls-3" d="M214.67,427.8c-16,0-33.82-5.82-53.09-17.28l-1.33-.79-1.31.85c-15.2,9.87-30.63,14.88-45.86,14.88A64.41,64.41,0,0,1,67.2,406.53C55.67,395,49.06,379.78,49.06,364.73c0-15.83,9-33.73,24-47.87,15.72-14.78,35.52-23.26,54.33-23.26a61.36,61.36,0,0,1,33.45,9.87l1.12.71,1.22-.53c12.5-5.46,24.88-8.23,36.8-8.23,42.79,0,71.54,35.84,71.54,69.31,0,15.9-5.27,31.6-14.46,43.09-7.29,9.11-20.56,20-42.41,20Z"/><path d="M127.42,296.1a58.91,58.91,0,0,1,32.1,9.47l2.25,1.44,2.44-1.07c12.18-5.32,24.23-8,35.81-8,41.29,0,69,34.55,69,66.81,0,15.34-5.07,30.48-13.91,41.53-6.95,8.68-19.61,19-40.46,19-15.51,0-32.94-5.7-51.82-16.93l-2.67-1.59-2.61,1.7c-14.79,9.61-29.76,14.48-44.5,14.48A61.94,61.94,0,0,1,69,404.76c-11.06-11.05-17.41-25.64-17.41-40,0-15.15,8.69-32.37,23.25-46.05,15.26-14.35,34.43-22.58,52.61-22.58m0-5c-41.62,0-80.86,39.28-80.86,73.63,0,31.88,28.15,63.23,66.52,63.23,14.59,0,30.66-4.53,47.23-15.29,20.95,12.47,39.1,17.63,54.37,17.63,39.15,0,59.37-33.92,59.37-65.57,0-34.82-29.73-71.81-74-71.81-11.68,0-24.37,2.58-37.8,8.44a63.88,63.88,0,0,0-34.79-10.26Z"/><path class="cls-3" d="M290.47,183.33c-4.29,0-9.89-4-16.37-8.59a142.79,142.79,0,0,0-15.72-10.15l-3-1.57c-16-8.5-34.09-18.13-35.08-28.61-.45-4.77,2.75-10,9.52-15.39,33.05-26.56,64.36-28,79.4-28.7,3.17-.14,5.61-.26,7.48-.54-.23,15.17-2.39,74.42-21.7,91.67a6.65,6.65,0,0,1-4.57,1.88Z"/><path d="M314.22,92.56c-.5,24.11-4.78,72.67-20.85,87a4,4,0,0,1-2.9,1.25c-3.49,0-9-4-14.92-8.13a144.68,144.68,0,0,0-16-10.31l-3-1.58c-15.42-8.2-32.9-17.49-33.76-26.63-.37-3.89,2.52-8.33,8.6-13.22,32.41-26,62-27.41,77.95-28.14,1.82-.09,3.42-.16,4.84-.26m5-6.36c-3.62,4.57-45.27-5.85-91,30.87-26.75,21.49,3,35.91,28.9,49.73,14.56,7.77,24.84,19,33.27,19a9.05,9.05,0,0,0,6.23-2.52c23.22-20.73,22.57-97.11,22.57-97.11Z"/><path class="cls-3" d="M27.43,183.7a5.17,5.17,0,0,1-4.16-2.22C6.64,161.62,13.05,102.69,15,87.64c1.81.55,4.21,1,7.33,1.61,14.79,2.86,45.56,8.8,74.43,39.84,5,5.37,7.16,9.59,6.42,12.55-1.2,4.84-10.56,8.11-20.47,11.57a182.46,182.46,0,0,0-17.3,6.73c-8.16,3.83-15.22,9.31-21.45,14.13C37.29,179.24,31.54,183.7,27.43,183.7Z"/><path d="M17.1,90.75c1.39.31,3,.61,4.76,1,15.64,3,44.75,8.64,73.07,39.08,6,6.41,6.06,9.31,5.82,10.25-.87,3.53-10.43,6.87-18.86,9.81a183.13,183.13,0,0,0-17.54,6.83c-8.42,3.95-15.59,9.51-21.92,14.42-5.78,4.47-11.75,9.1-15,9.1-.39,0-1.13,0-2.24-1.33-13.84-16.52-11.07-65.18-8.09-89.12m-4.08-7s-11.65,75.49,8.34,99.35a7.67,7.67,0,0,0,6.07,3.12c9.22,0,21.89-15.94,39.05-24C90.29,151,119.67,150,98.59,127.39,58.66,84.47,16,88.78,13,83.73Z"/><path d="M154.23,346.58c-12-9.26-21.47-20.1-27.51-31.71-2.71-5.21,2.15-10.78,10.31-11.82a224.33,224.33,0,0,1,55.11,0c8.29,1,13.18,6.76,10.23,12-6.4,11.37-15.76,22-27.43,31.41C169.6,350.75,159.71,350.8,154.23,346.58Z"/><path d="M145.23,395.24c-9,0-19.33-5.28-29.32-15.27l3.54-3.53c11.61,11.61,23.25,16.21,31.93,12.61,7.74-3.2,12.17-12.74,12.17-26.17h5c0,15.56-5.56,26.78-15.25,30.79A21,21,0,0,1,145.23,395.24Z"/><path d="M186.62,395.46a20.7,20.7,0,0,1-8-1.54c-9.61-4-15.12-15.29-15.12-31h5c0,13.62,4.39,23.25,12,26.42,8.64,3.57,20.32-1.11,32.08-12.86l3.53,3.53C206.06,390.1,195.68,395.46,186.62,395.46Z"/><path d="M123.29,331.6a176.16,176.16,0,0,0-21.92-4.9A128.2,128.2,0,0,0,79,325.1a89.94,89.94,0,0,0-22.25,3.11,57.37,57.37,0,0,0-10.53,4,37.24,37.24,0,0,0-4.84,2.92,14.33,14.33,0,0,0-4,4,14.41,14.41,0,0,1,3.79-4.22,37.89,37.89,0,0,1,4.73-3.22A58.62,58.62,0,0,1,56.34,327a91.17,91.17,0,0,1,22.5-4.41,130.91,130.91,0,0,1,23,.37,178.11,178.11,0,0,1,22.71,3.78,2.5,2.5,0,1,1-1.12,4.88Z"/><path d="M118.7,346.63a131.1,131.1,0,0,0-13-2.95c-2.19-.43-4.4-.66-6.61-1l-3.33-.32c-1.11-.12-2.22-.21-3.34-.26a123.68,123.68,0,0,0-52.78,8.35,99.66,99.66,0,0,0-12.23,5.79,64.11,64.11,0,0,0-5.74,3.59c-.92.65-1.82,1.34-2.68,2.08a10.6,10.6,0,0,0-2.28,2.49,10.71,10.71,0,0,1,2.18-2.61c.82-.78,1.7-1.51,2.59-2.21a65.09,65.09,0,0,1,5.61-3.88,99.43,99.43,0,0,1,12.07-6.4,123.18,123.18,0,0,1,26-8.38,124.94,124.94,0,0,1,27.38-2.56c1.15,0,2.3,0,3.45.1s2.3.1,3.45.18c2.29.22,4.59.36,6.88.69A138,138,0,0,1,120,341.79a2.5,2.5,0,0,1-1.08,4.89l-.1,0Z"/><path d="M123.29,363.77a112.09,112.09,0,0,0-13.23-2.87l-1.67-.27-1.69-.19-3.37-.38c-2.26-.13-4.52-.35-6.79-.36a103,103,0,0,0-13.6.52c-2.27.2-4.52.56-6.77.88s-4.49.8-6.71,1.33a117.52,117.52,0,0,0-25.83,9.15,104.81,104.81,0,0,0-12,6.85c-1.91,1.28-3.79,2.61-5.57,4.07-.89.73-1.76,1.48-2.59,2.28a13,13,0,0,0-2.23,2.61,12.94,12.94,0,0,1,2.12-2.72c.8-.84,1.64-1.64,2.5-2.4,1.72-1.55,3.55-3,5.41-4.35a106.08,106.08,0,0,1,11.73-7.45A118.6,118.6,0,0,1,68.85,360c2.24-.64,4.52-1.15,6.8-1.67s4.58-.91,6.9-1.22a105.74,105.74,0,0,1,14-1.17c2.35-.1,4.69,0,7,.06l3.52.23,1.76.13,1.76.2a115.59,115.59,0,0,1,13.92,2.36,2.5,2.5,0,1,1-1.06,4.89l-.1,0Z"/><path d="M200.17,326.76A178.27,178.27,0,0,1,222.89,323a130.78,130.78,0,0,1,23-.37A91.16,91.16,0,0,1,268.39,327a58.62,58.62,0,0,1,10.45,4.68,37.78,37.78,0,0,1,4.72,3.22,14.31,14.31,0,0,1,3.8,4.22,14.36,14.36,0,0,0-4-4,37.13,37.13,0,0,0-4.83-2.92,57.92,57.92,0,0,0-10.53-4,89.94,89.94,0,0,0-22.25-3.11,128.38,128.38,0,0,0-22.41,1.6,177,177,0,0,0-21.92,4.9,2.5,2.5,0,1,1-1.39-4.8Z"/><path d="M204.77,341.79a137,137,0,0,1,13.63-2.44c2.28-.33,4.59-.47,6.88-.69,1.15-.08,2.3-.12,3.45-.18s2.3-.11,3.45-.1a124.85,124.85,0,0,1,27.37,2.56,123.08,123.08,0,0,1,26,8.38,98.57,98.57,0,0,1,12.06,6.4,62.13,62.13,0,0,1,5.61,3.88c.9.7,1.77,1.43,2.6,2.21a10.71,10.71,0,0,1,2.18,2.61,10.6,10.6,0,0,0-2.28-2.49c-.86-.74-1.76-1.43-2.68-2.08a64.27,64.27,0,0,0-5.75-3.59,98.29,98.29,0,0,0-12.23-5.79,123.6,123.6,0,0,0-52.77-8.35c-1.12.05-2.23.14-3.34.26l-3.33.32c-2.21.32-4.43.55-6.62,1a130.91,130.91,0,0,0-13,2.95l-.08,0a2.5,2.5,0,0,1-1.29-4.83Z"/><path d="M200.17,358.93a115.75,115.75,0,0,1,13.93-2.36l1.75-.2,1.76-.13,3.52-.23c2.35,0,4.7-.16,7.05-.06a105.74,105.74,0,0,1,14,1.17c2.32.31,4.61.78,6.9,1.22s4.56,1,6.8,1.67a118.6,118.6,0,0,1,25.8,10.46,106.08,106.08,0,0,1,11.73,7.45c1.86,1.37,3.68,2.8,5.41,4.35.86.76,1.7,1.56,2.5,2.4a12.94,12.94,0,0,1,2.12,2.72,13,13,0,0,0-2.23-2.61c-.83-.8-1.7-1.55-2.6-2.28-1.78-1.46-3.65-2.79-5.56-4.07a104.81,104.81,0,0,0-11.95-6.85,117.52,117.52,0,0,0-25.83-9.15c-2.22-.53-4.47-.92-6.71-1.33s-4.5-.68-6.77-.88a103.18,103.18,0,0,0-13.61-.52c-2.26,0-4.52.23-6.78.36l-3.38.38-1.68.19-1.67.27a112.25,112.25,0,0,0-13.24,2.87l-.09,0a2.5,2.5,0,0,1-1.27-4.84Z"/><path d="M254.84,156.23a13,13,0,0,1-1.05-21.72c12.64-9.18,29.89-20.83,39.18-23.34,15.79-4.27,0,61.46-9.82,59.33C277.87,169.35,265.32,162.41,254.84,156.23Z"/><path d="M34,172.86c6.74-6.32,24-18.11,30.33-18.53a12.83,12.83,0,0,0,11.8-13.18c0-7.46-34.46-29-46.76-31.9s-8.43-3.37-9.27,5.9-.84,40.44,2.11,48S34,172.86,34,172.86Z"/><path class="cls-2" d="M148.57,317.28c-7,0-12.9-2.62-12.9-5.72s5.91-5.72,12.9-5.72,12.9,2.62,12.9,5.72S155.56,317.28,148.57,317.28Z"/><path d="M148.57,306.34c7.3,0,12.4,2.75,12.4,5.22s-5.1,5.22-12.4,5.22-12.4-2.75-12.4-5.22,5.09-5.22,12.4-5.22m0-1c-7.4,0-13.4,2.79-13.4,6.22s6,6.22,13.4,6.22S162,315,162,311.56s-6-6.22-13.4-6.22Z"/><path class="cls-4" d="M138.71,239.42a2.5,2.5,0,0,1-2.5-2.5V182.64H42a2.49,2.49,0,0,1-2.5-2.5v-7.22a2.53,2.53,0,0,1,.57-1.6L179.45,3.4a2.51,2.51,0,0,1,1.92-.9h5.51a2.5,2.5,0,0,1,2.5,2.5V133.94c11.15,0,14.73-1.59,15.88-2.53,2-1.66,3.47-4.86,4.28-9.5a2.49,2.49,0,0,1,2.46-2.07h7.91a2.5,2.5,0,0,1,2.5,2.5c0,15.55.12,27.8.35,36.41s.57,16.37,1,22.94a2.48,2.48,0,0,1-.92,2.12,2.51,2.51,0,0,1-1.57.56,2.6,2.6,0,0,1-.68-.1c-1-.27-3.33-.63-9.19-.77-4.91-.11-10.77-.28-17.4-.51l-4.64-.13v54.06a2.5,2.5,0,0,1-2.5,2.5Zm-2.5-105.48V74.23L86.89,133.94Z"/><path d="M186.88,5V136.44h2.06q14.12,0,17.9-3.09c2.52-2.07,4.24-5.73,5.16-11h7.91q0,23.4.35,36.47t1,23.06q-2.41-.69-9.81-.87t-17.37-.51c-2.41-.08-4.82-.13-7.23-.19v56.62H138.71V180.14H42v-7.22L181.37,5h5.51M81.58,136.44h57.13V67.28L81.58,136.44M186.88,0h-5.51a5,5,0,0,0-3.84,1.81L38.17,169.73A4.94,4.94,0,0,0,37,172.92v7.22a5,5,0,0,0,5,5h91.69v51.78a5,5,0,0,0,5,5h48.17a5,5,0,0,0,5-5v-51.5l2.06.07c6.64.23,12.5.4,17.43.51,6.27.15,8.13.56,8.55.67a4.94,4.94,0,0,0,1.37.2,5,5,0,0,0,5-5.35c-.46-6.54-.8-14.23-1-22.84s-.35-20.81-.35-36.34a5,5,0,0,0-5-5H212a5,5,0,0,0-4.93,4.14c-.87,5-2.33,7.12-3.4,8-.22.18-2.33,1.67-11.79,1.93V5a5,5,0,0,0-5-5ZM92.2,131.44l41.51-50.26v50.26Z"/></g></g></svg>