<svg xmlns="http://www.w3.org/2000/svg" viewBox="0 0 329.2 430.99"><defs><style>.cls-1{fill:#ffce9c;}.cls-2{fill:#fff;}.cls-3{fill:#cc8a46;}.cls-4{fill:#00f0e8;}</style></defs><title>Resurs 11</title><g id="Lager_2" data-name="Lager 2"><g id="Lager_2-2" data-name="Lager 2"><path class="cls-1" d="M160.31,410.86c-45.92,0-84.88-11.72-112.69-33.91C18.1,353.39,2.5,318.58,2.5,276.26c0-89.38,72.72-162.1,162.1-162.1s162.1,72.72,162.1,162.1c0,41.87-17.06,76.67-49.35,100.63C247.85,398.8,206.28,410.86,160.31,410.86Z"/><path d="M164.6,116.66a159.61,159.61,0,0,1,159.6,159.6c0,41-16.71,75.15-48.34,98.63-29.07,21.58-70.11,33.47-115.55,33.47S76.54,396.82,49.18,375A112.79,112.79,0,0,1,16.8,333.93C9,317,5,297.62,5,276.26a159.61,159.61,0,0,1,159.6-159.6m0-5A164.6,164.6,0,0,0,0,276.26c0,90.91,69.4,137.1,160.31,137.1S329.2,367.17,329.2,276.26a164.6,164.6,0,0,0-164.6-164.6Z"/><path class="cls-2" d="M136.25,309.39A181,181,0,0,1,117,308a156.46,156.46,0,0,0-16-1.23c-30.28,0-56.11-42.88-60.7-51,4.87-7,30.56-41.86,60.7-41.86,31.32,0,57.72,28.75,61.3,32.83,1,5.2,7.11,40.73-2.11,53.88C156,306.6,148.37,309.39,136.25,309.39Z"/><path d="M101,216.41c29.21,0,54.22,26.18,59,31.48,2.2,11.85,5.6,40.68-1.83,51.29-3.69,5.26-10.64,7.71-21.87,7.71a182.25,182.25,0,0,1-19-1.4A157.81,157.81,0,0,0,101,304.24c-27.51,0-51.64-37.94-57.74-48.34,6.41-9,30.26-39.49,57.74-39.49m0-5c-35.15,0-63.64,44.24-63.64,44.24S65.82,309.24,101,309.24c9.74,0,23.12,2.65,35.28,2.65,10.74,0,20.51-2.07,26-9.84,10.64-15.18,2.39-56.44,2.39-56.44s-28.49-34.2-63.63-34.2Z"/><path class="cls-2" d="M209.07,312c-15.16,0-31.68-1.67-39.36-14.08-8-12.85-3.58-45.58-2.76-51.11,4.1-4,30.26-28,61.28-28,30.18,0,55.9,36.52,60.71,43.77-4.65,7.86-30.47,49.07-60.71,49.07-2.8,0-5.76.08-8.89.16C216,311.91,212.55,312,209.07,312Z"/><path d="M228.23,221.32c27.45,0,51.4,32.08,57.74,41.34-6.15,10.11-30.24,46.5-57.74,46.5-2.84,0-5.81.08-9,.16-3.32.09-6.75.18-10.2.18-14.47,0-30.2-1.53-37.24-12.9-6.44-10.41-4.2-37.17-2.54-48.57,5.43-5.11,30.1-26.71,58.94-26.71m0-5c-35.14,0-63.63,29.29-63.63,29.29s-6.27,38.67,3,53.63c8.24,13.3,25.28,15.26,41.49,15.26,6.76,0,13.39-.34,19.16-.34,35.15,0,63.64-51.65,63.64-51.65s-28.49-46.19-63.64-46.19Z"/><circle cx="104.86" cy="255.65" r="36.85"/><path class="cls-2" d="M88.26,252.3a12.66,12.66,0,1,1,12.66-12.66A12.67,12.67,0,0,1,88.26,252.3Z"/><path d="M88.26,227.49a12.16,12.16,0,1,1-12.15,12.15,12.17,12.17,0,0,1,12.15-12.15m0-1a13.16,13.16,0,1,0,13.16,13.15,13.15,13.15,0,0,0-13.16-13.15Z"/><path class="cls-2" d="M121.93,283.64a6.08,6.08,0,1,1,6.08-6.07A6.08,6.08,0,0,1,121.93,283.64Z"/><path d="M121.93,272a5.58,5.58,0,1,1-5.58,5.58,5.58,5.58,0,0,1,5.58-5.58m0-1a6.58,6.58,0,1,0,6.58,6.58,6.58,6.58,0,0,0-6.58-6.58Z"/><circle cx="219.16" cy="260.24" r="37.22"/><path class="cls-2" d="M206.29,256.86a12.79,12.79,0,1,1,12.79-12.79A12.8,12.8,0,0,1,206.29,256.86Z"/><path d="M206.29,231.78A12.29,12.29,0,1,1,194,244.07a12.3,12.3,0,0,1,12.28-12.29m0-1a13.29,13.29,0,1,0,13.29,13.29,13.28,13.28,0,0,0-13.29-13.29Z"/><path class="cls-2" d="M238.85,288.52a5.92,5.92,0,1,1,5.92-5.92A5.93,5.93,0,0,1,238.85,288.52Z"/><path d="M238.85,277.18a5.42,5.42,0,1,1-5.42,5.42,5.42,5.42,0,0,1,5.42-5.42m0-1a6.42,6.42,0,1,0,6.42,6.42,6.41,6.41,0,0,0-6.42-6.42Z"/><path class="cls-3" d="M214.67,428.49c-16,0-33.82-5.81-53.09-17.28l-1.33-.79-1.31.85c-15.2,9.88-30.63,14.89-45.86,14.89A64.49,64.49,0,0,1,67.2,407.23c-11.53-11.52-18.14-26.76-18.14-41.81,0-15.83,9-33.73,24-47.87,15.72-14.78,35.52-23.26,54.33-23.26a61.36,61.36,0,0,1,33.45,9.87l1.12.71,1.22-.53c12.5-5.46,24.88-8.22,36.8-8.22,42.79,0,71.54,35.83,71.54,69.3,0,15.9-5.27,31.61-14.46,43.09-7.29,9.11-20.56,20-42.41,20Z"/><path d="M127.42,296.79a58.84,58.84,0,0,1,32.1,9.48l2.25,1.43,2.44-1.07c12.18-5.32,24.23-8,35.81-8,41.29,0,69,34.54,69,66.8,0,15.34-5.07,30.48-13.91,41.53-6.95,8.68-19.61,19-40.46,19-15.51,0-32.94-5.7-51.82-16.92l-2.67-1.59-2.61,1.69c-14.79,9.61-29.76,14.49-44.5,14.49A62,62,0,0,1,69,405.46c-11.06-11.06-17.41-25.65-17.41-40,0-15.15,8.69-32.37,23.25-46.05,15.26-14.35,34.43-22.58,52.61-22.58m0-5c-41.62,0-80.86,39.28-80.86,73.63,0,31.88,28.15,63.24,66.52,63.24,14.59,0,30.66-4.54,47.23-15.3,20.95,12.47,39.1,17.63,54.37,17.63,39.15,0,59.37-33.92,59.37-65.57,0-34.81-29.73-71.81-74-71.8-11.68,0-24.37,2.57-37.8,8.43a64,64,0,0,0-34.79-10.26Z"/><path class="cls-3" d="M290.47,184c-4.29,0-9.89-4-16.37-8.6a141.34,141.34,0,0,0-15.72-10.14l-3-1.58c-16-8.5-34.09-18.12-35.08-28.61-.45-4.77,2.75-9.95,9.52-15.39,33.05-26.56,64.36-28,79.4-28.7,3.17-.14,5.61-.26,7.48-.54-.23,15.18-2.39,74.42-21.7,91.67a6.62,6.62,0,0,1-4.57,1.89Z"/><path d="M314.22,93.25c-.5,24.12-4.78,72.67-20.85,87a4.05,4.05,0,0,1-2.9,1.26c-3.49,0-9-4-14.92-8.14a144.68,144.68,0,0,0-16-10.31l-3-1.58c-15.42-8.2-32.9-17.49-33.76-26.63-.37-3.89,2.52-8.33,8.6-13.21,32.41-26,62-27.41,77.95-28.15,1.82-.08,3.42-.16,4.84-.26m5-6.36c-3.62,4.57-45.27-5.85-91,30.87-26.75,21.49,3,35.91,28.9,49.73,14.56,7.77,24.84,19,33.27,19A9.07,9.07,0,0,0,296.7,184c23.22-20.73,22.57-97.11,22.57-97.11Z"/><path class="cls-3" d="M27.43,184.39a5.17,5.17,0,0,1-4.16-2.22C6.64,162.32,13.05,103.38,15,88.33c1.81.55,4.21,1,7.33,1.62,14.79,2.85,45.56,8.79,74.43,39.83,5,5.37,7.16,9.59,6.42,12.56-1.2,4.84-10.56,8.1-20.47,11.56a182.46,182.46,0,0,0-17.3,6.73c-8.16,3.84-15.22,9.31-21.45,14.14C37.29,179.93,31.54,184.39,27.43,184.39Z"/><path d="M17.1,91.44c1.39.31,3,.62,4.76,1,15.64,3,44.75,8.64,73.07,39.09,6,6.4,6.06,9.3,5.82,10.24-.87,3.53-10.43,6.87-18.86,9.81a183.13,183.13,0,0,0-17.54,6.83c-8.42,3.95-15.59,9.51-21.92,14.42-5.78,4.47-11.75,9.1-15,9.1-.39,0-1.13,0-2.24-1.33C11.35,164,14.12,115.38,17.1,91.44m-4.08-7s-11.65,75.5,8.34,99.35a7.67,7.67,0,0,0,6.07,3.12c9.22,0,21.89-15.94,39.05-24,23.81-11.18,53.19-12.16,32.11-34.82C58.66,85.16,16,89.47,13,84.42Z"/><path d="M154.23,347.27c-12-9.25-21.47-20.1-27.51-31.71-2.71-5.21,2.15-10.78,10.31-11.82a223.84,223.84,0,0,1,55.11,0c8.29,1,13.18,6.76,10.23,12-6.4,11.36-15.76,22-27.43,31.41C169.6,351.44,159.71,351.49,154.23,347.27Z"/><path d="M145.23,395.93c-9,0-19.33-5.28-29.32-15.27l3.54-3.53c11.61,11.61,23.25,16.21,31.93,12.62,7.74-3.21,12.17-12.75,12.17-26.17h5c0,15.55-5.56,26.77-15.25,30.78A20.76,20.76,0,0,1,145.23,395.93Z"/><path d="M186.62,396.15a20.7,20.7,0,0,1-8-1.54c-9.61-4-15.12-15.29-15.12-31h5c0,13.61,4.39,23.24,12,26.41,8.64,3.57,20.32-1.11,32.08-12.86l3.53,3.53C206.06,390.79,195.68,396.15,186.62,396.15Z"/><path d="M123.29,332.29a176.16,176.16,0,0,0-21.92-4.9,128.2,128.2,0,0,0-22.4-1.6,89.48,89.48,0,0,0-22.25,3.12,57.33,57.33,0,0,0-10.53,4,37.24,37.24,0,0,0-4.84,2.92,14.33,14.33,0,0,0-4,4,14.54,14.54,0,0,1,3.79-4.22,39,39,0,0,1,4.73-3.22,59.34,59.34,0,0,1,10.45-4.68,91.63,91.63,0,0,1,22.5-4.41,130.91,130.91,0,0,1,23,.37,181.72,181.72,0,0,1,22.71,3.78,2.5,2.5,0,1,1-1.12,4.88Z"/><path d="M118.7,347.32a131.1,131.1,0,0,0-13-2.95c-2.19-.43-4.4-.66-6.61-1l-3.33-.33c-1.11-.12-2.22-.21-3.34-.26a123.68,123.68,0,0,0-52.78,8.35A101.15,101.15,0,0,0,27.39,357a62,62,0,0,0-5.74,3.6A33,33,0,0,0,19,362.62a10.8,10.8,0,0,0-2.28,2.49,10.9,10.9,0,0,1,2.18-2.61,33.81,33.81,0,0,1,2.59-2.2,65.2,65.2,0,0,1,5.61-3.89A100.85,100.85,0,0,1,39.14,350a123.75,123.75,0,0,1,26-8.38,125.56,125.56,0,0,1,27.38-2.56c1.15,0,2.3,0,3.45.1s2.3.1,3.45.18c2.29.22,4.59.36,6.88.7A132.39,132.39,0,0,1,120,342.49a2.5,2.5,0,0,1-1.08,4.88l-.1,0Z"/><path d="M123.29,364.46a112.06,112.06,0,0,0-13.23-2.86l-1.67-.27-1.69-.2-3.37-.38c-2.26-.13-4.52-.35-6.79-.36a103,103,0,0,0-13.6.52c-2.27.2-4.52.56-6.77.88s-4.49.81-6.71,1.33a117.52,117.52,0,0,0-25.83,9.15,106.34,106.34,0,0,0-12,6.85c-1.91,1.28-3.79,2.62-5.57,4.07-.89.73-1.76,1.48-2.59,2.28a13.28,13.28,0,0,0-2.23,2.62,13,13,0,0,1,2.12-2.73c.8-.84,1.64-1.63,2.5-2.4,1.72-1.55,3.55-3,5.41-4.35a107.57,107.57,0,0,1,11.73-7.45,119.61,119.61,0,0,1,25.8-10.46c2.24-.64,4.52-1.15,6.8-1.67s4.58-.91,6.9-1.22a107.46,107.46,0,0,1,14-1.17c2.35-.1,4.69,0,7,.06l3.52.23,1.76.13,1.76.2a117.61,117.61,0,0,1,13.92,2.36,2.5,2.5,0,1,1-1.06,4.89l-.1,0Z"/><path d="M200.17,327.45a181.87,181.87,0,0,1,22.72-3.78,130.78,130.78,0,0,1,23-.37,91.62,91.62,0,0,1,22.51,4.41,59.34,59.34,0,0,1,10.45,4.68,38.89,38.89,0,0,1,4.72,3.22,14.43,14.43,0,0,1,3.8,4.22,14.36,14.36,0,0,0-4-4,37.13,37.13,0,0,0-4.83-2.92,57.89,57.89,0,0,0-10.53-4,89.48,89.48,0,0,0-22.25-3.12,128.38,128.38,0,0,0-22.41,1.6,177,177,0,0,0-21.92,4.9,2.5,2.5,0,1,1-1.39-4.8Z"/><path d="M204.77,342.49a131.44,131.44,0,0,1,13.63-2.44c2.28-.34,4.59-.48,6.88-.7,1.15-.08,2.3-.12,3.45-.18s2.3-.11,3.45-.1a125.47,125.47,0,0,1,27.37,2.56,123.65,123.65,0,0,1,26,8.38,100,100,0,0,1,12.06,6.4,62.23,62.23,0,0,1,5.61,3.89,34,34,0,0,1,2.6,2.2,10.9,10.9,0,0,1,2.18,2.61,10.8,10.8,0,0,0-2.28-2.49,33,33,0,0,0-2.68-2.07,62.16,62.16,0,0,0-5.75-3.6,99.74,99.74,0,0,0-12.23-5.79,123.6,123.6,0,0,0-52.77-8.35c-1.12.05-2.23.14-3.34.26l-3.33.33c-2.21.31-4.43.54-6.62,1a130.91,130.91,0,0,0-13,2.95l-.08,0a2.5,2.5,0,1,1-1.29-4.83Z"/><path d="M200.17,359.62a117.77,117.77,0,0,1,13.93-2.36l1.75-.2,1.76-.13,3.52-.23c2.35,0,4.7-.16,7.05-.06a107.46,107.46,0,0,1,14,1.17c2.32.31,4.61.78,6.9,1.22s4.56,1,6.8,1.67a119.61,119.61,0,0,1,25.8,10.46,107.57,107.57,0,0,1,11.73,7.45c1.86,1.37,3.68,2.8,5.41,4.35.86.77,1.7,1.56,2.5,2.4a13,13,0,0,1,2.12,2.73,13.28,13.28,0,0,0-2.23-2.62c-.83-.8-1.7-1.55-2.6-2.28-1.78-1.45-3.65-2.79-5.56-4.07a106.34,106.34,0,0,0-11.95-6.85,117.52,117.52,0,0,0-25.83-9.15c-2.22-.52-4.47-.92-6.71-1.33s-4.5-.68-6.77-.88a103.18,103.18,0,0,0-13.61-.52c-2.26,0-4.52.23-6.78.36l-3.38.38-1.68.2-1.67.27a112.22,112.22,0,0,0-13.24,2.86l-.09,0a2.5,2.5,0,0,1-1.27-4.84Z"/><path d="M254.84,156.93a13,13,0,0,1-1.05-21.73c12.64-9.18,29.89-20.83,39.18-23.34,15.79-4.27,0,61.46-9.82,59.33C277.87,170,265.32,163.1,254.84,156.93Z"/><path d="M34,173.56c6.74-6.32,24-18.12,30.33-18.54a12.83,12.83,0,0,0,11.8-13.18c0-7.46-34.46-29-46.76-31.89s-8.43-3.37-9.27,5.89-.84,40.44,2.11,48S34,173.56,34,173.56Z"/><path class="cls-2" d="M148.57,318c-7,0-12.9-2.62-12.9-5.72s5.91-5.72,12.9-5.72,12.9,2.62,12.9,5.72S155.56,318,148.57,318Z"/><path d="M148.57,307c7.3,0,12.4,2.75,12.4,5.22s-5.1,5.22-12.4,5.22-12.4-2.75-12.4-5.22,5.09-5.22,12.4-5.22m0-1c-7.4,0-13.4,2.79-13.4,6.22s6,6.22,13.4,6.22,13.4-2.78,13.4-6.22-6-6.22-13.4-6.22Z"/><path class="cls-4" d="M85.76,247.33a2.49,2.49,0,0,1-2.5-2.5v-6.19a2.5,2.5,0,0,1,2.5-2.5,97.18,97.18,0,0,0,31.37-5.2A91.43,91.43,0,0,0,144.6,216a71.74,71.74,0,0,0,19.29-23.62c4.72-9.23,7.12-20,7.12-31.89,0-13.56-2.94-24-8.73-31.11S148.17,119,136.69,119a42.85,42.85,0,0,0-17.39,3.22,58.46,58.46,0,0,0-14,8.91,2.48,2.48,0,0,1-1.62.6,2.53,2.53,0,0,1-1.42-.44l-5.5-3.79a2.5,2.5,0,0,1-1.07-2.36L109.44,14a2.48,2.48,0,0,1,1-1.71,2.54,2.54,0,0,1,1.48-.48,2.28,2.28,0,0,1,.45,0,77.46,77.46,0,0,0,8.49,1c3.23.22,6.47.34,9.64.34H199c4.56,0,8-.69,10.23-2.05,2-1.19,3.09-3.29,3.46-6.41a2.51,2.51,0,0,1,2.48-2.21h7.92a2.5,2.5,0,0,1,2.5,2.5c0,16.51.11,29.46.34,38.47s.57,17.3,1,24.34a2.49,2.49,0,0,1-2.49,2.66,3.08,3.08,0,0,1-.61-.07c-1.15-.29-3.82-.69-10-1-5.11-.22-11.05-.39-17.65-.51s-13.27-.17-19.57-.17H114.82l-5.61,46a86.05,86.05,0,0,1,20.23-8.59c10.29-3,22.57-4.57,36.5-4.57,16.57,0,30.47,2.57,41.32,7.63s19.19,12.17,24.48,20.93a55.43,55.43,0,0,1,7.93,29,57,57,0,0,1-13.83,37.4c-9,10.76-21.15,20-36.06,27.63a206.65,206.65,0,0,1-49.46,17.25A256.76,256.76,0,0,1,85.76,247.33Z"/><path d="M223.06,5q0,24.78.34,38.54t1,24.43a63.56,63.56,0,0,0-10.5-1q-7.74-.34-17.72-.52t-19.61-.17h-64l-6.53,53.68Q115,113,130.15,108.57t35.79-4.47q24.42,0,40.26,7.4t23.4,20a52.67,52.67,0,0,1,7.57,27.69q0,20-13.25,35.79t-35.27,27a203.11,203.11,0,0,1-48.86,17,253.1,253.1,0,0,1-54,5.85v-6.19a99.27,99.27,0,0,0,32.18-5.33A93.54,93.54,0,0,0,146.15,218a73.81,73.81,0,0,0,20-24.44q7.39-14.44,7.4-33,0-21.33-9.29-32.69t-27.53-11.35a45.14,45.14,0,0,0-18.41,3.44,60.19,60.19,0,0,0-14.62,9.29l-5.51-3.79L111.92,14.29a77.81,77.81,0,0,0,8.77,1q5,.35,9.81.35H199q7.58,0,11.53-2.41T215.14,5h7.92m0-5h-7.92a5,5,0,0,0-5,4.41C209.81,7.49,208.7,8.5,207.9,9c-1.26.76-3.83,1.68-8.93,1.68H130.5c-3.11,0-6.29-.11-9.46-.34a72.48,72.48,0,0,1-8.22-1,5.47,5.47,0,0,0-.9-.08,5,5,0,0,0-3,1,5,5,0,0,0-2,3.42L93.19,124.82a5,5,0,0,0,2.13,4.73l5.51,3.79a5,5,0,0,0,2.83.88A5,5,0,0,0,106.9,133a55.57,55.57,0,0,1,13.41-8.53,40.4,40.4,0,0,1,16.38-3c10.68,0,18.42,3.11,23.66,9.52,5.41,6.62,8.16,16.55,8.16,29.52,0,11.53-2.31,21.88-6.85,30.76A69.26,69.26,0,0,1,143,214.08a89,89,0,0,1-26.72,14.5,94.62,94.62,0,0,1-30.56,5.06,5,5,0,0,0-5,5v6.19a5,5,0,0,0,5,5,259.08,259.08,0,0,0,55.09-6,209.16,209.16,0,0,0,50.06-17.46c15.22-7.73,27.61-17.24,36.84-28.26a59.37,59.37,0,0,0,14.42-39,57.83,57.83,0,0,0-8.29-30.27c-5.54-9.2-14.15-16.57-25.56-21.91-11.18-5.22-25.44-7.87-42.38-7.87-14.17,0-26.69,1.57-37.2,4.68a96,96,0,0,0-16.45,6.4L117,71.25h59.58c6.28,0,12.85.06,19.52.17s12.5.29,17.59.51c6.29.28,8.66.68,9.51.89a5,5,0,0,0,6.19-5.18c-.45-7-.8-15.15-1-24.22s-.34-21.93-.34-38.42a5,5,0,0,0-5-5Z"/></g></g></svg>