<svg xmlns="http://www.w3.org/2000/svg" viewBox="0 0 329.2 455.75"><defs><style>.cls-1{fill:#ffce9c;}.cls-2{fill:#fff;}.cls-3{fill:#cc8a46;}.cls-4{fill:#9400f0;}</style></defs><title>Resurs 12</title><g id="Lager_2" data-name="Lager 2"><g id="Lager_2-2" data-name="Lager 2"><path class="cls-1" d="M160.31,435.62c-45.92,0-84.88-11.72-112.69-33.91C18.1,378.15,2.5,343.34,2.5,301c0-89.38,72.72-162.1,162.1-162.1S326.7,211.64,326.7,301c0,41.87-17.06,76.67-49.35,100.64C247.85,423.56,206.28,435.62,160.31,435.62Z"/><path d="M164.6,141.42A159.61,159.61,0,0,1,324.2,301c0,41.05-16.71,75.15-48.34,98.63-29.07,21.59-70.11,33.47-115.55,33.47S76.54,421.59,49.18,399.75A112.79,112.79,0,0,1,16.8,358.69C9,341.79,5,322.38,5,301a159.61,159.61,0,0,1,159.6-159.6m0-5A164.6,164.6,0,0,0,0,301c0,90.91,69.4,137.1,160.31,137.1S329.2,391.93,329.2,301a164.6,164.6,0,0,0-164.6-164.6Z"/><path class="cls-2" d="M136.25,334.15A181,181,0,0,1,117,332.73a156.46,156.46,0,0,0-16-1.23c-30.28,0-56.11-42.88-60.7-51,4.87-7,30.56-41.87,60.7-41.87,31.32,0,57.72,28.75,61.3,32.83,1,5.2,7.11,40.73-2.11,53.88C156,331.36,148.37,334.15,136.25,334.15Z"/><path d="M101,241.17c29.21,0,54.22,26.18,59,31.48,2.2,11.85,5.6,40.68-1.83,51.29-3.69,5.26-10.64,7.71-21.87,7.71a179.56,179.56,0,0,1-19-1.4A157.81,157.81,0,0,0,101,329c-27.51,0-51.64-37.93-57.74-48.33,6.41-9,30.26-39.5,57.74-39.5m0-5c-35.15,0-63.64,44.24-63.64,44.24S65.82,334,101,334c9.74,0,23.12,2.65,35.28,2.65,10.74,0,20.51-2.07,26-9.84,10.64-15.18,2.39-56.44,2.39-56.44s-28.49-34.2-63.63-34.2Z"/><path class="cls-2" d="M209.07,336.76c-15.16,0-31.68-1.67-39.36-14.08-8-12.85-3.58-45.58-2.76-51.11,4.1-4,30.26-28,61.28-28,30.18,0,55.9,36.51,60.71,43.76-4.65,7.86-30.47,49.07-60.71,49.07-2.8,0-5.76.08-8.89.16C216,336.67,212.55,336.76,209.07,336.76Z"/><path d="M228.23,246.09c27.45,0,51.4,32.07,57.74,41.34-6.15,10.1-30.24,46.49-57.74,46.49-2.84,0-5.81.08-9,.17-3.32.08-6.75.17-10.2.17-14.47,0-30.2-1.53-37.24-12.89-6.44-10.42-4.2-37.18-2.54-48.58,5.43-5.11,30.1-26.7,58.94-26.7m0-5c-35.14,0-63.63,29.28-63.63,29.28s-6.27,38.68,3,53.63c8.24,13.31,25.28,15.26,41.49,15.26,6.76,0,13.39-.34,19.16-.34,35.15,0,63.64-51.65,63.64-51.65s-28.49-46.18-63.64-46.18Z"/><circle cx="104.86" cy="280.41" r="36.85"/><path class="cls-2" d="M88.26,277.06a12.66,12.66,0,1,1,12.66-12.66A12.67,12.67,0,0,1,88.26,277.06Z"/><path d="M88.26,252.25A12.16,12.16,0,1,1,76.11,264.4a12.17,12.17,0,0,1,12.15-12.15m0-1a13.16,13.16,0,1,0,13.16,13.15,13.15,13.15,0,0,0-13.16-13.15Z"/><path class="cls-2" d="M121.93,308.4a6.08,6.08,0,1,1,6.08-6.07A6.08,6.08,0,0,1,121.93,308.4Z"/><path d="M121.93,296.75a5.58,5.58,0,1,1-5.58,5.58,5.58,5.58,0,0,1,5.58-5.58m0-1a6.58,6.58,0,1,0,6.58,6.58,6.58,6.58,0,0,0-6.58-6.58Z"/><circle cx="219.16" cy="285" r="37.22"/><path class="cls-2" d="M206.29,281.62a12.79,12.79,0,1,1,12.79-12.79A12.8,12.8,0,0,1,206.29,281.62Z"/><path d="M206.29,256.54A12.29,12.29,0,1,1,194,268.83a12.31,12.31,0,0,1,12.28-12.29m0-1a13.29,13.29,0,1,0,13.29,13.29,13.28,13.28,0,0,0-13.29-13.29Z"/><path class="cls-2" d="M238.85,313.28a5.92,5.92,0,1,1,5.92-5.92A5.93,5.93,0,0,1,238.85,313.28Z"/><path d="M238.85,301.94a5.42,5.42,0,1,1-5.42,5.42,5.42,5.42,0,0,1,5.42-5.42m0-1a6.42,6.42,0,1,0,6.42,6.42,6.41,6.41,0,0,0-6.42-6.42Z"/><path class="cls-3" d="M214.67,453.25c-16,0-33.82-5.81-53.09-17.27l-1.33-.8-1.31.85c-15.2,9.88-30.63,14.89-45.86,14.89A64.45,64.45,0,0,1,67.2,432c-11.53-11.52-18.14-26.76-18.14-41.81,0-15.83,9-33.72,24-47.87,15.72-14.78,35.52-23.25,54.33-23.25a61.35,61.35,0,0,1,33.45,9.86l1.12.71,1.22-.53c12.5-5.46,24.88-8.22,36.8-8.22,42.79,0,71.54,35.83,71.54,69.3,0,15.9-5.27,31.61-14.46,43.09-7.29,9.11-20.56,20-42.41,20Z"/><path d="M127.42,321.56a58.83,58.83,0,0,1,32.1,9.47l2.25,1.43,2.44-1.07c12.18-5.31,24.23-8,35.81-8,41.29,0,69,34.54,69,66.8,0,15.35-5.07,30.48-13.91,41.53-6.95,8.69-19.61,19-40.46,19-15.51,0-32.94-5.69-51.82-16.92l-2.67-1.59-2.61,1.69c-14.79,9.61-29.76,14.49-44.5,14.49A62,62,0,0,1,69,430.22c-11.06-11.05-17.41-25.65-17.41-40,0-15.15,8.69-32.37,23.25-46.05,15.26-14.35,34.43-22.57,52.61-22.57m0-5c-41.62,0-80.86,39.27-80.86,73.62,0,31.88,28.15,63.24,66.52,63.24,14.59,0,30.66-4.54,47.23-15.3,20.95,12.47,39.1,17.63,54.37,17.63,39.15,0,59.37-33.92,59.37-65.57,0-34.81-29.73-71.81-74-71.8-11.68,0-24.37,2.57-37.8,8.43a64,64,0,0,0-34.79-10.25Z"/><path class="cls-3" d="M290.47,208.79c-4.29,0-9.89-4-16.37-8.6a141.34,141.34,0,0,0-15.72-10.14l-3-1.58c-16-8.49-34.09-18.12-35.08-28.6-.45-4.78,2.75-10,9.52-15.4,33.05-26.56,64.36-28,79.4-28.7,3.17-.14,5.61-.25,7.48-.54-.23,15.18-2.39,74.42-21.7,91.67a6.62,6.62,0,0,1-4.57,1.89Z"/><path d="M314.22,118c-.5,24.12-4.78,72.67-20.85,87a4.05,4.05,0,0,1-2.9,1.26c-3.49,0-9-3.95-14.92-8.14a144.68,144.68,0,0,0-16-10.31l-3-1.58c-15.42-8.2-32.9-17.49-33.76-26.63-.37-3.89,2.52-8.33,8.6-13.21,32.41-26,62-27.41,77.95-28.15,1.82-.08,3.42-.16,4.84-.26m5-6.36c-3.62,4.57-45.27-5.85-91,30.87-26.75,21.49,3,35.92,28.9,49.73,14.56,7.77,24.84,19,33.27,19a9.07,9.07,0,0,0,6.23-2.53c23.22-20.73,22.57-97.11,22.57-97.11Z"/><path class="cls-3" d="M27.43,209.15a5.17,5.17,0,0,1-4.16-2.22C6.64,187.08,13.05,128.14,15,113.09c1.81.55,4.21,1,7.33,1.62,14.79,2.85,45.56,8.79,74.43,39.83,5,5.37,7.16,9.59,6.42,12.56-1.2,4.84-10.56,8.1-20.47,11.56a182.46,182.46,0,0,0-17.3,6.73c-8.16,3.84-15.22,9.31-21.45,14.14C37.29,204.69,31.54,209.15,27.43,209.15Z"/><path d="M17.1,116.2c1.39.31,3,.62,4.76,1,15.64,3,44.75,8.64,73.07,39.09,6,6.4,6.06,9.3,5.82,10.25-.87,3.52-10.43,6.86-18.86,9.8a183.13,183.13,0,0,0-17.54,6.83c-8.42,4-15.59,9.51-21.92,14.42-5.78,4.47-11.75,9.1-15,9.1-.39,0-1.13,0-2.24-1.33-13.84-16.51-11.07-65.18-8.09-89.12m-4.08-7s-11.65,75.49,8.34,99.34a7.67,7.67,0,0,0,6.07,3.12c9.22,0,21.89-15.94,39.05-24,23.81-11.18,53.19-12.16,32.11-34.82C58.66,109.92,16,114.23,13,109.19Z"/><path d="M154.23,372c-12-9.26-21.47-20.11-27.51-31.72-2.71-5.21,2.15-10.78,10.31-11.81a223.84,223.84,0,0,1,55.11,0c8.29,1,13.18,6.76,10.23,12-6.4,11.36-15.76,22-27.43,31.41C169.6,376.2,159.71,376.25,154.23,372Z"/><path d="M145.23,420.69c-9,0-19.33-5.27-29.32-15.27l3.54-3.53c11.61,11.61,23.25,16.21,31.93,12.62,7.74-3.21,12.17-12.74,12.17-26.17h5c0,15.55-5.56,26.77-15.25,30.79A20.94,20.94,0,0,1,145.23,420.69Z"/><path d="M186.62,420.91a20.7,20.7,0,0,1-8-1.54c-9.61-4-15.12-15.29-15.12-31h5c0,13.62,4.39,23.24,12,26.41,8.64,3.58,20.32-1.11,32.08-12.86l3.53,3.53C206.06,415.55,195.68,420.91,186.62,420.91Z"/><path d="M123.29,357.05a176.16,176.16,0,0,0-21.92-4.9A127.23,127.23,0,0,0,79,350.56a89,89,0,0,0-22.25,3.11,57.33,57.33,0,0,0-10.53,4,37.24,37.24,0,0,0-4.84,2.92,14.33,14.33,0,0,0-4,4,14.67,14.67,0,0,1,3.79-4.22,39,39,0,0,1,4.73-3.22,59.34,59.34,0,0,1,10.45-4.68,91.63,91.63,0,0,1,22.5-4.41,130.91,130.91,0,0,1,23,.37,179.92,179.92,0,0,1,22.71,3.79,2.5,2.5,0,1,1-1.12,4.87Z"/><path d="M118.7,372.09a131.14,131.14,0,0,0-13-3c-2.19-.42-4.4-.66-6.61-1l-3.33-.33c-1.11-.12-2.22-.21-3.34-.25a123.27,123.27,0,0,0-52.78,8.35,99.59,99.59,0,0,0-12.23,5.78,62,62,0,0,0-5.74,3.6c-.92.65-1.82,1.33-2.68,2.07a11,11,0,0,0-2.28,2.49,10.9,10.9,0,0,1,2.18-2.61,33.81,33.81,0,0,1,2.59-2.2,65.2,65.2,0,0,1,5.61-3.89,100.85,100.85,0,0,1,12.07-6.4,123.75,123.75,0,0,1,26-8.38,125.56,125.56,0,0,1,27.38-2.56c1.15,0,2.3,0,3.45.1s2.3.1,3.45.18c2.29.22,4.59.36,6.88.7A132.39,132.39,0,0,1,120,367.25a2.5,2.5,0,1,1-1.08,4.88l-.1,0Z"/><path d="M123.29,389.22a112.06,112.06,0,0,0-13.23-2.86l-1.67-.27-1.69-.2-3.37-.37c-2.26-.14-4.52-.36-6.79-.37a101.35,101.35,0,0,0-13.6.53c-2.27.19-4.52.55-6.77.88s-4.49.8-6.71,1.33A117,117,0,0,0,43.63,397a106.34,106.34,0,0,0-12,6.85c-1.91,1.28-3.79,2.62-5.57,4.08-.89.72-1.76,1.47-2.59,2.27a13.28,13.28,0,0,0-2.23,2.62,13,13,0,0,1,2.12-2.73c.8-.84,1.64-1.63,2.5-2.4,1.72-1.55,3.55-3,5.41-4.35a107.57,107.57,0,0,1,11.73-7.45,119.61,119.61,0,0,1,25.8-10.46c2.24-.64,4.52-1.15,6.8-1.67s4.58-.91,6.9-1.22a107.46,107.46,0,0,1,14-1.17c2.35-.1,4.69,0,7,.06l3.52.23,1.76.13,1.76.2a117.64,117.64,0,0,1,13.92,2.37,2.5,2.5,0,1,1-1.06,4.88l-.1,0Z"/><path d="M200.17,352.22a180.08,180.08,0,0,1,22.72-3.79,130.78,130.78,0,0,1,23-.37,91.62,91.62,0,0,1,22.51,4.41,59.34,59.34,0,0,1,10.45,4.68,38.89,38.89,0,0,1,4.72,3.22,14.56,14.56,0,0,1,3.8,4.22,14.36,14.36,0,0,0-4-4,37.13,37.13,0,0,0-4.83-2.92,57.89,57.89,0,0,0-10.53-4,89,89,0,0,0-22.25-3.11,127.41,127.41,0,0,0-22.41,1.59,177,177,0,0,0-21.92,4.9,2.5,2.5,0,1,1-1.39-4.8Z"/><path d="M204.77,367.25a131.44,131.44,0,0,1,13.63-2.44c2.28-.34,4.59-.48,6.88-.7,1.15-.08,2.3-.12,3.45-.18s2.3-.1,3.45-.1a125.47,125.47,0,0,1,27.37,2.56,123.65,123.65,0,0,1,26,8.38,100,100,0,0,1,12.06,6.4,62.23,62.23,0,0,1,5.61,3.89,34,34,0,0,1,2.6,2.2,10.9,10.9,0,0,1,2.18,2.61,11,11,0,0,0-2.28-2.49c-.86-.74-1.76-1.42-2.68-2.07a62.16,62.16,0,0,0-5.75-3.6,98.23,98.23,0,0,0-12.23-5.78,123.2,123.2,0,0,0-52.77-8.35c-1.12,0-2.23.13-3.34.25l-3.33.33c-2.21.31-4.43.55-6.62,1a131,131,0,0,0-13,3l-.08,0a2.5,2.5,0,0,1-1.29-4.84Z"/><path d="M200.17,384.39A117.8,117.8,0,0,1,214.1,382l1.75-.2,1.76-.13,3.52-.23c2.35,0,4.7-.16,7.05-.06a107.46,107.46,0,0,1,14,1.17c2.32.31,4.61.78,6.9,1.22s4.56,1,6.8,1.67a119.61,119.61,0,0,1,25.8,10.46,107.57,107.57,0,0,1,11.73,7.45c1.86,1.37,3.68,2.8,5.41,4.35.86.77,1.7,1.56,2.5,2.4a13,13,0,0,1,2.12,2.73,13.28,13.28,0,0,0-2.23-2.62c-.83-.8-1.7-1.55-2.6-2.27-1.78-1.46-3.65-2.8-5.56-4.08A106.34,106.34,0,0,0,281.1,397a117,117,0,0,0-25.83-9.14c-2.22-.53-4.47-.93-6.71-1.33s-4.5-.69-6.77-.88a101.5,101.5,0,0,0-13.61-.53c-2.26,0-4.52.23-6.78.37l-3.38.37-1.68.2-1.67.27a112.22,112.22,0,0,0-13.24,2.86l-.09,0a2.5,2.5,0,0,1-1.27-4.84Z"/><path d="M254.84,181.69A13,13,0,0,1,253.79,160c12.64-9.18,29.89-20.83,39.18-23.34,15.79-4.27,0,61.46-9.82,59.33C277.87,194.8,265.32,187.86,254.84,181.69Z"/><path d="M34,198.32c6.74-6.32,24-18.12,30.33-18.54a12.83,12.83,0,0,0,11.8-13.18c0-7.46-34.46-29-46.76-31.89s-8.43-3.37-9.27,5.9-.84,40.44,2.11,48S34,198.32,34,198.32Z"/><path class="cls-2" d="M148.57,342.73c-7,0-12.9-2.62-12.9-5.72s5.91-5.72,12.9-5.72,12.9,2.62,12.9,5.72S155.56,342.73,148.57,342.73Z"/><path d="M148.57,331.79c7.3,0,12.4,2.75,12.4,5.22s-5.1,5.22-12.4,5.22-12.4-2.75-12.4-5.22,5.09-5.22,12.4-5.22m0-1c-7.4,0-13.4,2.79-13.4,6.22s6,6.22,13.4,6.22S162,340.45,162,337s-6-6.22-13.4-6.22Z"/><path class="cls-4" d="M159.27,261.1c-27.91,0-50.18-8.9-66.2-26.45s-24-42.42-24-74.12c0-20.87,3.36-39.71,10-56A142.71,142.71,0,0,1,105.46,62a165.75,165.75,0,0,1,36.69-30.22,213.76,213.76,0,0,1,41.08-19.32,231,231,0,0,1,39-9.91l.38,0a2.49,2.49,0,0,1,2.45,2l1.38,6.88a2.51,2.51,0,0,1-1.7,2.88,203,203,0,0,0-25.49,10,98.67,98.67,0,0,0-23.49,15.78c-7.32,6.55-13.86,15.17-19.42,25.63s-10,23.9-13.17,39.75q-.72,3.61-1.34,7.52a43.62,43.62,0,0,1,14.84-9.48,66.16,66.16,0,0,1,24-4.3,74.15,74.15,0,0,1,37.2,9.45,71.43,71.43,0,0,1,26.55,26.55c6.62,11.35,10,25.09,10,40.83,0,18.09-4.43,33.73-13.17,46.49a82.42,82.42,0,0,1-34.94,28.91A114.28,114.28,0,0,1,159.27,261.1Zm-20-125.72c-.62,8.83-.94,18.45-.94,28.59,0,21.52,1.37,38.82,4.07,51.44,2.66,12.42,6,21.34,10,26.52,3.73,4.84,7.29,7.29,10.58,7.29s6.64-2.11,9.91-6.27c3.53-4.49,6.43-12,8.64-22.21,2.24-10.46,3.38-24.47,3.38-41.63,0-16.25-1.08-29.38-3.21-39-2.09-9.43-4.81-16.26-8.1-20.29-3.09-3.78-6.45-5.62-10.27-5.62-2.54,0-5.72,1-9.46,3.13a32.64,32.64,0,0,0-10.52,10.08A37.4,37.4,0,0,0,139.31,135.38Z"/><path d="M222.58,5,224,11.88A205.16,205.16,0,0,0,198.15,22a100.89,100.89,0,0,0-24.09,16.18q-11.35,10.15-19.95,26.32T140.69,105q-1.51,7.62-2.56,16.27c.54-.8,1.1-1.58,1.69-2.33a40.93,40.93,0,0,1,17.73-13.08,63.3,63.3,0,0,1,23-4.13,71.45,71.45,0,0,1,36,9.12,68.63,68.63,0,0,1,25.63,25.64Q251.82,153,251.83,176q0,26.49-12.73,45.07a79.61,79.61,0,0,1-33.9,28,111.33,111.33,0,0,1-45.93,9.46q-41,0-64.35-25.63t-23.4-72.44q0-31,9.81-55a139.16,139.16,0,0,1,26-41.81A162.52,162.52,0,0,1,143.44,33.9,210.2,210.2,0,0,1,184,14.81,227.39,227.39,0,0,1,222.58,5M163.05,251.72q6.19,0,11.87-7.23T184,221.26q3.44-16,3.44-42.15,0-24.77-3.27-39.57t-8.6-21.33q-5.34-6.54-12.21-6.54-4.49,0-10.67,3.44A34.86,34.86,0,0,0,141.37,126a40.39,40.39,0,0,0-4.53,8.89q-1,13.51-1,29.13,0,32.7,4.13,52t10.49,27.53q6.36,8.26,12.56,8.26M222.59,0a5,5,0,0,0-.77.06,231.92,231.92,0,0,0-39.39,10,215.92,215.92,0,0,0-41.58,19.54A167.87,167.87,0,0,0,103.62,60.3,144.77,144.77,0,0,0,76.7,103.59C70,120.18,66.52,139.33,66.52,160.53c0,32.35,8.31,57.85,24.71,75.81s39.4,27.26,68,27.26a116.67,116.67,0,0,0,48-9.9,84.87,84.87,0,0,0,36-29.78c9-13.18,13.61-29.3,13.61-47.9,0-16.19-3.47-30.35-10.32-42.09A73.89,73.89,0,0,0,219,106.47a76.53,76.53,0,0,0-38.43-9.78,68.43,68.43,0,0,0-24.86,4.47,47.12,47.12,0,0,0-10.3,5.52l.15-.74c3.1-15.62,7.45-28.76,12.93-39.06s11.77-18.6,18.88-24.95a96.56,96.56,0,0,1,22.89-15.38,201.65,201.65,0,0,1,25.17-9.9,5,5,0,0,0,3.4-5.75L227.48,4a5,5,0,0,0-4.89-4ZM141.78,135.93a34.12,34.12,0,0,1,3.7-7.12,30,30,0,0,1,9.68-9.33c4.19-2.32,6.79-2.81,8.24-2.81,3,0,5.75,1.54,8.34,4.7,3,3.72,5.59,10.2,7.59,19.25,2.09,9.47,3.15,22.42,3.15,38.49,0,17-1.12,30.82-3.33,41.1-2.12,9.87-4.87,17-8.16,21.19-2.77,3.53-5.44,5.32-7.94,5.32s-5.42-2.18-8.6-6.31c-3.76-4.88-7-13.47-9.56-25.53-2.67-12.44-4-29.57-4-50.91,0-9.94.3-19.37.91-28Z"/></g></g></svg>