<?xml version="1.0" encoding="UTF-8"?>
<!DOCTYPE svg PUBLIC "-//W3C//DTD SVG 1.1//EN" "http://www.w3.org/Graphics/SVG/1.1/DTD/svg11.dtd">
<!-- Creator: CorelDRAW -->
<svg xmlns="http://www.w3.org/2000/svg" xml:space="preserve" width="1.70666in" height="1.70666in" version="1.1" style="shape-rendering:geometricPrecision; text-rendering:geometricPrecision; image-rendering:optimizeQuality; fill-rule:evenodd; clip-rule:evenodd"
viewBox="0 0 1706.66 1706.66"
 xmlns:xlink="http://www.w3.org/1999/xlink"
 xmlns:xodm="http://www.corel.com/coreldraw/odm/2003">
 <defs>
  <style type="text/css">
   <![CDATA[
    .fil0 {fill:url(#id0)}
   ]]>
  </style>
  <linearGradient id="id0" gradientUnits="userSpaceOnUse" x1="17.3" y1="853.33" x2="1689.37" y2="853.33">
   <stop offset="0" style="stop-opacity:1; stop-color:#FFB800"/>
   <stop offset="1" style="stop-opacity:1; stop-color:#FF5329"/>
  </linearGradient>
 </defs>
 <g id="Layer_x0020_1">
  <metadata id="CorelCorpID_0Corel-Layer"/>
  <path class="fil0" d="M518.4 1706.57c-64.09,0 -166.71,-12.03 -244.58,-145.97 -82.5,39.48 -224.33,-9.65 -205.28,-111.67 5.7,-30.54 42.56,-7.93 54.59,-2.64 0,-85.83 -55,-88.12 -55,-113.47 0,-6.53 3.19,-12.64 8.47,-16.39 39.58,-28.06 86.67,-16.39 120.28,-0.83 -2.56,-9.34 -6.29,-18.41 2.5,-27.5 4.86,-5 11.94,-7.22 18.75,-5.83 84.23,17.62 144.44,59.86 144.44,132.78 0,31 -9.87,53.61 -15.42,70.42 96.62,166.6 322.66,174.1 337.78,-150.14 3.66,-78.44 23.7,-136.39 51.33,-179.22 21.66,49.68 38.02,90.09 50.15,144.62 10.28,46.23 14.51,92.41 11.45,137.83 -17.02,30.75 -33.55,66.44 -47.66,107.19 -48.75,141.11 -168.61,160.83 -231.8,160.83zm914.24 -1322.26c16.89,-23.54 81.96,-92.54 242.14,-48.42 25.45,6.98 14.84,45.58 -10.56,38.61 -125.13,-34.55 -178.24,8.49 -194.85,27.77 11.72,16.22 27.76,14.73 47.62,-6.53 13.19,-14.12 64.78,-5.86 75.14,24.72 16.94,49.86 -79.31,135 -138.06,181.39 -13.65,10.7 -33.66,0.07 -32.36,-17.22l5.83 -73.33c-97.92,30.28 -233.75,89.44 -250.69,146.11 -2.65,8.82 -9.7,13.9 -19.17,13.9 -30.73,0 -90.66,-137.53 42.22,-227.92 -49.86,0.28 -125.28,21.81 -181.8,131.39 -10.12,19.61 -39.84,10.54 -37.64,-11.25 1.25,-12.36 11.67,-104.72 43.06,-159.72 -76.8,-20.68 -117.09,-77.74 -91.39,-166.53l26.94 -41.25c-70.27,-32.51 -87.2,-101.34 -52.64,-183.33 5.71,-13.55 23.45,-16.37 33.19,-5.7 35.83,39.44 133.19,129.72 206.53,137.92 -62.11,-91.62 -29.65,-162.06 2.22,-141.11 61.66,40.55 175.27,96.39 218.05,72.5 8.33,-4.72 18.89,-2.78 25.14,4.58 22.36,26.53 68.33,69.86 98.33,74.58l103.47 0.56c51.35,13.43 78.82,63.52 39.03,131.67 -6.13,10.5 -19.98,13.17 -29.58,5.69 -16.84,-13.11 -76.61,-51.33 -99.03,-12.36 -33.28,57.85 -84.11,38.24 -115.83,2.78 -69.75,11.15 -24.93,88.19 1.53,99.72 16.73,7.29 31.17,3.82 43.13,0.79zm-171.61 -115.78c-75.96,0 -76.12,-115.56 0,-115.56 76.11,0 75.96,115.56 0,115.56zm-403.33 1430.96c-77.66,0 -73.44,-75.35 -66.94,-87.64 115.26,-232.19 -18.09,-460.68 -22.5,-484.44 -6.07,-34.26 -93.07,-113.25 -190.64,-187.8 38.12,-130.2 160.98,-314.04 307.32,-321.27 49.93,95.58 122.97,175 159.84,173.8 35.84,-1.17 18.15,-56.68 13.06,-68.89 -9.54,-22.87 -35.9,-62.02 -55.07,-97.8 44.96,-0.87 50.38,-39.01 77.08,-74.49 -8.5,56.31 11.26,160.35 77.85,160.35 26.96,0 49.72,-16.5 57.48,-42.41 3.8,-12.67 30.59,-31.9 40.94,-38.8 70.41,86.88 165.95,139.53 168.67,289.68 3.89,214.35 -205.83,313.82 -341.6,373.57 12.2,80.33 -18.05,134.78 -84.51,150.32 -25.42,5.97 -42.5,17.22 -50.69,33.33 -12.78,25 -2.78,56.81 0.14,64.86 9.05,14.93 41.08,4.07 66.67,-16.53 24.03,-19.31 40.97,-15.97 50.83,-9.86 32.08,20 21.39,100.69 6.81,164.86 -4.01,17.76 -27.93,21.07 -36.81,5.42 -16.97,-29.91 -121.78,13.74 -177.92,13.74zm438.05 -712.22c-9.58,0 -17.92,-6.81 -19.72,-16.53 -13.15,-72.81 -48,-119.27 -105.7,-113.06 -28.98,3.12 -31.98,-33.49 -8.47,-39.02 1.67,-0.42 43.33,-8.89 84.03,18.47 35.56,23.89 58.89,66.52 69.44,126.66 2.13,12.01 -7.28,23.47 -19.59,23.47zm-752.78 -73.62c-100.18,-73.66 -202.72,-136.89 -234.85,-138.87 -3.33,-0.14 -6.53,-1.25 -9.31,-2.92 -36.6,-22.36 -59.91,-47.35 -75.26,-73.88 38.93,-62.94 223,-319.59 634.85,-361.11 1.51,8.65 -0.01,17.07 -3.63,22.49 -37.36,55.94 -22.77,141.15 12.08,221.21 -132.1,19.24 -271.39,160.13 -323.89,333.08zm-338.32 -260.28c-31.82,-107.44 11.56,-228.7 -174.59,-300.68 -12.97,-5.02 -16.96,-21.41 -7.78,-31.81 202.62,-229.8 553.07,-184.61 802.65,-20.58 -371.02,46.92 -555.87,258.19 -620.28,353.07zm964.98 1046.11c-27.63,0 -44.96,-9.63 -55.48,-22.59 9.24,-42.78 19.78,-105.22 5.34,-150.51 9.04,-65.73 16.84,-153.86 15.19,-212.34 78.74,-36.17 157.9,-78.95 220,-139.45 28.13,57.34 59.18,143.53 32.59,207.25 -31.86,76.58 -103.02,47.4 -127.36,95.14 -12.78,25 -2.78,56.81 0.14,64.86 9.15,15.11 41.22,4.18 66.67,-16.39 24.03,-19.44 40.83,-15.97 50.83,-9.86 32.08,20 21.39,100.69 6.67,164.86 -4.03,17.76 -27.92,21.08 -36.81,5.42 -16.92,-29.82 -121.64,13.6 -177.78,13.6z"/>
 </g>
</svg>
