<?xml version="1.0" ?>
<!-- Uploaded to: SVG Repo, www.svgrepo.com, Generator: SVG Repo Mixer Tools -->
<svg width="800px" height="800px" viewBox="0 0 512 512" enable-background="new 0 0 512 512" id="flat" version="1.1" xml:space="preserve" xmlns="http://www.w3.org/2000/svg" xmlns:xlink="http://www.w3.org/1999/xlink">
<path d="M356.954,456H155.046C126.854,456,104,433.146,104,404.954V288h304v116.954  C408,433.146,385.146,456,356.954,456z" fill="#3F4254"/>
<path d="M319.579,504H192.421C161.261,504,136,478.739,136,447.579V392h240v55.579  C376,478.739,350.739,504,319.579,504z" fill="#60657F"/>
<path d="M448,198.368C448,94.278,363.742,9.7,259.162,8.026C151.995,6.31,64.679,90.874,64.004,197.142  c-0.328,51.708,20.138,98.676,53.593,133.167c10.434,10.756,16.221,25.125,16.221,40.049v28.954  c0,18.053,14.761,32.689,32.969,32.689h178.426c18.208,0,32.969-14.635,32.969-32.689v-29.348c0-14.687,5.69-28.837,15.978-39.405  C427.494,296.317,448,249.717,448,198.368z" fill="#6F7593"/>
<g>
<path d="M256,472c-4.418,0-8-3.582-8-8v-64c0-4.418,3.582-8,8-8s8,3.582,8,8v64C264,468.418,260.418,472,256,472z" fill="#292B37"/>
</g>
<g>
<path d="M288,472c-4.418,0-8-3.582-8-8v-64c0-4.418,3.582-8,8-8s8,3.582,8,8v64C296,468.418,292.418,472,288,472z" fill="#292B37"/>
</g>
<g>
<path d="M320,472c-4.418,0-8-3.582-8-8v-64c0-4.418,3.582-8,8-8s8,3.582,8,8v64C328,468.418,324.418,472,320,472z" fill="#292B37"/>
</g>
<g>
<path d="M352,472c-4.418,0-8-3.582-8-8v-64c0-4.418,3.582-8,8-8s8,3.582,8,8v64C360,468.418,356.418,472,352,472z" fill="#292B37"/>
</g>
<g>
<path d="M224,472c-4.418,0-8-3.582-8-8v-64c0-4.418,3.582-8,8-8s8,3.582,8,8v64C232,468.418,228.418,472,224,472z" fill="#292B37"/>
</g>
<g>
<path d="M192,472c-4.418,0-8-3.582-8-8v-64c0-4.418,3.582-8,8-8s8,3.582,8,8v64C200,468.418,196.418,472,192,472z" fill="#292B37"/>
</g>
<g>
<path d="M160,472c-4.418,0-8-3.582-8-8v-64c0-4.418,3.582-8,8-8s8,3.582,8,8v64C168,468.418,164.418,472,160,472z" fill="#292B37"/>
</g>
<ellipse cx="344.501" cy="179.559" fill="#66292C" rx="60" ry="56" transform="matrix(0.3433 -0.9392 0.9392 0.3433 57.5924 441.4859)"/>
<ellipse cx="167.499" cy="179.559" fill="#66292C" rx="56" ry="60" transform="matrix(0.9392 -0.3433 0.3433 0.9392 -51.4609 68.4109)"/>
<path d="M216.991,306.873l22.28-38.194c7.474-12.812,25.986-12.812,33.459,0l22.28,38.194  c7.532,12.912-1.782,29.127-16.73,29.127H233.72C218.772,336,209.459,319.785,216.991,306.873z" fill="#E2E2E2"/>
<g>
<path d="M327.992,360.001c-1.401,0-2.819-0.368-4.108-1.141c-3.789-2.273-5.017-7.187-2.744-10.976l48-80   c2.273-3.789,7.186-5.018,10.976-2.744c3.789,2.273,5.017,7.187,2.744,10.976l-48,80   C333.36,358.616,330.71,360.001,327.992,360.001z" fill="#66292C"/>
</g>
<g>
<path d="M383.998,304.002c-0.989,0-1.994-0.185-2.969-0.574l-40-16c-4.102-1.641-6.098-6.296-4.457-10.399   c1.641-4.103,6.295-6.097,10.399-4.457l40,16c4.102,1.641,6.098,6.296,4.457,10.399   C390.177,302.099,387.172,304.002,383.998,304.002z" fill="#66292C"/>
</g>
<g>
<path d="M375.998,328.002c-0.989,0-1.994-0.185-2.969-0.574l-40-16c-4.102-1.641-6.098-6.296-4.457-10.399   c1.641-4.103,6.296-6.097,10.399-4.457l40,16c4.102,1.641,6.098,6.296,4.457,10.399   C382.177,326.099,379.172,328.002,375.998,328.002z" fill="#66292C"/>
</g>
<g>
<path d="M359.998,352.002c-0.989,0-1.994-0.185-2.969-0.574l-40-16c-4.102-1.641-6.098-6.296-4.457-10.399   c1.641-4.103,6.295-6.097,10.399-4.457l40,16c4.102,1.641,6.098,6.296,4.457,10.399   C366.177,350.099,363.172,352.002,359.998,352.002z" fill="#66292C"/>
</g>
<g>
<path d="M257.94,119.76c-0.65,0.16-1.3,0.24-1.95,0.24c-3.58,0-6.84-2.42-7.75-6.06l-6.7-26.78l-50.67-7.24   c-2.72-0.39-5.05-2.15-6.17-4.65c-1.12-2.51-0.88-5.42,0.64-7.71l10.19-15.28l-36.62-12.21c-1.91-0.64-3.42-1.93-4.37-3.54   c5.41-3.34,11-6.41,16.76-9.2l39.23,13.08c2.37,0.79,4.23,2.64,5.04,4.99c0.81,2.36,0.47,4.96-0.91,7.04l-8.96,13.44l43.43,6.2   c3.22,0.46,5.84,2.82,6.63,5.98l8,32C264.83,114.35,262.23,118.69,257.94,119.76z" fill="#3F4254"/>
</g>
</svg>