<?xml version="1.0" encoding="iso-8859-1"?>
<!-- Uploaded to: SVG Repo, www.svgrepo.com, Generator: SVG Repo Mixer Tools -->
<svg height="800px" width="800px" version="1.1" id="Layer_1" xmlns="http://www.w3.org/2000/svg" xmlns:xlink="http://www.w3.org/1999/xlink" 
	 viewBox="0 0 512.004 512.004" xml:space="preserve">
<path style="fill:#F75534;" d="M256.001,40.467c64.282,0,112.684,22.775,127.274,116.571c0,0,61.757,36.734-8.065,36.734
	c0,0,34.367,81.435-6.795,138.194c-41.174,56.759,3.506,156.533-41.369,163.65c-43.697,6.934-71.046,8.549-71.046,8.549
	s-27.348-1.615-71.046-8.549c-44.873-7.117-0.194-106.891-41.369-163.65c-41.163-56.759-6.795-138.194-6.795-138.194
	c-69.82,0-8.065-36.734-8.065-36.734C143.318,63.242,191.719,40.467,256.001,40.467z"/>
<path style="fill:#BD391E;" d="M204.113,495.617c-44.873-7.117-0.194-106.891-41.369-163.65
	c-34.792-47.974-15.624-113.577-8.858-132.735c0.938-2.656-0.986-5.459-3.801-5.554c-60.352-2.049-2.201-36.639-2.201-36.639
	C161.74,67.962,206.093,42.943,265.58,40.65c-3.151-0.121-6.344-0.183-9.579-0.183c-64.282,0-112.684,22.775-127.274,116.571
	c0,0-61.757,36.734,8.065,36.734c0,0-34.367,81.435,6.795,138.194c41.174,56.759-3.505,156.534,41.369,163.65
	c43.697,6.934,71.046,8.549,71.046,8.549s3.357-0.199,9.579-0.752C254.015,502.383,232.525,500.124,204.113,495.617z"/>
<g>
	<path style="fill:#362928;" d="M161.107,196.316l73.756,27.767c3.117,1.173,3.683,5.339,0.986,7.293
		c-17.293,12.524-66.985,41.261-80.33-30.404C154.925,197.782,158.07,195.173,161.107,196.316z"/>
	<path style="fill:#362928;" d="M350.896,196.316l-73.756,27.767c-3.117,1.173-3.683,5.339-0.986,7.293
		c17.293,12.524,66.985,41.261,80.33-30.404C357.078,197.782,353.932,195.173,350.896,196.316z"/>
</g>
<path style="fill:#BD391E;" d="M281.396,280.427c0,0,0.442,3.697,19.574,21.119s-4.121,33.085-16.409,53.411
	c-12.288,20.326-44.827,20.326-57.116,0c-12.288-20.326-35.541-35.988-16.409-53.411s19.574-21.119,19.574-21.119H281.396z"/>
<path style="fill:#F75534;" d="M279.93,271.762c0,0,0.416,12.953,18.445,27.525c18.028,14.572-3.883,17.81-15.462,34.811
	c-11.58,17-42.241,17-53.821,0c-11.58-17-33.491-20.239-15.462-34.811c18.028-14.572,18.445-27.525,18.445-27.525H279.93z"/>
<path style="fill:#F7EDE3;" d="M150.771,93.53c-26.836-8.595-64.456-30.409-87.882-85.69c0,0-18.708,98.616,65.839,149.199
	c0,0,17.706,7.793,32.965-3.979C183.306,136.386,176.756,101.853,150.771,93.53z"/>
<path style="fill:#DBD2CA;" d="M167.962,138.031c-15.26,11.772-32.995,0.072-32.995,0.072C76.453,97.526,63.153,38.075,63.09,8.297
	c-0.066-0.155-0.136-0.303-0.202-0.458c0,0-18.708,98.616,65.839,149.2c0,0,17.706,7.793,32.965-3.979
	c7.337-5.66,11.421-13.381,12.608-21.434C172.546,133.949,170.449,136.112,167.962,138.031z"/>
<path style="fill:#F7EDE3;" d="M361.232,93.53c26.836-8.595,64.456-30.409,87.882-85.69c0,0,18.708,98.616-65.839,149.199
	c0,0-17.706,7.793-32.965-3.979C328.697,136.386,335.246,101.853,361.232,93.53z"/>
<path style="fill:#DBD2CA;" d="M372.253,153.059c-21.613-16.673-15.561-44.154,9.834-54.14
	c30.999-12.191,48.065-31.347,67.028-91.081c-23.427,55.282-61.046,77.095-87.882,85.691c-25.987,8.324-32.535,42.856-10.922,59.53
	c12.019,9.272,25.549,6.407,30.757,4.772C378.132,156.82,375.148,155.293,372.253,153.059z"/>
<path style="fill:#F7EDE3;" d="M162.006,407.66c0,0-9.545-20.36,16.328-68.124c0,0,16.428,54.967,28.438,70.493
	C206.771,410.029,183.028,428.71,162.006,407.66z"/>
<path style="fill:#DBD2CA;" d="M186.777,407.251c0,0-15.259-10.403-8.444-67.715c-25.873,47.764-16.328,68.124-16.328,68.124
	c12.844,12.86,26.693,10.887,35.533,7.408C194.134,413.489,190.525,411.004,186.777,407.251z"/>
<path style="fill:#F7EDE3;" d="M349.997,407.66c0,0,9.545-20.36-16.328-68.124c0,0-16.428,54.967-28.438,70.493
	C305.232,410.029,328.975,428.71,349.997,407.66z"/>
<path style="fill:#DBD2CA;" d="M325.487,417.438c18.46-26.47,8.183-77.902,8.183-77.902s-16.428,54.966-28.438,70.493
	c0,0,8.901,6.986,20.623,7.589C325.622,417.508,325.487,417.438,325.487,417.438z"/>
<path style="fill:#E64524;" d="M358.907,432.889c-27.518,7.161-102.906,12.731-102.906,12.731s-75.387-5.57-102.906-12.731
	c-27.518-7.162-15.875-38.862,0-35.011c0,0,67.747,13.262,102.906,13.262s102.906-13.262,102.906-13.262
	C374.782,394.026,386.426,425.728,358.907,432.889z"/>
<path style="fill:#A6321A;" d="M159.944,399.168c-4.321-0.796-6.848-1.29-6.848-1.29c-15.875-3.852-27.518,27.85,0,35.011
	c2.064,0.537,4.401,1.065,6.951,1.582C153.056,423.69,154.595,407.982,159.944,399.168z"/>
<path d="M149.455,187.654c-2.159,1.727-3.246,4.465-2.864,7.205c4.472,31.961,15.88,51.563,33.906,58.261
	c4.624,1.719,9.365,2.447,14.09,2.447c25.878,0,51.159-21.873,52.409-22.97c2.07-1.816,3.034-4.586,2.542-7.293
	c-0.493-2.709-2.372-4.961-4.949-5.932l-87.476-32.932C154.523,185.465,151.615,185.926,149.455,187.654z M225.516,228.938
	c-11.261,7.058-27.258,14.081-39.586,9.48c-9.927-3.703-17.083-14.585-21.349-32.42L225.516,228.938z"/>
<path d="M331.506,253.119c18.026-6.698,29.434-26.3,33.906-58.261c0.382-2.739-0.705-5.476-2.864-7.205
	c-2.16-1.728-5.071-2.19-7.658-1.216l-87.476,32.932c-2.577,0.971-4.456,3.222-4.949,5.932c-0.493,2.708,0.471,5.477,2.542,7.293
	c1.25,1.097,26.529,22.97,52.409,22.97C322.139,255.566,326.885,254.837,331.506,253.119z M347.421,205.998
	c-4.266,17.835-11.423,28.717-21.349,32.42c-12.329,4.599-28.325-2.423-39.586-9.48L347.421,205.998z"/>
<path d="M236.499,191.913c1.479,1.271,3.296,1.893,5.104,1.893c2.204,0,4.395-0.925,5.944-2.726c2.821-3.282,2.45-8.23-0.832-11.052
	c-0.773-0.666-19.236-16.44-44.489-29.32c-3.853-1.967-8.575-0.435-10.542,3.421c-1.967,3.855-0.435,8.575,3.421,10.542
	C218.615,176.658,236.324,191.761,236.499,191.913z"/>
<path d="M270.401,193.803c1.807,0,3.624-0.622,5.102-1.891c0.176-0.152,17.884-15.254,41.392-27.243
	c3.856-1.966,5.387-6.686,3.421-10.542c-1.968-3.856-6.688-5.384-10.542-3.421c-25.253,12.879-43.715,28.655-44.489,29.32
	c-3.28,2.821-3.652,7.766-0.833,11.047C266.003,192.877,268.195,193.803,270.401,193.803z"/>
<path d="M210.886,326.754c3.976,3.275,8.48,6.986,11.729,11.755c6.898,10.129,19.38,16.176,33.387,16.176
	c14.007,0,26.488-6.047,33.387-16.176c3.248-4.768,7.753-8.48,11.729-11.755c5.894-4.857,11.989-9.878,11.952-17.64
	c-0.033-7.221-5.591-12.546-9.768-15.922c-14.537-11.75-15.515-21.471-15.548-21.878l0.009,0.196l-15.665,0.504
	c0.054,1.693,1.115,17.012,21.351,33.368c2.369,1.913,3.355,3.138,3.75,3.744c-0.984,1.36-3.873,3.74-6.049,5.532
	c-4.547,3.748-10.207,8.411-14.715,15.03c-3.917,5.752-11.747,9.326-20.433,9.326c-8.686,0-16.516-3.574-20.433-9.326
	c-4.508-6.618-10.168-11.282-14.715-15.03c-2.175-1.792-5.065-4.171-6.049-5.532c0.395-0.606,1.381-1.83,3.75-3.744
	c20.236-16.356,21.297-31.675,21.35-33.368l-15.665-0.504l0.009-0.196c-0.033,0.409-1.011,10.128-15.548,21.878
	c-4.176,3.376-9.733,8.701-9.768,15.922C198.898,316.875,204.993,321.896,210.886,326.754z"/>
<path d="M99.562,63.048c3.168-2.949,3.345-7.908,0.396-11.076C87.957,39.08,77.911,23.204,70.105,4.781
	c-1.347-3.18-4.619-5.115-8.05-4.733c-3.432,0.368-6.221,2.938-6.864,6.332c-0.203,1.067-4.885,26.485,1.215,58.555
	c7.361,38.704,27.388,70.357,58.187,92.229c-1.463,1.094-2.982,2.277-4.492,3.536c-11.518,9.602-16.068,18.085-13.911,25.934
	c2.873,10.453,15.872,13.728,29.564,14.647c-2.894,8.93-6.712,22.87-8.777,39.327c-4.761,37.931,2.249,71.113,20.272,95.961
	c8.626,11.884,13.966,27.233,16.329,46.878c-0.387,2.293-0.652,4.422-0.833,6.418c-10.328-1.242-20.262,6.307-23.224,18.078
	c-3.061,12.163,2.396,27.531,21.599,32.533c1.191,0.311,2.468,0.62,3.833,0.927c-0.175,28.119,1.453,57.627,28.78,61.956
	c43.577,6.908,70.674,8.563,71.806,8.631c0.154,0.009,0.309,0.014,0.463,0.014c0.154,0,0.309-0.004,0.463-0.014
	c1.133-0.067,28.229-1.722,71.805-8.631c27.327-4.329,28.954-33.837,28.781-61.956c1.364-0.307,2.638-0.614,3.827-0.926
	c19.208-5.003,24.664-20.371,21.604-32.534c-2.962-11.771-12.892-19.321-23.224-18.078c-0.181-1.995-0.446-4.124-0.833-6.418
	c2.362-19.644,7.704-34.994,16.323-46.872c2.004-2.755,3.92-5.694,5.696-8.734c2.183-3.737,0.923-8.537-2.815-10.72
	c-3.737-2.182-8.536-0.924-10.72,2.815c-1.513,2.59-3.141,5.087-4.842,7.426c-5.451,7.512-9.773,16.068-13.038,25.795
	c-2.32-5.377-5.113-11.157-8.47-17.355c-1.509-2.785-4.536-4.393-7.696-4.063c-3.151,0.326-5.796,2.515-6.703,5.551
	c-3.872,12.949-14.615,45.786-23.345,61.905c-19.959,2.723-35.698,4.103-46.815,4.103s-26.856-1.38-46.815-4.103
	c-8.729-16.119-19.473-48.956-23.345-61.905c-0.907-3.035-3.552-5.226-6.703-5.551c-3.158-0.329-6.187,1.278-7.696,4.063
	c-3.357,6.197-6.15,11.977-8.47,17.355c-3.264-9.727-7.586-18.283-13.037-25.793c-38.035-52.438-6.248-129.779-5.926-130.55
	c1.022-2.419,0.762-5.191-0.69-7.379c-1.452-2.189-3.904-3.505-6.531-3.505c-18.181,0-23.846-2.662-25.293-3.618
	c1.187-3.486,9.304-10.854,18.252-16.667c3.009,0.85,7.423,1.758,12.568,1.758c7.257,0,15.957-1.808,24.163-8.139
	c12.363-9.538,18.114-24.529,15.384-40.102c-2.261-12.896-10.161-23.775-21.265-29.88c19.293-28.253,49.135-40.974,95.4-40.974
	c14.378,0,26.755,1.159,37.839,3.544c4.221,0.909,8.399-1.782,9.309-6.013c0.91-4.231-1.782-8.399-6.013-9.309
	c-12.179-2.621-25.634-3.895-41.134-3.895c-26.244,0-47.563,3.793-65.176,11.595c-18.842,8.346-33.648,21.205-45.12,39.167
	c-6.558-2.586-12.91-5.741-18.953-9.438c-3.691-2.257-8.515-1.096-10.774,2.597c-2.258,3.692-1.096,8.515,2.597,10.774
	c9.375,5.733,19.402,10.331,29.805,13.662c9.544,3.057,16.29,10.861,18.045,20.876c1.706,9.729-1.853,19.07-9.519,24.985
	c-10.358,7.99-22.413,4.005-24.665,3.152c-32.6-19.683-52.899-49.106-60.336-87.461c-1.795-9.255-2.59-17.962-2.837-25.547
	c5.801,9.421,12.29,17.998,19.417,25.653C91.436,65.819,96.395,65.996,99.562,63.048z M325.816,487.877
	c-39.697,6.292-66.046,8.184-69.815,8.433c-3.769-0.25-30.118-2.141-69.816-8.433c-12.465-1.975-15.389-15.205-15.536-43.559
	c33.238,5.273,82.496,8.946,84.774,9.115c0.193,0.015,0.385,0.022,0.578,0.022s0.385-0.007,0.578-0.022
	c2.279-0.168,51.538-3.842,84.774-9.116C341.207,472.672,338.282,485.902,325.816,487.877z M335.17,360.623
	c3.961,9.409,6.203,17.193,7.41,23.461c-0.512,4.766-0.885,9.764-1.121,15.261c-0.075,1.791-0.137,3.658-0.187,5.568
	c-9.452,7.195-19.061,5.16-25.107,2.487C323.088,394.855,330.26,375.241,335.17,360.623z M299.573,415.437
	c0.253,0.263,0.518,0.518,0.814,0.75c5.606,4.411,15.647,9.329,26.986,9.329c8.683,0,18.127-2.902,26.911-11.116
	c0.122-0.11,0.241-0.223,0.356-0.341c0.301-0.287,0.603-0.563,0.903-0.863c0.641-0.642,1.165-1.39,1.551-2.211
	c0.265-0.566,0.965-2.243,1.554-5.08c1.132-0.215,1.747-0.334,1.747-0.334c0.12-0.023,0.239-0.05,0.358-0.078
	c2.869-0.701,5.635,2.71,6.531,6.274c0.769,3.06,1.302,10.506-10.36,13.543c-2.504,0.654-5.605,1.331-9.222,2.014
	c-29.851,5.637-85.42,9.96-91.698,10.436c-6.279-0.476-61.848-4.8-91.7-10.436c-3.615-0.681-6.718-1.359-9.225-2.015
	c-11.657-3.035-11.124-10.481-10.355-13.542c0.895-3.562,3.656-6.968,6.531-6.274c0.118,0.028,0.238,0.055,0.358,0.078
	c0,0,0.615,0.119,1.747,0.334c0.588,2.836,1.287,4.514,1.554,5.08c0.386,0.821,0.91,1.569,1.551,2.211
	c0.297,0.298,0.598,0.572,0.895,0.856c0.121,0.125,0.248,0.243,0.377,0.36c8.782,8.206,18.218,11.103,26.898,11.103
	c11.336,0,21.381-4.919,26.986-9.329c0.295-0.232,0.561-0.486,0.814-0.75c18.162,2.345,32.798,3.536,43.571,3.536
	C266.776,418.973,281.409,417.783,299.573,415.437z M176.833,360.623c4.909,14.617,12.081,34.231,19.004,46.774
	c-6.056,2.677-15.661,4.705-25.106-2.484c-0.05-1.91-0.112-3.779-0.187-5.575c-0.237-5.5-0.608-10.498-1.12-15.257
	C170.631,377.813,172.872,370.03,176.833,360.623z"/>
<path d="M455.598,64.935c6.1-32.07,1.418-57.488,1.215-58.555c-0.643-3.393-3.431-5.964-6.864-6.332
	c-3.425-0.377-6.702,1.554-8.05,4.733c-20.079,47.381-50.894,68.885-75.592,78.621c-8.818-13.769-19.864-24.779-32.91-32.777
	c-3.689-2.263-8.514-1.107-10.776,2.585c-2.262,3.688-1.106,8.514,2.585,10.776c10.35,6.346,18.983,14.666,26.214,25.29
	c-11.113,6.103-19.018,16.987-21.28,29.888c-2.73,15.572,3.021,30.564,15.384,40.102c8.207,6.332,16.905,8.139,24.163,8.139
	c5.144,0,9.558-0.908,12.567-1.758c8.951,5.815,17.066,13.182,18.253,16.667c-1.447,0.956-7.112,3.618-25.293,3.618
	c-2.625,0-5.072,1.317-6.525,3.503c-1.452,2.186-1.714,4.956-0.697,7.376c0.191,0.455,18.995,45.981,10.708,90.711
	c-0.789,4.255,2.022,8.345,6.278,9.132c0.483,0.09,0.962,0.133,1.437,0.133c3.704,0,6.997-2.636,7.696-6.41
	c6.726-36.304-2.255-71.921-7.845-89.095c13.686-0.921,26.676-4.197,29.549-14.646c2.157-7.85-2.393-16.333-13.911-25.934
	c-1.51-1.258-3.028-2.442-4.492-3.536C428.209,135.291,448.235,103.639,455.598,64.935z M379.754,150.01
	c-2.229,0.851-14.267,4.861-24.659-3.156c-7.666-5.914-11.225-15.256-9.519-24.985c1.756-10.015,8.502-17.82,18.045-20.876
	c23.975-7.68,55.349-24.999,79.31-63.958c-0.249,7.578-1.044,16.269-2.836,25.51C432.659,100.903,412.358,130.328,379.754,150.01z"
	/>
</svg>