<?xml version="1.0" encoding="utf-8"?>
<!-- Uploaded to: SVG Repo, www.svgrepo.com, Generator: SVG Repo Mixer Tools -->
<svg width="800px" height="800px" viewBox="0 0 1024 1024" class="icon"  version="1.1" xmlns="http://www.w3.org/2000/svg"><path d="M661.333333 896v-170.666667M341.333333 896V661.333333" fill="none" /><path d="M330.666667 266.666667m-96 0a96 96 0 1 0 192 0 96 96 0 1 0-192 0Z" fill="#8BC34A" /><path d="M448 618.666667m-106.666667 0a106.666667 106.666667 0 1 0 213.333334 0 106.666667 106.666667 0 1 0-213.333334 0Z" fill="#8BC34A" /><path d="M480 480m-74.666667 0a74.666667 74.666667 0 1 0 149.333334 0 74.666667 74.666667 0 1 0-149.333334 0Z" fill="#8BC34A" /><path d="M426.666667 362.666667m-85.333334 0a85.333333 85.333333 0 1 0 170.666667 0 85.333333 85.333333 0 1 0-170.666667 0Z" fill="#8BC34A" /><path d="M330.666667 693.333333m-96 0a96 96 0 1 0 192 0 96 96 0 1 0-192 0Z" fill="#8BC34A" /><path d="M192 480a160 128 90 1 0 256 0 160 128 90 1 0-256 0Z" fill="#8BC34A" /><path d="M234.666667 320m-85.333334 0a85.333333 85.333333 0 1 0 170.666667 0 85.333333 85.333333 0 1 0-170.666667 0Z" fill="#8BC34A" /><path d="M213.333333 661.333333m-64 0a64 64 0 1 0 128 0 64 64 0 1 0-128 0Z" fill="#8BC34A" /><path d="M202.666667 437.333333m-74.666667 0a74.666667 74.666667 0 1 0 149.333333 0 74.666667 74.666667 0 1 0-149.333333 0Z" fill="#8BC34A" /><path d="M181.333333 544m-74.666666 0a74.666667 74.666667 0 1 0 149.333333 0 74.666667 74.666667 0 1 0-149.333333 0Z" fill="#8BC34A" /><path d="M181.333333 544m-74.666666 0a74.666667 74.666667 0 1 0 149.333333 0 74.666667 74.666667 0 1 0-149.333333 0Z" fill="#8BC34A" /><path d="M661.333333 298.666667L426.666667 725.333333s64 64 234.666666 64 234.666667-64 234.666667-64L661.333333 298.666667z" fill="#009688" /><path d="M661.333333 192l-192 320s32 64 192 64 192-64 192-64L661.333333 192z" fill="#009688" /><path d="M661.333333 128l-128 192s21.333333 42.666667 128 42.666667 128-42.666667 128-42.666667l-128-192z" fill="#009688" /><path d="M661.333333 618.666667c74.368 0 125.226667-12.885333 160.128-28.864l-20.714666-37.653334C771.584 564.992 727.552 576 661.333333 576s-110.250667-11.008-139.413333-23.829333l-20.714667 37.653333C536.106667 605.781333 586.965333 618.666667 661.333333 618.666667zM776.256 383.552l-22.037333-36.757333c-19.456 8.554667-48.810667 15.872-92.885334 15.872s-73.429333-7.317333-92.885333-15.872l-22.037333 36.757333C571.669333 395.626667 608.298667 405.333333 661.333333 405.333333s89.664-9.706667 114.922667-21.781333z" fill="#00796B" /><path d="M234.666667 373.333333a74.666667 74.666667 0 0 1 74.666666-74.666666M426.666667 512a85.333333 85.333333 0 0 0-85.333334-85.333333M277.333333 640a53.333333 53.333333 0 0 1 53.333334-53.333333" fill="none" /></svg>