<?xml version="1.0" encoding="UTF-8" standalone="no"?> <svg width="512" height="512" viewBox="0 0 512 512" fill="none" xmlns="http://www.w3.org/2000/svg">
<path d="M384.281 53.353C391.765 53.2142 399.246 53.7477 406.634 54.947C407.745 61.4172 408.095 67.9953 407.677 74.547C404.321 128.28 351.741 172.702 290.238 173.766C282.754 173.905 275.273 173.371 267.885 172.172C266.773 165.702 266.423 159.124 266.842 152.572C270.2 98.839 322.777 54.417 384.281 53.353Z" fill="#2ECC71"/>
<path d="M149.065 53.353C141.581 53.2142 134.1 53.7477 126.712 54.947C125.601 61.4172 125.251 67.9953 125.669 74.547C129.025 128.28 181.605 172.702 243.108 173.766C250.592 173.905 258.073 173.371 265.461 172.172C266.573 165.702 266.923 159.124 266.504 152.572C263.148 98.839 210.569 54.417 149.065 53.353Z" fill="#2ECC71"/>
<path opacity="0.25" d="M406.634 54.947C404.743 54.6377 402.831 54.3727 400.899 54.152C384.009 109.985 330.848 153.234 266.984 165.17C267.184 167.532 267.484 169.865 267.884 172.17C275.272 173.369 282.753 173.903 290.237 173.764C351.737 172.7 404.32 128.278 407.676 74.545C408.095 67.9941 407.745 61.4166 406.634 54.947Z" fill="#105E30"/>
<path opacity="0.25" d="M133 54.094C130.883 54.328 128.789 54.6123 126.717 54.947C125.606 61.4172 125.256 67.9953 125.674 74.547C129.03 128.28 181.61 172.701 243.113 173.766C250.597 173.905 258.078 173.371 265.466 172.172C265.87 169.839 266.174 167.472 266.377 165.072C202.734 152.978 149.817 109.793 133 54.094Z" fill="#105E30"/>
<path d="M124.924 338.444C134.547 368.637 153.522 394.988 179.107 413.687C204.691 432.386 235.56 442.464 267.249 442.465H266.662C298.352 442.464 329.22 432.386 354.805 413.687C380.39 394.988 399.365 368.637 408.988 338.444V338.688C399.365 308.495 380.39 282.144 354.805 263.445C329.22 244.746 298.352 234.667 266.662 234.667H267.249C235.56 234.668 204.691 244.746 179.107 263.445C153.522 282.144 134.547 308.495 124.924 338.688" fill="#CE7149"/>
<path opacity="0.25" d="M266.667 442.459V234.673C235.1 234.797 204.384 244.918 178.927 263.583C153.469 282.248 134.579 308.498 124.967 338.566C134.579 368.634 153.469 394.884 178.927 413.549C204.384 432.214 235.1 442.335 266.667 442.459V442.459Z" fill="#60301F"/>
<path d="M90.891 429.5L182.591 449.893C190.98 451.757 199.547 452.698 208.14 452.7H286.871C304.084 452.701 321.088 448.927 336.685 441.643L463.145 382.585C469.624 379.564 474.734 374.221 477.462 367.613C480.191 361.006 480.341 353.614 477.881 346.902C475.422 340.189 470.533 334.644 464.181 331.363C457.829 328.083 450.477 327.305 443.58 329.185L351.785 354.246C341.682 357.002 331.257 358.397 320.785 358.395H277.672C285.408 358.403 293.07 356.881 300.216 353.918C307.362 350.954 313.851 346.607 319.311 341.126C329.791 330.638 336.344 319.942 336.562 305.526C336.583 303.963 336.293 302.411 335.708 300.961C335.124 299.511 334.257 298.192 333.157 297.081C332.058 295.969 330.749 295.087 329.305 294.487C327.862 293.886 326.313 293.579 324.75 293.583L192.823 293.883C179.927 293.912 167.123 296.06 154.923 300.242L90.891 322.2L61.448 333.5V422.173L90.891 429.5Z" fill="#FFD18D"/>
<path opacity="0.25" d="M347.867 400.515C329.332 407.856 309.57 411.608 289.634 411.572H197.6C187.578 411.573 177.579 410.633 167.733 408.766L61.448 388.548V422.177L90.891 429.5L182.591 449.893C190.98 451.757 199.547 452.698 208.14 452.7H286.872C304.085 452.701 321.089 448.926 336.686 441.643L463.146 382.585C469.374 379.67 474.341 374.607 477.134 368.324C479.928 362.041 480.361 354.961 478.354 348.385L347.867 400.515Z" fill="#965930"/>
<path d="M78.667 293.563H44.228C37.4747 293.563 32 299.038 32 305.791V446.366C32 453.119 37.4747 458.594 44.228 458.594H78.667C85.4203 458.594 90.895 453.119 90.895 446.366V305.791C90.895 299.038 85.4203 293.563 78.667 293.563Z" fill="#2ECC71"/>
<path opacity="0.25" d="M32 399.7V446.367C32 449.61 33.2883 452.72 35.5815 455.013C37.8747 457.307 40.9849 458.595 44.228 458.595H78.667C80.2733 458.596 81.864 458.28 83.3482 457.666C84.8324 457.051 86.1811 456.151 87.3171 455.015C88.4531 453.879 89.3542 452.531 89.969 451.047C90.5838 449.563 90.9001 447.972 90.9 446.366V399.7H32Z" fill="#105E30"/>
<path d="M486.312 339.124C482.262 331.014 475.526 324.558 467.251 320.856C458.976 317.154 449.674 316.434 440.928 318.819L415.507 325.759C404.455 297.458 385.574 272.888 361.071 254.924C336.568 236.96 307.456 226.344 277.141 224.318V183.994C280.674 184.268 284.231 184.408 287.812 184.413C288.612 184.413 289.416 184.406 290.223 184.392C322.151 183.934 352.949 172.502 377.443 152.016C401.867 131.381 416.312 104.091 418.118 75.172C418.586 67.7915 418.19 60.3817 416.939 53.093C416.561 50.9078 415.512 48.8946 413.937 47.3335C412.362 45.7724 410.34 44.7411 408.151 44.383C400.133 43.0824 392.015 42.5024 383.893 42.65C351.964 43.1082 321.166 54.5403 296.671 75.026C284.099 85.4893 273.819 98.4311 266.471 113.044C259.123 98.4311 248.843 85.4893 236.271 75.026C211.777 54.5405 180.979 43.1084 149.051 42.65C140.932 42.4999 132.815 43.0802 124.8 44.384C122.612 44.7421 120.589 45.7734 119.014 47.3345C117.439 48.8956 116.39 50.9088 116.012 53.094C114.761 60.3827 114.365 67.7925 114.833 75.173C116.639 104.091 131.084 131.381 155.508 152.016C180.002 172.502 210.8 183.934 242.728 184.392C243.532 184.406 244.336 184.413 245.139 184.413C248.714 184.413 252.271 184.273 255.809 183.994V224.322C231.055 225.954 207.021 233.33 185.613 245.864C164.204 258.399 146.01 275.748 132.471 296.536L101.424 307.177V304.526C101.418 298.762 99.1252 293.236 95.0495 289.161C90.9739 285.085 85.4479 282.792 79.684 282.786H42.884C37.1202 282.792 31.5942 285.085 27.5186 289.161C23.4429 293.236 21.1504 298.762 21.144 304.526V447.556C21.1496 453.321 23.4419 458.848 27.5178 462.924C31.5937 467.001 37.1204 469.294 42.885 469.3H79.685C85.449 469.293 90.975 467.001 95.0506 462.925C99.1262 458.849 101.419 453.323 101.425 447.559V442.815L180.218 460.338C189.373 462.371 198.722 463.398 208.1 463.4H286.9C305.685 463.374 324.238 459.255 341.27 451.331L467.837 392.221C472.583 390.001 476.837 386.854 480.348 382.964C483.858 379.074 486.554 374.52 488.276 369.571C489.998 364.623 490.712 359.379 490.375 354.15C490.038 348.921 488.658 343.813 486.315 339.126L486.312 339.124ZM277.289 153.2C280.301 104.973 328.289 64.95 384.263 63.981C388.456 63.9067 392.65 64.0593 396.826 64.438C397.023 67.5699 397.023 70.7111 396.826 73.843C393.814 122.07 345.826 162.094 289.852 163.062C285.659 163.137 281.465 162.985 277.289 162.606C277.092 159.474 277.092 156.332 277.289 153.2V153.2ZM255.659 162.606C251.483 162.985 247.289 163.137 243.096 163.062C187.123 162.094 139.135 122.07 136.122 73.844C135.925 70.7118 135.925 67.5702 136.122 64.438C140.298 64.0594 144.492 63.9068 148.685 63.981C204.658 64.95 252.645 104.973 255.659 153.199C255.856 156.332 255.856 159.473 255.659 162.606V162.606ZM266.465 245.3C294.008 245.218 320.946 253.372 343.819 268.716C366.691 284.06 384.454 305.893 394.824 331.409L349.058 343.9C342.193 345.772 335.158 346.956 328.058 347.433C337.098 338.159 346.998 325.104 347.293 305.594C347.336 302.617 346.786 299.662 345.677 296.899C344.567 294.137 342.92 291.623 340.83 289.503C338.74 287.383 336.249 285.7 333.503 284.551C330.756 283.402 327.809 282.811 324.832 282.811H324.78L192.743 283.111C184.714 283.136 176.705 283.915 168.821 285.437C181.658 272.654 196.89 262.529 213.645 255.642C230.4 248.755 248.35 245.24 266.465 245.3V245.3ZM80.091 447.556C80.091 447.664 80.0482 447.767 79.9718 447.844C79.8955 447.92 79.792 447.963 79.684 447.963H42.884C42.7761 447.963 42.6726 447.92 42.5963 447.844C42.5199 447.767 42.477 447.664 42.477 447.556V304.527C42.4773 304.419 42.5203 304.316 42.5966 304.24C42.6729 304.164 42.7763 304.121 42.884 304.121H79.684C79.7918 304.121 79.8952 304.164 79.9715 304.24C80.0478 304.316 80.0908 304.419 80.091 304.527V447.556ZM468.125 362.561C467.347 364.821 466.121 366.901 464.52 368.676C462.919 370.45 460.976 371.884 458.807 372.889L332.24 432C318.037 438.608 302.565 442.043 286.9 442.065H208.1C200.279 442.063 192.481 441.206 184.846 439.511L101.424 420.958V329.73L158.3 310.236C169.402 306.427 181.056 304.471 192.793 304.448L324.83 304.148C324.981 304.146 325.132 304.175 325.271 304.234C325.411 304.293 325.537 304.38 325.641 304.49C325.746 304.592 325.828 304.714 325.883 304.848C325.938 304.983 325.965 305.128 325.961 305.274C325.807 315.438 321.709 323.622 311.817 333.524C307.347 338.024 302.029 341.593 296.171 344.023C290.312 346.453 284.03 347.696 277.687 347.681H206.957C204.146 347.708 201.459 348.844 199.481 350.841C197.503 352.839 196.393 355.536 196.393 358.347C196.393 361.159 197.503 363.856 199.481 365.854C201.459 367.851 204.146 368.987 206.957 369.014H320.838C332.269 369.015 343.648 367.492 354.676 364.484L446.554 339.4C449.698 338.549 453.014 338.573 456.145 339.468C459.277 340.363 462.104 342.095 464.324 344.479C466.543 346.862 468.07 349.806 468.74 352.993C469.409 356.18 469.196 359.49 468.124 362.565L468.125 362.561Z" fill="black"/>
</svg>
