<?xml version="1.0" encoding="utf-8"?>
<!-- Generator: Adobe Illustrator 25.4.1, SVG Export Plug-In . SVG Version: 6.00 Build 0)  -->
<svg version="1.1" xmlns="http://www.w3.org/2000/svg" xmlns:xlink="http://www.w3.org/1999/xlink" x="0px" y="0px"
	 viewBox="0 0 64 64" enable-background="new 0 0 64 64" xml:space="preserve">
<g id="Layer_3">
</g>
<g id="Layer_4">
</g>
<g id="Layer_5">
</g>
<g id="Layer_6">
</g>
<g id="Layer_7">
</g>
<g id="Layer_8">
</g>
<g id="Layer_9">
</g>
<g id="Layer_10">
</g>
<g id="Layer_11">
</g>
<g id="Layer_12">
</g>
<g id="Layer_13">
</g>
<g id="Layer_14">
</g>
<g id="Layer_15">
</g>
<g id="Layer_16">
</g>
<g id="Layer_17">
</g>
<g id="Layer_18">
</g>
<g id="Layer_19">
</g>
<g id="Layer_20">
</g>
<g id="Layer_21">
	<g>
		<path fill="#E73844" d="M39.863,44.726c1.363-0.567,3.932-1.908,6-3.017C47.796,40.672,49,38.658,49,36.465v0
			c0-1.578-0.627-3.092-1.743-4.208l-0.44-0.44C46.294,31.294,46,30.584,46,29.845v0c0-0.551,0.163-1.089,0.468-1.547v0
			C47.467,26.799,48,25.039,48,23.239v0c0-1.467-0.383-2.909-1.111-4.183L44,14l-1.7,4.25C42.119,18.703,41.68,19,41.193,19h0
			C40.534,19,40,18.466,40,17.807v0c0-2.504-0.583-4.973-1.703-7.213L38,10l-0.735,3.675C37.111,14.445,36.434,15,35.649,15l0,0
			C34.738,15,34,14.262,34,13.351V9.243C34,6.526,32.921,3.921,31,2l0,0l0,0c-0.65,3.902-2.504,7.504-5.301,10.301l-1.175,1.175
			c-0.976,0.976-1.524,2.3-1.524,3.68v0c0,0.559,0.09,1.115,0.267,1.646l0.555,1.665C23.94,20.82,24,21.19,24,21.563v0
			c0,0.92-0.366,1.803-1.016,2.453L20.7,26.3c-1.728,1.728-2.7,4.073-2.7,6.517v0c0,2.658,1.147,5.186,3.147,6.936l3.765,3.295
			l2.689,3.188l4.953-1.864l0.259,4.147L39.863,44.726z"/>
		<path fill="#FF4D55" d="M46.817,31.817C46.294,31.294,46,30.584,46,29.845c0-0.551,0.163-1.089,0.469-1.547
			C47.467,26.799,48,25.039,48,23.239c0-1.467-0.383-2.909-1.111-4.183L44,14l-1.7,4.25C42.119,18.703,41.68,19,41.193,19
			C40.534,19,40,18.466,40,17.807c0-2.504-0.583-4.973-1.703-7.213L38,10l-0.735,3.675C37.111,14.445,36.434,15,35.649,15h0
			C34.738,15,34,14.262,34,13.351V9.406l-8.594,18.757c-0.553,1.208-0.812,2.53-0.753,3.858c0.195,4.437,3.819,7.951,8.26,8.01
			l14.745,0.194C48.51,39.18,49,37.86,49,36.465c0-1.578-0.627-3.092-1.743-4.208L46.817,31.817z"/>
		<path fill="#FEAF73" d="M37.538,35.692l0.877-1.316C39.449,32.827,40,31.006,40,29.144v0c0-2.041-0.662-4.027-1.886-5.659L37,22
			v1.586C37,24.367,36.367,25,35.586,25h0c-0.375,0-0.735-0.149-1-0.414l0,0C32.93,22.93,32,20.684,32,18.343V17l-2.099,2.099
			C29.324,19.676,29,20.458,29,21.274v0c0,0.477,0.111,0.948,0.325,1.375l0.402,0.803c0.18,0.36,0.274,0.757,0.274,1.16v0
			c0,0.867-0.433,1.677-1.155,2.158l0,0C27.692,27.538,27,28.832,27,30.218v0.247c0,0.997,0.323,1.966,0.921,2.763l0.755,1.007
			l2.92,1.231l1.235,5.232L37.538,35.692z"/>
		<path fill="#F9DD9D" d="M35.117,32.765h4.136C39.731,31.621,40,30.396,40,29.144c0-2.041-0.662-4.027-1.886-5.659L37,22v1.586
			C37,24.367,36.367,25,35.586,25c-0.375,0-0.735-0.149-1-0.414h0c-0.73-0.73-1.309-1.578-1.739-2.495l-1.382,6.101
			c-0.098,0.434-0.119,0.883-0.059,1.325v0C31.654,31.377,33.241,32.765,35.117,32.765z"/>
		<polygon fill="#967A56" points="38.783,52.87 40,62 36,62 34.5,54.5 33.5,48 36.419,46.618 		"/>
		<polyline fill="#7C6143" points="33.378,37.784 31,36 12,58 18,62 30.174,45.261 		"/>
		<polyline fill="#B19367" points="36.851,49.489 44,62 51.999,62 39.684,47.789 		"/>
		<polygon fill="#C6AA89" points="37.128,49.974 44,62 51.999,62 40.032,48.19 		"/>
		<polyline fill="#7C6143" points="28.173,39.274 29,31 33,31 33.742,36.935 34.141,40.671 29.913,43.331 		"/>
		<polygon fill="#967A56" points="31,36 12,58 18,62 27.525,48.904 32.555,37.166 		"/>
		<polygon fill="#B19367" points="23,62 35,34 38,36 35,46 39,43 41,47 36,50 32,62 		"/>
		<polygon fill="#C6AA89" points="41,47 39,43 35,46 38,36 36.556,35.037 25,62 32,62 36,50 		"/>
	</g>
</g>
<g id="Layer_22">
</g>
<g id="Layer_23">
</g>
<g id="Layer_24">
</g>
<g id="Layer_25">
</g>
<g id="Layer_26">
</g>
<g id="Layer_27">
</g>
<g id="Layer_28">
</g>
<g id="Layer_29">
</g>
<g id="Layer_30">
</g>
<g id="Layer_31">
</g>
<g id="Layer_32">
</g>
<g id="Layer_1" display="none">
</g>
<g id="Layer_2">
</g>
</svg>
