<?xml version="1.0" encoding="UTF-8" standalone="no"?> <svg id="filloutline" xmlns="http://www.w3.org/2000/svg" viewBox="0 0 64 64"><polygon points="15.526 38 8 38 14 30 8 30 13.833 23 9 23 14.727 16 11 16 15.667 10 12 10 18 3 24 10 20.333 10 25 16 21.273 16 27 23 22.167 23 28 30 28 38 15.526 38" style="fill:#6da024"/><polygon points="47.474 38 54 38 48 30 54 30 48.167 23 53 23 47.273 16 51 16 46.333 10 50 10 44 3 38 10 41.667 10 37 16 40.727 16 35 23 39.833 23 34 30 34 38 47.474 38" style="fill:#6da024"/><polygon points="34 61 34 49 21 30 8 49 8 61 34 61" style="fill:#f7ce49"/><polygon points="21 39 12 54 16 61 26 61 30 54 21 39" style="fill:#a75b25"/><polygon points="16 61 21 39 12 54 16 61" style="fill:#ef5822"/><polygon points="26 61 21 39 30 54 26 61" style="fill:#ef5822"/><polygon points="34 49 55 49 42 30 21 30 34 49" style="fill:#ef5822"/><rect x="34" y="49" width="21" height="12" style="fill:#dd9e25"/><polygon points="33 37 37 43 45 43 41 37 33 37" style="fill:#83d7dd"/><path d="M33,36a1,1,0,0,0-.832,1.555l4,6A1,1,0,0,0,37,44h8a1,1,0,0,0,.832-1.555l-4-6A1,1,0,0,0,41,36Zm10.131,6h-5.6l-2.666-4h5.6Z"/><path d="M7,49V61a1,1,0,0,0,1,1H55a1,1,0,0,0,1-1V49h-.006a.99.99,0,0,0-.169-.564L49.369,39H54a1,1,0,0,0,.8-1.6L50,31h4a1,1,0,0,0,.768-1.641L50.3,24H53a1,1,0,0,0,.774-1.633L49.383,17H51a1,1,0,0,0,.789-1.614L48.378,11H50a1,1,0,0,0,.759-1.65l-6-7a1.031,1.031,0,0,0-1.518,0l-6,7A1,1,0,0,0,38,11h1.622L36.21,15.386A1,1,0,0,0,37,17h1.617l-4.391,5.367A1,1,0,0,0,35,24h2.7l-4.167,5H28.468L24.3,24H27a1,1,0,0,0,.774-1.633L23.383,17H25a1,1,0,0,0,.789-1.614L22.378,11H24a1,1,0,0,0,.759-1.65l-6-7a1.031,1.031,0,0,0-1.518,0l-6,7A1,1,0,0,0,12,11h1.622L10.21,15.386A1,1,0,0,0,11,17h1.617L8.226,22.367A1,1,0,0,0,9,24h2.7L7.232,29.359A1,1,0,0,0,8,31h4L7.2,37.4A1,1,0,0,0,8,39h5.631L7.175,48.436A1,1,0,0,0,7,49Zm14-5.488L24.747,60H17.253ZM15.594,58.274l-2.435-4.261,5.479-9.133ZM23.362,44.88l5.479,9.133-2.435,4.261ZM35,60V50H54V60Zm-.473-12L22.9,31H41.473L53.1,48ZM40.6,23.641A1,1,0,0,0,39.833,22H37.11L41.5,16.633A1,1,0,0,0,40.727,15H39.044l3.412-4.386A1,1,0,0,0,41.666,9H40.174L44,4.536,47.826,9H46.333a1,1,0,0,0-.789,1.614L48.955,15H47.272a1,1,0,0,0-.774,1.633L50.89,22H48.166a1,1,0,0,0-.768,1.641L51.865,29H48a1,1,0,0,0-.8,1.6L52,37H48l-5.176-7.564A1,1,0,0,0,42,29H36.135ZM10,37l4.8-6.4A1,1,0,0,0,14,29H10.135L14.6,23.641A1,1,0,0,0,13.833,22H11.11L15.5,16.633A1,1,0,0,0,14.727,15H13.044l3.412-4.386A1,1,0,0,0,15.666,9H14.174L18,4.536,21.826,9H20.333a1,1,0,0,0-.789,1.614L22.955,15H21.272a1,1,0,0,0-.774,1.633L24.89,22H22.166a1,1,0,0,0-.768,1.641L25.865,29H21v.027a.988.988,0,0,0-.825.409L15,37ZM9,49.31,21,31.771,33,49.31V60H27.723l3.145-5.5a1,1,0,0,0-.011-1.011l-9-15a.906.906,0,0,0-.087-.1.942.942,0,0,0-.125-.143.99.99,0,0,0-.161-.1.915.915,0,0,0-.112-.07c-.009,0-.018,0-.027-.005a.943.943,0,0,0-.19-.039,1.247,1.247,0,0,0-.5.039c-.009,0-.019,0-.028.005a.9.9,0,0,0-.111.07.99.99,0,0,0-.161.1.89.89,0,0,0-.125.143,1.037,1.037,0,0,0-.088.1l-9,15a1,1,0,0,0-.01,1.011L14.277,60H9Z"/></svg>