<?xml version="1.0" encoding="UTF-8" standalone="no"?> <svg xmlns="http://www.w3.org/2000/svg" width="509.502" height="511.998" viewBox="0 0 509.502 511.998">
  <g id="Layer_x0020_1" transform="translate(-95.249 -94)">
    <path id="Path_384" data-name="Path 384" d="M160.446,547.315H553.009V319.624l-197.3-161.061L160.446,319.6Zm398.563,12H154.446a6,6,0,0,1-6-6V316.8h0a5.982,5.982,0,0,1,2.182-4.629L351.5,146.538a6,6,0,0,1,7.988-.358l-.012.014L562.428,311.871a5.992,5.992,0,0,1,2.582,4.931V553.316a6,6,0,0,1-6,6Z" fill="#250e1e"/>
    <path id="Path_385" data-name="Path 385" d="M154.446,512.046a6,6,0,1,0,0,12H559.009a6,6,0,0,0,0-12H154.446Z" fill="#250e1e"/>
    <path id="Path_386" data-name="Path 386" d="M196.855,518.046a6,6,0,0,0,12,0V358.071h98.65V518.046a6,6,0,0,0,12,0V352.071a6,6,0,0,0-6-6H202.855a6,6,0,0,0-6,6V518.046Z" fill="#250e1e"/>
    <path id="Path_387" data-name="Path 387" d="M558.279,310.308a5.977,5.977,0,0,0,.187,11.953l32.829-.5a6,6,0,0,0,5.9-6.006l2.052-32.813h.013a6,6,0,0,0-2.836-5.48L353.058,95.2a6,6,0,0,0-7.617.348C321.387,113.637,99.763,275.591,100.775,283.354l2.048,32.764,5.976-.352-5.988.374a6,6,0,0,0,6.363,5.614l.073-.006,43.051.513a5.977,5.977,0,1,0,.142-11.953l-38.012-.452-1.528-24.45L349.469,107.471,587.1,285.414l-1.53,24.463-27.291.431Z" fill="#250e1e"/>
    <path id="Path_388" data-name="Path 388" d="M379.546,351.259H508.178a6,6,0,0,1,6,6v128.63a6,6,0,0,1-6,6H379.546a6,6,0,0,1-6-6V357.259a6,6,0,0,1,6-6Zm122.632,12H385.546v116.63H502.178Z" fill="#250e1e"/>
    <path id="Path_389" data-name="Path 389" d="M449.862,357.259a6,6,0,0,0-12,0v128.63a6,6,0,0,0,12,0Z" fill="#250e1e"/>
    <path id="Path_390" data-name="Path 390" d="M214.145,518.046a6,6,0,0,0,12,0V384.006h64.071v134.04a6,6,0,0,0,12,0V378.006a6,6,0,0,0-6-6H220.145a6,6,0,0,0-6,6v140.04Z" fill="#250e1e"/>
    <path id="Path_391" data-name="Path 391" d="M225.2,252.448a6,6,0,1,0,0,12H487.524a6,6,0,0,0,0-12H225.2Z" fill="#250e1e"/>
    <path id="Path_392" data-name="Path 392" d="M154.446,330.514a6,6,0,1,0,0,12H559.009a6,6,0,0,0,0-12H154.446Z" fill="#250e1e"/>
    <path id="Path_393" data-name="Path 393" d="M160.647,594a6,6,0,1,0,0,12h66.562a6,6,0,1,0,0-12Z" fill="#250e1e"/>
    <path id="Path_394" data-name="Path 394" d="M327.054,594a6,6,0,0,0,0,12h66.562a6,6,0,1,0,0-12H327.054Z" fill="#250e1e"/>
    <path id="Path_395" data-name="Path 395" d="M493.459,594a6,6,0,0,0,0,12h66.562a6,6,0,0,0,0-12H493.459Z" fill="#250e1e"/>
    <path id="Path_396" data-name="Path 396" d="M199.34,600a6,6,0,0,0,12,0V553.315a6,6,0,0,0-12,0Zm-10.822-46.683a6,6,0,0,0-12,0V600a6,6,0,0,0,12,0Z" fill="#250e1e"/>
    <path id="Path_397" data-name="Path 397" d="M365.745,600a6,6,0,0,0,12,0V553.315a6,6,0,0,0-12,0Zm-10.823-46.683a6,6,0,0,0-12,0V600a6,6,0,0,0,12,0Z" fill="#250e1e"/>
    <path id="Path_398" data-name="Path 398" d="M532.151,600a6,6,0,0,0,12,0V553.315a6,6,0,0,0-12,0Zm-10.823-46.683a6,6,0,0,0-12,0V600a6,6,0,0,0,12,0Z" fill="#250e1e"/>
    <path id="Path_399" data-name="Path 399" d="M269.224,216.14a6,6,0,0,0,0,12H443.047a6,6,0,0,0,0-12H269.224Z" fill="#250e1e"/>
    <path id="Path_400" data-name="Path 400" d="M309.474,182.945a6,6,0,0,0,0,12h92.909a6,6,0,0,0,0-12Z" fill="#250e1e"/>
    <path id="Path_401" data-name="Path 401" d="M177.406,291.866a6,6,0,1,0,0,12H535.812a6,6,0,0,0,0-12Z" fill="#250e1e"/>
    <path id="Path_402" data-name="Path 402" d="M101.249,570.844a6,6,0,1,0,0,12h81.268a6,6,0,1,0,0-12H101.249Zm104.091,0a6,6,0,1,0,0,12H348.923a6,6,0,0,0,0-12H205.34Zm166.406,0a6,6,0,0,0,0,12H515.329a6,6,0,0,0,0-12H371.746Zm166.406,0a6,6,0,0,0,0,12h60.6a6,6,0,0,0,0-12Z" fill="#250e1e"/>
    <path id="Path_403" data-name="Path 403" d="M221.626,253.629l43.5-35.868a6.133,6.133,0,0,1,.591-.488l39.617-32.667a5.956,5.956,0,0,1,.68-.561L351.5,146.538a6,6,0,0,1,7.988-.358l-.012.014,46.32,37.812a6.06,6.06,0,0,1,.741.6L446.457,217.2a5.93,5.93,0,0,1,.738.6l43.749,35.713a6.023,6.023,0,0,1,.719.587l47.572,38.833a6.1,6.1,0,0,1,.717.586l20.517,16.749,25.1-.4,1.53-24.463L349.47,107.471,112.9,285.4l1.528,24.45,38.012.452c.143,0,.285.008.425.02l20.618-17c.071-.063.144-.123.219-.182l47.453-39.129a5.713,5.713,0,0,1,.47-.387Z" fill="#fad190" fill-rule="evenodd"/>
    <path id="Path_404" data-name="Path 404" d="M326.143,182.945h59.431l-29.868-24.382Z" fill="#d1a263" fill-rule="evenodd"/>
    <path id="Path_405" data-name="Path 405" d="M400.274,194.945H311.593l-25.7,21.195H426.238Z" fill="#d1a263" fill-rule="evenodd"/>
    <path id="Path_406" data-name="Path 406" d="M440.939,228.14h-169.6L241.87,252.448H470.717Z" fill="#d1a263" fill-rule="evenodd"/>
    <path id="Path_407" data-name="Path 407" d="M485.417,264.448H227.32l-33.245,27.418h324.93Z" fill="#d1a263" fill-rule="evenodd"/>
    <path id="Path_408" data-name="Path 408" d="M533.705,303.866H179.525L160.446,319.6v10.912H553.009v-10.89Z" fill="#d1a263" fill-rule="evenodd"/>
    <path id="Path_409" data-name="Path 409" d="M553.009,342.514H160.446V512.046h36.409V352.071a6,6,0,0,1,6-6H313.506a6,6,0,0,1,6,6V512.046h233.5V342.514ZM373.546,485.889V357.259a6,6,0,0,1,6-6H508.178a6,6,0,0,1,6,6v128.63a6,6,0,0,1-6,6H379.546A6,6,0,0,1,373.546,485.889Z" fill="#d1a263" fill-rule="evenodd"/>
    <path id="Path_410" data-name="Path 410" d="M437.862,363.259H385.546V479.89h52.316Z" fill="#eef1f2" fill-rule="evenodd"/>
    <path id="Path_411" data-name="Path 411" d="M449.862,363.259V479.89h52.316V363.259Z" fill="#eef1f2" fill-rule="evenodd"/>
    <path id="Path_412" data-name="Path 412" d="M290.216,512.046V384.006H226.145v128.04Z" fill="#eef1f2" fill-rule="evenodd"/>
    <path id="Path_413" data-name="Path 413" d="M220.145,372.006h76.071a6,6,0,0,1,6,6v134.04h5.289V358.071h-98.65V512.046h5.29V378.006a6,6,0,0,1,6-6Z" fill="#fad190" fill-rule="evenodd"/>
    <path id="Path_414" data-name="Path 414" d="M296.216,524.046H160.446v23.269H553.009V524.046H296.216Z" fill="#fad190" fill-rule="evenodd"/>
    <path id="Path_415" data-name="Path 415" d="M342.923,559.315H211.34v11.529H342.923Z" fill="#eef1f2" fill-rule="evenodd"/>
    <path id="Path_416" data-name="Path 416" d="M377.745,559.315v11.529H509.329V559.315Z" fill="#eef1f2" fill-rule="evenodd"/>
    <path id="Path_417" data-name="Path 417" d="M365.745,576.844V559.315H354.923V594h10.822Z" fill="#d1a263" fill-rule="evenodd"/>
    <path id="Path_418" data-name="Path 418" d="M199.34,594V559.315H188.517V594Z" fill="#d1a263" fill-rule="evenodd"/>
    <path id="Path_419" data-name="Path 419" d="M521.329,576.844V594h10.822V559.315H521.329Z" fill="#d1a263" fill-rule="evenodd"/>
  </g>
</svg>
