<?xml version="1.0" encoding="utf-8"?>
<!-- Generator: Adobe Illustrator 21.1.0, SVG Export Plug-In . SVG Version: 6.00 Build 0)  -->
<svg version="1.1" id="Layer_1" xmlns="http://www.w3.org/2000/svg" xmlns:xlink="http://www.w3.org/1999/xlink" x="0px" y="0px"
	 viewBox="0 0 100 100" enable-background="new 0 0 100 100" xml:space="preserve">
<g>
	<g>
		<path fill="#F1B57D" d="M76.554,71.293H23.446c2.576,0,4.663,4.187,4.663,9.351c0,5.164-2.088,9.351-4.663,9.351h53.107
			c2.575,0,4.663-4.187,4.663-9.351C81.217,75.479,79.129,71.293,76.554,71.293z"/>
	</g>
	<ellipse fill="#F2C6A1" cx="23.446" cy="80.644" rx="4.663" ry="9.351"/>
	<path fill="#F0566F" d="M48.917,64.919c0,0-7.013,0.239-11.715-5.178s-7.65-12.667-3.028-17.686S37.76,28.75,33.855,26.36
		c0,0,8.607-1.434,10.121,6.612c0,0,3.347-2.231,1.275-6.373s-3.427-12.587,4.463-12.986c0,0-3.348,2.902,0.876,7.205
		s10.449,7.75,11.056,19.404c0,0,4.724-3.904,1.058-11.153c0,0,6.663,4.146,5.835,11.391C67.738,47.476,63.74,64.919,48.917,64.919z
		"/>
	<path fill="#C58855" d="M43.197,82.524h-7.681c-0.279,0-0.506,0.226-0.506,0.505c0,0.279,0.226,0.505,0.506,0.505h7.681
		c0.279,0,0.506-0.226,0.506-0.505C43.702,82.75,43.476,82.524,43.197,82.524z"/>
	<path fill="#C58855" d="M42.539,79.613h11.466c0.279,0,0.506-0.226,0.506-0.505c0-0.279-0.226-0.505-0.506-0.505H42.539
		c-0.279,0-0.506,0.226-0.506,0.505C42.033,79.387,42.259,79.613,42.539,79.613z"/>
	<path fill="#C58855" d="M60.369,82.548h8.997c0.279,0,0.506-0.226,0.506-0.505c0-0.279-0.226-0.505-0.506-0.505h-8.997
		c-0.279,0-0.506,0.226-0.506,0.505C59.864,82.322,60.09,82.548,60.369,82.548z"/>
	<path fill="#136296" d="M94.494,89.489H78.858c1.71-1.59,2.864-4.909,2.864-8.846c0-5.527-2.27-9.856-5.169-9.856H23.456h-0.005
		h-0.005c-2.898,0-5.169,4.329-5.169,9.856c0,3.936,1.155,7.255,2.864,8.846H5.506C5.226,89.489,5,89.715,5,89.995
		C5,90.274,5.226,90.5,5.506,90.5h17.941h53.108h17.941c0.279,0,0.506-0.226,0.506-0.505C95,89.715,94.774,89.489,94.494,89.489z
		 M19.289,80.644c0-4.795,1.904-8.846,4.158-8.846c2.254,0,4.158,4.051,4.158,8.846c0,4.795-1.904,8.846-4.158,8.846
		C21.193,89.489,19.289,85.438,19.289,80.644z M25.764,89.489c0.036-0.034,0.071-0.073,0.106-0.108
		c0.038-0.037,0.075-0.075,0.112-0.114c0.115-0.121,0.228-0.249,0.337-0.386c0.015-0.019,0.03-0.035,0.045-0.054
		c0.122-0.156,0.238-0.324,0.352-0.499c0.031-0.047,0.06-0.096,0.09-0.145c0.089-0.143,0.175-0.292,0.258-0.446
		c0.026-0.047,0.052-0.093,0.077-0.142c0.01-0.019,0.02-0.036,0.029-0.054h8.785c0.279,0,0.506-0.226,0.506-0.505
		c0-0.279-0.226-0.505-0.506-0.505h-8.337c0.03-0.077,0.057-0.158,0.086-0.236c0.023-0.065,0.047-0.129,0.069-0.195
		c0.076-0.221,0.148-0.447,0.215-0.68c0.005-0.016,0.01-0.032,0.015-0.048c0.07-0.249,0.133-0.506,0.191-0.768
		c0.016-0.072,0.031-0.144,0.046-0.217c0.045-0.213,0.085-0.429,0.122-0.649c0.011-0.063,0.022-0.125,0.032-0.189
		c0.043-0.276,0.08-0.557,0.111-0.843c0.007-0.061,0.011-0.124,0.017-0.186c0.023-0.234,0.041-0.472,0.056-0.713
		c0.005-0.083,0.01-0.166,0.014-0.25c0.014-0.301,0.023-0.604,0.023-0.912c0-0.309-0.01-0.612-0.023-0.912
		c-0.004-0.084-0.009-0.167-0.014-0.25c-0.014-0.241-0.033-0.478-0.056-0.713c-0.006-0.062-0.011-0.125-0.017-0.186
		c-0.031-0.286-0.068-0.567-0.111-0.843c-0.01-0.064-0.022-0.126-0.032-0.189c-0.037-0.22-0.078-0.436-0.122-0.649
		c-0.015-0.072-0.03-0.145-0.046-0.217c-0.04-0.179-0.083-0.354-0.129-0.527h18.424c0.279,0,0.506-0.226,0.506-0.505
		c0-0.279-0.226-0.505-0.506-0.505H27.76c-0.018-0.052-0.037-0.102-0.056-0.154c-0.069-0.191-0.142-0.377-0.218-0.558
		c-0.018-0.042-0.034-0.085-0.052-0.126c-0.093-0.214-0.191-0.419-0.294-0.617c-0.025-0.048-0.051-0.094-0.077-0.142
		c-0.083-0.154-0.169-0.303-0.258-0.446c-0.03-0.048-0.06-0.098-0.09-0.145c-0.114-0.175-0.23-0.343-0.352-0.499
		c-0.015-0.019-0.03-0.035-0.045-0.054c-0.109-0.137-0.222-0.265-0.337-0.386c-0.037-0.039-0.074-0.077-0.112-0.114
		c-0.036-0.035-0.07-0.074-0.106-0.108h50.79c1.564,0,2.958,1.952,3.665,4.748H64.868c-0.279,0-0.506,0.226-0.506,0.505
		c0,0.279,0.226,0.505,0.506,0.505h15.567c0.176,0.967,0.277,2.006,0.277,3.087c0,1.854-0.287,3.594-0.767,5.034H50.878
		c-0.279,0-0.506,0.226-0.506,0.505c0,0.279,0.226,0.505,0.506,0.505h28.675c-0.763,1.711-1.833,2.8-2.999,2.8H25.764z"/>
	<path fill="#136296" d="M33.591,26.791c1.544,0.945,2.674,3,3.022,5.497c0.483,3.464-0.567,6.987-2.812,9.424
		c-4.903,5.324-1.656,12.975,3.019,18.36c4.431,5.106,10.741,5.355,11.927,5.355c0.089,0,0.149-0.001,0.177-0.002
		c16.439-0.007,19.642-20.749,20.117-24.908c0.854-7.476-6.001-11.834-6.07-11.877c-0.192-0.119-0.44-0.097-0.608,0.056
		c-0.167,0.153-0.212,0.399-0.11,0.601c2.538,5.019,0.907,8.299-0.184,9.725c-0.797-9.066-5.084-12.979-8.885-16.446
		c-0.79-0.721-1.536-1.402-2.233-2.112c-1.365-1.39-2.034-2.752-1.988-4.047c0.053-1.496,1.074-2.414,1.082-2.422
		c0.163-0.141,0.218-0.37,0.138-0.57c-0.081-0.2-0.268-0.327-0.495-0.316c-2.638,0.133-4.517,1.128-5.585,2.958
		c-1.734,2.97-0.854,7.659,0.696,10.759c1.318,2.636,0.241,4.394-0.518,5.208c-2.013-7.493-10.422-6.187-10.508-6.171
		c-0.208,0.035-0.373,0.195-0.413,0.402C33.319,26.471,33.411,26.681,33.591,26.791z M43.479,33.066
		c0.031,0.167,0.144,0.307,0.301,0.372c0.155,0.065,0.335,0.049,0.476-0.045c0.037-0.025,3.693-2.53,1.447-7.02
		c-1.196-2.391-2.377-6.972-0.727-9.797c0.726-1.244,1.935-2.024,3.602-2.327c-0.306,0.524-0.59,1.237-0.625,2.111
		c-0.064,1.59,0.702,3.209,2.276,4.812c0.717,0.73,1.473,1.42,2.274,2.15c3.817,3.483,8.144,7.43,8.638,16.926
		c0.01,0.191,0.127,0.36,0.302,0.437c0.174,0.077,0.378,0.049,0.525-0.073c0.046-0.038,4.187-3.564,1.976-9.927
		c1.835,1.666,4.629,5.028,4.093,9.717c-0.458,4.01-3.532,24.011-19.12,24.011c-0.006,0-0.011,0-0.017,0
		c-0.065,0.002-6.824,0.17-11.316-5.005c-4.388-5.055-7.49-12.179-3.039-17.013c2.447-2.657,3.594-6.488,3.069-10.248
		c-0.314-2.252-1.183-4.145-2.442-5.389C37.513,26.722,42.397,27.316,43.479,33.066z"/>
	<g>
		<path fill="#FEE36F" d="M36.01,47.848c-0.061-0.272-0.328-0.445-0.603-0.384c-0.273,0.06-0.444,0.33-0.384,0.602
			c0.004,0.02,0.11,0.494,0.348,1.257c0.068,0.217,0.267,0.356,0.483,0.356c0.049,0,0.1-0.007,0.15-0.023
			c0.267-0.083,0.416-0.366,0.333-0.633C36.112,48.304,36.011,47.852,36.01,47.848z"/>
		<path fill="#FEE36F" d="M40.273,56.463c-0.181-0.212-0.5-0.236-0.713-0.054c-0.212,0.182-0.236,0.501-0.054,0.713
			c0.678,0.79,1.41,1.484,2.175,2.06c0.091,0.069,0.198,0.102,0.304,0.102c0.154,0,0.305-0.07,0.404-0.201
			c0.168-0.223,0.123-0.54-0.1-0.708C41.582,57.842,40.904,57.198,40.273,56.463z"/>
		<path fill="#FEE36F" d="M37.332,51.675c-0.113-0.256-0.413-0.372-0.667-0.258c-0.256,0.113-0.371,0.411-0.258,0.666
			c0.412,0.93,0.87,1.814,1.362,2.625c0.095,0.157,0.262,0.243,0.433,0.243c0.089,0,0.18-0.024,0.262-0.073
			c0.239-0.145,0.315-0.456,0.17-0.695C38.165,53.41,37.726,52.566,37.332,51.675z"/>
		<path fill="#FEE36F" d="M45.829,60.104c-0.389-0.1-0.773-0.225-1.142-0.372c-0.259-0.103-0.554,0.023-0.657,0.283
			c-0.103,0.259,0.024,0.553,0.283,0.657c0.408,0.162,0.833,0.3,1.262,0.411c0.042,0.011,0.085,0.016,0.127,0.016
			c0.225,0,0.431-0.152,0.489-0.379C46.262,60.449,46.099,60.174,45.829,60.104z"/>
	</g>
	<path fill="#136296" d="M39.357,21.884c0.053,0,0.107-0.009,0.16-0.026c0.265-0.088,0.408-0.375,0.319-0.639
		c-0.099-0.296-2.314-7.287,6.831-10.74c0.261-0.099,0.393-0.39,0.294-0.652c-0.099-0.261-0.39-0.393-0.652-0.294
		c-10.044,3.792-7.46,11.924-7.433,12.006C38.948,21.75,39.145,21.884,39.357,21.884z"/>
	<path fill="#136296" d="M65.343,27.42c0.328,0.187,8.007,4.692,6.237,15.315c-0.046,0.275,0.14,0.536,0.416,0.582
		c0.028,0.005,0.056,0.007,0.083,0.007c0.243,0,0.457-0.175,0.498-0.422c1.89-11.338-6.649-16.312-6.735-16.361
		c-0.242-0.138-0.551-0.052-0.688,0.191C65.016,26.974,65.101,27.282,65.343,27.42z"/>
	<path fill="#136296" d="M31.137,57.681c0.092,0,0.185-0.025,0.269-0.077c0.237-0.149,0.308-0.461,0.159-0.697
		c-7.325-11.649-0.433-16.748-0.136-16.96c0.227-0.161,0.281-0.476,0.121-0.704c-0.16-0.228-0.476-0.283-0.704-0.122
		c-0.081,0.057-7.992,5.832-0.137,18.324C30.804,57.597,30.968,57.681,31.137,57.681z"/>
</g>
</svg>
