<?xml version="1.0" encoding="UTF-8" standalone="no"?> <svg id="Layer_1" data-name="Layer 1" xmlns="http://www.w3.org/2000/svg" viewBox="0 0 64 64"><defs><style>.cls-1{fill:#8d6e63;}.cls-2{fill:#6d4d42;}.cls-3{fill:#378e43;}.cls-4{fill:#42a047;}</style></defs><title>tree_27</title><path class="cls-1" d="M32,36V60H24a1,1,0,0,1,.17-.55L28,53.7V50.21L18.52,40.14a1,1,0,0,1-.24-.93,1,1,0,0,1,.65-.71,8.49,8.49,0,0,0,2.88-1.63,1,1,0,0,1,1.36.05L28,41.75V37a1,1,0,0,1,1-1Z"/><path class="cls-2" d="M32,36V60h8a1,1,0,0,0-.17-.55L36,53.7V50.21l9.48-10.07a1,1,0,0,0,.24-.93,1,1,0,0,0-.65-.71,8.49,8.49,0,0,1-2.88-1.63,1,1,0,0,0-1.36.05L36,41.75V37a1,1,0,0,0-1-1Z"/><path class="cls-3" d="M60,30A11,11,0,0,1,49,41a10.68,10.68,0,0,1-4.38-.92,10.12,10.12,0,0,1-2.56-1.55l-6.35,6.35a1,1,0,0,1-1.09.21,1,1,0,0,1-.62-.92V38H32V4h4.56a11,11,0,0,1,4,3.1A10,10,0,0,1,42,7,11,11,0,0,1,53,18a10.76,10.76,0,0,1-.13,1.71A11,11,0,0,1,60,30Z"/><path class="cls-4" d="M32,4V38H30v6.17a1,1,0,0,1-.45.83H28.43l-.14-.12L22.38,39A11.08,11.08,0,0,1,16,41a11,11,0,0,1-4.8-20.89A11.51,11.51,0,0,1,11,18,11,11,0,0,1,22,7a10,10,0,0,1,1.45.1,11,11,0,0,1,4-3.1Z"/></svg>