<svg width="50" height="50" viewBox="0 0 50 50" fill="none" xmlns="http://www.w3.org/2000/svg">
<path d="M43.75 28.125V26.5625C43.75 26.0937 43.4375 25.7812 42.9688 25.7812V21.0938H41.4062V25.7812H34.375C33.9062 25.7812 33.5938 26.0937 33.5938 26.5625V29.6875H35.1562V27.3438H35.9375V29.6875H37.5V27.3438H39.0625V29.6875H40.625V27.3438H42.1875V28.9062C42.1875 29.375 42.5 29.6875 42.9688 29.6875H48.4375V28.125H43.75Z" fill="#8C421C"/>
<path d="M42.9688 8.59375H41.4062V15.625H42.9688V8.59375Z" fill="#8C421C"/>
<path d="M42.9688 1.5625H41.4062V3.90625H42.9688V1.5625Z" fill="#8C421C"/>
<path d="M21.0938 5.46875H17.9688V8.59375H21.0938V5.46875Z" fill="#8C421C"/>
<path d="M17.1875 28.125H3.125C2.65625 28.125 2.34375 28.4375 2.34375 28.9062V32.0312V32.1875V34.375C2.34375 35.7031 3.35937 36.7188 4.6875 36.7188H17.9688V28.9062C17.9688 28.4375 17.6563 28.125 17.1875 28.125ZM5.46875 32.0312H3.90625V29.6875H5.46875V32.0312ZM9.375 32.0312H7.03125V29.6875H9.375V32.0312ZM13.2812 32.0312H10.9375V29.6875H13.2812V32.0312ZM16.4062 32.0312H14.8438V29.6875H16.4062V32.0312Z" fill="#AD5223"/>
<path d="M30.4688 5.46875L32.8125 7.8125L30.4688 10.1562H35.9375V8.59375V5.46875H30.4688Z" fill="#707070"/>
<path d="M33.5938 29.6875C33.5938 33.5938 30.4688 36.7188 26.5625 36.7188H6.25L7.8125 42.1094C8.75 45.3906 11.7969 47.6562 15.2344 47.6562H36.0938C40.3125 47.6562 43.8281 44.2187 43.8281 39.9219V29.6875H33.5938Z" fill="#8C421C"/>
<path d="M37.5 14.0625H33.5938C35.3906 16.3281 35.3906 19.6094 33.5938 21.875H37.5C38.9062 19.4531 38.9062 16.4844 37.5 14.0625Z" fill="#707070"/>
<path d="M44.5312 14.0625H42.1875H41.1719C42.5781 16.4844 42.5781 19.4531 41.1719 21.875H42.1875H44.5312C46.3281 19.6094 46.3281 16.3281 44.5312 14.0625Z" fill="#707070"/>
<path d="M41.1719 14.0625H37.5C38.9062 16.4844 38.9062 19.4531 37.5 21.875H41.1719C42.5 19.4531 42.5 16.4844 41.1719 14.0625Z" fill="#8C8C8C"/>
<path d="M42.9688 3.90625H42.1875H35.9375V5.46875V8.59375H42.1875H42.9688V3.90625Z" fill="#707070"/>
<path d="M23.1251 4.76562L23.4376 4.375C23.7501 3.82812 23.4376 3.125 22.8126 3.125H16.3283C15.7033 3.125 15.3126 3.82812 15.7033 4.375L16.0158 4.84375C16.3283 5.3125 16.797 5.54687 17.3439 5.54687H21.9533C22.3439 5.46875 22.8126 5.23437 23.1251 4.76562Z" fill="#8C421C"/>
<path d="M15.625 45.3125C16.4879 45.3125 17.1875 44.6129 17.1875 43.75C17.1875 42.8871 16.4879 42.1875 15.625 42.1875C14.7621 42.1875 14.0625 42.8871 14.0625 43.75C14.0625 44.6129 14.7621 45.3125 15.625 45.3125Z" fill="#64B3E8"/>
<path d="M23.4375 45.3125C24.3004 45.3125 25 44.6129 25 43.75C25 42.8871 24.3004 42.1875 23.4375 42.1875C22.5746 42.1875 21.875 42.8871 21.875 43.75C21.875 44.6129 22.5746 45.3125 23.4375 45.3125Z" fill="#64B3E8"/>
<path d="M31.25 45.3125C32.1129 45.3125 32.8125 44.6129 32.8125 43.75C32.8125 42.8871 32.1129 42.1875 31.25 42.1875C30.3871 42.1875 29.6875 42.8871 29.6875 43.75C29.6875 44.6129 30.3871 45.3125 31.25 45.3125Z" fill="#64B3E8"/>
<path d="M26.5625 36.7188H6.25L7.10938 39.8438H28.125C33.5938 39.8438 36.7188 35.1563 36.7188 32.8125H43.75V29.7656H33.5938C33.5156 33.5938 30.3906 36.7188 26.5625 36.7188Z" fill="#94461E"/>
<path d="M4.92188 35.1562C3.51563 35.1562 2.34375 34.1406 2.34375 32.8125V34.375C2.34375 35.7031 3.51563 36.7188 4.92188 36.7188H17.9688V35.1562H4.92188Z" fill="#A34D21"/>
<path d="M36.0156 46.0938H15.1562C11.7187 46.0938 8.67187 43.8281 7.73437 40.5469L6.71875 36.7188H6.25L7.8125 42.1094C8.75 45.3906 11.7969 47.6562 15.2344 47.6562H36.0938C40.3125 47.6562 43.8281 44.2187 43.8281 39.9219V38.3594C43.75 42.6562 40.3125 46.0938 36.0156 46.0938Z" fill="#7D3B19"/>
<path d="M39.8438 41.4844V39.6875C40.7813 39.375 41.4062 38.5156 41.4062 37.5C41.4062 36.1719 40.3906 35.1562 39.0625 35.1562C37.7344 35.1562 36.7188 36.1719 36.7188 37.5C36.7188 38.5156 37.3437 39.375 38.2812 39.6875V41.4844L37.1875 40.7031L36.3281 42.0312L38.6719 43.5937C38.8281 43.6719 38.9844 43.75 39.1406 43.75C39.2969 43.75 39.4531 43.6719 39.6094 43.5937L41.9531 42.0312L41.0937 40.7031L39.8438 41.4844ZM39.0625 36.7188C39.5313 36.7188 39.8438 37.0312 39.8438 37.5C39.8438 37.9688 39.5313 38.2812 39.0625 38.2812C38.5937 38.2812 38.2812 37.9688 38.2812 37.5C38.2812 37.0312 38.5937 36.7188 39.0625 36.7188Z" fill="#8C8C8C"/>
<path d="M19.5312 1.5625C19.0625 1.5625 18.75 1.875 18.75 2.34375V3.125H20.3125V2.34375C20.3125 1.875 20 1.5625 19.5312 1.5625Z" fill="#7A3A18"/>
<path d="M21.0938 5.46875H17.9688V7.03125H21.0938V5.46875Z" fill="#7A3A18"/>
<path d="M27.3438 8.59375H8.59375C11.875 13.2812 11.875 19.5312 8.59375 24.2188H27.3438C30.625 19.5312 30.625 13.2812 27.3438 8.59375Z" fill="#FFECC7"/>
<path d="M22.6563 18.75C23.4375 18.0469 23.4375 17.0313 23.4375 16.0938V15.7031C23.4375 15.3125 23.3594 15 23.2812 14.6094L25.5469 12.3438L24.4531 11.25L22.5 13.2031C21.7969 12.2656 20.7031 11.7187 19.5313 11.7187C18.3594 11.7187 17.2656 12.2656 16.5625 13.125L14.6094 11.1719L13.5156 12.2656L15.7813 14.5313C15.7031 14.9219 15.625 15.2344 15.625 15.625V16.0156C15.625 16.9531 15.625 17.9687 16.4063 18.6719V19.1406L14.2969 21.25L15.3906 22.3438L16.7969 20.9375C16.875 21.0156 17.0313 21.0156 17.1875 21.0156H21.875C22.0313 21.0156 22.1094 20.9375 22.2656 20.9375L23.6719 22.3438L24.7656 21.25L22.6563 19.2188V18.75ZM18.75 15.625V17.1875H17.9688V15.625H18.75ZM20.3125 17.1875V15.625H21.0938V17.1875H20.3125Z" fill="#707070"/>
<path d="M21.0938 33.5938V24.2188H17.9688V36.7188H23.4375L24.2188 33.5938H21.0938Z" fill="#8C421C"/>
<path d="M35.9375 5.46875H35.1562V10.1562H35.9375V5.46875Z" fill="#5C5C5C"/>
</svg>
