<svg width="50" height="50" viewBox="0 0 50 50" fill="none" xmlns="http://www.w3.org/2000/svg">
<g clip-path="url(#clip0_325_3509)">
<path fill-rule="evenodd" clip-rule="evenodd" d="M25.0001 11.3541C24.6766 11.3541 24.4141 11.0915 24.4141 10.7681V6.58601C24.4141 6.26253 24.6766 6 25.0001 6C25.3235 6 25.5861 6.26253 25.5861 6.58601V10.7675C25.5861 11.0915 25.3235 11.3541 25.0001 11.3541Z" fill="#FFB800"/>
<path fill-rule="evenodd" clip-rule="evenodd" d="M19.769 28.3029C19.6249 28.3029 19.4801 28.2496 19.3664 28.1426C17.9796 26.832 17.0886 25.0722 16.8574 23.187C16.8167 22.8542 16.7959 22.5149 16.7959 22.1788C16.7959 17.6554 20.4757 13.9753 24.9994 13.9753C29.5225 13.9753 33.2027 17.6551 33.2027 22.1788C33.2027 22.8299 33.1262 23.4768 32.9747 24.1021C32.6439 25.4792 31.9539 26.7555 30.9796 27.7934C30.7581 28.0295 30.3881 28.0407 30.1516 27.8194C30.0872 27.7591 30.0397 27.6876 30.0089 27.6105L20.3538 27.7468C20.3468 27.8807 20.2941 28.0131 20.1947 28.1186C20.0793 28.2414 19.924 28.3029 19.7687 28.3029H19.769Z" fill="#FFCC00"/>
<path fill-rule="evenodd" clip-rule="evenodd" d="M30.6635 12.8721C30.5639 12.8721 30.4634 12.8466 30.3711 12.7936C30.0907 12.6322 29.9949 12.2738 30.1569 11.9934L32.2481 8.37217C32.4098 8.09176 32.7694 7.99653 33.0483 8.15769C33.3287 8.31913 33.4245 8.67777 33.2628 8.95788L31.1716 12.5791C31.0632 12.7669 30.866 12.8721 30.6638 12.8721H30.6635Z" fill="#FFB800"/>
<path fill-rule="evenodd" clip-rule="evenodd" d="M34.8128 17.0199C34.6106 17.0199 34.4134 16.9147 34.305 16.7269C34.1436 16.4465 34.2391 16.0881 34.5195 15.9267L38.1408 13.8358C38.42 13.6747 38.7789 13.769 38.9409 14.05C39.1024 14.3304 39.0069 14.6887 38.7268 14.8502L35.1055 16.9414C35.0132 16.9941 34.9127 17.0199 34.8131 17.0199H34.8128Z" fill="#FFB800"/>
<path fill-rule="evenodd" clip-rule="evenodd" d="M40.5116 22.6845H36.3301C36.0067 22.6845 35.7441 22.422 35.7441 22.0985C35.7441 21.775 36.007 21.5125 36.3301 21.5125H40.5116C40.8351 21.5125 41.0976 21.775 41.0976 22.0985C41.0976 22.422 40.8351 22.6845 40.5116 22.6845Z" fill="#FFB800"/>
<path fill-rule="evenodd" clip-rule="evenodd" d="M13.6688 22.6845H9.48738C9.1639 22.6845 8.90137 22.422 8.90137 22.0985C8.90137 21.775 9.1639 21.5125 9.48738 21.5125H13.6688C13.9923 21.5125 14.2548 21.775 14.2548 22.0985C14.2548 22.422 13.9929 22.6845 13.6688 22.6845Z" fill="#FFB800"/>
<path fill-rule="evenodd" clip-rule="evenodd" d="M15.187 17.0198C15.0877 17.0198 14.9869 16.9941 14.8946 16.9413L11.2734 14.8501C10.9932 14.6887 10.8974 14.3304 11.0589 14.05C11.2206 13.7695 11.5781 13.6737 11.8591 13.8358L15.4803 15.9266C15.7601 16.0881 15.8562 16.4467 15.6945 16.7268C15.5864 16.9144 15.3889 17.0198 15.1867 17.0198H15.187Z" fill="#FFB800"/>
<path fill-rule="evenodd" clip-rule="evenodd" d="M19.3349 12.8721C19.1322 12.8721 18.9356 12.7672 18.8266 12.5791L16.7357 8.95789C16.5743 8.67748 16.6698 8.31914 16.9499 8.15769C17.2306 7.99625 17.5886 8.09206 17.7501 8.37217L19.841 11.9934C20.0024 12.2738 19.9069 12.6322 19.6268 12.7936C19.5348 12.8469 19.434 12.8721 19.3347 12.8721H19.3349Z" fill="#FFB800"/>
<path fill-rule="evenodd" clip-rule="evenodd" d="M4.97314 16.8206C4.74957 16.8206 4.53568 16.692 4.4384 16.4743C4.42317 16.4418 3.48672 14.435 1.90626 14.7362C1.58601 14.7972 1.28128 14.5888 1.22063 14.2712C1.15939 13.9533 1.36801 13.6462 1.68563 13.5856C3.28192 13.28 4.37629 14.2985 4.97284 15.106C5.5694 14.2985 6.66231 13.2797 8.26006 13.5856C8.57797 13.6462 8.78629 13.9536 8.72505 14.2712C8.66411 14.5888 8.35763 14.7972 8.03942 14.7362C6.46834 14.4368 5.53014 16.4254 5.50728 16.474C5.45044 16.6012 5.34847 16.7084 5.21135 16.7694C5.1337 16.8039 5.05225 16.8209 4.97255 16.8209L4.97314 16.8206Z" fill="#4A5254"/>
<path fill-rule="evenodd" clip-rule="evenodd" d="M4.97314 22.7411C4.74957 22.7411 4.53568 22.6124 4.4384 22.3947C4.42317 22.3622 3.48672 20.3578 1.90626 20.6566C1.58601 20.7176 1.28128 20.5092 1.22063 20.1916C1.15939 19.874 1.36801 19.5666 1.68563 19.506C3.28192 19.2001 4.37629 20.2189 4.97284 21.0264C5.5694 20.2186 6.66231 19.1995 8.26006 19.506C8.57797 19.5666 8.78629 19.874 8.72505 20.1916C8.66411 20.5095 8.35763 20.7179 8.03942 20.6566C6.46834 20.3586 5.53014 22.3458 5.50728 22.3944C5.45044 22.5216 5.34847 22.6288 5.21135 22.6898C5.1337 22.7244 5.05225 22.7413 4.97255 22.7413L4.97314 22.7411Z" fill="#4A5254"/>
<path fill-rule="evenodd" clip-rule="evenodd" d="M46.2321 16.8207C46.0082 16.8207 45.7946 16.6915 45.6973 16.4743C45.6827 16.4418 44.7471 14.4362 43.1649 14.7362C42.8505 14.7966 42.5405 14.5889 42.4793 14.2712C42.4186 13.9533 42.6266 13.6463 42.9448 13.5856C44.5403 13.2771 45.6355 14.2985 46.2318 15.106C46.8283 14.2988 47.9212 13.2794 49.5187 13.5856C49.8363 13.6463 50.0446 13.9536 49.9843 14.2712C49.9236 14.5889 49.6145 14.7966 49.2986 14.7362C47.7196 14.4362 46.7893 16.4248 46.7665 16.474C46.7097 16.6012 46.6074 16.7084 46.4703 16.7694C46.3929 16.804 46.3118 16.821 46.2323 16.821L46.2321 16.8207Z" fill="#4A5254"/>
<path fill-rule="evenodd" clip-rule="evenodd" d="M46.2321 22.7411C46.0083 22.7411 45.7947 22.6119 45.6974 22.3947C45.6828 22.3622 44.7472 20.3572 43.165 20.6566C42.8506 20.7185 42.5406 20.5093 42.4793 20.1916C42.4184 19.874 42.6267 19.5667 42.9449 19.506C44.5403 19.1984 45.6356 20.2189 46.2318 21.0261C46.8284 20.2189 47.9213 19.1989 49.5188 19.506C49.8364 19.5667 50.0447 19.874 49.9843 20.1916C49.9237 20.5096 49.6146 20.7182 49.2987 20.6566C47.7197 20.3572 46.7894 22.3452 46.7666 22.3944C46.7097 22.5216 46.6075 22.6289 46.4704 22.6898C46.393 22.7244 46.3118 22.7414 46.2324 22.7414L46.2321 22.7411Z" fill="#4A5254"/>
<path fill-rule="evenodd" clip-rule="evenodd" d="M0 32.2566V31.6349V31.6097V31.6059V26.408C0 26.2506 0.0629959 26.1 0.175803 25.9896C0.28773 25.8794 0.434526 25.8202 0.597436 25.822C2.08473 25.8501 2.9989 26.4051 3.80583 26.8944C4.51109 27.3225 5.11966 27.6919 6.06695 27.6922H6.06753C7.33888 27.6922 9.12679 27.0054 11.5338 25.594C11.5948 25.5583 11.6624 25.5337 11.7325 25.5216C12.2426 25.4355 12.7469 25.3916 13.2312 25.3916C14.9353 25.3916 16.2128 25.9239 17.34 26.3939C18.3051 26.7959 19.1384 27.1437 20.1153 27.1437C21.338 27.1437 22.6703 26.5788 24.3076 25.3672C24.3779 25.3151 24.4588 25.2799 24.545 25.2632C25.0829 25.1586 25.593 25.1059 26.061 25.1059C27.6139 25.1059 28.5524 25.6717 29.3804 26.1715C30.0842 26.5958 30.6931 26.9626 31.6365 26.9626C32.9096 26.9626 34.6996 26.2758 37.1093 24.8618C37.1702 24.8261 37.2379 24.8014 37.3079 24.7894C37.7633 24.7124 38.2145 24.6734 38.6478 24.6734C40.5061 24.6734 41.8621 25.3784 43.0587 26.0001C44.0845 26.5331 44.9703 26.9937 46.0389 26.9937C46.956 26.9937 47.9569 26.6403 49.099 25.9134C49.2786 25.7988 49.5083 25.7912 49.6956 25.8944C49.8834 25.9969 50 26.1944 50 26.4077V32.8828H49.6575C48.2317 33.7788 47.0594 34.102 46.0365 34.102C44.6811 34.102 43.5894 33.5338 42.5181 32.9774C41.1536 32.2678 39.7434 31.5341 37.6074 31.8658C32.4529 34.8697 30.7608 34.3097 28.7751 33.1122C27.8026 32.5256 26.8855 31.9707 24.8954 32.3273C21.0629 35.114 18.9676 34.027 16.9406 32.9748C15.5764 32.2672 14.1676 31.5353 12.0322 31.8655C6.87417 34.8726 5.18295 34.3094 3.19756 33.1072C2.58752 32.738 2.00503 32.3853 1.17231 32.2569H0.00117227L0 32.2566Z" fill="#66C2E4"/>
<path fill-rule="evenodd" clip-rule="evenodd" d="M0 37.2793V36.6576V36.6324V36.6286V31.4307C0 31.2733 0.0629959 31.1227 0.175803 31.0123C0.28773 30.9021 0.434526 30.8429 0.597436 30.8447C2.08473 30.8728 2.9989 31.4278 3.80583 31.9171C4.51109 32.3452 5.11966 32.7146 6.06695 32.7149H6.06753C7.33888 32.7149 9.12679 32.0281 11.5338 30.6167C11.5948 30.581 11.6624 30.5564 11.7325 30.5444C12.2426 30.4582 12.7469 30.4143 13.2312 30.4143C14.9353 30.4143 16.2128 30.9466 17.34 31.4166C18.3051 31.8186 19.1384 32.1664 20.1153 32.1664C21.338 32.1664 22.6703 31.6015 24.3076 30.3899C24.3779 30.3378 24.4588 30.3026 24.545 30.2859C25.0829 30.1813 25.593 30.1286 26.061 30.1286C27.6139 30.1286 28.5524 30.6944 29.3804 31.1942C30.0842 31.6185 30.6931 31.9853 31.6365 31.9853C32.9096 31.9853 34.6996 31.2985 37.1093 29.8845C37.1702 29.8488 37.2379 29.8241 37.3079 29.8121C37.7633 29.7351 38.2145 29.6961 38.6478 29.6961C40.5061 29.6961 41.8621 30.4011 43.0587 31.0228C44.0845 31.5558 44.9703 32.0164 46.0389 32.0164C46.956 32.0164 47.9569 31.663 49.099 30.9361C49.2786 30.8215 49.5083 30.8139 49.6956 30.9171C49.8834 31.0196 50 31.2171 50 31.4304V37.9055H49.6575C48.2317 38.8015 47.0594 39.1247 46.0365 39.1247C44.6811 39.1247 43.5894 38.5566 42.5181 38.0001C41.1536 37.2905 39.7434 36.5568 37.6074 36.8885C32.4529 39.8924 30.7608 39.3324 28.7751 38.1349C27.8026 37.5483 26.8855 36.9934 24.8954 37.35C21.0629 40.1367 18.9676 39.0497 16.9406 37.9975C15.5764 37.2899 14.1676 36.558 12.0322 36.8882C6.87417 39.8953 5.18295 39.3321 3.19756 38.1299C2.58752 37.7608 2.00503 37.408 1.17231 37.2796H0.00117227L0 37.2793Z" fill="#76C8EA"/>
<path fill-rule="evenodd" clip-rule="evenodd" d="M0 43.857C0 41.9074 0 39.3319 0 37.3822C0 37.2249 0.0629959 37.0743 0.175803 36.9638C0.28773 36.8536 0.434526 36.7945 0.597436 36.7962C2.08473 36.8243 2.9989 37.3793 3.80583 37.8686C4.51109 38.2967 5.11966 38.6662 6.06695 38.6665H6.06753C7.33888 38.6665 9.12679 37.9797 11.5338 36.5683C11.5948 36.5325 11.6624 36.5079 11.7325 36.4959C12.2426 36.4097 12.7469 36.3658 13.2312 36.3658C14.9353 36.3658 16.2128 36.8982 17.34 37.3682C18.3051 37.7702 19.1384 38.118 20.1153 38.118C21.338 38.118 22.6703 37.553 24.3076 36.3415C24.3779 36.2893 24.4588 36.2542 24.545 36.2375C25.0829 36.1329 25.593 36.0801 26.061 36.0801C27.6139 36.0801 28.5524 36.6459 29.3804 37.1458C30.0842 37.57 30.6931 37.9369 31.6365 37.9369C32.9096 37.9369 34.6996 37.2501 37.1093 35.836C37.1702 35.8003 37.2379 35.7757 37.3079 35.7637C37.7633 35.6866 38.2145 35.6476 38.6478 35.6476C40.5061 35.6476 41.8621 36.3526 43.0587 36.9744C44.0845 37.5073 44.9703 37.9679 46.0389 37.9679C46.956 37.9679 47.9569 37.6146 49.099 36.8876C49.2786 36.7731 49.5083 36.7655 49.6956 36.8686C49.8834 36.9711 50 37.1686 50 37.3819V43.857C33.2689 43.857 16.6125 43.857 0.000878977 43.857H0Z" fill="#89CFF0"/>
</g>
<defs>
<clipPath id="clip0_325_3509">
<rect width="50" height="50" fill="white"/>
</clipPath>
</defs>
</svg>
