<svg width="50" height="50" viewBox="0 0 50 50" fill="none" xmlns="http://www.w3.org/2000/svg">
<path d="M26.4585 32.2888L27.0562 33.7637C27.6483 35.2251 28.5439 36.5441 29.6837 37.6338L32.8123 40.625L29.4004 40.0703C25.8741 39.4971 22.8363 37.2681 21.2314 34.0764L26.4585 32.2888Z" fill="#697687"/>
<path d="M47.7782 6.39948C47.7782 6.39948 44.6481 6.08308 42.7359 7.82819C42.4561 8.08357 42.219 8.36931 42.0162 8.67038C41.7434 8.43093 41.4412 8.21501 41.1056 8.03933C38.8119 6.83894 35.8657 7.94245 35.8657 7.94245C35.8657 7.94245 36.6384 10.9922 38.9321 12.1925C39.6344 12.56 40.3972 12.7105 41.1183 12.7438L39.7643 17.0193C38.7861 20.1081 36.4536 22.5826 33.428 23.7414C28.2691 25.7172 22.5903 25.8726 17.331 24.1819L14.2054 23.1771C12.4863 22.6245 10.6087 22.8904 9.11061 23.8988C5.97116 26.0121 3.71627 29.204 2.77379 32.8692L2.40612 34.2989C2.24079 34.9419 2.40895 35.625 2.85377 36.1177C7.49508 41.2589 14.6305 43.3575 21.3162 41.5478L23.5142 40.9529C25.9227 40.3009 28.1777 39.1772 30.1483 37.6467C37.4413 31.9829 42.3739 23.8151 43.9917 14.724L44.442 12.1935C44.9554 11.9816 45.4574 11.6903 45.8955 11.2905C47.808 9.54528 47.7782 6.39948 47.7782 6.39948Z" fill="#8191A6"/>
<path d="M38.6465 28.3525C38.1211 29.1709 37.5635 29.9688 36.9746 30.7441C36.2939 31.6406 35.5723 32.5078 34.8105 33.3418C34.4033 33.7881 33.9854 34.2236 33.5557 34.6504C32.4873 35.7129 31.3496 36.7139 30.1484 37.6465C28.1777 39.1777 25.9229 40.3008 23.5146 40.9531L21.3164 41.5479C19.7266 41.9785 18.1113 42.1875 16.5107 42.1875C14.0518 42.1875 11.627 41.6934 9.37793 40.748C8.30664 40.2979 7.27539 39.7451 6.2998 39.0947C5.04883 38.2607 3.88867 37.2647 2.85352 36.1182C2.72363 35.9736 2.61816 35.8125 2.53613 35.6416C15.043 38.2881 28.0957 35.625 38.6465 28.3525Z" fill="#DFE4EB"/>
<path d="M36.9746 30.7441C36.2939 31.6406 35.5723 32.5078 34.8105 33.3418C34.4033 33.7881 33.9853 34.2236 33.5557 34.6504C30.2266 36.4541 26.6973 37.875 23.0127 38.8955C18.5742 40.124 14.002 40.7441 9.37793 40.748C8.30664 40.2979 7.27539 39.7451 6.2998 39.0947C11.8301 39.4248 17.3115 38.8525 22.5957 37.3896C27.7451 35.9629 32.5791 33.7295 36.9746 30.7441Z" fill="#94979C"/>
<path d="M8.81291 32.8824C8.64641 32.8824 8.47864 32.8294 8.33655 32.7199C7.99485 32.4565 7.93137 31.9659 8.19465 31.6241C9.20286 30.3159 11.009 29.898 12.4895 30.6298L13.0337 30.899C13.4205 31.0902 13.579 31.5588 13.3877 31.9455C13.1965 32.3325 12.7276 32.4907 12.3411 32.2995L11.7969 32.0304C10.9818 31.6274 9.98743 31.8575 9.43235 32.5779C9.27844 32.7777 9.047 32.8824 8.81291 32.8824Z" fill="#333A42"/>
<path d="M12.5 20.3125C12.0686 20.3125 11.7188 19.9627 11.7188 19.5312V17.9688C11.7188 17.5373 12.0686 17.1875 12.5 17.1875C12.9314 17.1875 13.2812 17.5373 13.2812 17.9688V19.5312C13.2812 19.9627 12.9314 20.3125 12.5 20.3125Z" fill="#5DB0D4"/>
<path d="M12.5 15.625C12.0686 15.625 11.7188 15.2752 11.7188 14.8438V13.2812C11.7188 12.8498 12.0686 12.5 12.5 12.5C12.9314 12.5 13.2812 12.8498 13.2812 13.2812V14.8438C13.2812 15.2752 12.9314 15.625 12.5 15.625Z" fill="#5DB0D4"/>
<path d="M20.3125 10.9375C19.8811 10.9375 19.5312 10.5877 19.5312 10.1562C19.5312 8.43311 18.1294 7.03125 16.4062 7.03125C14.6831 7.03125 13.2812 8.43311 13.2812 10.1562C13.2812 10.5877 12.9314 10.9375 12.5 10.9375C12.0686 10.9375 11.7188 10.5877 11.7188 10.1562C11.7188 8.43311 10.3169 7.03125 8.59375 7.03125C6.87061 7.03125 5.46875 8.43311 5.46875 10.1562C5.46875 10.5877 5.11895 10.9375 4.6875 10.9375C4.25605 10.9375 3.90625 10.5877 3.90625 10.1562C3.90625 7.57158 6.00898 5.46875 8.59375 5.46875C10.2223 5.46875 11.6596 6.30352 12.5 7.56768C13.3404 6.30352 14.7777 5.46875 16.4062 5.46875C18.991 5.46875 21.0938 7.57158 21.0938 10.1562C21.0938 10.5877 20.7439 10.9375 20.3125 10.9375Z" fill="#5DB0D4"/>
<path d="M23.4375 33.5938L23.7496 35.1543C24.0589 36.7005 24.6927 38.1635 25.6092 39.4466L28.125 42.9688L24.8764 41.7874C21.5189 40.5665 18.9502 37.8102 17.9688 34.375" fill="#8191A6"/>
<path d="M42.1875 39.0625C43.0504 39.0625 43.75 38.3629 43.75 37.5C43.75 36.6371 43.0504 35.9375 42.1875 35.9375C41.3246 35.9375 40.625 36.6371 40.625 37.5C40.625 38.3629 41.3246 39.0625 42.1875 39.0625Z" fill="#4685A0"/>
<path d="M36.7188 44.5312C37.5817 44.5312 38.2812 43.8317 38.2812 42.9688C38.2812 42.1058 37.5817 41.4062 36.7188 41.4062C35.8558 41.4062 35.1562 42.1058 35.1562 42.9688C35.1562 43.8317 35.8558 44.5312 36.7188 44.5312Z" fill="#4685A0"/>
<path d="M30.4688 47.6562C31.3317 47.6562 32.0312 46.9567 32.0312 46.0938C32.0312 45.2308 31.3317 44.5312 30.4688 44.5312C29.6058 44.5312 28.9062 45.2308 28.9062 46.0938C28.9062 46.9567 29.6058 47.6562 30.4688 47.6562Z" fill="#4685A0"/>
<path d="M4.6875 46.875C5.55045 46.875 6.25 46.1754 6.25 45.3125C6.25 44.4496 5.55045 43.75 4.6875 43.75C3.82456 43.75 3.125 44.4496 3.125 45.3125C3.125 46.1754 3.82456 46.875 4.6875 46.875Z" fill="#4685A0"/>
<path d="M13.2837 46.875C12.8522 46.875 12.502 46.5252 12.502 46.0938C12.502 45.6623 12.8513 45.3125 13.2827 45.3125H13.2837C13.7152 45.3125 14.0649 45.6623 14.0649 46.0938C14.0649 46.5252 13.7151 46.875 13.2837 46.875Z" fill="#5DB0D4"/>
<path d="M2.34619 25.7812C1.91475 25.7812 1.56445 25.4314 1.56445 25C1.56445 24.5686 1.91377 24.2188 2.34521 24.2188H2.34619C2.77773 24.2188 3.12744 24.5686 3.12744 25C3.12744 25.4314 2.77764 25.7812 2.34619 25.7812Z" fill="#5DB0D4"/>
<path d="M3.90869 21.875C3.47725 21.875 3.12695 21.5252 3.12695 21.0938C3.12695 20.6623 3.47627 20.3125 3.90771 20.3125H3.90869C4.34023 20.3125 4.68994 20.6623 4.68994 21.0938C4.68994 21.5252 4.34014 21.875 3.90869 21.875Z" fill="#5DB0D4"/>
<path d="M2.34619 17.9688C1.91475 17.9688 1.56445 17.6189 1.56445 17.1875C1.56445 16.7561 1.91377 16.4062 2.34521 16.4062H2.34619C2.77773 16.4062 3.12744 16.7561 3.12744 17.1875C3.12744 17.6189 2.77764 17.9688 2.34619 17.9688Z" fill="#5DB0D4"/>
<path d="M17.1899 48.4375C16.7585 48.4375 16.4082 48.0877 16.4082 47.6562C16.4082 47.2248 16.7575 46.875 17.189 46.875H17.1899C17.6215 46.875 17.9712 47.2248 17.9712 47.6562C17.9712 48.0877 17.6214 48.4375 17.1899 48.4375Z" fill="#5DB0D4"/>
<path d="M20.3149 46.0938C19.8835 46.0938 19.5332 45.7439 19.5332 45.3125C19.5332 44.8811 19.8825 44.5312 20.314 44.5312H20.3149C20.7465 44.5312 21.0962 44.8811 21.0962 45.3125C21.0962 45.7439 20.7464 46.0938 20.3149 46.0938Z" fill="#5DB0D4"/>
<path d="M46.8774 34.375C46.446 34.375 46.0957 34.0252 46.0957 33.5938C46.0957 33.1623 46.445 32.8125 46.8765 32.8125H46.8774C47.309 32.8125 47.6587 33.1623 47.6587 33.5938C47.6587 34.0252 47.3089 34.375 46.8774 34.375Z" fill="#5DB0D4"/>
<path d="M42.1899 32.0312C41.7585 32.0312 41.4082 31.6814 41.4082 31.25C41.4082 30.8186 41.7575 30.4688 42.189 30.4688H42.1899C42.6215 30.4688 42.9712 30.8186 42.9712 31.25C42.9712 31.6814 42.6214 32.0312 42.1899 32.0312Z" fill="#5DB0D4"/>
<path d="M22.6587 48.4375C22.2272 48.4375 21.877 48.0877 21.877 47.6562C21.877 47.2248 22.2263 46.875 22.6577 46.875H22.6587C23.0902 46.875 23.4399 47.2248 23.4399 47.6562C23.4399 48.0877 23.0901 48.4375 22.6587 48.4375Z" fill="#5DB0D4"/>
<path d="M36.6255 37.4046C36.194 37.4046 35.8438 37.0548 35.8438 36.6234C35.8438 36.1919 36.1931 35.8421 36.6245 35.8421H36.6255C37.057 35.8421 37.4067 36.1919 37.4067 36.6234C37.4067 37.0548 37.057 37.4046 36.6255 37.4046Z" fill="#5DB0D4"/>
</svg>
