<svg width="50" height="50" viewBox="0 0 50 50" fill="none" xmlns="http://www.w3.org/2000/svg">
<path d="M17.1231 46.875C17.1231 46.875 26.193 36.6414 21.1088 32.6774C16.0246 28.7135 16.2282 27.0357 18.4423 22.2803C18.4423 22.2803 21.0991 16.5736 17.6537 15.2917C14.2082 14.0098 12.5695 11.3277 12.0911 9.87451C12.0911 9.87451 8.71671 13.4013 11.0374 15.8588C13.3581 18.3163 14.5185 19.545 13.872 22.1739C13.2255 24.8028 8.92999 27.8274 11.729 31.7382C14.528 35.6489 18.2127 37.6575 17.5663 40.2863C16.9198 42.9151 15.2807 45.8707 17.1231 46.875Z" fill="#56A44F"/>
<path d="M3.16504 14.0625C3.16504 14.0625 0.710055 21.0938 3.9834 24.2188C7.25673 27.3438 10.5299 29.6875 9.71162 32.8125C8.89336 35.9375 13.8032 42.1875 17.0765 42.1875L19.5312 41.4062C19.5312 41.4062 14.6214 36.7188 14.6214 32.0312C14.6214 27.3438 14.6214 24.2188 9.71152 21.0938C4.80166 17.9688 3.16504 14.0625 3.16504 14.0625Z" fill="#77E36D"/>
<path d="M34.568 6.14697C34.568 6.14697 26.6522 11.2164 27.1284 16.7455C27.6045 22.2745 28.7106 27.0355 25.4421 29.4935C22.1737 31.9513 21.6282 41.781 24.6239 44.2379L27.5005 45.3125C27.5005 45.3125 26.7863 37.0189 30.5656 32.4108C34.3449 27.8027 36.8645 24.7307 34.8904 17.9731C32.9163 11.2156 34.568 6.14697 34.568 6.14697Z" fill="#56A44F"/>
<path d="M14.9092 46.875C14.9092 46.875 29.5795 40.7775 26.1714 34.1922C22.7633 27.6068 23.8114 25.9767 28.5132 22.1604C28.5132 22.1604 34.1553 17.5808 31.1485 14.5661C28.1417 11.5515 27.7404 7.98066 27.956 6.24707C27.956 6.24707 22.6373 8.22627 23.8712 11.9006C25.1051 15.5749 25.722 17.4121 23.7335 19.8055C21.745 22.1988 15.7014 23.2076 16.7197 28.6156C17.738 34.0236 20.637 37.905 18.6484 40.2983C16.6598 42.6917 13.4596 44.9343 14.9092 46.875Z" fill="#77E36D"/>
<path d="M32.388 46.0145C32.388 46.0145 40.183 43.1034 36.6618 36.3328C33.1406 29.5622 39.6785 27.1507 39.6785 27.1507C39.6785 27.1507 46.5562 23.9268 43.8213 17.4243C41.0864 10.9219 47.4576 7.6377 47.4576 7.6377C47.4576 7.6377 40.86 8.57442 41.5219 15.6646C42.1838 22.7549 34.7207 23.6965 34.7207 23.6965C34.7207 23.6965 27.8197 23.9652 29.1463 31.5585C30.4729 39.1518 22.2344 39.5065 22.2344 39.5065L32.388 46.0145Z" fill="#77E36D"/>
<path d="M34.0432 47.6562H15.9568C14.9106 47.6562 14.0625 46.8081 14.0625 45.7619C14.0625 41.6305 17.4117 38.2812 21.5432 38.2812H28.4568C32.5883 38.2812 35.9375 41.6305 35.9375 45.7619C35.9375 46.8081 35.0894 47.6562 34.0432 47.6562Z" fill="#EDBC61"/>
<path d="M37.2271 41.4062H34.648C31.9083 41.4062 29.6875 43.6271 29.6875 46.3666C29.6875 47.0788 30.2648 47.6562 30.9771 47.6562H40.898C41.6102 47.6562 42.1876 47.0789 42.1876 46.3666C42.1875 43.6271 39.9667 41.4062 37.2271 41.4062Z" fill="#A07E42"/>
<path d="M16.7647 47.6562H9.79766C9.13281 47.6562 8.59375 47.1172 8.59375 46.4522C8.59375 44.5284 10.1534 42.9688 12.0772 42.9688H14.4852C16.4091 42.9688 17.9688 44.5284 17.9688 46.4522C17.9688 47.1172 17.4297 47.6562 16.7647 47.6562Z" fill="#A07E42"/>
</svg>
