<svg width="50" height="50" viewBox="0 0 50 50" fill="none" xmlns="http://www.w3.org/2000/svg">
<path d="M22.9167 40.625C22.8281 41.726 23.0292 42.5313 23.7146 43.374C24.3927 44.1958 25.4146 44.7531 26.5427 44.8573C27.5823 44.9792 28.6771 44.5573 29.401 43.7C29.7615 43.2781 30.0208 42.7604 30.1437 42.199C30.2052 41.8958 30.2333 41.6615 30.2146 41.3167C30.2198 41.1281 30.1448 40.8011 30.0562 40.5583C29.6792 39.5083 28.6021 38.6948 27.3396 38.7146C26.8323 38.7156 26.2115 38.9531 25.7958 39.376C25.3635 39.7927 25.0958 40.4031 25.075 41.0219C25.05 41.6323 25.3437 42.249 25.8583 42.6385C26.3573 43.0219 27.1146 43.1833 27.7083 42.924C28.326 42.6771 28.7844 42.0177 28.7646 41.2927C28.7635 40.5927 28.1344 39.9073 27.3542 39.8792C28.125 39.8188 28.9187 40.4302 29.025 41.2792C29.1417 42.0854 28.7073 42.9761 27.9406 43.3927C27.1531 43.8292 26.1979 43.7333 25.4292 43.2917C24.6625 42.8479 24.1073 41.9979 24.0344 41.075C23.8448 39.25 25.2479 37.3875 27.2604 37.1542C29.0646 36.9042 31.0781 37.9292 31.95 39.6875C32.1687 40.1417 32.3354 40.549 32.4187 41.1219C32.4906 41.5344 32.5115 42.0688 32.4635 42.524C32.375 43.474 32.0479 44.4135 31.5104 45.226C30.4594 46.8646 28.5052 47.9625 26.4833 47.9823C24.5531 48.0458 22.5635 47.3 21.1115 45.9281C20.3823 45.2469 19.7792 44.4167 19.3531 43.4906C19.1406 43.0281 18.9729 42.5427 18.8531 42.0427C18.7927 41.7906 18.7469 41.5448 18.7094 41.2813L18.6406 40.5708L22.9167 40.625Z" fill="#FFC107"/>
<path d="M24.9995 12.5C24.9995 11.4365 26.0193 4.35002 26.0089 4.44377C25.5266 4.27606 25.0182 4.16669 24.4787 4.16669C22.6537 4.16669 21.0901 5.22085 20.3151 6.74273C20.3953 6.49481 19.7912 8.5771 19.7912 10.4167C19.7912 14.5834 22.9162 18.75 22.9162 23.9584C22.9162 29.1667 21.3214 29.7531 18.7495 35.4167C18.7495 35.4167 17.2849 39.4209 19.5307 43.7823L22.9162 40.625C22.9162 40.625 22.9162 36.4584 26.0412 34.375C28.1526 32.9667 34.3745 30.4719 34.3745 23.9584C34.3745 16.6667 24.9995 14.5834 24.9995 12.5Z" fill="#FFC107"/>
<path d="M24.9995 12.5C24.9995 11.4365 26.0193 4.35002 26.0089 4.44377C25.5266 4.27606 25.0182 4.16669 24.4787 4.16669C22.6537 4.16669 21.0901 5.22085 20.3151 6.74273C20.3953 6.49481 19.7912 8.5771 19.7912 10.4167C19.7912 14.5834 22.9162 18.75 22.9162 23.9584C22.9162 29.1667 21.3214 29.7531 18.7495 35.4167C18.7495 35.4167 17.2849 39.4209 19.5307 43.7823L22.9162 40.625C22.9162 40.625 22.9162 36.4584 26.0412 34.375C28.1526 32.9667 34.3745 30.4719 34.3745 23.9584C34.3745 16.6667 24.9995 14.5834 24.9995 12.5Z" fill="#FFC107"/>
<path d="M24.9997 12.5C27.3009 12.5 29.1663 10.6345 29.1663 8.33335C29.1663 6.03217 27.3009 4.16669 24.9997 4.16669C22.6985 4.16669 20.833 6.03217 20.833 8.33335C20.833 10.6345 22.6985 12.5 24.9997 12.5Z" fill="#FFC107"/>
<path d="M35.9927 15.5156C35.9927 15.5156 29.1667 11.4584 25 12.5L29.1667 7.29169C29.1667 9.37502 36.924 13.6511 36.924 13.6511L35.9927 15.5156Z" fill="#FFC107"/>
<path d="M29.8299 6.41979C30.1497 7.22188 30.534 10.0656 29.732 10.3865C28.9299 10.7073 27.2476 8.38229 26.9278 7.58229C26.607 6.78021 26.9965 5.87084 27.7986 5.55104C28.5986 5.23021 29.508 5.62084 29.8299 6.41979Z" fill="#FFC107"/>
<path d="M37.0425 15.1678C36.4321 15.7782 35.6769 16.1459 34.4623 14.4094C33.9665 13.7021 33.9967 12.2084 34.8082 12.5C36.4352 13.0844 36.4321 12.348 37.0425 12.9573C37.6529 13.5667 37.6519 14.5573 37.0425 15.1678Z" fill="#FFC107"/>
<path d="M17.9445 18.3156C17.483 17.8511 17.0508 17.3073 16.6664 16.6667C16.6664 16.6667 11.458 22.9167 16.6664 30.2084C17.0549 29.5604 17.4924 29.0104 17.9601 28.5406C15.6976 24.1917 16.8851 20.3834 17.9445 18.3156Z" fill="#FFC107"/>
<path d="M21.0316 30.9771C20.7274 31.5281 20.393 32.127 20.0264 32.8208C21.5753 33.4156 23.6139 34.2916 25.0639 35.1906C25.3503 34.8968 25.6722 34.6208 26.041 34.375C26.266 34.2239 26.5451 34.0593 26.8503 33.8802C25.2014 32.7083 22.7441 31.6448 21.0316 30.9771Z" fill="#FF9800"/>
<path d="M22.8948 23.3604C22.9042 23.5594 22.9167 23.7573 22.9167 23.9583C22.9167 24.5156 22.8948 25.0104 22.8594 25.474C25.6375 25.9615 29.7542 26.8573 33.2708 28.3042C33.5969 27.7156 33.8646 27.074 34.0552 26.3729C30.1917 24.7844 25.7604 23.8469 22.8948 23.3604Z" fill="#FF9800"/>
<path d="M23.0906 39.1583C23.2135 38.5406 23.4302 37.7906 23.7937 37.0344C22.251 35.8885 20.2823 35.1302 19.0698 34.7344C18.9646 34.9573 18.8594 35.1771 18.75 35.4167C18.75 35.4167 18.575 35.9073 18.4375 36.7208C19.6781 37.1271 21.801 37.9531 23.0906 39.1583Z" fill="#FF9800"/>
<path d="M22.6555 21.2948C26.1035 21.7729 31.0399 22.6521 34.368 24.0718C34.368 24.0333 34.3743 23.9979 34.3743 23.9583C34.3743 23.1427 34.242 22.401 34.0347 21.7083C30.2514 20.3364 25.3274 19.5312 22.1201 19.1166C22.3305 19.8239 22.516 20.551 22.6555 21.2948Z" fill="#FF9800"/>
<path d="M22.518 27.5823C22.3316 28.2896 22.0837 28.9198 21.7764 29.5583C23.7722 29.9864 26.8566 30.7906 29.7014 32.1073C30.2972 31.6812 30.8941 31.1969 31.4555 30.6479C28.3232 29.051 24.8316 28.0937 22.518 27.5823Z" fill="#FF9800"/>
<path d="M20.0873 12.7958C21.6644 13.1239 24.2123 13.6708 26.6206 14.2468C25.6602 13.602 24.9998 12.5 24.9998 12.5C24.9998 12.5 20.8331 10.4166 19.7998 10.6104C19.8165 11.3364 19.9196 12.0625 20.0873 12.7958Z" fill="#FF9800"/>
<path d="M29.5716 16.1968C26.1091 15.5031 22.6789 15.0364 20.6602 14.7916C20.8977 15.5125 21.1591 16.2437 21.4216 16.9895C24.2695 17.3593 28.8091 18.0395 32.6216 19.0198C31.7497 17.8989 30.6633 16.9739 29.5716 16.1968Z" fill="#FF9800"/>
<path d="M24.479 4.16665C25.0186 4.16665 25.5269 4.27602 26.0092 4.44373C26.0196 4.34998 26.0321 4.25415 26.0415 4.16665V2.08331C26.0415 2.08331 21.8144 2.09477 20.3154 6.74269C21.0904 5.22081 22.654 4.16665 24.479 4.16665Z" fill="#FFC107"/>
<path d="M24.479 4.16665C25.0186 4.16665 25.5269 4.27602 26.0092 4.44373C26.0196 4.34998 26.0321 4.25415 26.0415 4.16665V2.08331C26.0415 2.08331 21.8144 2.09477 20.3154 6.74269C21.0904 5.22081 22.654 4.16665 24.479 4.16665Z" fill="#FF9800"/>
<path d="M22.533 20.7041C21.0496 20.4083 19.3413 19.7333 17.9184 18.2864C17.9278 18.2958 17.935 18.3073 17.9444 18.3156C16.8861 20.3833 15.6986 24.1916 17.9611 28.5406C17.8267 28.676 17.7007 28.8323 17.5715 28.9812C19.1382 27.176 21.1298 26.4156 22.7934 26.1281C22.8715 25.4927 22.9163 24.7885 22.9163 23.9583C22.9163 22.8271 22.7642 21.7479 22.533 20.7041Z" fill="#FF9800"/>
<path d="M28.1247 8.33333C28.7 8.33333 29.1663 7.86696 29.1663 7.29167C29.1663 6.71637 28.7 6.25 28.1247 6.25C27.5494 6.25 27.083 6.71637 27.083 7.29167C27.083 7.86696 27.5494 8.33333 28.1247 8.33333Z" fill="#795548"/>
</svg>
