<svg width="50" height="50" viewBox="0 0 50 50" fill="none" xmlns="http://www.w3.org/2000/svg">
<path d="M40.9997 19.5217C39.559 19.5217 38.391 20.6897 38.391 22.1304H40.9997V24.7391H38.391V30.4858C38.391 32.3678 36.9046 33.9088 35.0443 33.9975C35.5184 32.9223 35.7823 31.7344 35.7823 30.4858V24.7391H33.1736V22.1304H35.7823V19.5217H33.1736V16.913H35.7823C35.7823 15.4723 34.6143 14.3043 33.1736 14.3043C31.7329 14.3043 30.5649 15.4723 30.5649 16.913V27.8771H33.1736V30.4858H30.5649C30.5649 32.1233 29.4397 33.5028 27.922 33.8921L27.9272 27.6106C27.9272 26.1699 26.7592 25.0019 25.3185 25.0019C23.8778 25.0019 22.7098 26.1699 22.7098 27.6106L22.709 28.68L22.7089 28.7845C22.7098 28.7845 22.7084 29.2877 22.7084 29.2877L22.7045 33.96V34.0018H25.304V36.6105H22.7024L22.7002 39.1752H25.304V41.7839H22.698L22.6953 45H27.9127L27.9176 39.2192H32.2663V36.6105H34.875V39.2192C39.6906 39.2192 43.6084 35.3014 43.6084 30.4857H40.9997V27.877H43.6084V22.1304C43.6084 20.6897 42.4404 19.5217 40.9997 19.5217Z" fill="#EF4967"/>
<path d="M22.7049 33.96L22.7088 29.2877L22.7102 28.7845C22.7092 28.7845 22.7093 28.68 22.7093 28.68C21.1801 28.2987 20.0435 26.9141 20.0435 25.2685H17.4348V22.6598H20.0435V23.524C24.4524 23.0862 27.9074 19.3559 27.9074 14.8337V11.6957C27.9074 10.255 26.7394 9.08696 25.2987 9.08696C23.858 9.08696 22.69 10.255 22.69 11.6957V12.225H25.2987V14.8337H22.69C22.69 16.4724 21.563 17.8527 20.0435 18.2407V7.6087C20.0435 6.168 18.8755 5 17.4348 5C15.9941 5 14.8261 6.168 14.8261 7.6087V12.225H17.4348V14.8337H14.8261V17.4423H17.4348V20.051H14.8261V25.2684C14.8261 26.517 15.09 27.705 15.5641 28.7802C13.7037 28.6915 12.2174 27.1504 12.2174 25.2684H9.6087V22.6597H12.2174V16.913C12.2174 15.4723 11.0494 14.3043 9.6087 14.3043C8.168 14.3043 7 15.4723 7 16.913V17.6087H9.6087V20.2174H7V25.2684C7 30.0841 10.9178 34.0019 15.7335 34.0019V31.3932H18.3422V34.0019H22.6957L22.6957 33.9592C22.6988 33.9595 22.7018 33.9597 22.7049 33.96Z" fill="#FF666E"/>
<path d="M18.3421 31.3931H15.7334V34.0018H18.3421V31.3931Z" fill="#EF4967"/>
<path d="M12.2171 22.6597H9.6084V25.2684H12.2171V22.6597Z" fill="#EF4967"/>
<path d="M25.304 39.1753H22.6953V41.784H25.304V39.1753Z" fill="#FF666E"/>
<path d="M34.8753 36.6105H32.2666V39.2192H34.8753V36.6105Z" fill="#FF666E"/>
<path d="M25.2981 12.225H22.6895V14.8337H25.2981V12.225Z" fill="#EF4967"/>
<path d="M17.4349 12.225H14.8262V14.8337H17.4349V12.225Z" fill="#EF4967"/>
<path d="M17.4349 17.4423H14.8262V20.051H17.4349V17.4423Z" fill="#EF4967"/>
<path d="M20.0442 22.6597H17.4355V25.2684H20.0442V22.6597Z" fill="#EF4967"/>
<path d="M9.6087 17.6087H7V20.2174H9.6087V17.6087Z" fill="#EF4967"/>
<path d="M35.7825 16.913H33.1738V19.5217H35.7825V16.913Z" fill="#FF666E"/>
<path d="M35.7825 22.1304H33.1738V24.7391H35.7825V22.1304Z" fill="#FF666E"/>
<path d="M41.0003 22.1304H38.3916V24.7391H41.0003V22.1304Z" fill="#FF666E"/>
<path d="M43.6087 27.8771H41V30.4858H43.6087V27.8771Z" fill="#FF666E"/>
<path d="M33.1731 27.8771H30.5645V30.4858H33.1731V27.8771Z" fill="#FF666E"/>
<path d="M25.304 34.0018H22.6953V36.6105H25.304V34.0018Z" fill="#FF666E"/>
</svg>
