<svg xmlns="http://www.w3.org/2000/svg" viewBox="0 0 270.08 199.78"><defs><style>.cls-1{fill:#64c3f9;}.cls-2{fill:#b0edff;}.cls-3{fill:#68c2ff;}.cls-4{fill:#4a8bf1;}.cls-5{fill:#4b8cf2;}.cls-6{fill:#fff;}</style></defs><title>Resurs 4</title><g id="Lager_2" data-name="Lager 2"><g id="Lager_1-2" data-name="Lager 1"><polygon class="cls-1" points="52.41 0.05 0 65.92 79.74 65.92 52.41 0.05"/><polygon class="cls-2" points="0 65.92 135.28 199.78 79.74 65.92 0 65.92"/><polygon class="cls-3" points="79.74 65.92 135.28 199.78 191.29 65.92 79.74 65.92"/><polygon class="cls-3" points="191.29 65.92 270.08 65.92 218.85 0.05 191.29 65.92"/><polygon class="cls-4" points="135.28 199.78 270.08 65.92 191.29 65.92 135.28 199.78"/><polygon class="cls-5" points="52.41 0.05 79.74 65.92 135.51 0.05 52.41 0.05"/><polygon class="cls-5" points="135.51 0.05 191.29 65.92 218.85 0.05 135.51 0.05"/><polygon class="cls-2" points="79.74 65.92 191.29 65.92 135.51 0.05 79.74 65.92"/><polygon class="cls-6" points="87.56 71.08 191.29 65.92 90.36 60.9 135.51 0.05 81.14 56.48 52.41 0.05 72.28 60.89 0 65.92 76.07 71.21 135.28 199.78 87.56 71.08"/><line class="cls-6" x1="135.51" y1="0.05" x2="191.29" y2="64.03"/><polygon class="cls-6" points="135.58 0 143.08 7.79 150.24 15.86 164.54 32.02 178.12 48.8 184.91 57.19 191.35 65.87 191.22 65.97 135.45 0.11 135.58 0"/><path class="cls-6" d="M270.08,66q-19.69.76-39.4.38L191.29,66v-.11l39.39-.39q19.71-.39,39.4.39Z"/></g></g></svg>