<svg xmlns="http://www.w3.org/2000/svg" viewBox="0 0 232.93 226.15"><defs><style>.cls-1{fill:#f1e178;}.cls-2{fill:#cfb34b;}.cls-3{fill:#f1cd4a;}.cls-4{fill:#baa043;}.cls-5{fill:#e8c135;}.cls-6{fill:#4a8bf1;}</style></defs><title>Resurs 5</title><g id="Lager_2" data-name="Lager 2"><g id="Lager_1-2" data-name="Lager 1"><polygon class="cls-1" points="118.11 122.7 118.11 122.7 119.25 123.07 119.95 122.1 118.11 122.7"/><polygon class="cls-1" points="118.11 122.7 118.81 123.67 119.25 123.07 118.11 122.7 118.11 122.7"/><polygon class="cls-1" points="119.25 123.07 178.81 142.42 178.8 142.39 232.93 85.39 119.95 122.1 119.25 123.07"/><polygon class="cls-1" points="118.11 124.64 118.81 123.67 118.11 122.7 118.11 124.64"/><polygon class="cls-1" points="118.11 122.7 118.11 122.7 118.11 122.7 118.11 122.7"/><polygon class="cls-2" points="232.93 85.39 232.93 85.39 154.74 74.22 154.74 74.22 119.95 122.1 232.93 85.39"/><rect class="cls-1" x="118.11" y="122.7"/><polygon class="cls-3" points="118.11 122.7 118.11 122.7 118.11 0 82.05 73.07 118.11 122.7 118.11 122.7"/><polygon class="cls-1" points="44.85 225.47 118.11 186.96 118.11 124.64 44.85 225.47"/><polygon class="cls-1" points="119.95 122.1 154.74 74.22 118.11 0 118.11 122.7 119.95 122.1"/><polygon class="cls-4" points="118.11 122.7 118.81 125.21 192.15 226.15 178.81 142.42 118.11 122.7"/><polygon class="cls-3" points="118.11 124.64 118.11 186.96 192.15 224.6 192.15 224.6 118.81 123.67 118.11 124.64"/><polygon class="cls-5" points="82.05 73.07 81.48 74.22 0 84.32 118.11 122.7 82.05 73.07"/><polygon class="cls-3" points="118.11 122.7 0 84.32 56.05 142.86 118.11 122.7 118.11 122.7"/><polygon class="cls-2" points="118.11 122.7 118.11 122.7 56.05 142.86 56.05 142.86 44.85 225.47 44.85 225.47 118.11 124.64 118.11 122.7"/><polygon class="cls-6" points="118.11 122.7 118.11 122.7 118.11 122.7 118.11 122.7 118.11 122.7 118.11 122.7"/><polygon class="cls-5" points="118.11 122.7 118.11 122.7 167.73 138.82 167.73 138.82 217.35 90.45 118.11 122.7 118.11 122.7"/><polygon class="cls-6" points="118.11 122.7 118.11 122.7 118.11 122.7 118.11 122.7"/><polygon class="cls-1" points="217.35 90.45 217.35 90.45 148.78 80.49 118.11 122.7 217.35 90.45"/><polygon class="cls-6" points="118.11 122.7 118.11 122.7 118.11 122.7 118.11 122.7"/><polygon class="cls-3" points="118.11 122.7 118.11 122.7 87.44 80.49 18.87 90.45 18.87 90.45 118.11 122.7 118.11 122.7"/><polygon class="cls-5" points="118.11 122.7 118.11 122.7 118.11 174.87 179.44 207.12 179.44 207.12 118.11 122.7 118.11 122.7"/><polygon class="cls-3" points="56.78 207.12 56.78 207.12 118.11 174.87 118.11 122.7 56.78 207.12"/><polygon class="cls-3" points="118.11 122.7 179.44 207.12 167.73 138.82 118.11 122.7"/><polygon class="cls-1" points="118.11 18.35 87.44 80.49 87.44 80.49 118.11 122.7 118.11 18.35"/><polygon class="cls-1" points="118.11 122.7 118.11 122.7 68.49 138.82 68.49 138.82 56.78 207.12 118.11 122.7 118.11 122.7"/><polygon class="cls-3" points="118.11 122.7 118.11 122.7 148.78 80.49 148.78 80.49 118.11 18.35 118.11 122.7 118.11 122.7"/><polygon class="cls-5" points="18.87 90.45 68.49 138.82 118.11 122.7 18.87 90.45"/></g></g></svg>