<?xml version="1.0" encoding="UTF-8" standalone="no"?> <svg width="120" height="120" viewBox="0 0 120 120" fill="none" xmlns="http://www.w3.org/2000/svg">
<path d="M34.4545 66C25.9192 66 19 59.0808 19 50.5455V50.2857C19 46.8142 21.8142 44 25.2857 44H32.6C34.4778 44 36 45.5222 36 47.4V64.4545C36 65.3081 35.3081 66 34.4545 66Z" fill="#941B1B"/>
<path d="M85.5455 66C94.0808 66 101 59.0808 101 50.5455V50.2857C101 46.8142 98.1858 44 94.7143 44H87.4C85.5222 44 84 45.5222 84 47.4V64.4545C84 65.3081 84.6919 66 85.5455 66Z" fill="#941B1B"/>
<path d="M10 105.2C10 94.5961 18.5961 86 29.2 86H90.8C101.404 86 110 94.5961 110 105.2C110 107.851 107.851 110 105.2 110H14.8C12.149 110 10 107.851 10 105.2Z" fill="#CE3B3B"/>
<path d="M38 70H82L74.2092 94.76C72.2916 100.854 66.6413 105 60.2523 105C53.9622 105 48.376 100.98 46.3783 95.0153L38 70Z" fill="#FFBA33"/>
<path d="M27 58H93L84.8344 78.6878C84.2371 80.2012 83.3975 81.6073 82.3486 82.851L74.0971 92.6355C72.8049 94.1677 70.7226 94.7802 68.8067 94.1916L66.8471 93.5897C66.2979 93.421 65.7026 93.4967 65.213 93.7975L62.6173 95.3921C61.0118 96.3784 58.9882 96.3784 57.3827 95.3921L54.787 93.7975C54.2974 93.4967 53.7021 93.421 53.1529 93.5897L51.1933 94.1916C49.2774 94.7802 47.1951 94.1677 45.9029 92.6355L37.6514 82.851C36.6025 81.6073 35.7629 80.2012 35.1656 78.6878L27 58Z" fill="#941B1B"/>
<path d="M93.3377 28.9221C88.3393 34.4155 80.9082 36.14 76.9967 36.394C76.4456 36.4298 75.9972 36.8767 76.0244 37.4283C76.2897 42.8208 78.744 47.9426 84.5564 50.8196C84.7943 50.9374 85.0709 50.9507 85.318 50.8537C90.5164 48.8126 97.1178 43.2892 101.219 35.1039C104.167 29.2189 102.935 23.0916 101.251 19.5229C100.841 18.6533 99.4434 19.0297 99.1301 19.9389C98.3773 22.1233 96.6994 25.2274 93.3377 28.9221Z" fill="#CE3B3B"/>
<path d="M26.6622 28.9221C31.6606 34.4155 39.0917 36.14 43.0032 36.394C43.5544 36.4298 44.0027 36.8767 43.9756 37.4283C43.7102 42.8208 41.2559 47.9426 35.4436 50.8196C35.2056 50.9374 34.929 50.9507 34.6819 50.8537C29.4835 48.8126 22.8822 43.2892 18.7814 35.1039C15.8331 29.2189 17.0652 23.0916 18.7489 19.5229C19.1592 18.6533 20.5566 19.0297 20.8699 19.9389C21.6226 22.1233 23.3005 25.2274 26.6622 28.9221Z" fill="#CE3B3B"/>
<path d="M92.2105 43.5347C90.1634 27.785 76.7474 16 60.8652 16H59.1348C43.2526 16 29.8366 27.785 27.7895 43.5347L26.4104 60.5798C26.185 63.3668 28.2889 65.7971 31.0795 65.9731L38.0012 66.4096C39.4692 66.5022 40.8219 67.2364 41.6993 68.4169L47.2647 75.904C49.1186 78.3981 52.8781 78.3209 54.628 75.7527C55.4699 74.5171 56.8684 73.7778 58.3635 73.7778H60H61.6365C63.1317 73.7778 64.5301 74.5171 65.372 75.7527C67.1219 78.3209 70.8814 78.3981 72.7353 75.904L78.3007 68.4169C79.1781 67.2364 80.5309 66.5022 81.9988 66.4096L88.9206 65.9731C91.7112 65.7971 93.8151 63.3668 93.5896 60.5798L92.2105 43.5347Z" fill="#CE3B3B"/>
<path d="M53.2389 48.8263C55.052 49.525 56.0383 51.6111 54.7668 53.0803V53.0803C54.0127 53.9517 53.1039 54.6573 52.0922 55.1568C51.0806 55.6563 49.9859 55.9399 48.8707 55.9914C47.7556 56.043 46.6417 55.8615 45.5928 55.4572C44.5439 55.053 43.5804 54.434 42.7575 53.6355C41.9345 52.837 41.2681 51.8747 40.7964 50.8036C40.3246 49.7324 40.0568 48.5733 40.0081 47.3926V47.3926C39.9287 45.4673 42.0062 44.4974 43.8041 45.1903L48.5 47L53.2389 48.8263Z" fill="#FFBA33"/>
<path d="M57.302 58.5493C58.3964 56.2983 61.6036 56.2983 62.698 58.5493L64.8318 62.9383C65.8006 64.9308 64.3494 67.25 62.1338 67.25H57.8661C55.6505 67.25 54.1993 64.9309 55.1681 62.9383L57.302 58.5493Z" fill="#FFBA33"/>
<path d="M66.7611 48.8263C64.948 49.525 63.9617 51.6111 65.2332 53.0803V53.0803C65.9873 53.9517 66.8961 54.6573 67.9078 55.1568C68.9194 55.6563 70.0141 55.9399 71.1293 55.9914C72.2444 56.043 73.3583 55.8615 74.4072 55.4572C75.4561 55.053 76.4196 54.434 77.2425 53.6355C78.0655 52.837 78.7319 51.8747 79.2036 50.8036C79.6754 49.7324 79.9432 48.5733 79.9919 47.3926V47.3926C80.0713 45.4673 77.9938 44.4974 76.1959 45.1903L71.5 47L66.7611 48.8263Z" fill="#FFBA33"/>
<path d="M89.0033 31.488C83.9713 20.8122 73.2294 14 61.4272 14H58.5728C46.7705 14 36.0286 20.8122 30.9967 31.488C30.0569 33.4817 31.4783 35.7831 33.6818 35.8355L42.0526 36.0345H50.44C51.357 36.0345 52.2564 36.2867 53.0397 36.7635L57.4003 39.4176C58.9971 40.3896 61.0028 40.3896 62.5996 39.4176L66.9602 36.7635C67.7436 36.2867 68.6429 36.0345 69.5599 36.0345H77.9473L86.3181 35.8355C88.5216 35.7831 89.943 33.4817 89.0033 31.488Z" fill="#941B1B"/>
</svg>
