<svg xmlns="http://www.w3.org/2000/svg" xmlns:xlink="http://www.w3.org/1999/xlink" viewBox="0 0 164.13 109.86"><defs><style>.cls-1{fill:#5ec4e6;}.cls-2{fill:#78225f;}.cls-3{fill:#b73a8d;}.cls-4{fill:#bb6f00;}.cls-5{fill:url(#Namnlös_övertoning_28);}</style><linearGradient id="Namnlös_övertoning_28" x1="120.14" y1="43.03" x2="221.04" y2="-14.77" gradientTransform="translate(-39.26 25.99) rotate(13.06)" gradientUnits="userSpaceOnUse"><stop offset="0.07" stop-color="#f9b233"/><stop offset="0.73" stop-color="#fcea10"/></linearGradient></defs><title>Resurs 1DD</title><g id="Lager_2" data-name="Lager 2"><g id="Lager_1-2" data-name="Lager 1"><circle class="cls-1" cx="76.81" cy="57.12" r="52.74"/><path class="cls-2" d="M22.08,8.77a1.73,1.73,0,0,0-2.53-.44l-.24.16,0,.29c-.83,4.67-1.44,9.66-2,14.49-1.71,14.1-3.48,28.65-11.11,37.52-.82-8.14,2.87-11.95,4-12.19l.29-.06.15-.26a3,3,0,0,0-.67-3.5c-.62-.73-1.62-1.48-2.42-1.18l-.1,0-.08.07C1.57,48.25-.8,54.11.23,61.19c1,4,4.14,5.72,5,5.86,2.29.89,3.19.93,3.91.56a3.24,3.24,0,0,0,.48-.31A1.61,1.61,0,0,1,10.3,67l.15,0,.12-.1C22.34,56.75,26.58,14.68,22.08,8.77Z"/><path class="cls-2" d="M29.39,43.75a5.16,5.16,0,0,0,2.45,1.69l.21.09c2.36.52,3.63.28,4.53-.18a6.24,6.24,0,0,0,1.07-.72,4.86,4.86,0,0,1,1-.64l.09-.05.08-.07c7.19-6.52,8.61-18.43,5.07-24.72L43.78,19l-.14-.09c-2.62-1.73-3.71-2.44-5.57-1.66l-.46.19c-1.12-.34-2.23.65-2.76,1.12l-.15.13C28.15,25.26,24.33,37.13,29.39,43.75Zm10-12.13c-1.16,4.63-3.63,8.57-6.23,10-1-.79-1-1-1.11-1.36a5.92,5.92,0,0,0-.22-.8c-.64-8.12,2.3-12.86,6.12-18.11a6.32,6.32,0,0,1,.54-.45,1.81,1.81,0,0,0,.49-.47A18,18,0,0,1,39.41,31.62Z"/><path class="cls-2" d="M47.78,36.34a1.08,1.08,0,0,0,.39.5l.12.09a1.69,1.69,0,0,1,.39.34,1.27,1.27,0,0,0,.26.22,2.33,2.33,0,0,0,1.64.87l.39,0,.23-.33a1.47,1.47,0,0,0,.31-1l.19-1.39c.14-1,.17-1.28.21-1.53,2.88-9.86,5.61-19.2,11.67-24.42-.43,2-1,4.07-1.61,6.06-1.68,5.74-3.27,11.16-.3,15.08l.16.16a1.27,1.27,0,0,0,.94.34.87.87,0,0,0,.74.22.71.71,0,0,0,.51-.42l.06-.08a1.77,1.77,0,0,0,1-1.83v-.17a68.78,68.78,0,0,1,2-11.47c1.26-5.42,2.35-10.1.73-12.57a3.8,3.8,0,0,0-2.6-1.65l-.18,0-.17.06c-4.26,1.42-6.66,5.28-8.34,8.9.17-.5.32-.91.44-1.25a2.27,2.27,0,0,0-.09-1.82v-.1l-.14-.19a4.49,4.49,0,0,0-.42-.51.89.89,0,0,0-.4-.73.88.88,0,0,0-.71-.09,1.28,1.28,0,0,0-.92-.12h0a.77.77,0,0,0-.69.29l-.2.2v.14a97.74,97.74,0,0,0-3.39,10l-.16.57c-.67,3.61-1.23,6.24-1.69,8.36-1,4.83-1.38,6.46-.56,9Z"/><path class="cls-2" d="M33.06,63c1.89-1.22,3.38-2.19,4.12-3.55l.07-.22c.08-.5.32-2-.66-2.64-1.19-.72-3,.63-4.63,1.82l-.06,0c.07-.42.15-.91.24-1.43,1.16-6.9,1.14-6.93,1-7.23l-.54-.85h0a2,2,0,0,0-.39-.37h0a1.33,1.33,0,0,0-2,.28l-.14.06-.1.25a45.65,45.65,0,0,0-2.65,10.23c-.15.87-.29,1.68-.44,2.38C25,63,24.19,63.56,23.56,64c-.42.3-.77.55-1.47,1a2.34,2.34,0,0,0-.86,2.25,1.71,1.71,0,0,0,1.2,1.33,4.29,4.29,0,0,0,3.51-1.14q-.32,2-.63,3.93c-.71,4.41-1.39,8.57-1.68,11.78l0,.24a6.07,6.07,0,0,0,2.14,3.34,1.45,1.45,0,0,0,1.77.41l.07,0a2.29,2.29,0,0,0,1-2c.47-7.81,1.43-14.84,2.32-20.71C31.67,63.89,32.39,63.42,33.06,63Z"/><path class="cls-2" d="M50.44,60.39l0-.1c.21-5.06-1.45-6.09-3.18-6.71a3.83,3.83,0,0,1-.45-.18l-.16-.07H46.5c-8.28.37-10.44,8.75-11.38,12.43l0,.14a1.31,1.31,0,0,0,.33,1,.93.93,0,0,0,.76.22,1.17,1.17,0,0,0,1.58-.6l.09-.2c1.18-4.47,3.79-7.91,5.76-9A2.48,2.48,0,0,1,45.2,57c1,1,.85,2.37.59,3.56a4.27,4.27,0,0,0-.1.59c-.24,1-.35,1.37-.42,1.61,0,0,0,0,0,.05A15.73,15.73,0,0,0,35,72.09c-1.32,3-1.56,5.85-.64,7.4a3.41,3.41,0,0,0,4.12,1.92l.19,0,.15-.14a20,20,0,0,0,4-5l.12.28.05.07a1.93,1.93,0,0,0,1.48.89,1.15,1.15,0,0,0,.7-.3,1,1,0,0,0,.37,0l.19,0,.15-.11a1.61,1.61,0,0,0,.72-1.17l.63-2.23c.55-2,1-3.5,1.2-4.23a56.62,56.62,0,0,0,1.9-8.5C50.39,60.7,50.42,60.52,50.44,60.39ZM43.62,67.3C41,72.87,39.41,74.82,38.06,76a7.86,7.86,0,0,1,1.8-4.3,14,14,0,0,0,.87-1.35A19.68,19.68,0,0,1,43.62,67.3Z"/><path class="cls-2" d="M64.5,55.43a4.47,4.47,0,0,0-2.57-.64,32.8,32.8,0,0,0-5.61,1.38l-.69.23a6.4,6.4,0,0,1,1-1.25,7.29,7.29,0,0,0,.72-.86c2.07-2.41,2.42-2.72,3.24-3.29a1.27,1.27,0,0,0,.26.52l.68,1,.57-.78c3.78-5.07,3.64-6.09,3.17-6.7s-1-.53-1.86-.18C60.58,46,50.77,54.15,51,56.56a1,1,0,0,0,.41.71,4,4,0,0,0,1.77,2.86c1.95,1.18,4.76.17,7-.65.55-.19,1.23-.44,1.68-.58-1.14,3.27-3.55,5.36-5.34,6.92l-.38.33a2.13,2.13,0,0,0-.68-1.56l0-.24-.38-.12a1.8,1.8,0,0,0-1.91.71h0l-.17.15c-2.23,1.83-2.28,3.6-2.12,4.48a3.71,3.71,0,0,0,2.52,2.8,3.54,3.54,0,0,0,2.72-.19,3.15,3.15,0,0,0,.75-.52c7.56-5.4,9-8,9.49-13.23l0-.23a4.15,4.15,0,0,0-1.54-2.53A2.63,2.63,0,0,1,64.5,55.43Z"/><path class="cls-2" d="M77.6,40.25C79.49,39,81,38.06,81.72,36.7l.07-.22c.08-.51.32-2-.66-2.64-1.19-.72-3,.62-4.63,1.81l-.06.05c.07-.42.15-.9.24-1.41,1.16-6.93,1.15-6.95,1-7.25l-.44-.66a1.41,1.41,0,0,0-.48-.55l0,0a1.35,1.35,0,0,0-2,.28l-.14.06-.1.25a46.41,46.41,0,0,0-2.65,10.24c-.15.87-.29,1.67-.44,2.38-1.93,1.26-2.69,1.8-3.31,2.23-.43.3-.78.54-1.48,1a2.38,2.38,0,0,0-.86,2.26A1.73,1.73,0,0,0,67,45.84a4.29,4.29,0,0,0,3.52-1.15c-.21,1.33-.43,2.64-.63,3.92-.72,4.41-1.4,8.58-1.69,11.79l0,.25A6,6,0,0,0,70.33,64a1.43,1.43,0,0,0,1.77.41l.07,0a2.31,2.31,0,0,0,1-2c.47-7.81,1.43-14.84,2.32-20.71C76.21,41.14,76.93,40.68,77.6,40.25Z"/><path class="cls-2" d="M86.32,28.42h.16a2.7,2.7,0,0,0,1.35-.31,4.38,4.38,0,0,0,.89-.64l.11-.1.17-.09.1-.17a14.94,14.94,0,0,0,1.74-4.37h0a3.69,3.69,0,0,0-1.37-3.91l-.14-.06a2.61,2.61,0,0,0-2,.2l-.19,0-.14.13A12,12,0,0,0,83.89,24l-.09.24,0,.21a4.5,4.5,0,0,0,2.42,3.91Z"/><path class="cls-2" d="M87.13,33.3l-.47-.13c-.09,0-.14,0-.11,0a.86.86,0,0,0-.49-.23,1.15,1.15,0,0,0-1.13.27l-.16.06-.11.14a.82.82,0,0,1-.12.13l-.38.18-.1.29c-1.81,5-3.36,10-4.62,14.82l-.24,1.41a36.49,36.49,0,0,0-.74,5.89A2.69,2.69,0,0,0,80,58.36a2.26,2.26,0,0,0,1.53.81l.42,0,.18-.37a2.28,2.28,0,0,1,.57-.5,2.3,2.3,0,0,0,1.2-1.66c-.17-4.47.88-8.95,1.81-12.89.84-3.6,1.63-7,1.44-9.93Z"/><path class="cls-2" d="M98,31.38a2,2,0,0,0,.69,2,2.49,2.49,0,0,0,2.34.26l.11-.05.09-.09a3,3,0,0,0,1-1.45l.11-.24c.87-3.31-1.2-4.3-2.08-4.72l-.19-.09a6.26,6.26,0,0,0-.91-.26l-.22-.08-.22.08c-5,1.63-8.88,6.31-10.19,12.2-1.12,5-.08,9.77,2.7,12.39l.12.09a2.18,2.18,0,0,0,.85.38l.15.06a5.4,5.4,0,0,0,4.23-.11,6.4,6.4,0,0,0,1.58-1.22,6.17,6.17,0,0,1,.72-.62l.14-.12c4.11-4.64,7.21-11.59,5.08-14.15l-.52-.64-.54.63a29.75,29.75,0,0,0-2.94,5c-1.16,2.29-2.49,4.85-3.56,5.37l-.11,0-.09.08a2.41,2.41,0,0,1-2.77.63c-1.18-3.08-.85-7.14.89-10.89a13.29,13.29,0,0,1,3.77-5h0A1.7,1.7,0,0,0,98,31.38Z"/><path class="cls-3" d="M24.44,5.43A1.72,1.72,0,0,0,21.92,5l-.25.16-.05.29c-.83,4.67-1.44,9.66-2,14.49C17.89,34,16.13,48.59,8.49,57.45c-.82-8.14,2.88-11.94,4-12.18l.3-.07.15-.26a3,3,0,0,0-.67-3.49c-.62-.73-1.63-1.48-2.42-1.18l-.1,0-.09.06c-5.68,4.55-8,10.4-7,17.49a8.14,8.14,0,0,0,5,5.86c2.29.88,3.19.92,3.91.56A3.34,3.34,0,0,0,12,64a1.82,1.82,0,0,1,.65-.35l.15,0,.12-.1C24.7,53.42,28.94,11.35,24.44,5.43Z"/><path class="cls-3" d="M31.75,40.42a5.43,5.43,0,0,0,2.45,1.69l.21.09c2.36.52,3.64.27,4.53-.19A6.85,6.85,0,0,0,40,41.3a5.21,5.21,0,0,1,1-.65l.1,0,.08-.07c7.19-6.53,8.6-18.43,5.06-24.72l-.08-.15L46,15.58c-2.63-1.72-3.71-2.44-5.58-1.66l-.46.19c-1.12-.34-2.23.65-2.76,1.13l-.15.13C30.51,21.93,26.7,33.8,31.75,40.42Zm10-12.13c-1.16,4.62-3.63,8.57-6.22,10-1-.8-1-1-1.12-1.37a3.94,3.94,0,0,0-.22-.8C33.57,28,36.51,23.28,40.33,18a5.31,5.31,0,0,1,.55-.46,2.1,2.1,0,0,0,.49-.46A18,18,0,0,1,41.77,28.29Z"/><path class="cls-3" d="M50.14,33a1.11,1.11,0,0,0,.39.49l.12.09a3,3,0,0,1,.4.34.77.77,0,0,0,.26.22,2.36,2.36,0,0,0,1.63.88l.4,0,.22-.33a1.51,1.51,0,0,0,.32-1l.18-1.38c.14-1,.17-1.29.22-1.54C57.16,20.93,59.89,11.58,66,6.37c-.43,2-1,4.07-1.61,6.05-1.69,5.74-3.28,11.17-.31,15.09l.16.15a1.24,1.24,0,0,0,.94.34.92.92,0,0,0,.75.23.7.7,0,0,0,.51-.43l.06-.08a1.77,1.77,0,0,0,1-1.82l0-.17a69.63,69.63,0,0,1,2-11.47c1.26-5.42,2.35-10.11.74-12.58A3.83,3.83,0,0,0,67.58,0L67.4,0l-.17.06C63,1.47,60.58,5.34,58.9,9c.16-.49.31-.91.43-1.24a2.22,2.22,0,0,0-.09-1.83V5.79l-.13-.2a3.31,3.31,0,0,0-.43-.5.88.88,0,0,0-.4-.73.82.82,0,0,0-.7-.09,1.37,1.37,0,0,0-.93-.13h0a.81.81,0,0,0-.69.29l-.19.21v.13a94,94,0,0,0-3.38,10l-.16.56c-.68,3.61-1.24,6.25-1.69,8.37-1,4.83-1.39,6.46-.57,9Z"/><path class="cls-3" d="M35.42,59.65c1.89-1.22,3.38-2.18,4.12-3.54l.07-.22c.08-.51.32-2-.66-2.64-1.19-.72-3,.62-4.62,1.81l-.06,0c.07-.43.15-.91.24-1.43,1.15-6.91,1.14-6.93,1-7.24L35,45.6h0a1.92,1.92,0,0,0-.38-.37l0,0a1.35,1.35,0,0,0-2,.28l-.14.06-.1.25A46.34,46.34,0,0,0,29.68,56c-.15.88-.29,1.68-.43,2.39-1.94,1.26-2.7,1.8-3.32,2.23l-1.47,1a2.34,2.34,0,0,0-.87,2.25,1.73,1.73,0,0,0,1.2,1.34,4.28,4.28,0,0,0,3.52-1.15c-.21,1.33-.43,2.65-.63,3.93C27,72.44,26.28,76.6,26,79.81l0,.25a5.87,5.87,0,0,0,2.14,3.33,1.41,1.41,0,0,0,1.76.41l.07,0a2.33,2.33,0,0,0,1-2c.46-7.8,1.42-14.83,2.31-20.7C34,60.55,34.75,60.09,35.42,59.65Z"/><path class="cls-3" d="M52.81,57.06V57c.22-5.06-1.45-6.09-3.18-6.71l-.45-.17L49,50h-.18c-8.28.38-10.43,8.76-11.38,12.43l0,.14a1.31,1.31,0,0,0,.33,1,.91.91,0,0,0,.77.22,1.15,1.15,0,0,0,1.57-.6l.09-.19C41.4,58.55,44,55.11,46,54a2.51,2.51,0,0,1,1.59-.37c1,1,.84,2.38.59,3.56a3.44,3.44,0,0,0-.1.59c-.24,1-.36,1.37-.42,1.62,0,0,0,0,0,0a15.78,15.78,0,0,0-10.26,9.28c-1.32,3-1.56,5.86-.63,7.4a3.38,3.38,0,0,0,4.11,1.92l.2,0,.14-.14a20.53,20.53,0,0,0,4-5l.11.27.06.08a1.9,1.9,0,0,0,1.47.88,1.15,1.15,0,0,0,.7-.29,1.1,1.1,0,0,0,.38,0l.18,0,.15-.11A1.64,1.64,0,0,0,49,72.55l.63-2.22c.56-2,1-3.5,1.21-4.23a57.17,57.17,0,0,0,1.9-8.5C52.76,57.36,52.78,57.19,52.81,57.06ZM46,64c-2.67,5.58-4.2,7.53-5.56,8.74a8,8,0,0,1,1.8-4.31,13.27,13.27,0,0,0,.87-1.34A19.86,19.86,0,0,1,46,64Z"/><path class="cls-3" d="M66.86,52.1a4.36,4.36,0,0,0-2.56-.65,33,33,0,0,0-5.61,1.39l-.69.22a6.32,6.32,0,0,1,1-1.25,6.63,6.63,0,0,0,.71-.86c2.08-2.4,2.42-2.72,3.24-3.28a1.37,1.37,0,0,0,.27.52l.67,1,.58-.77c3.78-5.07,3.63-6.09,3.16-6.7s-1-.53-1.86-.18C63,42.65,53.13,50.81,53.4,53.22a1,1,0,0,0,.4.72,4,4,0,0,0,1.77,2.85c2,1.18,4.76.17,7-.64.55-.2,1.23-.44,1.69-.58-1.15,3.26-3.55,5.35-5.34,6.91l-.38.34a2.22,2.22,0,0,0-.68-1.57l0-.23-.38-.13a1.83,1.83,0,0,0-1.92.72h0l-.18.14c-2.23,1.84-2.28,3.6-2.11,4.49A3.68,3.68,0,0,0,55.74,69a3.57,3.57,0,0,0,2.73-.18,3.19,3.19,0,0,0,.74-.52c7.56-5.4,9-8,9.49-13.24v-.23a4.15,4.15,0,0,0-1.55-2.52Z"/><path class="cls-3" d="M80,36.91c1.89-1.22,3.39-2.19,4.12-3.55l.07-.22c.08-.5.32-2-.66-2.64-1.19-.72-3,.63-4.62,1.82l-.06,0c.07-.41.15-.89.23-1.4,1.16-6.93,1.15-7,1-7.26L79.58,23a1.3,1.3,0,0,0-.48-.54l0,0a1.36,1.36,0,0,0-2,.28l-.13.06-.11.25A46.2,46.2,0,0,0,74.22,33.3c-.15.88-.29,1.68-.43,2.38-1.93,1.27-2.7,1.8-3.32,2.24l-1.47,1a2.37,2.37,0,0,0-.87,2.25,1.73,1.73,0,0,0,1.2,1.33,4.28,4.28,0,0,0,3.52-1.14c-.21,1.32-.42,2.63-.63,3.92-.72,4.41-1.4,8.58-1.68,11.79l0,.24a5.93,5.93,0,0,0,2.14,3.34,1.43,1.43,0,0,0,1.76.41l.07,0a2.27,2.27,0,0,0,1-2c.46-7.81,1.42-14.83,2.31-20.71C78.57,37.81,79.29,37.34,80,36.91Z"/><path class="cls-3" d="M88.68,25.09h.17a2.74,2.74,0,0,0,1.34-.3,4.2,4.2,0,0,0,.9-.65l.11-.1.16-.09.1-.16a14.34,14.34,0,0,0,1.74-4.38h0a3.69,3.69,0,0,0-1.38-3.91l-.13-.06a2.68,2.68,0,0,0-2,.21l-.18,0-.14.13a11.84,11.84,0,0,0-3.16,4.84l-.09.23,0,.21A4.52,4.52,0,0,0,88.54,25Z"/><path class="cls-3" d="M89.5,30,89,29.84c-.09,0-.14,0-.11,0a.86.86,0,0,0-.49-.23,1.17,1.17,0,0,0-1.13.27l-.16.07-.11.13-.12.14-.37.17-.11.3c-1.81,5-3.36,10-4.62,14.82l-.24,1.4a36.32,36.32,0,0,0-.73,5.89A2.64,2.64,0,0,0,82.37,55a2.28,2.28,0,0,0,1.54.81h.41l.19-.38a2,2,0,0,1,.57-.49,2.36,2.36,0,0,0,1.19-1.66c-.17-4.48.88-8.95,1.81-12.9.84-3.59,1.64-7,1.45-9.93Z"/><path class="cls-3" d="M100.37,28a2,2,0,0,0,.69,2,2.51,2.51,0,0,0,2.35.26l.11-.05.08-.08a2.85,2.85,0,0,0,1-1.46l.11-.23c.87-3.32-1.19-4.3-2.07-4.72l-.2-.09a5.62,5.62,0,0,0-.91-.26l-.22-.08-.22.07c-5,1.64-8.88,6.32-10.19,12.21-1.12,5-.08,9.76,2.7,12.38l.12.09a2.31,2.31,0,0,0,.86.39l.14.06a5.49,5.49,0,0,0,4.23-.11,6.66,6.66,0,0,0,1.59-1.22,4.68,4.68,0,0,1,.71-.62l.15-.13c4.11-4.63,7.2-11.58,5.08-14.15l-.53-.64-.53.64a28.1,28.1,0,0,0-2.94,5c-1.17,2.29-2.5,4.85-3.57,5.36l-.11.05-.09.08a2.42,2.42,0,0,1-2.77.64c-1.18-3.09-.85-7.14.9-10.89a13.5,13.5,0,0,1,3.76-5h0A1.34,1.34,0,0,0,100.37,28Z"/><path class="cls-4" d="M76.12,67l.2,10.25a6,6,0,0,0-1.8-.36,2.83,2.83,0,0,0-2.07.94A3,3,0,0,0,71.62,80a6.07,6.07,0,0,0,1,2.73l.85,1.4a14.93,14.93,0,0,1,2.35,7.4,11.92,11.92,0,0,1-3.56,9,12.57,12.57,0,0,1-9,3.81,11.94,11.94,0,0,1-5.13-1.09l-.2-10.41a5.17,5.17,0,0,0,2.73.92,3.41,3.41,0,0,0,2.32-.85,2.56,2.56,0,0,0,.9-2,10.33,10.33,0,0,0-1.57-3.42A17,17,0,0,1,59.71,79a12.08,12.08,0,0,1,3.46-8.84,11.74,11.74,0,0,1,8.59-3.84A13,13,0,0,1,76.12,67Z"/><path class="cls-4" d="M90.68,66.87l.68,36L81.5,103l-.68-36Z"/><path class="cls-4" d="M109.09,75.67a13,13,0,0,1,9.66,3.84,13.65,13.65,0,0,1,.31,19.34,13.9,13.9,0,0,1-19.54.35,13.61,13.61,0,0,1-.37-19.4A13.83,13.83,0,0,1,109.09,75.67ZM109,85.4a3.62,3.62,0,0,0-2.67,1.2,4.09,4.09,0,0,0,.12,5.6,3.7,3.7,0,0,0,5.38-.1,4.07,4.07,0,0,0-.09-5.6A3.66,3.66,0,0,0,109,85.4Z"/><path class="cls-4" d="M135.38,66l.19,10.07L140,76l.2,10.41-4.43.08c0,2.1.4,3.53,1.07,4.31s1.89,1.15,3.65,1.12l.19,10.36-1.13,0a13.27,13.27,0,0,1-6.34-1.43,12.81,12.81,0,0,1-4.84-4.13,16,16,0,0,1-2.44-9l-.41-21.59Z"/><path class="cls-4" d="M161.33,75.6,161.52,86a4,4,0,0,0-2.84.83,5.11,5.11,0,0,0-.93,3.09q-.54,7.64-5.7,10.87c-1.83,1.12-4.44,1.72-7.83,1.78l-1.37,0-.2-10.44h.45a4.77,4.77,0,0,0,3.37-1,5.3,5.3,0,0,0,1.11-3.49,24.49,24.49,0,0,1,.64-5.68,8.24,8.24,0,0,1,2.14-3.29q2.85-2.86,8-3Z"/><path class="cls-5" d="M77.13,74.48a6,6,0,0,1,1.8.36l-.2-10.26a13.3,13.3,0,0,0-4.36-.65,11.71,11.71,0,0,0-8.59,3.84,12.07,12.07,0,0,0-3.46,8.83A16.93,16.93,0,0,0,64.88,85a10.43,10.43,0,0,1,1.57,3.43,2.57,2.57,0,0,1-.9,2,3.48,3.48,0,0,1-2.32.85,5.26,5.26,0,0,1-2.73-.92l.19,10.41a12,12,0,0,0,5.14,1.09,12.57,12.57,0,0,0,9-3.81,11.93,11.93,0,0,0,3.56-9,14.89,14.89,0,0,0-2.35-7.39l-.85-1.41a5.88,5.88,0,0,1-1-2.72,3,3,0,0,1,.83-2.18A2.78,2.78,0,0,1,77.13,74.48Zm6.3-9.83.68,36,9.86-.18-.68-36Zm28.27,8.62a13.79,13.79,0,0,0-9.94,4.13,13.61,13.61,0,0,0,.37,19.4,13.91,13.91,0,0,0,19.54-.36,13.66,13.66,0,0,0-10-23.17Zm2.75,16.43a3.65,3.65,0,0,1-2.68,1.21,3.59,3.59,0,0,1-2.7-1.11,4.09,4.09,0,0,1-.12-5.6,3.76,3.76,0,0,1,5.41-.1,4.07,4.07,0,0,1,.09,5.6Zm25-1.29c-.67-.78-1-2.22-1.07-4.31l4.43-.08-.2-10.41-4.43.08L138,63.62l-9.86.19.41,21.59a16,16,0,0,0,2.44,9,12.81,12.81,0,0,0,4.84,4.13,13.51,13.51,0,0,0,6.34,1.43c.25,0,.62,0,1.13-.05l-.19-10.36C141.34,89.56,140.12,89.18,139.45,88.41ZM163.94,73.2l-3,.06q-5.15.09-8,3a8.17,8.17,0,0,0-2.14,3.29,24.49,24.49,0,0,0-.64,5.68,5.27,5.27,0,0,1-1.11,3.48,4.72,4.72,0,0,1-3.37,1.06h-.45l.2,10.43,1.37,0q5.08-.1,7.83-1.78,5.16-3.24,5.7-10.87a5.11,5.11,0,0,1,.93-3.09,4,4,0,0,1,2.84-.83Z"/></g></g></svg>